<svg version="1" xmlns="http://www.w3.org/2000/svg" width="3324" height="3324" viewBox="0 0 2493.000000 2493.000000"><path d="M43.9 1.2c-.1 1.7-.1 2488.9 0 2490.5.1.9 114.5 1.2 518.9 1 285.3-.2 519.8-.6 521.2-.9 1.4-.4 5.9-.9 10-1.2 4.1-.4 8.9-.8 10.5-1.1 1.7-.2 6.4-.9 10.5-1.4 7.1-1 9.3-1.4 15-2.6 1.4-.3 3.5-.7 4.6-.9 4.2-.8 18-4.7 19-5.4.9-.6 14.9-22.2 57.3-88.7 4.6-7.2 12.5-19.5 17.6-27.5 5.2-8 12.2-19 15.6-24.5 3.5-5.5 6.6-10.1 7.1-10.3.4-.2.8-.8.8-1.3s3.3-5.9 7.3-12.1c4-6.2 13.1-20.4 20.3-31.6 28.8-45.2 42.1-66 45.5-71.2 3.3-5 3.5-5.6 2-7-.9-.8-9.9-8.6-20.1-17.4-10.2-8.7-19.8-17-21.5-18.5-1.6-1.4-7.3-6.2-12.5-10.6-5.2-4.4-9.9-8.5-10.5-9.1-.5-.6-5.5-4.8-11-9.5-5.5-4.6-10.2-8.6-10.5-8.9-.3-.4-9.9-8.7-21.5-18.6-23.1-19.7-26.2-22.4-27.9-23.9-.6-.6-4-3.5-7.6-6.5-3.5-3-7-6-7.6-6.5-2.1-1.9-13.2-11.5-38.4-33-14-12-27.3-23.5-29.6-25.4-2.2-2-5.3-4.7-7-6.1-10.5-9-45.5-39-48.2-41.5l-3.3-2.9-177.7-.1H694.5V530l-17-17c-9.3-9.4-69.5-69.5-133.7-133.7L427.2 262.6l130.9-130.9C630.1 59.7 689 .6 689 .4c0-.2-145.1-.4-322.5-.4C109.2 0 44 .3 43.9 1.2zM928.8 130.9C856.8 203 798 262.3 798 262.7c0 .4 60 60.7 133.3 133.9l133.2 133.2 43.5.6c23.9.3 45.1.7 47 1 1.9.2 8 .7 13.5 1.1 5.5.4 10.2.8 10.5 1 .3.2 4.3.6 9 1s9.2.9 10.1 1c.9.2 4 .6 7 1 19.6 2.3 59.6 10.2 83.4 16.5 16.3 4.3 47.7 14.2 54 17 1.1.4 5.4 2.1 9.5 3.6 24.4 8.9 62.3 26.9 87.8 41.6 41.3 23.9 66 40.9 99.1 68.3 15.6 12.8 46.1 42.6 60.1 58.5 4.1 4.7 7.7 8.7 8 9 3.6 3.3 23.8 29.3 36.1 46.5 7 9.8 24.9 37.2 24.9 38.1 0 .3 1 2 2.3 3.7 1.2 1.8 2.7 4.1 3.3 5.2.6 1.1 3.3 6 6.1 11 10.6 19.1 14 25.6 22.4 42.5 12.5 25.3 22.9 49.5 30.6 71.5 1.3 3.8 2.8 7.9 3.3 9 3.6 8.5 19.2 62.7 21.6 75 .2 1.1.6 3.2 1 4.7.3 1.5.6 3.1.6 3.5 0 .5.4 1.8.9 2.9.4 1.2 1 3.9 1.4 6.1.7 4.9 1.3 8 1.9 10.1.3.9.8 3.7 1.1 6.2.3 2.5.8 5.2 1 6 .2.8.6 2.8.9 4.5.3 1.6.7 4.3 1 6 .3 1.6.7 4.3 1 6 1.7 10.2 2.9 18.7 4.1 29.5.7 5.8 1.2 10.6 2 16.7.2 2.1.7 7.4 1 11.8.4 4.4.8 9.6 1 11.5 2.7 25.6 2.7 119.5 0 146-.2 1.9-.6 7.6-1 12.5-.3 5-.7 10.2-.9 11.5-.3 1.4-.7 5.6-1.1 9.5-.4 3.8-.9 8.3-1.1 10-.2 1.6-.6 5.1-.9 7.6-.3 2.5-.7 5.5-.9 6.6-.3 1.1-.7 4.4-1.1 7.4-1 8.2-5.3 33.2-7.6 44.4-1.2 5.5-2.3 11.1-2.6 12.5-.2 1.4-.9 4.5-1.4 7-.6 2.5-1.2 5.2-1.4 6-.8 4.1-7.7 30.4-9.5 36.5-1.2 3.8-2.8 9.4-3.6 12.4-5 18.6-22.7 66.1-32.9 88.6-10.2 22.6-30 60.4-40.4 77.3-5.4 8.8-26.8 40.9-31.1 46.7-10.9 14.6-26.7 34.4-34.5 43.1-26.2 29.4-52.8 54.1-86 79.9-33.3 25.8-81.7 53.8-122.5 71-7.4 3.1-14.4 6-15.5 6.5-2.2 1-17.3 6.6-19.3 7.2-2.1.6 8.2 10.6 43.3 41.8 2.7 2.5 5.2 4.7 5.5 5 .3.3 5.9 5.2 12.5 11s12.2 10.7 12.5 11c.3.3 3.9 3.4 8 7s8.2 7.2 9 8c.8.8 4.4 4 8 7 3.6 3 6.7 5.7 7 6 .3.3 3.9 3.4 8 7s7.7 6.7 8 7c.5.6 24.9 21.7 38 32.9 4.1 3.5 10.2 8.8 13.5 11.7 10.5 9.1 31.8 27.6 37.5 32.5 3 2.5 10.6 9 16.8 14.3 6.1 5.4 11.2 9.9 11.2 10.2 0 .3-2.1 4.5-4.6 9.2-8.3 15.6-20.6 38.6-24.4 45.7-2.1 3.8-5.9 11-8.5 16-2.6 4.9-6 11.2-7.5 14-1.5 2.7-4.9 9-7.5 14-2.6 4.9-6.5 12.1-8.6 16-2 3.8-5.3 9.9-7.1 13.5-4.8 8.9-19.7 36.9-27.8 52-3.7 6.9-9.1 17-12 22.5-7.3 13.8-11.7 22-19.2 36-3.6 6.6-7.2 13.3-8 15-.8 1.6-3 5.7-4.8 9-9.7 17.7-30 56.1-30 56.7 0 .2 3.9-.4 8.8-1.4 4.8-.9 10.1-2 11.7-2.3 1.7-.4 7.1-1.5 12-2.7 5-1.1 10.8-2.4 13-2.9 2.2-.4 10.8-2.4 19-4.4 8.3-2 15.7-3.8 16.5-4 7.8-1.7 55.1-15 70-19.7 15.9-5 64.3-21.3 72.5-24.5 5-1.9 12.6-4.8 17-6.5 52.9-20.2 106.3-45 167.5-78 4.1-2.3 8-4.4 8.5-4.8.6-.4 3-1.8 5.5-3.2 4.9-2.7 14.6-8.3 17-9.8.8-.6 6-3.6 11.5-6.8 11.6-6.8 18.2-11 44-27.8 24.8-16.1 65.7-46.1 90.5-66.2 13.6-11.1 32-26.7 38-32.2 1.5-1.4 6.1-5.6 10.2-9.3 26.9-24.2 63.1-61 86.4-87.7 2.1-2.5 4.4-5 4.9-5.6.6-.6 3-3.5 5.5-6.5 2.5-2.9 6.2-7.4 8.4-9.9 44.5-52.5 90-120.4 131.6-196.2 12.1-22.2 34.9-69.5 45.8-95.3 10.1-23.9 17.3-42.5 23.7-60.5 2.1-5.8 4.1-11.4 4.6-12.5 5.2-12.4 24.9-79.1 31.5-106.5 6.2-25.7 7.3-30.5 7.8-33 .3-1.4 1.9-9.3 3.6-17.5 1.7-8.3 3.3-16.1 3.5-17.5.2-1.4 1.5-8.8 2.9-16.5 1.3-7.7 2.7-15.4 2.9-17 .3-1.7 1-5.9 1.6-9.5.6-3.6 1.3-8.3 1.5-10.5.6-4.2 1.1-8 2.6-18.5.9-6.3 1.5-11.2 2.4-19.5.2-2.2.7-6.7 1.1-10 .4-3.3.9-7.6 1.1-9.5.2-1.9.6-5.8.8-8.5.3-2.8.8-8.4 1.1-12.5.3-4.1.7-9.3 1-11.5.2-2.2.7-8.5 1-14 .3-5.5.7-11.8 1-14 .4-3.8 1.3-24.3 2-46.5.5-14.7.5-74.2 0-88-.5-15.7-1.5-38.1-2-46-1.1-17.3-1.6-24.8-2-28-.2-1.9-.6-7.3-.9-12-.4-4.7-.8-10.2-1.1-12.2-.3-2.1-.7-6.3-1-9.3-.2-3.1-.7-7.5-1-9.8-.5-4.2-.7-6-2-17.2-.4-3.3-.9-7.1-1.1-8.5-.2-1.4-.6-5-.9-8-.4-3-.8-6.2-1-7-.3-.8-.7-3.8-1-6.5-.3-2.8-1-7.6-1.6-10.8-.6-3.2-1.2-7-1.4-8.5-1-7.6-1.7-11.6-3-18.2-.3-1.4-.8-4.3-1-6.4-.3-2.1-.7-4.2-.9-4.5-.3-.4-.7-2.7-1.1-5.1-1.4-9.7-9.6-47.6-14.5-67-2.8-11.3-5.3-21.5-5.5-22.6-3.4-16-29.1-96.5-36-112.9-.7-1.7-4.1-10.2-7.5-19-11.4-29.1-25.2-59.9-40-89.5-3.5-6.9-7.4-14.6-8.7-17.3-1.3-2.6-4.5-8.7-7.1-13.5-2.7-4.8-6.8-12.3-9.2-16.7-2.4-4.4-5.4-9.7-6.7-11.8-1.3-2.1-3.3-5.4-4.4-7.3-1-1.9-2.7-4.9-3.7-6.7-6.6-11.5-23.5-38.4-35.7-56.7-11.7-17.5-32.5-47.1-36.2-51.5-.5-.6-2.2-2.8-3.8-5-14-18.9-46.9-58.4-65.3-78.5-19.6-21.2-48.8-50.7-65.1-65.6-3.5-3.3-7.6-7-9.1-8.4-4-3.6-8.5-7.7-17-15-4.1-3.6-7.7-6.7-8-7-.3-.3-4.5-3.9-9.5-8.1-4.9-4.1-9.9-8.2-11-9.1-10.4-8.8-46.8-36.5-59-44.8-2.7-1.9-5.2-3.8-5.5-4.1-1-1.3-40.8-27.6-56-37.1-15.4-9.5-37.6-22.8-48-28.5-3-1.7-9.7-5.4-14.8-8.2-9.3-5.2-37.2-19.7-53.5-27.8-24.5-12.2-58.6-27.4-88.7-39.4-6.9-2.8-14.1-5.7-16-6.4-14.2-5.8-51.1-18.7-76.5-26.8-10.8-3.5-55.4-16.6-58.5-17.2-.8-.2-8.5-2.1-17-4.3-8.5-2.2-22.7-5.7-31.5-7.6-8.8-2-17.8-4.1-20-4.6-2.2-.6-5.1-1.2-6.5-1.4-1.4-.2-4.5-.9-7-1.5-2.5-.5-5.6-1.2-7-1.4-1.4-.3-6.3-1.2-11-2.2-11-2.1-14.9-2.8-36-6.4-22.7-3.9-22.2-3.8-31.5-5.1-4.4-.6-9.1-1.3-10.5-1.5-3.9-.6-10.1-1.4-14.4-2-2.1-.2-5.5-.7-7.5-.9-2-.3-6.1-.8-9.1-1.1-3-.3-6.6-.8-8-1-2.3-.4-5.6-.8-19-2.1-2.5-.2-8.8-.9-14-1.4-5.2-.5-12.9-1.2-17-1.5-4.1-.3-9.5-.8-12-1-2.5-.2-8.8-.7-14-1-5.2-.4-11.5-.8-14-1-2.5-.2-11-.7-19-1-8-.4-17.4-.9-21-1.1-3.6-.2-35.1-.6-70-.9l-63.5-.5-130.7 130.9z"/></svg>