<?xml version="1.0" encoding="UTF-8" standalone="no"?>
<!-- Created with Inkscape (http://www.inkscape.org/) -->

<svg
   width="39.271435mm"
   height="36.056499mm"
   viewBox="0 0 39.271435 36.0565"
   version="1.1"
   id="svg24860"
   inkscape:version="1.1.1 (c3084ef, 2021-09-22)"
   sodipodi:docname="academic.svg"
   xmlns:inkscape="http://www.inkscape.org/namespaces/inkscape"
   xmlns:sodipodi="http://sodipodi.sourceforge.net/DTD/sodipodi-0.dtd"
   xmlns="http://www.w3.org/2000/svg"
   xmlns:svg="http://www.w3.org/2000/svg">
  <sodipodi:namedview
     id="namedview24862"
     pagecolor="#ffffff"
     bordercolor="#666666"
     borderopacity="1.0"
     inkscape:pageshadow="2"
     inkscape:pageopacity="0.0"
     inkscape:pagecheckerboard="0"
     inkscape:document-units="mm"
     showgrid="false"
     inkscape:zoom="3.7293833"
     inkscape:cx="95.324071"
     inkscape:cy="106.58599"
     inkscape:window-width="2560"
     inkscape:window-height="1387"
     inkscape:window-x="0"
     inkscape:window-y="25"
     inkscape:window-maximized="1"
     inkscape:current-layer="layer1" />
  <defs
     id="defs24857" />
  <g
     inkscape:label="Layer 1"
     inkscape:groupmode="layer"
     id="layer1"
     transform="translate(-115.77644,-131.99443)">
    <g
       id="g3166"
       transform="translate(0.55825745,0.36996037)">
      <circle
         cx="136.15746"
         cy="143.23935"
         r="4.6038742"
         fill="#2f2e41"
         id="circle11892-0-0"
         style="stroke-width:0.106899" />
      <rect
         x="134.05951"
         y="146.85252"
         width="1.3986448"
         height="2.5059063"
         fill="#2f2e41"
         id="rect11894-6-7"
         style="stroke-width:0.106899" />
      <rect
         x="136.85677"
         y="146.85252"
         width="1.3986437"
         height="2.5059063"
         fill="#2f2e41"
         id="rect11896-7-6"
         style="stroke-width:0.106899" />
      <ellipse
         cx="135.22502"
         cy="149.38757"
         rx="1.1655397"
         ry="0.43707767"
         fill="#2f2e41"
         id="ellipse11898-0-8"
         style="stroke-width:0.106899" />
      <ellipse
         cx="138.02229"
         cy="149.3293"
         rx="1.1655397"
         ry="0.43707767"
         fill="#2f2e41"
         id="ellipse11900-7-2"
         style="stroke-width:0.106899" />
      <ellipse
         cx="192.01311"
         cy="62.944508"
         rx="2.5540893"
         ry="0.80180472"
         transform="rotate(27.319904)"
         fill="#2f2e41"
         id="ellipse11902-3-3"
         style="stroke-width:0.106899" />
      <ellipse
         cx="-191.47852"
         cy="33.876759"
         rx="0.80180472"
         ry="2.5540893"
         transform="rotate(-122.01337)"
         fill="#2f2e41"
         id="ellipse11904-3-9"
         style="stroke-width:0.106899" />
      <circle
         cx="135.96375"
         cy="142.58693"
         r="1.5734757"
         fill="#ffffff"
         id="circle11906-2-0"
         style="stroke-width:0.106899" />
      <circle
         cx="135.96375"
         cy="142.58693"
         r="0.52449471"
         fill="#3f3d56"
         id="circle11908-1-3"
         style="stroke-width:0.106899" />
      <path
         d="m 138.32432,145.53311 c 0.49034,1.30215 -3.54993,1.65771 -4.04026,0.35558 v 0 0 c -0.20201,-0.53945 -0.19698,-0.82639 1.72012,-0.55014 1.66785,-0.0798 2.11845,-0.34562 2.32045,0.19386 z"
         fill="#ffffff"
         id="path11910-4-8"
         style="stroke-width:0.149143"
         sodipodi:nodetypes="csccccc" />
      <path
         d="m 136.03889,140.21961 a 8.1334734,8.1334734 0 0 1 -2.41218,-0.3685 0.27031988,0.27031988 0 0 1 -0.1873,-0.2563 v -1.87397 a 0.26756295,0.26756295 0 0 1 0.26725,-0.26725 h 4.70358 a 0.26756295,0.26756295 0 0 1 0.26724,0.26725 v 1.87288 a 0.26789647,0.26789647 0 0 1 -0.19016,0.25648 8.4648147,8.4648147 0 0 1 -2.44843,0.36941 z"
         fill="#ffa200"
         id="path11916-0-3"
         style="fill:#ffbe4c;fill-opacity:1;stroke-width:0.106899" />
      <path
         d="m 138.62402,137.72084 v 0.31321 l -2.54527,0.89261 a 0.21546228,0.21546228 0 0 1 -0.14647,-0.002 l -2.43943,-0.91612 v -0.28756 a 0.21442214,0.21442214 0 0 1 0.21381,-0.21391 h 4.70358 a 0.21442214,0.21442214 0 0 1 0.21378,0.2138 z"
         opacity="0.2"
         id="path11918-0-1"
         style="stroke-width:0.106899" />
      <path
         d="m 136.00751,138.56445 a 0.26751376,0.26751376 0 0 1 -0.094,-0.0169 l -3.64539,-1.36882 a 0.26726684,0.26726684 0 0 1 0.007,-0.50308 l 3.42992,-1.17339 a 0.26994146,0.26994146 0 0 1 0.171,-8e-4 l 3.82808,1.27606 a 0.26724866,0.26724866 0 0 1 0.004,0.50573 l -3.61264,1.26621 a 0.26694079,0.26694079 0 0 1 -0.0884,0.0149 z"
         fill="#ffa200"
         id="path11920-8-0"
         style="fill:#ffbe4c;fill-opacity:1;stroke-width:0.106899" />
      <polygon
         points="154.654,182.5 154.654,183.5 125.154,183.5 125.154,197 124.154,197 124.154,182.5 "
         fill="#3f3d56"
         id="polygon11922-7-0"
         transform="matrix(0.10689946,0,0,0.10689946,119.31224,117.40993)" />
      <circle
         cx="132.63766"
         cy="138.57605"
         r="0.21379891"
         fill="#3f3d56"
         id="circle11924-3-8"
         style="stroke-width:0.106899" />
      <g
         id="g16731"
         transform="matrix(0.5668235,0,0,0.5668235,-108.25797,187.30479)">
        <path
           d="m 404.7868,-70.075665 4.68312,-4.233334 c 0,0 18.15835,-1.190625 18.90977,4.982105 0,0 6.43731,-7.318375 19.97604,-5.688542 l 5.72823,4.561417 -15.83266,6.947958 -15.38553,5.336646 -11.3321,-5.072063 z"
           opacity="0.1"
           id="path12678-9"
           style="stroke-width:0.264583" />
        <path
           d="m 404.7868,-69.811082 4.68312,-4.233333 c 0,0 18.15835,-1.190625 18.90977,4.982104 0,0 6.43731,-7.318375 19.97604,-5.688542 l 5.72823,4.561417 -15.83266,6.947958 -15.38553,5.336646 -11.3321,-5.072063 z"
           fill="#d5d6db"
           id="path12680-3"
           style="stroke-width:0.264583" />
        <polygon
           points="437.38,204.83 445.21,298.5 528.21,302.67 524.61,209.4 524.54,207.83 "
           opacity="0.1"
           id="polygon12682-9"
           transform="matrix(0.26458333,0,0,0.26458333,286.99165,-123.47652)" />
        <polygon
           points="437.38,202.83 445.21,296.5 528.21,300.67 524.61,207.4 524.54,205.83 "
           fill="#ffa200"
           id="polygon12684-1"
           transform="matrix(0.26458333,0,0,0.26458333,286.99165,-123.47652)" />
        <polygon
           points="549.71,215.67 549.71,309.76 633.38,297.67 635.33,202.83 "
           opacity="0.1"
           id="polygon12686-0"
           transform="matrix(0.26458333,0,0,0.26458333,286.99165,-123.47652)" />
        <polygon
           points="549.71,213.67 549.71,307.76 633.38,295.67 635.33,200.83 "
           fill="#ffa200"
           id="polygon12688-4"
           transform="matrix(0.26458333,0,0,0.26458333,286.99165,-123.47652)" />
        <polygon
           points="568.89,228.93 569.9,244.69 615.11,239.75 615.14,223.79 "
           fill="#ffffff"
           opacity="0.3"
           id="polygon12690-9"
           transform="matrix(0.26458333,0,0,0.26458333,286.99165,-123.47652)" />
        <path
           d="m 432.43575,-66.416478 a 7.6199999,7.6199999 0 0 1 -6.64368,-1.656292 l 0.95514,24.675042 c 0,0 2.24896,2.434166 5.68854,1.878541 z"
           opacity="0.1"
           id="path12694-0"
           style="stroke-width:0.264583" />
        <path
           d="m 432.43575,-66.945645 a 7.6199999,7.6199999 0 0 1 -6.64368,-1.656291 l 0.95514,24.675041 c 0,0 2.24896,2.434167 5.68854,1.878542 z"
           fill="#ffa200"
           id="path12696-0"
           style="stroke-width:0.264583" />
        <path
           d="m 432.43575,-66.945645 a 7.6199999,7.6199999 0 0 1 -6.64368,-1.656291 l 0.95514,24.675041 c 0,0 2.24896,2.434167 5.68854,1.878542 z"
           opacity="0.1"
           id="path12698-0"
           style="stroke-width:0.264583" />
        <path
           d="m 432.96492,-69.726415 c 0,0 9.21544,-2.817813 11.61785,-2.420938"
           opacity="0.1"
           id="path12700-3"
           style="stroke-width:0.264583" />
        <path
           d="m 422.65675,-70.956728 c 0,0 -8.93233,-2.116666 -10.42458,-1.516062"
           opacity="0.1"
           id="path12702-2"
           style="stroke-width:0.264583" />
        <path
           d="m 438.77517,-69.374519 c 0,0 6.16215,-2.259542 8.38994,-1.185334"
           opacity="0.1"
           id="path12704-8"
           style="stroke-width:0.264583" />
      </g>
      <g
         id="g2788"
         transform="matrix(0.33780349,0.0143682,0.03073187,0.34648864,74.75513,101.27813)">
        <path
           style="font-style:normal;font-variant:normal;font-weight:bold;font-stretch:normal;font-size:192px;line-height:25px;font-family:Montserrat;-inkscape-font-specification:'Montserrat Bold';text-align:start;letter-spacing:0px;word-spacing:0px;writing-mode:lr-tb;text-anchor:start;display:inline;opacity:1;fill:#333333;fill-opacity:1;stroke:none;stroke-width:0.197665px;stroke-linecap:butt;stroke-linejoin:miter;stroke-opacity:1"
           d="m 137.96245,136.64253 -2.80284,2.80282 2.85226,2.85226 h 0.41579 c 1.39156,0 2.6314,0.32895 3.71935,0.98678 1.08796,0.63254 1.9354,1.5305 2.54262,2.69436 0.63254,1.16385 0.94896,2.50472 0.94896,4.02279 0,1.49277 -0.29097,2.82112 -0.87289,3.98497 -0.58193,1.16386 -1.39178,2.0622 -2.42913,2.69474 -0.3714,0.22646 -0.76294,0.41056 -1.17326,0.55594 0.28633,0.30451 2.56734,2.25925 2.56734,2.25925 l -1.82454,3.41822 c 1.40835,-0.27502 2.71584,-0.72058 3.92204,-1.33771 2.2012,-1.11326 3.89648,-2.68166 5.08563,-4.70576 1.21447,-2.02409 1.82185,-4.3393 1.82185,-6.94532 0,-2.60601 -0.59486,-4.90829 -1.78401,-6.90709 -1.18915,-2.0241 -2.85898,-3.59289 -5.00959,-4.70614 -2.12529,-1.11325 -4.57951,-1.67011 -7.36265,-1.67011 z"
           id="path1711-6-2-1-97"
           inkscape:connector-curvature="0"
           sodipodi:nodetypes="cccsccssscccccsccsc"
           inkscape:export-xdpi="299.96201"
           inkscape:export-ydpi="299.96201" />
        <path
           style="font-style:normal;font-variant:normal;font-weight:bold;font-stretch:normal;font-size:192px;line-height:25px;font-family:Montserrat;-inkscape-font-specification:'Montserrat Bold';text-align:start;letter-spacing:0px;word-spacing:0px;writing-mode:lr-tb;text-anchor:start;opacity:1;fill:#ffffff;fill-opacity:1;stroke:none;stroke-width:0.197665px;stroke-linecap:butt;stroke-linejoin:miter;stroke-opacity:1"
           d="m 127.11788,136.64253 v 26.60453 c 0,0 9.88505,0.003 10.69671,0 0.81166,-0.003 1.1556,-0.14825 1.1556,-0.14825 l 1.86117,-2.91017 -2.97846,-2.55845 h -3.78971 v -15.33258 l -1.32266,-1.32304 -1.5292,-1.52922 -8.8e-4,-3.7e-4 c 2.5e-4,1.9e-4 1.40783,-1.40753 2.80284,-2.80246 z"
           id="path1711-6-2-1-9-7"
           inkscape:connector-curvature="0"
           sodipodi:nodetypes="cczcccccccccc"
           inkscape:export-xdpi="299.96201"
           inkscape:export-ydpi="299.96201" />
      </g>
    </g>
  </g>
</svg>
