<?xml version="1.0" encoding="UTF-8" standalone="no"?>
<!-- Generator: Adobe Illustrator 23.0.4, SVG Export Plug-In . SVG Version: 6.00 Build 0)  -->

<svg
   version="1.1"
   id="Layer_1"
   x="0px"
   y="0px"
   viewBox="0 0 1401.3124 1340.4092"
   xml:space="preserve"
   sodipodi:docname="dandi.svg"
   width="1401.3124"
   height="1340.4092"
   inkscape:version="1.1.1 (c3084ef, 2021-09-22)"
   xmlns:inkscape="http://www.inkscape.org/namespaces/inkscape"
   xmlns:sodipodi="http://sodipodi.sourceforge.net/DTD/sodipodi-0.dtd"
   xmlns="http://www.w3.org/2000/svg"
   xmlns:svg="http://www.w3.org/2000/svg"><defs
   id="defs2784">
	

		
	
			

				
			
		
				
				
				
			

					
				

					

					
			</defs><sodipodi:namedview
   id="namedview2782"
   pagecolor="#ffffff"
   bordercolor="#666666"
   borderopacity="1.0"
   inkscape:pageshadow="2"
   inkscape:pageopacity="0.0"
   inkscape:pagecheckerboard="0"
   showgrid="false"
   inkscape:zoom="0.33732415"
   inkscape:cx="1670.5"
   inkscape:cy="671.46097"
   inkscape:window-width="2542"
   inkscape:window-height="969"
   inkscape:window-x="0"
   inkscape:window-y="25"
   inkscape:window-maximized="0"
   inkscape:current-layer="Layer_1" />
<style
   type="text/css"
   id="style2766">
	.st0{fill:#D3868D;}
	.st1{fill:#F0A5AC;}
	.st2{fill:#A05A60;}
	.st3{fill:#FFFFFF;}
	.st4{fill:#00436D;}
</style>
<g
   id="g2970"
   transform="matrix(0.85826,0,0,0.85826,98.862495,94.977898)"><polygon
     id="Path-3"
     class="st0"
     points="1142.1,457.4 1119.8,596.9 951.7,664.8 844.1,536.5 647.5,235.3 641.1,162.5 774.5,40.4 922.4,162.5 1058.1,227.2 "
     transform="translate(199.31946,246.52887)" /><path
     id="Path-2"
     class="st1"
     d="m 621.91946,313.82887 c 90,0 174.3,32.4 199.7,115.4 58.2,-4.8 137.9,80.5 137.9,161.3 76.60004,26.1 76.60004,102.4 73.30004,169.1 -2.2,44.5 28.1,90.8 91.1,139.2 l -91.1,98.7 -157.10004,39.00003 -67.5,58.4 -51.9,29.4 -95.6,160.6 -79.9,-160.6 -123.1,-29.4 -113.6,-58.4 -22.5,-71.50003 -66.6,-87 29.1,-170.2 v -164 l 173.7,-172.3 c 49.3,-38.5 104,-57.7 164.1,-57.7 z" /><path
     id="Shape"
     class="st2"
     d="m 1228.6195,844.02887 c -16.4,6 -36.6,10.2 -56.5,10.2 -20.5,0 -40.9,-4.5 -56.4,-16.3 -59.4,-45 -14.6,-113.4 12.6,-162.5 10.3,-18.7 31.9,-52.5 14.9,-72.9 -6.1,-7.3 -14,-10.3 -22.4,-10.3 -19.5,0 -41.6,16.4 -48.9,32 -16.9,36.5 -36.4,71.4 -44.7,111.1 -16.5,-16.7 -63.30004,-34.2 -101.10004,-34.2 -29.3,0 -53.3,10.6 -53.3,40.5 0,19.6 10.4,25.8 23.8,25.8 15.5,0 35.2,-8.1 47.5,-12.8 h 2.4 c 68.80004,0 153.80004,129.4 107.60004,188.8 -23.8,30.7 -86.70004,45.9 -139.20004,45.9 -22.2,0 -42.6,-2.7 -57.4,-8.2 -24.5,-8.9 -33.2,-36.3 -55.7,-49.9 -31.9,-19.2 -64.1,-27.6 -95.8,-27.6 -42.2,0 -83.7,14.7 -123.4,38.4 6.8,16 -4.4,46 14.8,53.4 29.8,-20 61.7,-29.1 91.4,-29.1 53.2,0 99.4,29 114.2,76.30003 3.9,12.4 -31.2,15.5 -41.1,15.5 -0.8,0 -1.4,0 -1.8,0 -6.1,-0.5 -11.5,-1.3 -16.5,-1.3 -7.2,0 -13.8,1.5 -20.7,7.7 -19.7,17.5 -26,48.6 -35.6,71.8 -6.9,16.7 -12.9,33.7 -18.4,50.9 -5,15.5 -19.1,42.8 -17.3,58.7 -3.7,-32.2 -2.1,-64.1 0.7,-96.3 0.7,-8 5.8,-84.6 1.2,-84.8 -1.9,-0.1 -3.7,-0.1 -5.5,-0.1 -15.6,0 -30.8,1.9 -45.8,1.9 -16.7,0 -33.2,-2.4 -49.1,-12.4 -12.2,-7.7 -36.5,-33 -50.7,-33 -0.3,0 -0.6,0 -0.9,0 -11.9,1 -26.4,21.1 -37.6,26.6 -7.5,3.7 -15,5.7 -22.5,5.7 -7.7,0 -15.3,-2.2 -22.8,-6.8 -72.1,-44.8 -37.4,-139.90003 27,-171.60003 70.7,-34.8 171.6,5.3 222.8,-74.2 12.7,-19.6 -7.5,-66.7 -35,-66.7 -10.2,0 -21.6,4.9 -35,13.2 -16.9,10.3 -34.5,19.8 -52.5,28.4 -16.2,7.8 -38.1,20.1 -58,20.1 -3.6,0 -7.2,-0.4 -10.7,-1.4 -17.4,-4.7 -16.3,-47.9 -19,-61.4 -3.5,-17.5 -14,-69.8 -39.8,-69.8 -3,0 -6.3,0.7 -9.7,2.3 -23.2,10.5 -15.9,49.3 -11.4,67.8 5.8,23.9 22.7,47.6 18.3,73.2 -3.6,21 -21.6,36.8 -35.3,52.1 -12.2,13.5 -37.7,49.1 -56.9,49.1 -7.3,0 -13.6,-5.1 -18,-18.5 -7.4,-22.5 -11.6,-53.3 -6.1,-76.8 8.7,-37.8 29.3,-71.8 46.3,-106.3 4.1,-8.2 -8.7,-38.1 -10.9,-47.5 -2.9,-12.9 -5.8,-26 -7.1,-39.1 -2.9,-28.4 0.9,-57.6 19.8,-80.4 23.4,-28.5 63.9,-47.4 99,-58.3 24.9,-7.7 57.8,-13 91.5,-13 54.1,0 110,13.6 137.5,52.2 23.8,33.5 13.8,79.5 35.7,114.2 8.3,13.1 27.9,24.2 45,24.2 12.8,0 24.1,-6.3 27.8,-22.8 8.8,-38.8 -35.7,-82.9 -51.2,-116.6 -17.2,-37.4 12.6,-25 28.4,-50.9 8.6,-14.1 0.3,-33.3 -12.3,-42.5 -5.7,-4.2 -11.2,-5.8 -16.6,-5.8 -14.6,0 -28.3,11.8 -42.9,16.3 -9.6,3 -19.8,4.3 -30,4.3 -5.4,0 -10.7,-0.3 -16.1,-1 -21.6,-2.7 -49.9,-8.3 -67.3,-22 -4.6,-3.7 -7.6,-7.2 -9.2,-10.7 -15.2,-33.1 91.6,-60 115.1,-63.9 5.1,-0.8 9.9,-1.2 14.5,-1.2 42.3,0 70.8,32 99.5,60.1 15.2,14.9 36.2,40.8 55.5,48.8 10.9,-15.9 18.2,-34.3 29.1,-50.4 22,-32 55.4,-57 95.2,-57 4.5,0 9.2,0.3 13.8,1 81.30004,11.5 74.90004,104.6 121.10004,152.3 8.1,8.4 14.8,11.6 21.4,11.6 8,0 16,-4.7 26.6,-10.5 6.8,-3.7 13.8,-5.3 20.6,-5.3 31,0 60.3,33.6 74.7,56.7 21,33.5 28.6,75.4 25.9,114.4 -0.8,11.8 -2.7,23.8 -5.9,35.1 -8.8,30.7 28.8,42.3 30.6,73.6 2,36.4 -46.5,61.2 -75.8,71.9 m 145.7,-151.3 c 1.1,-7.3 1.9,-14.9 2.5,-22.6 4.4,-61.9 -9.8,-122.4 -39.9,-170.5 -19.3,-30.7 -73.1,-102.2 -157.8,-102.2 -4.8,0 -9.5,0.3 -14.2,0.7 -0.3,-0.8 -0.7,-1.6 -1,-2.4 -18.8,-45.5 -54,-130.3 -160.3,-145.5 -9.30004,-1.3 -18.70004,-2 -28.00004,-2 -51.8,0 -101.1,20.6 -140.7,57.7 -32,-28.9 -76,-59.3 -138.6,-59.3 -10.1,0 -20.4,0.9 -30.7,2.6 -33.6,5.6 -146.1,29 -184,98.3 -5.3,9.8 -9.1,20.1 -11.3,30.5 -18.8,2.9 -36.8,7 -53.5,12.2 -44,13.6 -104.8,40.2 -145.2,89.2 -22.8,27.6 -48.3,75.9 -40.8,149.2 1.9,19 5.8,36.3 8.9,50.1 0.9,3.7 2.2,8.5 4.1,14.1 -14.9,28.5 -30.7,60.8 -39.5,98.8 -12.4,53.5 1.8,106.3 8.4,126.5 14.3,43.4 43,67.3 72.7,77.8 10.4,58.70003 38.4,104.20003 81.1,130.70003 22.8,14.1 48.8,21.6 75,21.6 20.7,0 41.1,-4.5 60.9,-13.4 16,9.8 33.2,16.8 51.8,21.1 -2.3,31 -3.4,64.5 0.7,100.3 5.7,48.4 47.8,84.2 96.6,84.2 3.7,0 7.3,-0.2 11.1,-0.6 48.5,-5.4 84.6,-44.5 86.3,-90.6 1.3,-3.8 3.5,-9.1 4.9,-12.7 3.2,-7.8 6,-15.1 8,-21.1 5.6,-17.3 10.5,-31.2 15.8,-43.8 2.6,-6.3 5.1,-13.1 7.6,-20.1 30.6,-3.2 70.2,-14.3 95.2,-47.3 5.1,-6.7 9.2,-13.7 12.4,-21 7.3,0.4 14.7,0.6 22.3,0.6 73.5,0 169.00004,-21.9 216.80004,-83.5 12.1,-15.50003 20.8,-33.00003 26.2,-51.70003 4.6,0.3 9.4,0.4 14.1,0.4 38.1,0 70.3,-8.8 90.6,-16.2 90.9,-33.1 142.8,-95.1 138.8,-165.9 -1.9,-33.1 -15.7,-57.9 -27.3,-74.2" /><ellipse
     id="Oval-2"
     transform="rotate(139.99989)"
     cx="-65.370331"
     cy="-679.3042"
     rx="367.60001"
     ry="142" /><polygon
     id="Rectangle-5"
     points="656.5,83.1 628.7,433.2 127.9,433.2 100.1,83.1 "
     transform="rotate(-40,464.2436,302.34202)" /><ellipse
     id="Oval-2-Copy-3"
     transform="rotate(139.99989)"
     class="st3"
     cx="-29.546124"
     cy="-320.95615"
     rx="287.89999"
     ry="92.5" /><ellipse
     id="Oval-2-Copy-2"
     transform="rotate(139.99989)"
     cx="-75.341782"
     cy="-310.79974"
     rx="278.20001"
     ry="82.400002" /></g>
</svg>
