<?xml version="1.0" encoding="UTF-8" standalone="no"?>
<svg
   width="59.685219"
   height="60"
   viewBox="0 0 59.685219 60"
   fill="none"
   version="1.1"
   id="svg25455"
   sodipodi:docname="ebrains.svg"
   inkscape:version="1.1.1 (c3084ef, 2021-09-22)"
   xmlns:inkscape="http://www.inkscape.org/namespaces/inkscape"
   xmlns:sodipodi="http://sodipodi.sourceforge.net/DTD/sodipodi-0.dtd"
   xmlns="http://www.w3.org/2000/svg"
   xmlns:svg="http://www.w3.org/2000/svg">
  <sodipodi:namedview
     id="namedview25457"
     pagecolor="#ffffff"
     bordercolor="#666666"
     borderopacity="1.0"
     inkscape:pageshadow="2"
     inkscape:pageopacity="0.0"
     inkscape:pagecheckerboard="0"
     showgrid="false"
     inkscape:zoom="4.9867257"
     inkscape:cx="0.30079858"
     inkscape:cy="29.578527"
     inkscape:window-width="1296"
     inkscape:window-height="969"
     inkscape:window-x="0"
     inkscape:window-y="25"
     inkscape:window-maximized="0"
     inkscape:current-layer="svg25455" />
  <path
     d="M 29.70582,0 14.87452,4.05503 4.05925,14.9819 0.14924001,29.8522 4.20428,44.6835 15.00282,55.4262 29.85642,60 44.83272,55.3537 55.57552,44.5552 59.55802,29.551 55.50292,14.7197 44.57612,3.90443 Z"
     fill="url(#paint0_linear)"
     id="path25422"
     style="fill:url(#paint0_linear)" />
  <path
     d="m 54.88952,45.2468 c -1.7291,-0.5131 -3.447,-1.0765 -5.1371,-1.7124 -4.9475,-1.8685 -9.0081,-5.2207 -13.9779,-6.9833 -4.557,-1.6176 -9.3427,-2.6271 -14.1061,-3.408 -1.0765,-0.1785 -2.1977,-0.4184 -3.2909,-0.4128 -3.051,0.0223 -5.3379,1.9132 -6.9387,4.3284 -1.6678,2.5155 -4.11086,6.0016 -7.08938,7.7698"
     stroke="#ffffff"
     stroke-width="0.6"
     stroke-miterlimit="10"
     stroke-linecap="round"
     stroke-linejoin="round"
     id="path25424" />
  <path
     d="m 55.66492,44.2149 c -1.9466,-0.5522 -3.8821,-1.1602 -5.7841,-1.863 -4.8415,-1.7849 -8.93,-4.9084 -13.6879,-6.9108 -3.9323,-1.651 -7.9929,-3.2128 -12.0926,-4.3953 -4.3897,-1.2662 -7.9706,0.7028 -11.0885,3.553 -1.93,1.7682 -3.9268,3.4694 -6.03519,5.0144 -1.01515,0.7419 -2.2311,1.679 -3.52514,2.3594"
     stroke="#ffffff"
     stroke-width="0.3"
     stroke-miterlimit="10"
     stroke-linecap="round"
     stroke-linejoin="round"
     id="path25426" />
  <path
     d="m 55.97722,43.0546 c -2.0917,-0.5689 -4.161,-1.1992 -6.2025,-1.941 -4.6463,-1.6901 -8.6846,-4.8471 -12.9739,-7.2734 -3.4247,-1.9299 -7.5802,-5.1093 -11.6129,-5.5443 -4.702,-0.5076 -8.0375,2.3872 -11.7691,4.702 -2.4876,1.5451 -4.99764,3.0566 -7.58014,4.4455 -0.91475,0.4908 -2.01357,1.1825 -3.14586,1.7012"
     stroke="#ffffff"
     stroke-width="0.3"
     stroke-miterlimit="10"
     stroke-linecap="round"
     stroke-linejoin="round"
     id="path25428" />
  <path
     d="m 56.26162,41.9782 c -2.2422,-0.5634 -4.4622,-1.1992 -6.6263,-2.0136 -4.8583,-1.8239 -8.9412,-6.0072 -12.907,-9.2367 -3.9992,-3.2519 -8.0152,-6.8942 -13.5986,-4.4121 -3.3578,1.4949 -6.6208,3.224 -9.9395,4.7913 -2.8168,1.3331 -5.64474,2.6495 -8.50613,3.8877 -0.80878,0.3459 -1.78489,0.8869 -2.77215,1.2885"
     stroke="#ffffff"
     stroke-width="0.6"
     stroke-miterlimit="10"
     stroke-linecap="round"
     stroke-linejoin="round"
     id="path25430" />
  <path
     d="m 56.55182,40.885 c -2.5211,-0.5857 -5.02,-1.2662 -7.4128,-2.2535 -5.879,-2.4263 -8.7125,-8.5563 -12.3715,-13.2918 -3.0399,-3.9323 -8.0599,-2.5657 -11.9141,-1.0709 -4.6351,1.796 -9.2702,3.5865 -13.9165,5.3491 -2.58253,0.9817 -5.17061,1.9633 -7.76985,2.906 -0.59682,0.2175 -1.32193,0.5745 -2.05262,0.8534"
     stroke="#ffffff"
     stroke-width="0.3"
     stroke-miterlimit="10"
     stroke-linecap="round"
     stroke-linejoin="round"
     id="path25432" />
  <path
     d="m 57.00352,39.1895 c -3.0677,-0.6024 -6.1076,-1.3833 -8.8017,-2.8502 -4.5459,-2.471 -6.3084,-7.8982 -9.0527,-12.0145 -1.8741,-2.8112 -5.2431,-4.5348 -8.5842,-3.6144 -1.3777,0.3793 -2.7331,0.8757 -4.0941,1.3107 -5.6056,1.7905 -11.2057,3.581 -16.8113,5.3714 -3.118,0.9984 -6.24155,1.9913 -9.35951999,2.9897"
     stroke="#ffffff"
     stroke-width="0.6"
     stroke-miterlimit="10"
     stroke-linecap="round"
     stroke-linejoin="round"
     id="path25434" />
  <path
     d="m 57.49452,37.3377 c -3.4861,-1.0598 -6.8774,-2.3148 -9.8671,-4.5626 -3.8821,-2.9228 -6.8495,-7.2065 -10.0846,-10.793 -3.3689,-3.7371 -7.5969,-3.5252 -11.8918,-2.0526 -5.059,1.7402 -10.1124,3.5028 -15.138,5.3323 C 7.607,26.316 4.70098,27.3869 1.83401,28.5471 1.45473,28.7033 0.91926001,28.865 0.35591001,29.0603"
     stroke="#ffffff"
     stroke-width="0.3"
     stroke-miterlimit="10"
     stroke-linecap="round"
     stroke-linejoin="round"
     id="path25436" />
  <path
     d="m 58.38132,33.9797 c -3.2016,-1.2215 -6.3754,-2.4933 -9.3428,-4.2391 -4.6909,-2.761 -8.4893,-6.6822 -12.6113,-10.1962 -3.8933,-3.3187 -8.1714,-3.3132 -12.7731,-1.6008 -4.5012,1.6789 -8.9857,3.4136 -13.4201,5.2598 -2.63825,1.0989 -5.26538,2.2256 -7.82557,3.4973 -0.48526,0.2398 -1.05977,0.4964 -1.64543999,0.7809"
     stroke="#ffffff"
     stroke-width="0.6"
     stroke-miterlimit="10"
     stroke-linecap="round"
     stroke-linejoin="round"
     id="path25438" />
  <path
     d="m 59.38522,30.2093 c -7.4631,-3.7315 -14.7309,-7.7252 -21.9485,-11.942 -4.3953,-2.5713 -8.6511,-4.8303 -13.9333,-2.9785 -3.447,1.2048 -6.8327,2.6606 -10.1794,4.122 -2.9172,1.2717 -5.82316,2.6104 -8.61205,4.1442 -1.08208,0.5969 -2.32592,1.2383 -3.4359,2.0192"
     stroke="#ffffff"
     stroke-width="0.6"
     stroke-miterlimit="10"
     stroke-linecap="round"
     stroke-linejoin="round"
     id="path25440" />
  <path
     d="m 58.95572,27.3645 c -3.4359,-2.1028 -6.8774,-4.1778 -10.5197,-5.9403 -3.6032,-1.7459 -7.3347,-3.2574 -11.0049,-4.8527 -3.91,-1.7012 -7.636,-3.8096 -12.0257,-3.6702 -4.0494,0.1283 -7.7865,2.1642 -11.3563,3.8989 -3.9546,1.9299 -8.84075,4.1164 -12.37705,7.2623"
     stroke="#ffffff"
     stroke-width="0.3"
     stroke-miterlimit="10"
     stroke-linecap="round"
     stroke-linejoin="round"
     id="path25442" />
  <path
     d="m 58.02982,23.9565 c -3.0678,-2.3482 -6.1133,-4.5738 -9.7165,-6.169 -3.3411,-1.4781 -6.9889,-2.3427 -10.4806,-3.3857 -3.2351,-0.965 -6.4535,-2.0526 -9.7221,-2.9004 -4.6685,-1.2104 -9.1196,0.2454 -13.236,2.3538 -4.412,2.2645 -9.1252,4.9642 -12.78422,8.5284"
     stroke="#ffffff"
     stroke-width="0.6"
     stroke-miterlimit="10"
     stroke-linecap="round"
     stroke-linejoin="round"
     id="path25444" />
  <defs
     id="defs25453">
    <linearGradient
       id="paint0_linear"
       x1="1.30633"
       y1="29.9995"
       x2="60.7118"
       y2="29.9995"
       gradientUnits="userSpaceOnUse"
       gradientTransform="translate(-1.15508)">
      <stop
         stop-color="#FFDB00"
         id="stop25446" />
      <stop
         offset="0.5"
         stop-color="#56C54E"
         id="stop25448" />
      <stop
         offset="1"
         stop-color="#007F7B"
         id="stop25450" />
    </linearGradient>
  </defs>
</svg>
