<?xml version="1.0" encoding="UTF-8" standalone="no"?>
<svg
   viewBox="0 0 125.69875 160.62125"
   version="1.1"
   id="svg3003"
   sodipodi:docname="gin.svg"
   width="125.69875"
   height="160.62125"
   inkscape:version="1.1.1 (c3084ef, 2021-09-22)"
   xmlns:inkscape="http://www.inkscape.org/namespaces/inkscape"
   xmlns:sodipodi="http://sodipodi.sourceforge.net/DTD/sodipodi-0.dtd"
   xmlns="http://www.w3.org/2000/svg"
   xmlns:svg="http://www.w3.org/2000/svg">
  <sodipodi:namedview
     id="namedview3005"
     pagecolor="#ffffff"
     bordercolor="#666666"
     borderopacity="1.0"
     inkscape:pageshadow="2"
     inkscape:pageopacity="0.0"
     inkscape:pagecheckerboard="0"
     showgrid="false"
     inkscape:zoom="2.22"
     inkscape:cx="100"
     inkscape:cy="86.261261"
     inkscape:window-width="2147"
     inkscape:window-height="969"
     inkscape:window-x="0"
     inkscape:window-y="25"
     inkscape:window-maximized="0"
     inkscape:current-layer="svg3003" />
  <defs
     id="defs2987">
    <clipPath
       id="a"
       clipPathUnits="userSpaceOnUse">
      <path
         d="M 0,191 H 372.096 V 0 H 0 Z"
         id="path2984" />
    </clipPath>
  </defs>
  <g
     id="g3655"
     transform="matrix(0.74556643,0,0,0.74556643,15.990993,20.433717)">
    <path
       fill="#2854a4"
       d="m 125.5275,71.49875 c 0.0994,-2.931038 -1.02183,-5.771923 -3.09625,-7.845 l -42.48,-42.48 v -7.595 h 2.1125 c 3.749671,0 6.789372,-3.039707 6.789372,-6.789375 C 88.853122,3.039707 85.813421,0 82.06375,0 H 42.8375 c -3.749671,0 -6.789372,3.039707 -6.789372,6.789375 0,3.749668 3.039701,6.789375 6.789372,6.789375 H 44.95 v 8.2375 L 3.1125,63.65375 C 0.85278763,65.91011 -0.2698804,69.064601 0.05625,72.24125 0.01917543,72.60048 4.011669e-4,72.961363 0,73.3225 v 76.88625 c 0,5.75066 4.661835,10.4125 10.4125,10.4125 h 104.875 c 5.75018,-6.9e-4 10.41125,-4.66232 10.41125,-10.4125 v -76.885 c 0,-0.62375 -0.065,-1.23 -0.17,-1.82375"
       id="path2993"
       style="stroke-width:1.25"
       sodipodi:nodetypes="ccccsssssscccccsscssc" />
    <path
       fill="#2854a4"
       d="m 125.5275,71.49875 c 0.0994,-2.931038 -1.02183,-5.771923 -3.09625,-7.845 l -42.48,-42.48 v -7.595 h 2.1125 c 3.749671,0 6.789372,-3.039707 6.789372,-6.789375 C 88.853122,3.039707 85.813421,0 82.06375,0 H 42.8375 c -3.749671,0 -6.789372,3.039707 -6.789372,6.789375 0,3.749668 3.039701,6.789375 6.789372,6.789375 H 44.95 v 8.2375 L 3.1125,63.65375 C 0.85278763,65.91011 -0.2698804,69.064601 0.05625,72.24125 0.01917543,72.60048 4.011669e-4,72.961363 0,73.3225 v 76.88625 c 0,5.75066 4.661835,10.4125 10.4125,10.4125 h 104.875 c 5.75018,-6.9e-4 10.41125,-4.66232 10.41125,-10.4125 v -76.885 c 0,-0.62375 -0.065,-1.23 -0.17,-1.82375"
       id="path2995"
       style="stroke-width:1.25"
       sodipodi:nodetypes="ccccsssssscccccsscssc" />
    <path
       fill="#ffffff"
       d="m 80.49,65.96 c 6.809815,0.0082 13.536119,-1.499083 19.69125,-4.4125 C 94.026269,58.633645 87.299865,57.126364 80.49,57.135 75.497331,57.1332 70.537741,57.945094 65.80625,59.53875 70.361206,57.30574 74.515238,54.33435 78.1,50.745 c 4.821099,-4.80962 8.511908,-10.631483 10.805,-17.04375 -6.412267,2.293092 -12.23413,5.983901 -17.04375,10.805 -4.784834,4.774344 -8.455662,10.546934 -10.75,16.905 -0.1025,0.0475 -0.20875,0.0875 -0.31125,0.1375 6.154709,2.913356 12.880593,4.420616 19.69,4.4125 M 26.64,70.7425 c -6.809759,-0.0077 -13.535955,1.49956 -19.69125,4.4125 6.154504,2.91395 12.880524,4.42124 19.69,4.4125 5.27875,0 10.3475,-0.89 15.07,-2.525 -4.652646,2.24597 -8.893329,5.2603 -12.54375,8.91625 -4.819925,4.80913 -8.509111,10.6307 -10.8,17.0425 6.411623,-2.29171 12.232786,-5.98176 17.04125,-10.8025 4.803519,-4.79468 8.485073,-10.59407 10.78,-16.98125 0.04625,-0.0213 0.09625,-0.04 0.1425,-0.0625 -6.154791,-2.913117 -12.880621,-4.420366 -19.69,-4.4125 m 0.2575,-30.86625 30.70625,30.7075 c 1.701483,-1.053162 3.662702,-1.611531 5.66375,-1.6125 5.978196,6.9e-4 10.82431,4.846804 10.825,10.825 0,2.0125 -0.55875,3.8875 -1.515,5.5025 l 14.65,14.105 c 1.62598,-0.92857 3.466303,-1.41634 5.33875,-1.415 5.978482,0 10.825,4.84652 10.825,10.825 -0.0638,5.93277 -4.89127,10.70867 -10.824375,10.70867 -5.933105,0 -10.76062,-4.7759 -10.824375,-10.70867 1e-6,-1.69803 0.401779,-3.37196 1.1725,-4.885 l -14.9475,-14.3925 c -0.507665,0.24893 -1.034325,0.45709 -1.575,0.6225 v 39.3575 c 4.675,1.1975 8.13375,5.425 8.13375,10.475 -6.9e-4,5.97799 -4.847006,10.82375 -10.825,10.82375 -5.978482,0 -10.825,-4.84652 -10.825,-10.825 0,-4.73 3.04,-8.74125 7.2675,-10.21375 v -39.6175 c -4.57096,-1.37824 -7.699285,-5.58827 -7.7,-10.3625 0,-1.62 0.36625,-3.15125 1.00375,-4.5325 l -30.975,-30.975"
       id="path2997"
       style="stroke-width:1.25"
       sodipodi:nodetypes="ccccccccccccccccccccccccccccsccccccssccccc" />
  </g>
</svg>
