<?xml version="1.0" encoding="UTF-8" standalone="no"?>
<svg
   viewBox="0 0 113.92788 113.9233"
   version="1.1"
   id="svg832"
   sodipodi:docname="git.svg"
   width="113.92787"
   height="113.9233"
   inkscape:version="1.1.1 (c3084ef, 2021-09-22)"
   xmlns:inkscape="http://www.inkscape.org/namespaces/inkscape"
   xmlns:sodipodi="http://sodipodi.sourceforge.net/DTD/sodipodi-0.dtd"
   xmlns="http://www.w3.org/2000/svg"
   xmlns:svg="http://www.w3.org/2000/svg">
  <defs
     id="defs836" />
  <sodipodi:namedview
     id="namedview834"
     pagecolor="#ffffff"
     bordercolor="#666666"
     borderopacity="1.0"
     inkscape:pageshadow="2"
     inkscape:pageopacity="0.0"
     inkscape:pagecheckerboard="0"
     showgrid="false"
     inkscape:zoom="2.7439918"
     inkscape:cx="47.558451"
     inkscape:cy="57.033698"
     inkscape:window-width="1296"
     inkscape:window-height="969"
     inkscape:window-x="0"
     inkscape:window-y="25"
     inkscape:window-maximized="0"
     inkscape:current-layer="svg832" />
  <path
     fill="#f05133"
     d="M 99.680897,53.00747 60.915612,14.246944 c -2.230455,-2.232482 -5.850989,-2.232482 -8.08425,0 l -8.049181,8.049961 10.210124,10.210126 c 2.37361,-0.801412 5.094231,-0.264083 6.985388,1.627448 1.900976,1.903313 2.434471,4.647158 1.612954,7.028714 l 9.840746,9.840748 c 2.380779,-0.820426 5.127662,-0.290376 7.028716,1.614044 2.657812,2.657033 2.657812,6.962477 0,9.620211 -2.658202,2.658591 -6.963645,2.658591 -9.623328,0 -1.998463,-2.000022 -2.492761,-4.936349 -1.480554,-7.398639 l -9.17758,-9.17758 -7.79e-4,24.150664 c 0.647971,0.320767 1.259472,0.748888 1.799435,1.286513 2.657034,2.656721 2.657034,6.961385 0,9.622549 -2.657812,2.656642 -6.965203,2.656642 -9.620211,0 -2.657422,-2.66093 -2.657422,-6.965594 0,-9.622549 0.656739,-0.65557 1.416654,-1.151775 2.227494,-1.484373 V 45.239685 c -0.81123,-0.331194 -1.570248,-0.823699 -2.22796,-1.484528 -2.012881,-2.011322 -2.497671,-4.965572 -1.465359,-7.43737 L 40.826088,26.251049 14.247968,52.828391 c -2.233183,2.234195 -2.233183,5.85473 0,8.087367 L 53.010909,99.67636 c 2.231701,2.23248 5.850989,2.23248 8.085808,0 L 99.68042,61.098889 c 2.23249,-2.233573 2.23249,-5.855198 0,-8.088147"
     id="path830"
     style="stroke-width:0.77928" />
</svg>
