<svg xmlns="http://www.w3.org/2000/svg" data-name="Ebene 1" width="177.308" height="83.576"><path d="M157.117 71.169v-1.125h-5.55V65.43h4.557v-1.086h-4.557v-4.025h5.244V59.27h-6.713V71.17zm-12.223 0h1.296V59.27h-1.296v7.78c0 .839.075 1.869.152 2.327-.152-.477-.571-1.335-1.068-2.08l-5.339-8.027h-1.83V71.17h1.276v-8.657c0-.82-.076-1.87-.17-2.307.17.457.59 1.316 1.087 2.06zM132.517 59.27h-1.543V71.17h1.543zm-4.88 11.899v-1.125h-5.55V65.43h4.558v-1.086h-4.558v-4.025h5.244V59.27h-6.712V71.17zm-18.115 0v-5.682h5.854v5.682h1.525V59.27h-1.525v5.168h-5.854V59.27h-1.526V71.17zm-17.365 0v-5.682h5.854v5.682h1.526V59.27h-1.526v5.168h-5.854V59.27H90.63V71.17zM87.886 60.09c-.915-.668-2.193-1.01-3.852-1.01-3.87 0-5.778 2.612-5.778 6.293 0 3.64 1.736 6.044 5.511 6.044 1.64 0 3.127-.515 4.024-1.03l-.458-1.297c-.743.554-2.04 1.107-3.376 1.107-2.917 0-4.138-2.212-4.138-4.691 0-2.498.916-5.379 4.176-5.379 1.679 0 2.442.497 3.147 1.05zm-12.948-.82h-1.544V71.17h1.544zm-7.722 2.593c0 2.08-1.62 2.422-3.433 2.422h-.343v-4.061c.363-.039.782-.057 1.316-.057.991 0 2.46.151 2.46 1.696m-3.776 3.49h.21c2.593 0 3.852 4.1 4.767 5.854l1.792-.038c-.743-1.181-2.059-5.587-4.652-6.312 1.735-.171 3.26-.877 3.26-3.05 0-1.813-1.22-2.633-3.813-2.633-1.602 0-2.307.077-3.089.115v11.88h1.525zm-6.73 5.816h1.297V59.27h-1.298v7.78c0 .839.077 1.869.153 2.327-.153-.477-.572-1.335-1.067-2.08l-5.34-8.027h-1.83V71.17H49.9v-8.657c0-.82-.075-1.87-.172-2.307.172.457.592 1.316 1.088 2.06zM44.333 59.27h-1.545V71.17h1.545zM39.452 71.17v-1.125h-5.548V65.43h4.557v-1.086h-4.557v-4.025h5.244V59.27h-6.712V71.17zm-18.115 0v-5.682h5.855v5.682h1.525V59.27h-1.525v5.168h-5.855V59.27h-1.525V71.17h1.525M157.123 76.686v-.642h-3.988v7.287h.873v-3.514h2.708v-.666h-2.708v-2.465zm-7.43.946c0 1.274-.963 1.483-2.04 1.483h-.203v-2.487c.216-.023.465-.034.782-.034.588 0 1.46.092 1.46 1.038m-2.242 2.137h.125c1.54 0 2.288 2.512 2.832 3.585l1.064-.023c-.442-.724-1.223-3.422-2.763-3.865 1.03-.105 1.935-.537 1.935-1.868 0-1.11-.723-1.612-2.265-1.612-.95 0-1.37.047-1.834.07v7.275h.906zm-3.625-.152c0 1.927-.883 3.189-2.378 3.189-1.496 0-2.379-1.262-2.379-3.189 0-1.891.998-3.059 2.379-3.059 1.382 0 2.378 1.168 2.378 3.06m.998 0c0-2.278-1.428-3.691-3.376-3.691-1.949 0-3.375 1.413-3.375 3.69 0 2.487 1.335 3.866 3.375 3.866 2.039 0 3.376-1.401 3.376-3.866m-8.994 0c0 2.5-1.246 3.118-2.696 3.118-.284 0-.566-.01-.907-.057v-6.073c.26-.011.533-.011.77-.011 1.972 0 2.833 1.038 2.833 3.023m1.007-.023c0-2.428-1.415-3.596-3.658-3.596-.928 0-.928.023-1.858.046v7.287c.432 0 1.111.023 1.847.023 1.518 0 3.67-.642 3.67-3.76m-6.978 3.737v-.69h-3.295v-6.597h-.884v7.287zm-5.934 0v-.69h-3.297v-2.824h2.707v-.666h-2.707v-2.465h3.114v-.642h-3.986v7.287zm-6.163-2.09c0-1.588-1.303-1.962-1.96-2.161-.735-.221-1.563-.466-1.563-1.448 0-.666.6-1.061 1.326-1.061.782 0 1.29.373 1.552.63l.43-.666c-.373-.386-1.088-.608-1.903-.608-1.324 0-2.333.678-2.333 1.927 0 1.543 1.552 1.963 2.05 2.09.6.153 1.45.375 1.45 1.507 0 .992-.792 1.331-1.438 1.331-.941 0-1.44-.595-1.723-.934l-.554.619c.453.525 1.098 1.016 2.253 1.016 1.371 0 2.413-.854 2.413-2.242m-6.377 0c0-1.588-1.302-1.962-1.96-2.161-.736-.221-1.563-.466-1.563-1.448 0-.666.6-1.061 1.326-1.061.782 0 1.29.373 1.552.63l.43-.666c-.373-.386-1.087-.608-1.903-.608-1.326 0-2.333.678-2.333 1.927 0 1.543 1.552 1.963 2.05 2.09.6.153 1.45.375 1.45 1.507 0 .992-.794 1.331-1.438 1.331-.94 0-1.44-.595-1.722-.934l-.556.619c.454.525 1.099 1.016 2.254 1.016 1.371 0 2.413-.854 2.413-2.242m-9.73-6.656a.526.526 0 0 0-.52-.526.533.533 0 0 0-.521.526c0 .28.238.526.521.526.294 0 .52-.246.52-.526m2.097 0a.533.533 0 0 0-.522-.526.526.526 0 0 0 0 1.052.533.533 0 0 0 .522-.526m1.155 6.025v-4.566h-.884v4.484c0 1.928-.804 2.383-1.835 2.383-1.042 0-1.834-.455-1.834-2.383v-4.484h-.918v4.566c0 2.149.929 2.966 2.752 2.966 1.824 0 2.719-.817 2.719-2.966m-8.087-.993c0 2.5-1.247 3.118-2.697 3.118-.282 0-.566-.01-.906-.057v-6.073c.261-.011.533-.011.77-.011 1.97 0 2.833 1.038 2.833 3.023m1.007-.023c0-2.428-1.415-3.596-3.658-3.596-.93 0-.93.023-1.858.046v7.287c.43 0 1.11.023 1.847.023 1.516 0 3.67-.642 3.67-3.76M86.871 76.72v-.677h-6.084v.677h2.549v6.61h.93v-6.61zm-9.9-2.136a.526.526 0 0 0-.521-.526.533.533 0 0 0-.522.526c0 .28.238.526.522.526.293 0 .52-.246.52-.526m2.096 0a.533.533 0 0 0-.521-.526.525.525 0 0 0-.52.526c0 .28.225.526.52.526a.533.533 0 0 0 .521-.526M77.12 77.96c.114-.339.25-.806.306-1.156.057.397.181.794.317 1.156l.85 2.276h-2.266zm2.616 5.371h.94l-2.763-7.345-.884.058-2.628 7.287h.85l.86-2.487h2.708zm-5.492-6.61v-.677h-6.084v.677h2.549v6.61h.93v-6.61zm-7.726-.677h-.918v7.287h.918zm-3.138 5.197c0-1.588-1.302-1.962-1.96-2.161-.736-.221-1.563-.466-1.563-1.448 0-.666.602-1.061 1.325-1.061.782 0 1.293.373 1.553.63l.43-.666c-.373-.386-1.087-.608-1.902-.608-1.326 0-2.334.678-2.334 1.927 0 1.543 1.552 1.963 2.05 2.09.6.153 1.45.375 1.45 1.507 0 .992-.793 1.331-1.439 1.331-.94 0-1.438-.595-1.721-.934l-.555.619c.453.525 1.099 1.016 2.254 1.016 1.37 0 2.412-.854 2.412-2.242m-7.827-3.609c0 1.274-.962 1.483-2.039 1.483h-.203v-2.487a7.23 7.23 0 0 1 .782-.034c.588 0 1.46.092 1.46 1.038M53.31 79.77h.125c1.54 0 2.288 2.512 2.832 3.585l1.064-.023c-.442-.724-1.223-3.422-2.765-3.865 1.032-.105 1.937-.537 1.937-1.868 0-1.11-.725-1.612-2.265-1.612-.95 0-1.37.047-1.834.07v7.275h.906zm-2.662 3.562v-.69h-3.296v-2.824h2.707v-.666h-2.707v-2.465h3.115v-.642h-3.988v7.287zm-8.552-2.312c-.192.479-.362 1.074-.42 1.471-.056-.397-.192-.899-.418-1.483l-1.892-4.963h-.996l2.933 7.392h.6l3.025-7.392h-.85zm-5.539-4.975h-.917v7.287h.917zm-4.236 7.287h.77v-7.287h-.77v4.764c0 .514.045 1.145.091 1.426-.091-.293-.34-.818-.635-1.274l-3.171-4.916h-1.088v7.287h.76v-5.302c0-.502-.046-1.144-.102-1.413.102.28.351.807.644 1.262zm-7.01-2.721v-4.566h-.885v4.484c0 1.928-.804 2.383-1.835 2.383-1.042 0-1.834-.455-1.834-2.383v-4.484h-.918v4.566c0 2.149.929 2.966 2.752 2.966 1.824 0 2.72-.817 2.72-2.966" fill="#231f20"/><path d="M19.717 38.276v16.236h137.41v-40.28L19.717 38.276" fill="#d0d1d1"/><path d="M72.065 39.4a12.945 12.945 0 0 1-5.344 3.38c-1.582.508-.47-.843.198-1.55.847-.897 2.007-1.902 2.951-2.697 2.247-1.888 4.647-3.61 7.118-5.195-1.545 2.116-3.142 4.186-4.923 6.063M25.982 20.61c.831-.593 1.66-1.193 2.57-1.72 1.358-.788 1.955-.423.791.587-1.368 1.189-2.753 2.053-4.342 2.98-1.465.855-2.931 1.675-4.456 2.407a78.13 78.13 0 0 1 5.437-4.255m69.678-7.38c1.018-.571 2.636-1.024.905.388-.674.548-1.516 1.073-2.267 1.552-1.425.91-2.65 1.7-4.24 2.707 1.2-1.24 3.651-3.556 5.602-4.648m2.74 7.712c-.138-.335-5.352 2.452-6.685 3.133-2.735 1.397-5.27 2.737-11.278 5.987 2.43-3.328 5.42-7.375 7.632-9.966 1.234-.783 2.46-1.575 3.692-2.337 1.614-1.001 2.92-1.753 4.5-2.81 1.006-.672 3.391-2.11 3.225-3.298-.2-1.43-2.336-.408-2.703-.243-1.614.728-3.257 1.935-4.593 3.054-1.827 1.532-3.68 3.555-5.218 5.34-1.84 1.485-4.852 3.019-6.902 4.01.89-.624 1.384-1.201 1.082-1.557-.49-.579-1.857.304-2.646.72-.638.335-4.155 2.388-5.095 1.944-.246-.133.319-.472.542-.582.763-.368 1.065-.555 3.19-1.441.636-.267 1.102-.53 1.075-1.347-.019-.482-1.067-.155-1.715.148-.679.317-1.775.685-3.111.986-1.085.242-2.75.577-3.716.482.008-.105-.147-.513-.62-.574-.433-.055-.787.125-1.305.482-.254.175-1.427 1.23-1.105 1.661-.388.403-1.155.874-1.24.914-.422.197-1.05.713-1.887.95-1.384.394-.436-.28.14-.701 1.035-.753 2.152-1.678 1.725-2.063-.428-.385-1.827.381-2.257.598-1.812.916-4.37 2.333-6.732 3.281-1.165.467-1.66.68-1.824.52-.365-.358 1.703-1.037 2.379-2.204.065-.112.176-.31.078-.442-.497-.658-2.55.575-3.045.807-2.251 1.054-4.65 2.287-5.392 2.562-.903.334-1.905.683-1.981.531-.078-.15 1.496-.963 2.138-1.305.785-.42 2.263-1.104 2.431-1.533.094-.242.077-.427-.067-.519-.867-.56-4.389 1.296-7.454 2.658-.846.375-1.891.9-2.645 1.209-.86.352-1.828.8-2.06.63-.091-.068.684-.502.925-.62 1.393-.691 3.645-1.769 4.026-2.222.116-.138.234-.518.087-.696-.475-.573-1.83.435-3.071.937-1.52.614-3.024 1.253-4.541 1.865a87.102 87.102 0 0 1-4.624 1.727c-.777.261-1.847.67-2.065.424-.175-.198 2.071-1.16 2.842-1.721.271-.196 1.13-.82.891-1.258-.32-.59-6.752 3.375-7.122 3.218-.563-.236 3.828-2.574 3.916-2.65.24-.206.902-.533.733-.903-.502-1.091-3.53 1.058-10.864 4.88.831-.827 1.677-1.639 2.519-2.456.436-.423 1.248-1.036 1.407-1.665.431-1.695-2.957.394-3.286.612-2.019 1.345-3.948 2.823-5.981 4.14l.043-.04c.604-.568 2.387-2.127 2.19-3.117-.226-1.137-2.137-.42-3.88.501 1.463-1.42 3.04-2.662 4.555-4.033 2.652-1.29 5.228-2.706 7.78-4.192 2.18-1.269 4.8-2.707 6.28-4.822.385-.55.756-1.307.105-1.805-.726-.555-2.179.336-2.802.67-2.879 1.547-5.586 3.883-8.042 6.01-1.087.941-2.165 1.89-3.238 2.845-2.846 1.415-7.41 3.513-10.472 4.404-1.08.314-6.492 1.425-5.41-.772 1.013-2.06 7.843-6.12 7.445-6.339-.177-.096-6.218 3.437-8.22 5.92C.65 30-.235 30.96.06 31.73c.426 1.116 3 .9 3.914.753 4.4-.71 7.514-2.225 11.192-3.913a177.667 177.667 0 0 0-5.412 5.15c-.705.703-.324 1.166.494.595.811-.565 1.64-1.168 2.542-1.58.186-.086 2.602-.894 2.203-.095-.668 1.34-2.542 2.64-3.658 3.636-.446.399-1.081 1.517.033.955 2.422-1.222 4.88-2.721 7.037-4.365.598-.455 1.52-1.005 2.128-1.448.517-.374 1.524-.918 1.696-1.077-3.437 3.208-6.554 6.388-9.375 10.08-2.986 3.91-5.779 7.997-8.975 11.744-.789.924-2.228 1.852-2.141.439.074-1.194 1.016-2.444 1.712-3.371 1.179-1.567 2.506-3.03 4.113-4.806.938-1.034 1.798-1.817 1.603-1.993-.148-.134-5.054 4.637-7 6.963C.884 50.93-.513 53.71.935 54.687c1.45.975 3.637-1.932 4.542-2.993 2.232-2.622 4.264-5.453 6.33-8.206 1.92-2.56 3.828-5.056 5.941-7.42a2.11 2.11 0 0 0 .195-.152c.513-.443 4.312-3.135 7.419-4.522-.697.328-1.761 1.376-2.162 1.816-.519.572.16 1.001 1.24.741.69-.166 2.337-.889 3.211-1.38a.953.953 0 0 0-.132.23c-.06.16.092.582.581.645 1.143.144 4.573-1.33 5.795-1.834 1.386-.57 2.73-1.13 4.092-1.694.12-.05.358-.208.67-.334-.583.377-1.487 1.114-1.835 1.714-.075.127-.132.35-.045.495.756 1.268 7.389-2.383 8.496-2.815.209-.081.42-.156.629-.234-1.22.99-2.459 2.615.189 2.111 1.827-.348 3.736-1.359 5.392-2.154.477-.228.949-.465 1.422-.698a3.47 3.47 0 0 0-.668.837c-.333.6.153.952.705.842 2.337-.466 5.445-2.135 7.62-3.103.617-.274 1.268-.559 1.88-.846a7.44 7.44 0 0 0-1.474 1.144c-1.369 1.358.443 1.482 1.652.807-1.29 1.395.657 1.19 1.186.779.44-.343 1.443-1.005 2.364-1.762 1.62-1.332 1.837-1.627 2.361-2.1.666-.091 1.49-.29 1.993-.394 1.23-.257 2.683-.718 3.892-1.048-.323.178-1.487.736-1.772.93-.806.55-2.511 1.872-.558 2.162.936.14 2.593-.314 3.7-.829.173-.08.707-.348 1.044-.57-.246.112-.351.357-.333.416.315 1.05 3.021-.378 3.196-.462 2.143-1.033 3.635-1.785 5.59-2.968-1.33 1.659-4.244 5.657-4.5 5.989a92.166 92.166 0 0 0-2.638 3.538c-2.045 1.315-3.561 2.375-5.534 3.738-2.701 1.866-4.99 3.715-6.08 4.685-1.37 1.22-2.476 2.282-2.797 3.76-.306 1.406 2.1.798 2.589.681 1.743-.418 3.598-1.603 4.958-2.728 3.118-2.583 5.31-6.194 7.676-9.422a179.33 179.33 0 0 1 5.993-3.606c4.362-2.515 13.534-7.331 13.45-7.532m12.093 10.704c-1.663 2.189-4.394 4.942-6.812 6.631-.703.492-4.27 2.718-3.91.842.293-1.523 4.021-5.494 6.908-8.246 3.412-3.255 6.652-6.162 10.665-9.277-2.285 3.352-4.403 6.829-6.85 10.05m15.903-25.539c2.14-1.695 3.47-2.758 5.823-3.907 1.613-.787.425.54-.191 1.08-.721.631-1.809 1.371-2.636 1.87-2.264 1.368-4.012 2.305-6.377 3.612 1.088-.883 2.284-1.784 3.38-2.655m49.875-2.182c-1.223.715-3.33 2.163-3.575 2.335-.213-.087-.244-.161-.806.124.734-.749.973-1.4.464-1.465-.718-.091-2.27.519-3.077.92-1.404.701-2.796 1.282-4.187 1.863-1.06.441-2.239.887-3.321 1.276-.552.197-1.58.444-1.723.21-.143-.236 1.903-1.32 2.964-1.95.282-.168 1.136-.588.85-1.123-.247-.459-1.357.138-1.657.275-2.624 1.19-3.275 1.556-5.918 2.615-.832.333-2.56.956-3.425 1.195-1.057.29-.496-.177-.14-.37.852-.427 1.647-.736 2.464-1.21.993-.574.394-1.262-.212-1.053-4.074 1.408-7.166 2.83-11.206 4.254-.316.111-.95.266-1.021.148-.072-.117 1.792-1.033 2.434-1.339.82-.39 1.437-.706 2.249-1.137.367-.193.591-.486.231-.835-.365-.352-1.286-.01-1.68.176-2.576 1.21-9.212 4.247-12.723 5.343-.236.073-1.191.328-1.26.056-.037-.153 1.136-.78 1.669-1.13 1.126-.74 2.784-1.485 3.502-2.69.076-.13.162-.3.077-.446-.388-.664-4.01 1.73-4.55 1.895-.192.058.547-.49 1.235-.993.597-.436.842-.78.867-1.346.037-.82-.78-.316-1.062-.186-3.03 1.392-5.86 3.401-8.616 5.26-1.02.686-2.028 1.394-3.028 2.12.261-.318.526-.635.806-.942.525-.578 3.563-3.297 2.821-4.198-.1-.122-.332-.043-.441-.001-.883.338-1.53 1.054-2.19 1.704-1.26 1.24-2.684 2.363-4.095 3.429-.504.38-1.023.738-1.576 1.044-1.069.59.316-1.034.794-1.533 1.222-1.277 2.637-2.528 3.854-3.81.24-.254.55-1.251-.299-1.008-1.795.514-3.28 1.412-4.482 2.038.884-.745 1.543-1.403 2.077-1.803a276.041 276.041 0 0 0 9.603-5.124c2.39-1.334 6.067-3.84 6.593-5.288.186-.51-.042-1.098-.576-1.191-2.458-.427-7.008 3.418-9.542 5.586-1.986 1.702-3.765 3.105-5.801 4.754-1.393.685-2.989 1.496-4.377 2.183-2.03 1.004-4.668 2.095-6.322 2.708-.73.271-1.83.525-2.589.69-1.98.426-1.387-.444-.436-1.118 1.505-1.069 1.73-1.34.922-1.064-1.313.448-5.075 2.909-2.692 3.298 1.334.218 3.278-.376 4.312-.75 2.136-.771 3.767-1.426 5.7-2.336.71-.334 1.408-.68 2.112-1.023-1.315 1.103-2.65 2.455-3.905 3.627-.738.688-.304 1.203.502.6 2.015-1.51 4.282-2.555 6.58-3.54-1.136 1.156-2.24 2.221-3.242 3.49-.635.804-1.835 2.602-.392 2.327 1.351-.258 2.556-1.263 3.624-2.07 1.108-.837 1.223-.922 2.265-1.843-.045.05.543-.404.498-.353-.53.593-.741.884-1.268 1.48-.598.672-1.123 1.406-1.643 2.143-5.943 4.6-11.83 9.588-16.959 14.98-2.095 2.2-5.858 6.67-3.355 7.186 1.242.256 2.67-.317 4.375-1.272 1.75-.98 3.037-2.157 4.48-3.548 5.158-4.971 7.945-10.234 11.566-15.82.214-.33.454-.64.682-.957 3.524-2.775 5.959-4.55 9.874-6.805-.273.208-.438.314-.71.524-.733.566-2.747 1.74-1.877 2.502.55.48 1.971-.185 2.427-.596-.483.794.384.75 1.376.59 2.418-.384 4.432-1.45 6.572-2.362 1.317-.562 2.628-1.134 3.957-1.666-.763.591-1.497 1.33-1.125 1.776.668.794 4.009-.799 4.68-1.05 1.532-.573 4.483-1.743 4.604-1.702-.491.265-1.426 1.684-.101 1.467.82-.134 5.6-1.916 8.925-3.21-.868.623-1.519 1.306-1.5 2.04.005.095.053.153.145.173.684.175 1.514-.235 2.153-.443 1.39-.452 2.76-.974 4.124-1.497 1.559-.599 3.089-1.27 4.636-1.896.32-.13 3.269-1.32 2.56-.448-.388.479-.834.911-1.23 1.384-.473.56-.018.775.658.562a6.953 6.953 0 0 0 1.286-.525c.287-.148-.205.045.054.4.342.47 1.158.014 1.567-.079.317-.073.486-.456.3-.712-.058-.08-.123-.17-.286-.209 1.03-.972 2.11-1.871 3.222-2.787 1.241-1.025 1.308-1.72-.094-.898M149.778.456c.066-.02.04-.009 0 0m-1.77 1.678c.057-.01.113-.034.17-.052.041.044.115.068.241.054.571-.063 1.105-.47 1.497-.85.24-.235.813-.897.297-1.147-.135-.067-.403.028-.529.065-.155.046-.298.121-.442.191-.576.288-1.037.761-1.397 1.283-.137.197-.162.508.164.456M42.667 22.814c.118-.04.224-.105.335-.16h.003c.074-.032.149-.064.225-.092.015-.005.068-.024.1-.033a2.407 2.407 0 0 1 .195-.041l.011.002h.004c.007.024.01.048.026.068.105.126.343.047.458.003.496-.184 1.05-.613 1.304-1.084l.027-.048c.045-.085.202-.348.08-.451-.349-.295-.953-.056-1.312.097-.7.295-1.531.792-1.85 1.512-.138.308.213.29.394.228m32.918-5.23c.13.026.28-.024.407-.085.07.115.289.067.387.042a3.05 3.05 0 0 0 1.188-.615c.333-.271.764-.67.78-1.134.015-.484-.714-.267-.94-.177a3.848 3.848 0 0 0-.749.405 5.259 5.259 0 0 0-.625.52c-.08.08-.156.164-.227.25-.063.076-.281.384-.112.153-.08.108-.428.571-.109.64" fill="#315ca5"/><path fill="none" d="M-36.453-48.691h246.61v136.06h-246.61z"/></svg>