<?xml version="1.0" encoding="UTF-8"?>
<svg id="svg14" width="188" height="88" version="1.1" xmlns="http://www.w3.org/2000/svg" xmlns:cc="http://creativecommons.org/ns#" xmlns:dc="http://purl.org/dc/elements/1.1/" xmlns:rdf="http://www.w3.org/1999/02/22-rdf-syntax-ns#">
 <metadata id="metadata20">
  <rdf:RDF>
   <cc:Work rdf:about="">
    <dc:format>image/svg+xml</dc:format>
    <dc:type rdf:resource="http://purl.org/dc/dcmitype/StillImage"/>
    <dc:title/>
   </cc:Work>
  </rdf:RDF>
 </metadata>
 <text id="text4" transform="matrix(1.25 0 0 1.25 54.99 -903.02)" style="line-height:0%"><tspan id="tspan2" x="0 7.2919002 14.9798 21.4687 28.815599 36.2505 42.871399 49.008301 52.175201 58.159199 64.143204 67.223198 69.346199 72.426201 78.410202 84.394203 89.784203" y="0" fill="#fff" font-family="CelesteSansPro" font-size="11" font-weight="700" style="line-height:1.25">AUSGABE 03 | 2010</tspan></text>
 <path id="path12" d="M-14.174-964.361h-18.75m791.192 0h18.75M-14.175 88h-18.75m791.191 0h18.75M0-978.535v-18.75M0 102.174v18.75M744.094-978.535v-18.75m0 1099.459v18.75" fill="none" stroke="#fff" stroke-miterlimit="10" stroke-width="1.5625"/>
 <style id="style3918" type="text/css">.st0{fill:#006AB3;}</style>
 <g id="g3934" transform="matrix(.20883 0 0 .20883 -26.756 -2.1493)">
  <path id="path3920" class="st0" d="m629.89 162.94v75.45c0 44.98-33.69 75.45-75.26 75.45-41.56 0-75.26-30.48-75.26-75.45v-75.45h38.14v72.17c0 23.32 16.62 39.26 37.12 39.26s37.12-15.94 37.12-39.26v-72.17z" fill="#006ab3"/>
  <path id="path3922" class="st0" d="m172.04 237.78c0-23.31 16.62-39.26 37.12-39.26s37.12 15.94 37.12 39.26v72.17h38.14v-75.45c0-44.98-33.69-75.45-75.26-75.45-13.51 0-26.16 3.27-37.12 9.16v-53.5h-38.14v195.24h38.14" fill="#006ab3"/>
  <path id="path3924" class="st0" d="m345.41 237.78c0-23.31 16.62-39.26 37.12-39.26s37.12 15.94 37.12 39.26v72.17h38.14v-75.45c0-44.98-33.69-75.45-75.26-75.45-13.51 0-26.16 3.27-37.12 9.16v-53.5h-38.14v195.24h38.14" fill="#006ab3"/>
  <path id="path3926" d="m928.13 275.36c-0.46-0.28-1.19-0.54-2.17-0.77s-2.05-0.34-3.19-0.34c-1.57 0-2.98 0.28-4.23 0.84s-2.32 1.53-3.22 2.9c-0.68 1.02-1.09 2.14-1.23 3.35s-0.21 1.64-0.21 2.7v2.8h-4.23v2.64h4.23v20.53h4.02v-20.53h6.48v-2.64h-6.48v-2.64c0-0.88 0.04-1.1 0.11-2.09 0.07-0.98 0.25-1.87 0.53-2.66s0.71-1.45 1.26-1.98 1.33-0.79 2.33-0.79c1.04 0 1.93 0.18 2.68 0.53s1.38 0.72 1.87 1.11zm-37.48 34.65h3.96v-11.14c0-0.77 0.03-1.55 0.08-2.32s0.17-1.51 0.35-2.22c0.39-1.44 0.97-2.65 1.74-3.62s1.63-1.45 2.6-1.45c1.61 0 2.46 0.86 2.57 2.59l3.48-1.21c-0.04-0.78-0.2-1.44-0.48-2.01-0.29-0.56-0.64-1.01-1.07-1.35-0.43-0.33-0.9-0.58-1.42-0.74s-1.01-0.24-1.47-0.24c-1.39 0-2.61 0.39-3.64 1.16-1.04 0.77-1.91 1.81-2.63 3.11l-0.54-4.01-4.02 0.37c0.04 0.18 0.08 0.48 0.13 0.92s0.11 0.94 0.16 1.51c0.05 0.56 0.1 1.14 0.13 1.74 0.04 0.6 0.06 1.16 0.06 1.69v17.22zm-13.42-4.96c-1.23 1.72-2.96 2.59-5.17 2.59-2.22 0-3.94-0.86-5.17-2.59-1.23-1.72-1.85-4.01-1.85-6.86 0-2.82 0.61-5.07 1.82-6.76s2.95-2.53 5.2-2.53 3.98 0.84 5.2 2.53 1.82 3.94 1.82 6.76c-0.01 2.85-0.62 5.14-1.85 6.86m5.59-11.74c-0.5-1.5-1.23-2.77-2.2-3.83-0.96-1.06-2.17-1.87-3.62-2.45s-3.1-0.87-4.96-0.87-3.5 0.29-4.93 0.87-2.63 1.4-3.62 2.45c-0.98 1.06-1.72 2.33-2.22 3.83s-0.75 3.16-0.75 4.99c0 1.9 0.29 3.62 0.88 5.15s1.4 2.83 2.44 3.91c1.04 1.07 2.26 1.9 3.67 2.48s2.92 0.87 4.53 0.87 3.11-0.29 4.53-0.87c1.41-0.58 2.63-1.41 3.67-2.48s1.85-2.38 2.44-3.91 0.88-3.24 0.88-5.15c0.01-1.84-0.24-3.5-0.74-4.99m-32.68 16.97 4.02-0.37c-0.04-0.18-0.08-0.48-0.13-0.92s-0.11-0.93-0.16-1.48c-0.05-0.54-0.1-1.12-0.13-1.74-0.04-0.61-0.05-1.19-0.05-1.72v-29.54h-3.86v15.65c-0.57-1.09-1.49-2.03-2.76-2.82s-2.76-1.19-4.47-1.19c-1.46 0-2.84 0.26-4.13 0.79-1.28 0.53-2.41 1.31-3.37 2.35s-1.73 2.34-2.3 3.9c-0.57 1.57-0.86 3.37-0.86 5.41 0 1.65 0.2 3.21 0.62 4.67 0.41 1.46 1.04 2.75 1.87 3.85 0.84 1.11 1.91 1.98 3.22 2.61 1.3 0.63 2.85 0.95 4.63 0.95 1.14 0 2.13-0.16 2.98-0.47 0.84-0.32 1.55-0.7 2.14-1.16s1.06-0.94 1.42-1.45 0.62-0.96 0.8-1.35zm-1.07-7.18c-0.54 1.27-1.19 2.24-1.96 2.93s-1.57 1.14-2.41 1.37-1.54 0.34-2.12 0.34c-1.07 0-2-0.24-2.79-0.71s-1.44-1.13-1.95-1.98c-0.52-0.84-0.9-1.85-1.15-3.01s-0.37-2.41-0.37-3.75c0-1.37 0.16-2.63 0.48-3.77s0.78-2.12 1.37-2.93 1.29-1.43 2.12-1.87c0.82-0.44 1.72-0.66 2.68-0.66 0.93 0 1.81 0.17 2.65 0.5s1.57 0.87 2.2 1.61c0.62 0.74 1.12 1.67 1.5 2.8s0.56 2.48 0.56 4.06c-0.01 2.11-0.27 3.8-0.81 5.07m-24.48-28.59h-4.23v35.5h4.23zm-17.43 16.13c0.91 1.26 1.37 2.96 1.37 5.07v0.79h-11.63c0.14-1.02 0.39-2 0.75-2.93s0.81-1.76 1.37-2.48c0.55-0.72 1.21-1.29 1.98-1.72 0.77-0.42 1.63-0.63 2.6-0.63 1.46 0 2.64 0.63 3.56 1.9m5.54 8.5v-2.32c0-1.3-0.15-2.59-0.46-3.88-0.3-1.28-0.81-2.43-1.53-3.43-0.71-1-1.67-1.81-2.86-2.43-1.2-0.62-2.71-0.93-4.53-0.93-1.5 0-2.9 0.3-4.21 0.9-1.3 0.6-2.44 1.43-3.4 2.51-0.96 1.07-1.72 2.36-2.28 3.85s-0.83 3.16-0.83 4.99c0 4.05 0.95 7.11 2.84 9.18 1.89 2.08 4.7 3.11 8.41 3.11 1.93 0 3.62-0.39 5.09-1.16 1.46-0.77 2.84-1.9 4.12-3.38l-1.66-1.69c-1.57 1.37-2.92 2.27-4.05 2.69-1.12 0.42-2.22 0.63-3.29 0.63-2.36 0-4.13-0.75-5.3-2.24s-1.84-3.64-1.98-6.42h15.92zm-26.65 1.29c-0.45-0.79-1.02-1.47-1.72-2.03s-1.46-1-2.28-1.32-1.63-0.58-2.41-0.79c-1.47-0.39-2.65-0.93-3.56-1.64-0.91-0.7-1.37-1.65-1.37-2.85 0-0.92 0.4-1.68 1.21-2.3 0.8-0.62 1.83-0.93 3.08-0.93 1.32 0 2.35 0.25 3.08 0.74s1.37 1 1.9 1.53l2.04-2.58c-0.57-0.49-1.4-0.97-2.49-1.43s-2.55-0.69-4.37-0.69c-1.11 0-2.16 0.13-3.16 0.4-1 0.26-1.88 0.66-2.65 1.19s-1.38 1.19-1.85 2-0.7 1.74-0.7 2.8c0 1.23 0.21 2.26 0.64 3.09s0.98 1.52 1.66 2.06 1.41 0.97 2.2 1.27 1.53 0.55 2.25 0.76c1.5 0.42 2.71 0.94 3.62 1.56s1.37 1.65 1.37 3.09c0 1.23-0.37 2.17-1.1 2.82s-1.78 0.98-3.14 0.98c-0.71 0-1.38-0.11-2.01-0.34s-1.21-0.52-1.74-0.87c-0.54-0.35-1.01-0.71-1.42-1.08s-0.74-0.71-0.99-1.03l-2.04 3.22c2.25 1.76 4.96 2.64 8.14 2.64 1.18 0 2.29-0.16 3.32-0.47 1.04-0.32 1.93-0.78 2.68-1.4 0.75-0.61 1.35-1.38 1.79-2.3 0.45-0.92 0.67-1.97 0.67-3.17 0.02-1.16-0.21-2.14-0.65-2.93m-22.34 0c-0.45-0.79-1.02-1.47-1.71-2.03-0.7-0.56-1.46-1-2.28-1.32s-1.62-0.58-2.41-0.79c-1.46-0.39-2.65-0.93-3.56-1.64-0.91-0.7-1.37-1.65-1.37-2.85 0-0.92 0.4-1.68 1.2-2.3s1.83-0.93 3.08-0.93c1.32 0 2.35 0.25 3.08 0.74s1.37 1 1.9 1.53l2.04-2.58c-0.57-0.49-1.4-0.97-2.49-1.43s-2.54-0.69-4.37-0.69c-1.11 0-2.16 0.13-3.16 0.4-1 0.26-1.88 0.66-2.65 1.19s-1.38 1.19-1.85 2c-0.46 0.81-0.7 1.74-0.7 2.8 0 1.23 0.21 2.26 0.64 3.09s0.98 1.52 1.66 2.06 1.41 0.97 2.2 1.27 1.54 0.55 2.25 0.76c1.5 0.42 2.71 0.94 3.62 1.56s1.37 1.65 1.37 3.09c0 1.23-0.37 2.17-1.1 2.82s-1.78 0.98-3.13 0.98c-0.72 0-1.39-0.11-2.01-0.34-0.63-0.23-1.21-0.52-1.74-0.87-0.54-0.35-1.01-0.71-1.42-1.08s-0.74-0.71-0.99-1.03l-2.04 3.22c2.25 1.76 4.96 2.64 8.14 2.64 1.18 0 2.29-0.16 3.32-0.47 1.04-0.32 1.93-0.78 2.68-1.4 0.75-0.61 1.35-1.38 1.79-2.3 0.45-0.92 0.67-1.97 0.67-3.17 0.01-1.16-0.22-2.14-0.66-2.93m-36.46-23.41c-0.46-0.47-1.05-0.71-1.77-0.71-0.68 0-1.26 0.24-1.74 0.71s-0.72 1.03-0.72 1.66 0.24 1.19 0.72 1.66 1.06 0.71 1.74 0.71c0.72 0 1.3-0.24 1.77-0.71 0.46-0.48 0.7-1.03 0.7-1.66s-0.24-1.19-0.7-1.66m9.88 0c-0.48-0.47-1.06-0.71-1.74-0.71-0.72 0-1.31 0.24-1.77 0.71s-0.7 1.03-0.7 1.66 0.23 1.19 0.7 1.66c0.46 0.47 1.05 0.71 1.77 0.71 0.68 0 1.26-0.24 1.74-0.71 0.48-0.48 0.73-1.03 0.73-1.66s-0.24-1.19-0.73-1.66m-16.63 9.82v14.57c0 1.23 0.05 2.41 0.16 3.54 0.11 1.12 0.43 2.11 0.96 2.96 0.53 0.84 1.35 1.52 2.44 2.03s2.6 0.77 4.53 0.77c1.21 0 2.28-0.19 3.19-0.55 0.91-0.37 1.68-0.8 2.31-1.29 0.62-0.49 1.12-0.99 1.47-1.48 0.36-0.49 0.63-0.86 0.8-1.11l0.53 4.01 4.02-0.37c-0.04-0.18-0.08-0.48-0.13-0.92s-0.11-0.93-0.16-1.48c-0.05-0.54-0.1-1.12-0.13-1.74-0.03-0.61-0.05-1.19-0.05-1.72v-17.21h-4.18v12.98c0 1.06-0.17 2.06-0.51 3.01s-0.8 1.78-1.39 2.48-1.29 1.26-2.09 1.66-1.69 0.61-2.65 0.61c-1.07 0-1.94-0.13-2.6-0.4-0.66-0.26-1.16-0.66-1.5-1.19s-0.56-1.18-0.67-1.95-0.16-1.65-0.16-2.64v-14.57zm-13.13 13.35c-0.68 1.83-1.61 3.27-2.78 4.33-1.18 1.06-2.54 1.79-4.07 2.19-1.54 0.4-3.16 0.61-4.88 0.61-0.68 0-1.36-0.02-2.04-0.05-0.68-0.04-1.43-0.11-2.25-0.21l-0.18-28.07c0.61-0.04 1.22-0.05 1.85-0.05h1.79c4.68 0 8.08 1.15 10.21 3.46 2.12 2.31 3.37 6.34 3.37 10.84 0 2.8-0.34 5.12-1.02 6.95m4.4-14.88c-0.8-2.04-1.96-3.73-3.45-5.07-1.5-1.34-3.32-2.34-5.47-3.01-2.14-0.67-4.54-1-7.18-1-1.11 0-1.98 0.01-2.63 0.03-0.64 0.02-1.23 0.04-1.77 0.05-0.53 0.02-1.12 0.04-1.77 0.05-0.64 0.02-1.52 0.05-2.63 0.08l0.18 33.56c1.04 0 2.31 0.02 3.83 0.05s3.15 0.05 4.9 0.05c1.79 0 3.7-0.23 5.73-0.69s3.91-1.3 5.62-2.53c1.72-1.23 3.14-2.96 4.29-5.17 1.14-2.22 1.71-5.09 1.71-8.6 0.03-2.73-0.55-5.76-1.36-7.8"/>
  <path id="path3928" d="m923.59 249.82c-0.5 0.25-0.95 0.43-1.36 0.55s-0.86 0.18-1.36 0.18c-0.28 0-0.62-0.05-1.01-0.16s-0.69-0.25-0.91-0.42c-0.5-0.39-0.79-0.86-0.88-1.42s-0.13-1.44-0.13-2.64v-13.72h5.53v-2.64h-5.53v-6.81l-4.04 0.95v5.86h-3.94v2.64h3.94v14.09c0 1.19 0.04 2.23 0.13 3.09s0.36 1.59 0.82 2.19c0.5 0.67 1.14 1.14 1.94 1.42s1.64 0.42 2.53 0.42c0.92 0 1.84-0.14 2.74-0.42 0.91-0.28 1.68-0.67 2.32-1.16zm-31.55-29.9c-0.46-0.47-1.05-0.71-1.75-0.71-0.67 0-1.25 0.24-1.73 0.71s-0.72 1.03-0.72 1.66 0.24 1.19 0.72 1.66 1.06 0.71 1.73 0.71c0.71 0 1.29-0.24 1.75-0.71s0.69-1.03 0.69-1.66-0.23-1.19-0.69-1.66m9.82 0c-0.48-0.47-1.06-0.71-1.73-0.71-0.71 0-1.3 0.24-1.76 0.71s-0.69 1.03-0.69 1.66 0.23 1.19 0.69 1.66 1.05 0.71 1.76 0.71c0.67 0 1.25-0.24 1.73-0.71s0.72-1.03 0.72-1.66-0.24-1.19-0.72-1.66m-2.56 23.8c-0.02 0.69-0.06 1.36-0.13 2.03-0.11 0.88-0.36 1.63-0.77 2.25-0.41 0.61-0.88 1.11-1.41 1.48s-1.08 0.63-1.65 0.79-1.05 0.24-1.44 0.24c-0.53 0-1.05-0.07-1.54-0.21-0.5-0.14-0.93-0.37-1.3-0.69s-0.67-0.73-0.91-1.24c-0.23-0.51-0.34-1.15-0.34-1.93 0-0.77 0.16-1.42 0.48-1.95s0.71-0.96 1.17-1.29 0.94-0.59 1.44-0.77 0.92-0.3 1.28-0.37c0.43-0.11 0.9-0.18 1.41-0.21s1.01-0.07 1.49-0.11c0.48-0.03 0.92-0.05 1.33-0.05h0.93c-0.01 0.67-0.02 1.35-0.04 2.03m7.48 6.52c-0.64 0.18-1.26 0.26-1.86 0.26-0.5 0-0.9-0.17-1.2-0.5s-0.45-1.03-0.45-2.08v-12.25c0-0.42-0.01-0.86-0.03-1.32s-0.08-0.92-0.19-1.37c-0.11-0.46-0.28-0.9-0.53-1.32s-0.58-0.79-1.01-1.11c-0.92-0.7-1.94-1.16-3.06-1.37s-2.19-0.32-3.22-0.32c-0.96 0-1.91 0.09-2.85 0.26-0.94 0.18-1.8 0.48-2.58 0.9s-1.45 0.98-1.99 1.66c-0.55 0.69-0.92 1.56-1.09 2.61l3.24 1.06c0.11-0.53 0.25-1.02 0.43-1.48s0.45-0.87 0.82-1.24 0.86-0.66 1.46-0.87 1.37-0.32 2.29-0.32c0.5 0 0.98 0.05 1.44 0.13 0.46 0.09 0.88 0.24 1.28 0.45 0.6 0.32 1.03 0.72 1.28 1.21s0.37 1.2 0.37 2.11v4.01c-1.2 0-2.24 0.02-3.11 0.05-0.87 0.04-1.71 0.11-2.53 0.21-1.13 0.18-2.18 0.46-3.14 0.84-0.96 0.39-1.79 0.89-2.5 1.51-0.71 0.61-1.27 1.34-1.68 2.19s-0.61 1.79-0.61 2.85 0.2 1.99 0.59 2.8 0.9 1.48 1.52 2c0.62 0.53 1.32 0.93 2.1 1.19s1.58 0.4 2.39 0.4c1.92 0 3.47-0.42 4.66-1.27s2.01-1.81 2.47-2.9c0.11 1.06 0.47 1.97 1.09 2.74s1.53 1.16 2.74 1.16c0.71 0 1.39-0.07 2.05-0.21s1.12-0.25 1.41-0.32zm-26.82-0.42c-0.5 0.25-0.95 0.43-1.36 0.55s-0.86 0.18-1.36 0.18c-0.28 0-0.62-0.05-1.01-0.16s-0.69-0.25-0.91-0.42c-0.5-0.39-0.79-0.86-0.88-1.42s-0.13-1.44-0.13-2.64v-13.72h5.53v-2.64h-5.53v-6.81l-4.04 0.95v5.86h-3.94v2.64h3.94v14.09c0 1.19 0.04 2.23 0.13 3.09s0.36 1.59 0.83 2.19c0.5 0.67 1.14 1.14 1.94 1.42s1.64 0.42 2.53 0.42c0.92 0 1.84-0.14 2.74-0.42 0.91-0.28 1.68-0.67 2.32-1.16zm-20.59-20.27h-4.26v23.17h4.26zm-0.21-11.22c-0.53-0.54-1.15-0.82-1.86-0.82-0.74 0-1.38 0.27-1.92 0.82-0.53 0.55-0.8 1.17-0.8 1.87 0 0.71 0.26 1.32 0.8 1.85 0.53 0.53 1.17 0.79 1.92 0.79 0.71 0 1.33-0.26 1.86-0.79s0.8-1.14 0.8-1.85c0-0.7-0.27-1.32-0.8-1.87m-12.26 24.81c-0.44-0.79-1.01-1.47-1.7-2.03s-1.45-1-2.26-1.32c-0.82-0.32-1.61-0.58-2.39-0.79-1.45-0.39-2.63-0.93-3.54-1.64-0.9-0.7-1.36-1.65-1.36-2.85 0-0.91 0.4-1.68 1.2-2.3 0.8-0.61 1.82-0.92 3.06-0.92 1.31 0 2.33 0.25 3.06 0.74s1.36 1 1.89 1.53l2.02-2.59c-0.57-0.49-1.39-0.97-2.47-1.42-1.08-0.46-2.53-0.69-4.34-0.69-1.1 0-2.15 0.13-3.14 0.4-0.99 0.26-1.87 0.66-2.63 1.19s-1.38 1.2-1.84 2.01-0.69 1.74-0.69 2.8c0 1.23 0.21 2.26 0.64 3.09 0.42 0.83 0.98 1.51 1.65 2.06s1.4 0.97 2.18 1.27 1.52 0.55 2.24 0.77c1.49 0.42 2.69 0.94 3.59 1.56s1.36 1.65 1.36 3.09c0 1.23-0.36 2.17-1.09 2.82s-1.77 0.98-3.11 0.98c-0.71 0-1.38-0.11-1.99-0.34-0.62-0.23-1.2-0.52-1.73-0.87s-1-0.71-1.41-1.08-0.74-0.71-0.99-1.03l-2.02 3.22c2.23 1.76 4.93 2.64 8.09 2.64 1.17 0 2.27-0.16 3.3-0.48s1.92-0.78 2.66-1.4c0.75-0.62 1.34-1.38 1.78-2.3s0.66-1.97 0.66-3.17c-0.02-1.18-0.24-2.16-0.68-2.95m-34.24 9.58h3.94v-11.14c0-0.77 0.03-1.55 0.08-2.32s0.17-1.51 0.35-2.22c0.39-1.44 0.97-2.65 1.73-3.62s1.62-1.45 2.58-1.45c1.59 0 2.45 0.86 2.55 2.58l3.46-1.21c-0.04-0.77-0.2-1.44-0.48-2s-0.64-1.01-1.06-1.35-0.9-0.58-1.41-0.74c-0.52-0.16-1-0.24-1.46-0.24-1.38 0-2.59 0.39-3.62 1.16s-1.9 1.81-2.61 3.11l-0.53-4.01-3.99 0.37c0.03 0.18 0.08 0.48 0.13 0.93 0.05 0.44 0.11 0.94 0.16 1.5s0.1 1.14 0.13 1.74 0.05 1.16 0.05 1.69zm-12.85-19.37c0.9 1.27 1.36 2.96 1.36 5.07v0.79h-11.55c0.14-1.02 0.39-1.99 0.75-2.93 0.35-0.93 0.8-1.76 1.36-2.48 0.55-0.72 1.2-1.29 1.97-1.72 0.76-0.42 1.62-0.63 2.58-0.63 1.45 0 2.63 0.63 3.53 1.9m5.51 8.5v-2.32c0-1.3-0.15-2.59-0.45-3.88-0.3-1.28-0.81-2.43-1.52-3.43s-1.66-1.81-2.85-2.43c-1.19-0.61-2.69-0.92-4.5-0.92-1.49 0-2.88 0.3-4.18 0.9s-2.42 1.44-3.38 2.51-1.71 2.36-2.26 3.85c-0.55 1.5-0.83 3.16-0.83 4.99 0 4.05 0.94 7.11 2.82 9.19s4.66 3.11 8.35 3.11c1.92 0 3.6-0.39 5.05-1.16 1.45-0.78 2.82-1.9 4.1-3.38l-1.65-1.69c-1.56 1.37-2.9 2.27-4.02 2.69s-2.21 0.63-3.27 0.63c-2.34 0-4.1-0.75-5.27-2.24s-1.83-3.63-1.97-6.41zm-41.02-12.3h-4.57l9.52 23.65h3.35l9.74-23.65h-3.83l-6.17 16.26c-0.6 1.62-0.94 2.83-1.01 3.64-0.07-0.39-0.18-0.9-0.32-1.53s-0.39-1.41-0.74-2.32zm-10.4 0h-4.26v23.17h4.26zm-0.22-11.22c-0.53-0.54-1.15-0.82-1.86-0.82-0.74 0-1.38 0.27-1.92 0.82-0.53 0.55-0.8 1.17-0.8 1.87 0 0.71 0.27 1.32 0.8 1.85s1.17 0.79 1.92 0.79c0.71 0 1.33-0.26 1.86-0.79s0.8-1.14 0.8-1.85c0-0.7-0.27-1.32-0.8-1.87m-12.47 34.39v-14.57c0-1.23-0.05-2.41-0.16-3.54-0.11-1.12-0.43-2.11-0.96-2.96s-1.34-1.52-2.42-2.03-2.58-0.76-4.5-0.76c-1.2 0-2.26 0.18-3.17 0.55-0.9 0.37-1.67 0.8-2.29 1.29s-1.12 0.99-1.49 1.48-0.63 0.86-0.77 1.11l-0.53-4.01-3.99 0.37c0.04 0.18 0.08 0.48 0.13 0.93 0.05 0.44 0.11 0.94 0.16 1.5s0.1 1.14 0.13 1.74c0.04 0.6 0.05 1.16 0.05 1.69v17.21h4.15v-12.98c0-1.06 0.17-2.06 0.51-3.01s0.8-1.78 1.38-2.48c0.59-0.7 1.28-1.26 2.07-1.66 0.8-0.4 1.68-0.61 2.64-0.61 1.06 0 1.92 0.13 2.58 0.4 0.66 0.26 1.15 0.66 1.49 1.19s0.56 1.18 0.66 1.95c0.11 0.77 0.16 1.65 0.16 2.64v14.57h4.17zm-28.62-32.94h-4.15v20.27c0 2.18-0.22 3.97-0.66 5.36s-1.06 2.49-1.84 3.3-1.69 1.37-2.74 1.66c-1.05 0.3-2.17 0.45-3.38 0.45-1.24 0-2.38-0.15-3.43-0.45s-1.95-0.85-2.71-1.66-1.37-1.91-1.81-3.3-0.66-3.18-0.66-5.36v-20.27h-4.31v20.64c0 4.86 1.08 8.31 3.24 10.35s5.39 3.06 9.68 3.06 7.49-1.02 9.6-3.06 3.17-5.49 3.17-10.35z"/>
  <path id="path3930" d="m996.79 176.51c0.9 1.26 1.35 2.96 1.35 5.07v0.79h-11.45c0.14-1.02 0.39-2 0.74-2.93s0.8-1.76 1.35-2.48c0.54-0.72 1.19-1.29 1.95-1.72 0.76-0.42 1.61-0.63 2.56-0.63 1.44 0 2.61 0.64 3.5 1.9m5.47 8.5v-2.32c0-1.3-0.15-2.59-0.45-3.88s-0.8-2.43-1.51-3.43c-0.7-1-1.65-1.81-2.82-2.43-1.18-0.61-2.66-0.92-4.46-0.92-1.48 0-2.86 0.3-4.14 0.9-1.29 0.6-2.4 1.43-3.35 2.51-0.95 1.07-1.7 2.36-2.24 3.85-0.55 1.5-0.82 3.16-0.82 4.99 0 4.05 0.93 7.11 2.8 9.19 1.86 2.08 4.63 3.11 8.29 3.11 1.9 0 3.57-0.39 5.01-1.16s2.8-1.9 4.06-3.38l-1.64-1.69c-1.55 1.37-2.88 2.27-3.98 2.69-1.11 0.42-2.19 0.63-3.25 0.63-2.32 0-4.06-0.75-5.23-2.25-1.16-1.49-1.81-3.63-1.95-6.41zm-26.1 10.87v-14.57c0-1.23-0.05-2.41-0.16-3.54-0.1-1.12-0.42-2.11-0.95-2.96-0.53-0.84-1.33-1.52-2.4-2.03s-2.56-0.77-4.46-0.77c-1.19 0-2.24 0.19-3.14 0.55-0.9 0.37-1.65 0.8-2.27 1.29s-1.11 0.99-1.48 1.48-0.62 0.86-0.77 1.11l-0.53-4.01-3.96 0.37c0.03 0.18 0.08 0.48 0.13 0.92s0.1 0.94 0.16 1.51c0.05 0.56 0.1 1.14 0.13 1.74 0.04 0.6 0.05 1.16 0.05 1.69v17.21h4.12v-12.97c0-1.06 0.17-2.06 0.5-3.01s0.79-1.78 1.37-2.48 1.27-1.26 2.06-1.66 1.66-0.61 2.61-0.61c1.06 0 1.91 0.13 2.56 0.4 0.65 0.26 1.14 0.66 1.48 1.19 0.33 0.53 0.55 1.18 0.66 1.95s0.16 1.65 0.16 2.64v14.57zm-28.19-23.17h-4.22v23.17h4.22zm-0.21-11.21c-0.53-0.55-1.14-0.82-1.85-0.82-0.74 0-1.37 0.27-1.9 0.82-0.53 0.54-0.79 1.17-0.79 1.87s0.26 1.32 0.79 1.85 1.16 0.79 1.9 0.79c0.7 0 1.32-0.26 1.85-0.79s0.79-1.14 0.79-1.85-0.26-1.33-0.79-1.87m-16.44 15.01c0.9 1.26 1.35 2.96 1.35 5.07v0.79h-11.45c0.14-1.02 0.39-2 0.74-2.93s0.8-1.76 1.34-2.48c0.55-0.72 1.2-1.29 1.95-1.72 0.76-0.42 1.61-0.63 2.56-0.63 1.45 0 2.62 0.64 3.51 1.9m5.47 8.5v-2.32c0-1.3-0.15-2.59-0.45-3.88-0.3-1.28-0.8-2.43-1.51-3.43-0.7-1-1.65-1.81-2.82-2.43-1.18-0.61-2.67-0.92-4.46-0.92-1.48 0-2.86 0.3-4.14 0.9s-2.4 1.43-3.35 2.51c-0.95 1.07-1.7 2.36-2.24 3.85-0.55 1.5-0.82 3.16-0.82 4.99 0 4.05 0.93 7.11 2.8 9.19 1.86 2.08 4.63 3.11 8.29 3.11 1.9 0 3.57-0.39 5.02-1.16 1.44-0.77 2.8-1.9 4.06-3.38l-1.64-1.69c-1.55 1.37-2.88 2.27-3.98 2.69-1.11 0.42-2.19 0.63-3.25 0.63-2.32 0-4.06-0.75-5.23-2.25-1.16-1.49-1.81-3.63-1.95-6.41zm-47.4 10.87v-15.73h16.2v15.73h4.22v-32.94h-4.22v14.3h-16.2v-14.3h-4.22v32.94zm-43.92-35.88h-4.12v35.89h4.12v-12.99c0-1.06 0.17-2.06 0.5-3.01s0.79-1.78 1.37-2.48 1.27-1.26 2.06-1.66 1.66-0.61 2.61-0.61c1.06 0 1.91 0.13 2.56 0.4 0.65 0.26 1.14 0.66 1.48 1.19 0.33 0.53 0.55 1.18 0.66 1.95 0.1 0.77 0.16 1.65 0.16 2.64v14.57h4.12v-14.57c0-1.23-0.05-2.41-0.16-3.54-0.11-1.12-0.42-2.11-0.95-2.96-0.53-0.84-1.33-1.52-2.4-2.03s-2.56-0.77-4.46-0.77c-1.2 0-2.24 0.18-3.11 0.53-0.88 0.35-1.62 0.77-2.22 1.24s-1.08 0.96-1.45 1.45-0.62 0.86-0.77 1.11zm-11.14 30.66c-1.3 1.23-2.43 2.05-3.38 2.45s-1.97 0.61-3.06 0.61c-1.27 0-2.33-0.25-3.19-0.74s-1.56-1.16-2.08-2.01c-0.53-0.84-0.91-1.81-1.13-2.9-0.23-1.09-0.34-2.22-0.34-3.38s0.13-2.34 0.4-3.54c0.26-1.2 0.68-2.28 1.24-3.25s1.28-1.76 2.16-2.38c0.88-0.61 1.92-0.92 3.11-0.92 1.34 0 2.4 0.21 3.19 0.63s1.51 0.95 2.14 1.58l2-3.01c-1.02-0.7-2.14-1.18-3.35-1.43s-2.4-0.37-3.56-0.37c-1.79 0-3.42 0.31-4.88 0.92-1.46 0.62-2.69 1.48-3.7 2.59-1 1.11-1.78 2.43-2.32 3.96s-0.82 3.21-0.82 5.04c0 3.94 0.98 6.93 2.96 8.97 1.97 2.04 4.7 3.06 8.18 3.06 0.56 0 1.19-0.06 1.87-0.19s1.38-0.33 2.08-0.63 1.4-0.72 2.09-1.27c0.69-0.54 1.35-1.24 1.98-2.08zm-24.23-17.95h-4.22v23.17h4.22zm-0.21-11.21c-0.53-0.55-1.14-0.82-1.85-0.82-0.74 0-1.37 0.27-1.9 0.82-0.53 0.54-0.79 1.17-0.79 1.87s0.26 1.32 0.79 1.85 1.16 0.79 1.9 0.79c0.71 0 1.32-0.26 1.85-0.79s0.79-1.14 0.79-1.85-0.26-1.33-0.79-1.87m-23.63 34.38h3.9v-11.14c0-0.77 0.03-1.55 0.08-2.32 0.05-0.78 0.17-1.51 0.34-2.22 0.39-1.44 0.96-2.65 1.72-3.62 0.75-0.97 1.61-1.45 2.56-1.45 1.59 0 2.43 0.86 2.53 2.58l3.43-1.21c-0.03-0.78-0.19-1.44-0.47-2.01-0.28-0.56-0.63-1.01-1.06-1.35-0.42-0.33-0.89-0.58-1.4-0.74s-0.99-0.24-1.45-0.24c-1.37 0-2.57 0.39-3.59 1.16s-1.88 1.81-2.59 3.11l-0.53-4.01-3.96 0.37c0.03 0.18 0.08 0.48 0.13 0.92s0.11 0.94 0.16 1.51c0.05 0.56 0.1 1.14 0.13 1.74s0.05 1.16 0.05 1.69v17.23zm-7.84 0v-14.57c0-1.23-0.05-2.41-0.16-3.54-0.11-1.12-0.42-2.11-0.95-2.96-0.53-0.84-1.33-1.52-2.4-2.03s-2.56-0.77-4.46-0.77c-1.2 0-2.24 0.19-3.14 0.55-0.9 0.37-1.66 0.8-2.27 1.29s-1.11 0.99-1.48 1.48-0.63 0.86-0.77 1.11l-0.53-4.01-3.96 0.37c0.03 0.18 0.08 0.48 0.13 0.92s0.11 0.94 0.16 1.51c0.05 0.56 0.1 1.14 0.13 1.74s0.05 1.16 0.05 1.69v17.21h4.12v-12.97c0-1.06 0.17-2.06 0.5-3.01s0.79-1.78 1.37-2.48 1.27-1.26 2.06-1.66 1.66-0.61 2.61-0.61c1.06 0 1.91 0.13 2.56 0.4 0.65 0.26 1.14 0.66 1.48 1.19s0.55 1.18 0.66 1.95 0.16 1.65 0.16 2.64v14.57zm-28.29-23.17h-4.22v23.17h4.22zm-0.22-11.21c-0.53-0.55-1.14-0.82-1.85-0.82-0.74 0-1.37 0.27-1.9 0.82-0.53 0.54-0.79 1.17-0.79 1.87s0.26 1.32 0.79 1.85 1.16 0.79 1.9 0.79c0.7 0 1.32-0.26 1.85-0.79s0.79-1.14 0.79-1.85-0.26-1.33-0.79-1.87m-16.81 15.01c0.9 1.26 1.35 2.96 1.35 5.07v0.79h-11.45c0.14-1.02 0.39-2 0.74-2.93s0.8-1.76 1.35-2.48c0.54-0.72 1.19-1.29 1.95-1.72 0.76-0.42 1.61-0.63 2.56-0.63 1.43 0 2.61 0.64 3.5 1.9m5.47 8.5v-2.32c0-1.3-0.15-2.59-0.45-3.88s-0.8-2.43-1.5-3.43c-0.71-1-1.65-1.81-2.83-2.43-1.18-0.61-2.66-0.92-4.46-0.92-1.48 0-2.86 0.3-4.14 0.9-1.29 0.6-2.4 1.43-3.35 2.51-0.95 1.07-1.7 2.36-2.24 3.85-0.55 1.5-0.82 3.16-0.82 4.99 0 4.05 0.93 7.11 2.8 9.19 1.86 2.08 4.63 3.11 8.29 3.11 1.9 0 3.57-0.39 5.01-1.16s2.8-1.9 4.07-3.38l-1.64-1.69c-1.55 1.37-2.88 2.27-3.98 2.69-1.11 0.42-2.19 0.63-3.24 0.63-2.32 0-4.07-0.75-5.23-2.25-1.16-1.49-1.81-3.63-1.95-6.41zm-47.35 10.87v-15.73h16.21v15.73h4.22v-32.94h-4.22v14.3h-16.21v-14.3h-4.22v32.94z"/>
  <path id="path3932" class="st0" d="m962.74 331.33h34.73c15.24 0 27.6-12.32 27.6-27.53s-12.36-27.53-27.6-27.53h-34.73z" fill="#006ab3"/>
 </g>
</svg>
