<?xml version="1.0" encoding="UTF-8" standalone="no"?>
<!-- Generator: Adobe Illustrator 24.1.2, SVG Export Plug-In . SVG Version: 6.00 Build 0)  -->

<svg
   version="1.1"
   id="Layer_7"
   x="0px"
   y="0px"
   viewBox="0 0 143.77736 82.020607"
   xml:space="preserve"
   sodipodi:docname="neurobagel.svg"
   width="143.77736"
   height="82.020607"
   inkscape:version="1.1.1 (c3084ef, 2021-09-22)"
   xmlns:inkscape="http://www.inkscape.org/namespaces/inkscape"
   xmlns:sodipodi="http://sodipodi.sourceforge.net/DTD/sodipodi-0.dtd"
   xmlns="http://www.w3.org/2000/svg"
   xmlns:svg="http://www.w3.org/2000/svg"><defs
   id="defs883"><rect
     x="19.460468"
     y="-49.29985"
     width="171.9008"
     height="44.759075"
     id="rect2282" /><radialGradient
     id="SVGID_1_"
     cx="64.214401"
     cy="44.094898"
     r="65.575897"
     gradientTransform="matrix(1,-0.00653581,0.00426122,0.652,-0.1865,15.7662)"
     gradientUnits="userSpaceOnUse"><stop
       offset="0.1616"
       style="stop-color:#F1B14A"
       id="stop1093" /><stop
       offset="0.1688"
       style="stop-color:#F1B049"
       id="stop1095" /><stop
       offset="0.3704"
       style="stop-color:#E89825"
       id="stop1097" /><stop
       offset="0.5354"
       style="stop-color:#E28810"
       id="stop1099" /><stop
       offset="0.6425"
       style="stop-color:#E08308"
       id="stop1101" /><stop
       offset="0.7125"
       style="stop-color:#E1860D"
       id="stop1103" /><stop
       offset="0.7924"
       style="stop-color:#E5901B"
       id="stop1105" /><stop
       offset="0.877"
       style="stop-color:#EBA031"
       id="stop1107" /><stop
       offset="0.947"
       style="stop-color:#F1B14A"
       id="stop1109" /></radialGradient></defs><sodipodi:namedview
   id="namedview881"
   pagecolor="#ffffff"
   bordercolor="#666666"
   borderopacity="1.0"
   inkscape:pageshadow="2"
   inkscape:pageopacity="0.0"
   inkscape:pagecheckerboard="0"
   showgrid="false"
   inkscape:zoom="1.5415868"
   inkscape:cx="110.27598"
   inkscape:cy="206.6053"
   inkscape:window-width="2560"
   inkscape:window-height="1387"
   inkscape:window-x="0"
   inkscape:window-y="25"
   inkscape:window-maximized="1"
   inkscape:current-layer="Layer_7" />

<g
   id="g1425"
   transform="matrix(0.50557757,0,0,0.50557757,4.0120061,23.572559)"><g
     id="g876">
	<g
   id="g826">
		<path
   style="fill:#e06767"
   d="m 61.53,89.7 c 0,0 1.87,7.96 12.23,13.88 6.53,3.73 20.26,7.6 27.27,2.42 7.98,-5.9 9.7,-11.74 10.08,-13.89 0.38,-2.15 -0.76,-8.08 -0.76,-8.08 L 97.22,79.36 c 0,0 -21.71,5.3 -22.09,5.3 -0.37,0.01 -13.6,5.04 -13.6,5.04 z"
   id="path824" />
	</g>
	<g
   id="g830">
		<path
   style="fill:#b05353"
   d="m 110.39,94.67 c 0.29,-0.75 0.47,-1.39 0.6,-1.92 -2.32,-0.62 -5.01,-1.62 -7.45,-2.66 0.2,-0.09 0.4,-0.18 0.59,-0.28 1.2,-0.61 2.38,-1.32 3.23,-2.36 0.92,-1.12 1.34,-2.57 1.29,-4.02 L 97.22,79.36 c 0,0 -21.71,5.3 -22.09,5.3 -0.38,0 -13.6,5.03 -13.61,5.04 -0.17,0.06 1.23,3 1.32,3.15 1.27,2.37 4.19,5.67 6.19,7.46 0,0 -0.92,-2.12 0.82,-2.91 0.77,-0.35 1.7,-0.18 2.49,0.13 1.98,0.79 4.46,3.83 10.66,7.09 4.21,2.22 8.54,3.92 9.94,3.86 1.87,-0.08 5.26,-0.99 5.26,-0.99 0,0 -4.32,-0.41 -11.26,-3.64 -2.1,-0.98 -9.87,-4.8 -10.61,-6.93 -0.21,-0.6 -0.96,-1.66 0.4,-2.26 2.08,-0.93 7.75,3.96 12.62,6.2 5.8,2.66 12.12,4.79 12.12,4.79 0.68,-0.52 1.32,-1.04 1.92,-1.56 -3.23,-0.83 -6.39,-1.97 -9.44,-3.3 -3.04,-1.32 -6.02,-3.03 -8.77,-4.91 -1.75,-1.2 -2.96,-3.22 -1.08,-3.48 3.08,-0.43 7.06,2.5 11.05,4.57 3.6,1.87 7.92,2.73 11.97,3.24 0.52,-0.65 1.37,-1.89 1.37,-1.89 0,0 -1.53,-0.26 -6.05,-1.26 -1.98,-0.44 -3.9,-1.01 -5.66,-2 -0.46,-0.26 -2.07,-1.91 0.13,-2.67 2.2,-0.76 4.29,0.75 7.61,1.52 3.33,0.79 5.84,0.83 5.87,0.76 z"
   id="path828" />
	</g>
	<path
   style="fill:#ffb3b3"
   d="m 118,53.3 c 0,0 -0.25,-8.1 -4.6,-15.27 -3.75,-6.18 -9.1,-6.81 -9.1,-6.81 0,0 -1.06,-3.89 -4.78,-6.87 C 95.8,21.37 88.15,18.88 88.15,18.88 72.83,11.98 63.28,17.63 63.28,17.63 c 0,0 -22.72,-5.4 -40.91,10.03 0,0 -9.18,4.32 -12.93,12.48 -2.07,4.52 -1.18,11.89 -1.18,11.89 -6.37,7.4 -4.62,19.12 2.53,24.99 3.41,2.79 7.62,4.64 12.01,5.11 1.72,0.18 2.59,-0.23 3.31,1.52 1.06,2.58 1.89,5.23 4.02,7.08 2.17,1.88 4.7,3.34 7.39,4.34 5.22,1.93 11.12,2.14 16.39,0.25 1.75,-0.63 7.36,-0.69 7.36,-0.69 0,0 2.97,2.45 13.51,2.06 10.54,-0.39 14.99,-4.94 17.4,-5.79 1.85,-0.65 4.12,-2.08 6.14,-1.71 1.15,0.21 2.18,0.8 3.23,1.3 2.94,1.41 6.24,2.18 9.48,1.88 12.25,-1.13 13.54,-15.24 12.33,-24.94 C 122.14,57.64 118,53.3 118,53.3 Z"
   id="path832" />
	<path
   style="fill:#ea6363"
   d="m 27.52,72.45 c -0.25,0.57 -2.75,6.03 -4.85,6.91 -3.63,1.53 -9.25,-2.11 -11.4,-3.11 -0.42,-0.2 -0.7,0.3 -0.7,0.3 -0.35,0.45 0.56,1.38 1.02,1.71 1.78,1.28 6.05,4.18 9.22,4.97 4.09,1.02 7.16,0 7.16,0 0,0 1.12,-8.19 1.21,-8.56 0.09,-0.37 0,-3.63 0,-3.63 z"
   id="path834" />
	<g
   id="g872">
		<g
   id="g838">
			<path
   style="fill:#f07371"
   d="m 63.25,95.56 c 0,0 -2.06,-0.32 -5.22,-0.27 -3.16,0.05 -7.61,0.96 -7.61,0.96 0,0 3.14,-1.43 4.54,-2.68 1.4,-1.26 1.68,-4.32 1.45,-6.14 -0.24,-1.86 -0.87,-2.8 -5.63,-3.79 l 14.26,-0.79 c -4.78,3.18 -5.65,9.73 -1.79,12.71 z"
   id="path836" />
		</g>
		<g
   id="g842">
			<path
   style="fill:#f07371"
   d="m 106.42,65.47 c -2.48,0.33 -4.89,-0.14 -7.03,-1.41 -0.93,-0.56 -1.03,-1.88 -0.21,-2.59 0.55,-0.47 1.34,-0.5 1.95,-0.1 3.46,2.27 6.98,0.78 8.86,-0.39 4.8,-2.99 7.18,-8.29 6.86,-13.85 0.96,1.7 1.66,3.58 1.83,5.52 0.43,4.71 -2.96,8.38 -6.75,10.75 -1.81,1.14 -3.68,1.83 -5.51,2.07 z"
   id="path840" />
		</g>
		<g
   id="g846">
			<path
   style="fill:#f07371"
   d="m 117.14,70.16 c -1.08,0 -2.25,-0.23 -3.36,-0.91 -1.14,-0.7 -1.78,-1.64 -2.35,-2.8 -0.47,-0.95 -1.13,-1.54 -2.34,-1.45 -0.85,0.07 -1.67,0.55 -2.52,0.43 1.13,-2 2.94,-3.6 5.07,-4.47 0.98,-0.4 2.08,-0.65 3.08,-0.34 0.11,0.7 -0.36,1.35 -0.63,2.01 -0.47,1.17 -0.28,2.57 0.48,3.57 0.52,0.68 1.51,1.41 2.42,1.35 0.6,-0.04 1.02,-0.55 1.61,-0.6 1.83,-0.13 2.29,2.55 0.49,2.97 -0.58,0.14 -1.24,0.24 -1.95,0.24 z"
   id="path844" />
		</g>
		<g
   id="g850">
			<path
   style="fill:#f07371"
   d="m 99.54,33.08 c -0.73,0.09 -1.47,0.01 -1.85,-0.63 -0.49,-0.83 -0.08,-1.87 0.83,-2.19 2.51,-0.88 5.33,-0.72 7.78,0.26 2.14,0.86 3.43,2.32 4.28,3.31 0.85,0.99 1.43,2.95 1.43,2.95 -2.13,-1.85 -3.34,-4.76 -12.47,-3.7 z"
   id="path848" />
		</g>
		<path
   style="fill:#f07371"
   d="m 89.96,31.15 c -2.16,-0.09 -0.06,0 -0.08,0 -3.42,0 -7.51,-1.18 -8.06,-5.08 -0.99,-7.1 9.49,-4.34 13.33,-3.81 0,0 -3.03,-3.11 -7,-3.38 -1.85,-0.12 -3.76,-0.07 -5.56,0.41 -1.98,0.53 -2.98,2.02 -4.78,2.76 -1.36,0.55 -2.91,0.34 -4.31,-0.08 -1.29,-0.39 -5.48,-2.64 -5.6,0.16 -0.03,0.77 0.52,1.43 1.27,1.54 3.04,0.43 7.24,1.79 8.8,4.69 0.72,1.33 0.89,2.94 0.47,4.39 -0.2,0.71 -0.49,1.62 0.1,2.07 0.45,0.35 1.14,0.12 1.55,-0.28 0.41,-0.4 0.67,-0.94 1.08,-1.34 1.28,-1.26 2.44,-0.36 3.8,0.12 1.57,0.56 3.23,0.83 4.9,0.83 0.04,0 -2.93,-0.29 0.11,0 3.03,0.28 2.13,-2.91 -0.02,-3 z"
   id="path852" />
		<path
   style="fill:#f07371"
   d="m 41.89,27.89 c -1.66,-1.5 -2.45,-7.34 2.32,-10.35 0,0 -2.6,0.09 -4.77,1.79 -1.85,1.45 -2.22,3.96 -1.78,6.61 0.11,0.68 -0.42,1.3 -1.11,1.26 -2.48,-0.13 -4.95,0.32 -7.08,1.3 -0.81,0.38 -1.09,1.4 -0.61,2.16 v 0 c 0.41,0.64 1.22,0.86 1.91,0.54 2.39,-1.1 5.87,-1.69 8.66,-0.99 2.83,0.71 4.82,1.53 7.04,5.38 0.38,0.65 1.2,0.88 1.82,0.46 v 0 c 0.48,-0.33 0.68,-0.95 0.48,-1.49 -1.9,-5.24 -4.64,-4.65 -6.88,-6.67 z"
   id="path854" />
		<path
   style="fill:#f07371"
   d="M 48.08,45.9 C 47.84,45.08 47,44.63 46.21,44.87 c -2.4,0.72 -5.87,0.51 -7.42,-1.05 -2.07,-4.79 -3.64,-5.64 -6.15,-6.49 -1,-0.34 -2,0.52 -1.9,1.56 v 0 c 0.06,0.59 0.45,1.09 1.02,1.26 1.78,0.53 3.57,2.92 4.49,5.36 0.84,2.21 0.94,5.12 -0.96,7.2 -0.49,0.54 -0.59,1.32 -0.16,1.91 l 0.02,0.03 c 0.55,0.76 1.65,0.82 2.29,0.13 0.68,-0.74 1.39,-1.7 1.69,-2.67 0.31,-1.03 0.22,-1.95 1.11,-2.77 0.99,-0.92 1.93,-0.73 3.12,-0.73 1.22,0 2.53,-0.44 3.68,-0.85 0.78,-0.25 1.28,-1.08 1.04,-1.86 z"
   id="path856" />
		<g
   id="g860">
			<path
   style="fill:#f07371"
   d="m 17.42,59.46 c -0.34,0 -0.67,-0.01 -1.02,-0.04 -4.63,-0.4 -7.06,-3.73 -8.16,-7.38 -1.1,-3.65 -0.17,-7.62 -0.17,-7.62 1.4,10.8 7.03,11.87 8.59,12.01 2.95,0.26 5.77,-1.02 6.54,-2.97 1.22,-3.08 -2.52,-6.1 -4.35,-7.97 -1.21,-1.24 -1.66,-3.35 -1.34,-5.02 0.16,-0.86 0.54,-1.7 1.25,-2.25 0.7,-0.54 2.46,-1.03 2.22,0.51 -0.07,0.48 -0.38,0.88 -0.57,1.32 -1.37,3.12 3.5,6.01 4.83,8.32 1.09,1.87 1.57,4.13 0.75,6.19 -1.16,2.94 -4.67,4.9 -8.57,4.9 z"
   id="path858" />
		</g>
		<g
   id="g864">
			<path
   style="fill:#f07371"
   d="m 16.35,58.66 c 0.81,0.1 1.64,-0.04 2.37,-0.4 0.7,-0.34 1.33,-0.88 2.1,-0.94 0.37,-0.02 0.83,0.2 0.77,0.56 -0.02,0.13 0.83,0.37 0.72,0.44 -1.99,1.24 -7.03,2.47 -3.55,11.4 0.28,0.71 0.06,1.51 -0.59,1.9 -0.76,0.46 -1.77,0.16 -2.13,-0.65 -0.95,-2.09 -1.41,-4.4 -1.38,-6.7 0.03,-2.24 0.26,-4.2 -1.24,-6.07 -0.16,-0.19 -0.33,-0.46 -0.2,-0.67 0.08,-0.13 0.24,-0.18 0.39,-0.22 0.62,-0.16 1.28,-0.33 1.91,-0.2 0.28,0.06 3.41,1.79 3.44,1.73"
   id="path862" />
		</g>
		<path
   style="fill:#f07371"
   d="m 105.56,73.1 c -2.07,-0.25 -4.2,-0.1 -6.16,0.64 -1.66,0.63 -2.9,1.9 -4.81,1.48 -1.14,-0.25 -2.15,-0.98 -2.86,-1.91 -1.5,-1.95 -1.3,-4 -0.74,-6.22 0.56,-2.2 0.5,-4.75 -0.49,-6.82 -0.26,-0.55 -0.7,-1.04 -1.27,-1.24 -0.58,-0.2 -1.29,-0.03 -1.63,0.48 -0.34,0.52 -0.21,1.21 -0.09,1.82 0.39,1.87 0.89,3.89 0.33,5.72 -0.53,1.74 -1.26,3.3 -2.51,4.64 -2.37,2.55 -5.81,3.72 -8.78,2.97 -2.19,-0.55 -3.96,-2.08 -5.15,-4.42 -0.42,-1.83 -0.86,-4.21 -3.13,-4.47 -0.46,-0.05 -0.96,0.02 -1.31,0.31 -0.35,0.3 -0.51,0.78 -0.51,1.24 0,1.15 1.1,2.01 1.3,3.14 0.63,3.46 -1.67,7.42 -5.16,9.34 -2.7,1.49 -10.11,2.33 -16.75,-3.24 -0.28,-0.24 -0.28,-0.7 -0.55,-0.95 -0.18,-0.16 -0.41,-0.26 -0.64,-0.3 -0.99,-0.19 -2.02,0.75 -1.93,1.75 0.08,0.91 0.83,1.61 1.5,2.23 1.74,1.62 0.96,2.27 0.66,3.14 -0.07,0.22 -0.2,0.42 -0.22,0.65 -0.06,0.64 0.92,0.43 1.56,0.38 0.64,-0.05 1.22,-0.4 1.84,-0.58 0.78,-0.22 4.35,1.09 5.05,1.24 2.03,0.44 2.73,0.64 4.48,0.64 2.19,0 4.05,1.13 5.65,-0.37 2.28,-2.13 4.05,-3.52 6.07,-4.21 1,-0.34 2.2,-0.51 3.04,0.14 0.6,0.46 0.87,1.23 1.08,1.95 0.43,1.48 0.75,2.99 1.38,4.4 0.63,1.4 1.63,2.71 3.03,3.34 0.44,0.2 0.94,0.33 1.42,0.22 0.48,-0.11 0.9,-0.52 0.91,-1 0.01,-0.33 -0.16,-0.63 -0.34,-0.9 -0.69,-1.1 -1.51,-2.12 -2.12,-3.26 -0.61,-1.14 -1.01,-2.47 -0.76,-3.74 0.46,-2.35 3.18,-3.01 5.13,-3.6 1.87,-0.57 3.74,-1.64 5.75,-1.53 1.26,0.07 3.93,1.54 4.73,2.52 0.16,0.2 0.23,0.45 0.27,0.71 0.34,2.11 -1.21,4.01 -2.68,5.55 -0.26,0.27 -0.53,0.68 -0.31,0.99 0.08,0.11 0.2,0.17 0.32,0.21 1.06,0.41 2.3,0.05 3.2,-0.64 1.98,-1.5 2.67,-4.07 4.36,-5.85 1.39,-1.45 3.26,-2.4 5.15,-3.02 6.76,-2.22 7.11,3.1 8.32,6.08 1.21,2.98 3,0.92 3.02,0.1 0.07,-3.89 -2.42,-9.01 -8.65,-9.75 z"
   id="path866" />
		<g
   id="g870">
			<path
   style="fill:#f07371"
   d="m 42.25,88.89 v 0 c -1.03,-0.06 -1.71,-1.13 -1.29,-2.08 0.67,-1.52 1.93,-3.03 3.56,-4.19 2.48,-1.76 4.96,-2.08 7.45,-1.37 l 0.51,2.54 c -1.61,-0.46 -4.49,0.05 -6.22,1.28 -1.25,0.89 -2.11,1.98 -2.53,2.89 -0.27,0.59 -0.84,0.97 -1.48,0.93 z"
   id="path868" />
		</g>
	</g>
	<path
   style="fill:#ea6363"
   d="m 107.01,42.8 c -0.19,-1.27 -1.18,-2.45 -2.46,-2.49 -0.63,-0.02 -1.33,0.31 -1.5,0.92 -0.08,0.27 -0.04,0.57 -0.03,0.85 0.08,2.08 -1.59,4.09 -3.65,4.38 -2.33,0.33 -4.05,-1.11 -5.81,-2.31 -1.68,-1.14 -3.78,-1.91 -5.72,-2.46 -5.17,-1.45 -9.62,-0.48 -13.01,3.79 -1.26,1.59 -2.46,3.33 -4.23,4.31 -2.78,1.54 -8.65,1.65 -10.38,-1.37 -2.27,-3.95 -2.35,-16.09 4.93,-14.71 2.25,0.43 3.92,2.38 4.08,3.83 0.1,0.92 -0.47,1.72 -1.2,2.34 -0.56,0.48 -0.68,1.29 -0.3,1.91 0.48,0.79 1.56,0.96 2.26,0.37 2.05,-1.76 2.37,-3.61 2.22,-4.95 -0.47,-4.27 -5.28,-6.68 -9.1,-6.79 -0.84,-0.03 -1.81,-0.3 -2.13,-1.09 -0.14,-0.34 -0.12,-0.71 -0.15,-1.07 -0.2,-2.55 -2.81,-5.32 -4.85,-6.64 -0.75,-0.49 -1.76,-0.17 -2.15,0.63 -0.33,0.69 -0.07,1.5 0.57,1.92 1.94,1.28 3.12,3.14 3.51,5.54 0.44,2.76 -0.16,5.58 -1.32,8.09 -0.58,1.26 -1.29,2.48 -2.12,3.6 -0.71,0.97 -1.72,1.62 -2.18,2.78 -0.05,0.13 -0.1,0.27 -0.06,0.4 0.07,0.25 0.38,0.32 0.64,0.33 0.74,0.03 1.48,-0.13 2.14,-0.44 -0.38,1.47 0.6,2.9 1.41,4.18 0.81,1.28 1.46,3.02 0.54,4.23 -0.04,0.05 -0.09,0.1 -0.13,0.16 -1.97,0.83 -3.87,1.96 -5.35,3.52 -2.55,2.7 -4.44,5.13 -8.17,6.33 -3.3,1.07 -6.97,0.94 -10.18,-0.35 -0.62,-0.25 -1.25,-0.54 -1.92,-0.52 -0.67,0.02 -1.38,0.49 -1.4,1.16 -0.01,0.34 0.16,0.65 0.31,0.96 1.7,3.45 -1.42,5.69 -2.75,8.69 -1.25,2.8 -1.89,5.87 -1.89,8.94 0,3.35 1.15,5.79 5.3,10.05 1.88,1.92 4.34,3.06 6.41,3.73 0.65,0.21 1.06,-0.68 0.48,-1.05 -4.27,-2.72 -4.94,-5.13 -6.24,-7.61 -3.12,-5.97 0.29,-15.07 6.16,-19.69 2.27,-1.78 5.49,-1.64 8.23,-0.7 2.94,1.01 4.68,3.17 6.89,5.18 0.6,0.55 1.37,1.14 2.14,0.9 0.7,-0.21 1.05,-1.04 0.97,-1.76 -0.08,-0.72 -0.49,-1.36 -0.88,-1.97 -0.43,-0.67 -0.86,-1.34 -1.3,-2.01 -0.57,-0.88 -1.16,-1.8 -1.34,-2.84 -0.2,-1.13 0.8,-5.04 10.3,-7.46 1.61,-0.41 3.25,-0.23 4.87,0.23 2.18,0.62 3.74,2.22 5.57,3.47 0.51,0.35 1.07,0.72 1.69,0.74 0.78,0.03 1.54,-0.56 1.7,-1.33 0.22,-1.06 -0.58,-2.01 -1.11,-2.95 -1.76,-3.1 0.29,-7.24 2.88,-9.22 2.32,-1.76 5.37,-2.41 8.26,-2.11 4.4,0.45 8.74,3.39 9.75,7.69 0.23,0.97 0.51,2.22 1.5,2.35 1.1,0.15 1.69,-1.32 1.58,-2.43 -0.11,-1.11 -0.47,-2.36 0.22,-3.24 0.32,-0.4 0.8,-0.63 1.27,-0.84 1.35,-0.59 2.76,-1.08 3.97,-1.93 1.21,-0.84 2.22,-2.13 2.31,-3.6 -0.01,-0.17 -0.02,-0.37 -0.05,-0.57 z"
   id="path874" />
</g><path
     style="fill:#f07371"
     d="m 52.86,44.9 c 0.74,0.03 1.48,-0.13 2.14,-0.44 -0.38,1.47 0.6,2.9 1.41,4.18 0.59,0.94 1.41,2.61 0.52,4.32 0,0 1.34,-0.75 3.51,-1.38 2.17,-0.63 4.29,-0.77 4.29,-0.77 -1.54,-0.32 -3.82,-1.19 -4.52,-2.4 -2.27,-3.95 -2.35,-16.09 4.93,-14.71 2.25,0.43 3.92,2.38 4.08,3.83 0.1,0.92 -0.47,1.72 -1.2,2.34 -0.56,0.48 -0.68,1.29 -0.3,1.91 0.48,0.79 1.56,0.96 2.26,0.37 2.05,-1.76 2.37,-3.61 2.22,-4.95 -0.47,-4.27 -5.28,-6.68 -9.1,-6.79 -0.84,-0.03 -1.81,-0.3 -2.13,-1.09 -0.14,-0.34 -0.12,-0.71 -0.15,-1.07 -0.2,-2.55 -2.81,-5.32 -4.85,-6.64 -0.75,-0.49 -1.76,-0.17 -2.15,0.63 -0.33,0.69 -0.07,1.5 0.57,1.92 1.94,1.28 3.12,3.14 3.51,5.54 0.44,2.76 -0.16,5.58 -1.32,8.09 -0.58,1.26 -1.29,2.48 -2.12,3.6 -0.71,0.97 -1.72,1.62 -2.18,2.78 -0.05,0.13 -0.1,0.27 -0.06,0.4 0.07,0.25 0.38,0.32 0.64,0.33 z"
     id="path878" /></g>
<g
   id="g1264"
   transform="matrix(0.4784793,0,0,0.4784793,76.359036,24.642979)"><path
     style="fill:#f1b34f"
     d="m 94.23,68.55 c 0,0 27.81,-5.46 29.13,5.04 0.77,6.19 -1.17,17.57 -11.65,26.92 -8.7,7.76 -23.24,14.29 -47.23,13.85 C 44.93,114.01 31.63,109.32 22.6,104.13 7.48,95.44 4.49,83.66 5.28,76.27 6.41,65.67 23.4,60.81 24.17,60.37 Z"
     id="path1087" /><path
     style="fill:#fadfb1"
     d="m 7.32,79.1 c 0,0 16.04,26.62 57.78,26.76 45.19,0.16 59,-26.83 58.25,-32.28 C 121.93,63.13 97.85,61 97.85,61 L 40.39,74.54 7.32,70.91 Z"
     id="path1089" /><path
     style="fill:#ffffff"
     d="m 7.49,69.47 c 0,0 -2.6,3.12 -2.14,9.07 0.41,5.28 5.37,13.06 14.04,15.87 7.67,2.49 13.3,-0.37 21.24,2.2 7.94,2.57 15.26,10.37 25.39,9.76 10.13,-0.61 15.51,-7.85 22.82,-8.91 10.98,-1.59 16.23,1.36 24.53,-6.83 9.15,-9.03 9.2,-17.44 9.15,-19.53 -0.1,-4.22 -3.09,-6.5 -3.09,-6.5 L 18.65,68.29 Z"
     id="path1091" /><path
     style="fill:url(#SVGID_1_)"
     d="M 64.64,13.48 C 25,13.48 5.14,34.21 3.58,57.85 c -0.6,9.1 2.36,15.06 8.81,20.74 11.26,9.9 31.81,16.1 53.04,16.33 22.75,0.25 40.01,-5.51 53.22,-22.94 4.31,-5.68 4.78,-8.91 4.96,-15.23 0.55,-19.82 -17.28,-43.27 -58.97,-43.27 z"
     id="path1112" /><path
     style="fill:#fcde8c"
     d="m 44.31,49.96 c -0.45,-0.99 3.03,-2.2 4.76,-3.46 1.9,-1.39 2.25,-3.03 2.94,-3.12 0.69,-0.09 3.72,0.85 11.51,0.95 6.84,0.09 11.17,-1.73 11.77,-1.21 0.61,0.52 1.47,1.99 3.38,3.9 1.65,1.65 3.55,2.77 3.64,3.38 0.09,0.61 -4.29,1.54 -5.06,1.71 -0.78,0.17 -25.77,0.1 -25.77,0.1 0,0 -1.46,-0.43 -2.67,-0.77 -1.21,-0.36 -4.07,-0.53 -4.5,-1.48 z"
     id="path1114" /><path
     style="fill:#ffffff"
     d="m 63.78,55.93 c 4.41,0 6.82,-1.29 9.78,-2.34 3.09,-1.09 5.63,-1.99 5.63,-1.99 0,0 -4.59,-4.67 -14.72,-4.67 -10.13,0 -14.54,4.76 -14.54,4.76 0,0 8.66,4.24 13.85,4.24 z"
     id="path1116" /><path
     style="fill:#f5e5c7"
     d="m 37.38,29 c -1.19,0.27 -1.23,2.09 -1.59,3.81 -0.73,3.46 0.91,6.26 4.02,5.37 3.56,-1.02 2.75,-4.51 0.66,-6.83 C 39.25,30.01 38.6,28.72 37.38,29 Z"
     id="path1118" /><path
     style="fill:#f5e5c7"
     d="m 54.08,26.55 c -0.32,0.86 -3.13,1.45 -5.99,1.13 -2.12,-0.24 -3.9,-2.36 -2.77,-4.72 1.15,-2.39 4.01,-2.67 5.95,-0.77 1.99,1.95 3.16,3.41 2.81,4.36 z"
     id="path1120" /><path
     style="fill:#f5e5c7"
     d="m 60.21,25 c -0.68,-0.14 -2.91,1.77 -3.4,3.9 -0.56,2.38 1.04,3.36 2.36,3.5 1.63,0.17 2.81,-1.09 2.91,-2.72 0.08,-1.62 -1.14,-4.53 -1.87,-4.68 z"
     id="path1122" /><path
     style="fill:#f5e5c7"
     d="m 25.66,50.06 c 0.47,1.13 2.27,0.84 4.03,0.89 3.53,0.1 6,-2 4.58,-4.91 -1.63,-3.33 -4.93,-1.9 -6.83,0.56 -1.11,1.44 -2.26,2.31 -1.78,3.46 z"
     id="path1124" /><path
     style="fill:#f5e5c7"
     d="m 13.42,49.89 c -1.22,-0.06 -1.73,1.69 -2.53,3.26 -1.61,3.14 -0.77,6.28 2.46,6.24 3.7,-0.04 3.83,-3.63 2.43,-6.41 -0.82,-1.62 -1.11,-3.04 -2.36,-3.09 z"
     id="path1126" /><path
     style="fill:#f5e5c7"
     d="m 104.1,47.44 c 1.21,-0.15 1.42,-1.96 1.96,-3.64 1.06,-3.37 -0.29,-6.32 -3.47,-5.74 -3.65,0.66 -3.18,4.22 -1.33,6.73 1.08,1.46 1.6,2.8 2.84,2.65 z"
     id="path1128" /><path
     style="fill:#f5e5c7"
     d="m 38.35,65.69 c -0.58,-0.42 -2.42,0.13 -4.06,0.78 -3.28,1.3 -4.72,4.21 -2.27,6.31 2.81,2.41 5.28,-0.2 6.06,-3.21 0.46,-1.75 0.97,-3.37 0.27,-3.88 z"
     id="path1130" /><path
     style="fill:#f5e5c7"
     d="m 32.58,62.34 c 0.28,-0.56 -0.47,-2.08 -1.22,-3.29 -0.87,-1.41 -1.86,-2.85 -3.24,-3.24 -4.44,-1.25 -6.04,4.41 -3.06,6.22 1.09,0.66 2.24,0.7 3.51,0.77 1.9,0.08 3.74,0.08 4.01,-0.46 z"
     id="path1132" /><path
     style="fill:#f5e5c7"
     d="m 22.49,46.03 c -0.18,1.13 -5.13,2.07 -7.66,0.54 -3.03,-1.84 -1.4,-6.08 2.21,-5.77 3.09,0.28 5.65,3.95 5.45,5.23 z"
     id="path1134" /><path
     style="fill:#f5e5c7"
     d="m 25.05,39.86 c 1.17,0.32 4.55,-2.21 5.54,-4.05 0.72,-1.34 1.3,-4.67 -1.04,-5.72 -2.61,-1.17 -4.84,0.55 -5.5,2.7 -0.84,2.84 -0.04,6.79 1,7.07 z"
     id="path1136" /><path
     style="fill:#f5e5c7"
     d="m 45.05,53.65 c 0.19,0.87 -1.49,5.63 -5.41,5.81 -2.7,0.12 -5.04,-3.51 -1.67,-5.86 2.56,-1.77 6.95,-0.58 7.08,0.05 z"
     id="path1138" /><path
     style="fill:#f5e5c7"
     d="m 48.43,61.24 c -0.77,-0.65 -4.82,2.25 -6.04,4.37 -0.72,1.26 -1.22,3.56 1.76,4.91 2.88,1.31 4.46,-0.9 4.82,-2.7 0.36,-1.8 0.05,-6.08 -0.54,-6.58 z"
     id="path1140" /><path
     style="fill:#f5e5c7"
     d="m 52.49,75.54 c 0.99,1.85 6.12,1.05 7.34,0.68 1.76,-0.54 4.25,-2.18 2.66,-5.59 -1.31,-2.79 -4.73,-2.21 -6.8,-0.45 -1.79,1.51 -3.88,4.1 -3.2,5.36 z"
     id="path1142" /><path
     style="fill:#f5e5c7"
     d="m 69.02,69.01 c -1.06,0.78 -0.22,5.55 0.41,6.98 0.81,1.85 3.42,2.57 5.18,1.22 2.03,-1.56 1.71,-4.14 0.41,-5.54 -0.99,-1.05 -4.97,-3.43 -6,-2.66 z"
     id="path1144" /><path
     style="fill:#f5e5c7"
     d="m 76.63,66.08 c -0.39,0.35 -3.87,0.59 -6.35,-1.53 -1.43,-1.22 -1.39,-4.11 0.05,-5.18 1.58,-1.17 3.74,-0.81 5.13,1.22 0.87,1.25 1.62,5.08 1.17,5.49 z"
     id="path1146" /><path
     style="fill:#f5e5c7"
     d="m 81.9,64.37 c 0.7,0.61 5.13,-0.14 6.8,-2.07 0.91,-1.06 2.21,-3.33 0.45,-4.95 -1.76,-1.62 -3.83,-1.31 -5.63,0.9 -1.34,1.63 -2.34,5.49 -1.62,6.12 z"
     id="path1148" /><path
     style="fill:#f5e5c7"
     d="m 99.06,51.08 c -0.34,1.36 -5.31,1.92 -7.3,0.99 -2.03,-0.95 -1.67,-3.24 -1.26,-4.23 0.41,-0.99 1.4,-2.16 4.01,-1.44 2.76,0.76 4.78,3.78 4.55,4.68 z"
     id="path1150" /><path
     style="fill:#f5e5c7"
     d="m 92.12,66.48 c -1.11,-0.31 -1.76,1.21 -2.48,1.89 -0.9,0.86 -4.68,5.23 0.14,6.35 4.83,1.13 3.51,-4.19 3.33,-5.27 -0.12,-0.75 -0.18,-2.74 -0.99,-2.97 z"
     id="path1152" /><path
     style="fill:#f5e5c7"
     d="m 97.3,63.65 c -0.4,1.15 1.85,3.42 2.93,4.73 1.08,1.31 3.47,2.52 4.86,-0.09 1.4,-2.61 -0.77,-4.23 -2.7,-4.68 -1.93,-0.46 -4.73,-1 -5.09,0.04 z"
     id="path1154" /><path
     style="fill:#f5e5c7"
     d="m 114.56,54.37 c 0,0.77 -2.7,2.93 -5.72,3.02 -2.25,0.07 -3.92,-0.75 -3.92,-2.97 0,-2.25 2.03,-3.51 4.55,-2.97 1.45,0.3 5.09,1.7 5.09,2.92 z"
     id="path1156" /><path
     style="fill:#f5e5c7"
     d="m 109.33,47.84 c 0.23,0.9 2.93,1.17 4.86,1.22 1.94,0.05 4.32,-0.63 3.42,-3.29 -0.9,-2.66 -3.56,-1.98 -4.55,-1.49 -0.98,0.49 -4.03,2.34 -3.73,3.56 z"
     id="path1158" /><path
     style="fill:#f5e5c7"
     d="m 100.91,30.04 c -0.81,1.17 0.72,3.6 2.12,4.68 1.4,1.08 3.33,1.76 4.46,-0.14 1.13,-1.89 -0.86,-3.6 -2.07,-4.37 -1.22,-0.75 -3.72,-1.31 -4.51,-0.17 z"
     id="path1160" /><path
     style="fill:#f5e5c7"
     d="m 96.36,32.25 c -0.53,-0.33 -3.33,0.38 -4.95,1.85 -1.68,1.52 -2.3,3.74 -0.27,5.32 1.96,1.52 4.09,0.04 4.95,-1.98 0.81,-1.9 0.87,-4.82 0.27,-5.19 z"
     id="path1162" /><path
     style="fill:#f5e5c7"
     d="m 74.47,30.99 c 0.54,-0.75 -0.45,-4.77 -1.71,-6.31 -1.26,-1.53 -2.84,-2.12 -4.59,-0.81 -1.38,1.03 -1.89,3.83 0.09,5.27 2.15,1.58 5.62,2.66 6.21,1.85 z"
     id="path1164" /><path
     style="fill:#f5e5c7"
     d="m 76.04,24.77 c 0.67,0.49 3.11,0.14 4.77,-0.95 1.66,-1.09 1.91,-2.82 0.95,-4.01 -1.17,-1.44 -3.06,-0.9 -4.41,0.86 -1.18,1.53 -2.16,3.47 -1.31,4.1 z"
     id="path1166" /><path
     style="fill:#f5e5c7"
     d="m 80.05,30.58 c 0.54,1.44 5.95,1.13 7.52,0.45 1.58,-0.68 2.68,-2.11 1.8,-4.19 -0.99,-2.34 -2.55,-2.35 -3.69,-2.03 -2.25,0.64 -6.16,4.36 -5.63,5.77 z"
     id="path1168" /></g><text
   xml:space="preserve"
   id="text2280"
   style="font-size:17.8689px;line-height:0.8;font-family:'Nanum Pen';-inkscape-font-specification:'Nanum Pen, Normal';white-space:pre;shape-inside:url(#rect2282)"
   transform="matrix(1.5012013,0,0,1.5012013,-31.192591,74.129497)"><tspan
     x="19.460938"
     y="-36.519396"
     id="tspan18159"><tspan
       style="font-weight:bold;font-family:Helvetica;-inkscape-font-specification:'Helvetica, Bold';fill:#5e42a6"
       id="tspan18157">Neurobagel</tspan></tspan></text></svg>
