<?xml version="1.0" encoding="UTF-8" standalone="no"?>
<!-- Created with Inkscape (http://www.inkscape.org/) -->

<svg
   width="39.271435mm"
   height="36.056499mm"
   viewBox="0 0 39.271435 36.0565"
   version="1.1"
   id="svg24860"
   inkscape:version="1.1.1 (c3084ef, 2021-09-22)"
   sodipodi:docname="noname.svg"
   xmlns:inkscape="http://www.inkscape.org/namespaces/inkscape"
   xmlns:sodipodi="http://sodipodi.sourceforge.net/DTD/sodipodi-0.dtd"
   xmlns="http://www.w3.org/2000/svg"
   xmlns:svg="http://www.w3.org/2000/svg">
  <sodipodi:namedview
     id="namedview24862"
     pagecolor="#ffffff"
     bordercolor="#666666"
     borderopacity="1.0"
     inkscape:pageshadow="2"
     inkscape:pageopacity="0.0"
     inkscape:pagecheckerboard="0"
     inkscape:document-units="mm"
     showgrid="false"
     inkscape:zoom="2.370399"
     inkscape:cx="93.022314"
     inkscape:cy="35.648007"
     inkscape:window-width="1312"
     inkscape:window-height="969"
     inkscape:window-x="0"
     inkscape:window-y="25"
     inkscape:window-maximized="0"
     inkscape:current-layer="layer1" />
  <defs
     id="defs24857" />
  <g
     inkscape:label="Layer 1"
     inkscape:groupmode="layer"
     id="layer1"
     transform="translate(-115.77644,-131.99443)">
    <g
       id="g25000"
       transform="matrix(0.73584101,0,0,0.73584101,36.181011,39.372082)"
       style="opacity:0.482315">
      <g
         inkscape:label="Layer 1"
         id="layer1-2-8"
         transform="matrix(0.17130705,0,0,0.17130705,100.8712,140.13472)">
        <path
           style="font-style:normal;font-variant:normal;font-weight:bold;font-stretch:normal;font-size:192px;line-height:25px;font-family:Montserrat;-inkscape-font-specification:'Montserrat Bold';text-align:start;letter-spacing:0px;word-spacing:0px;writing-mode:lr-tb;text-anchor:start;display:inline;fill:#333333;fill-opacity:1;stroke:none;stroke-width:1.56809px;stroke-linecap:butt;stroke-linejoin:miter;stroke-opacity:1"
           d="m 218.6056,-46.380098 -22.23511,22.234993 22.6271,22.6270987 h 3.29849 c 11.03936,0 20.87511,2.609563 29.50585,7.8282226 8.63086,5.0179417 15.35368,12.1414947 20.17078,21.3745077 5.01795,9.232897 7.52814,19.870117 7.52814,31.913061 0,11.842226 -2.30831,22.380079 -6.9247,31.612976 -4.61651,9.233009 -11.0411,16.359599 -19.27041,21.377539 -2.94639,1.79655 -6.05244,3.25697 -9.30754,4.41031 2.27146,2.41572 20.36684,17.92277 20.36684,17.92277 l -14.47419,27.11695 c 11.17255,-2.18177 21.54491,-5.71643 31.11381,-10.61215 17.4622,-8.83158 30.91099,-21.27374 40.3446,-37.33104 9.63445,-16.057296 14.45284,-34.423954 14.45284,-55.097642 0,-20.673687 -4.71902,-38.937829 -14.15264,-54.7944091 -9.43361,-16.0572979 -22.68051,-28.5026099 -39.7414,-37.3340709 -16.86005,-8.831461 -36.32955,-13.249116 -58.40837,-13.249116 z"
           id="path1711-6-2-1-97"
           inkscape:connector-curvature="0"
           sodipodi:nodetypes="cccsccssscccccsccsc"
           inkscape:export-xdpi="299.96201"
           inkscape:export-ydpi="299.96201" />
        <path
           style="font-style:normal;font-variant:normal;font-weight:bold;font-stretch:normal;font-size:192px;line-height:25px;font-family:Montserrat;-inkscape-font-specification:'Montserrat Bold';text-align:start;letter-spacing:0px;word-spacing:0px;writing-mode:lr-tb;text-anchor:start;fill:#ffa200;fill-opacity:1;stroke:none;stroke-width:1.56809px;stroke-linecap:butt;stroke-linejoin:miter;stroke-opacity:1"
           d="M 132.57493,-46.380098 V 164.6753 c 0,0 78.41868,0.0233 84.85763,0 6.43894,-0.0233 9.16746,-1.17609 9.16746,-1.17609 L 241.36484,140.4126 217.73649,120.11632 H 187.67246 V -1.5180063 l -10.49272,-10.4957497 -12.13123,-12.131349 -0.007,-0.003 c 0.002,0.0015 11.16846,-11.166014 22.23511,-22.232078 z"
           id="path1711-6-2-1-9-7"
           inkscape:connector-curvature="0"
           sodipodi:nodetypes="cczcccccccccc"
           inkscape:export-xdpi="299.96201"
           inkscape:export-ydpi="299.96201" />
      </g>
      <ellipse
         cx="-96.220139"
         cy="175.58191"
         rx="3.6581874"
         ry="1.1484181"
         transform="rotate(-69.082173)"
         fill="#2f2e41"
         id="ellipse3529-0"
         style="stroke-width:0.0926123" />
      <circle
         cx="122.89405"
         cy="158.09128"
         r="7.3163748"
         fill="#2f2e41"
         id="circle3587-20"
         style="stroke-width:0.0926123" />
      <rect
         x="119.56001"
         y="163.83325"
         width="2.2226961"
         height="3.9823306"
         fill="#2f2e41"
         id="rect3589-4"
         style="stroke-width:0.0926123" />
      <rect
         x="124.00541"
         y="163.83325"
         width="2.2226961"
         height="3.9823306"
         fill="#2f2e41"
         id="rect3591-6"
         style="stroke-width:0.0926123" />
      <ellipse
         cx="121.41227"
         cy="167.86188"
         rx="1.8522468"
         ry="0.69459254"
         fill="#2f2e41"
         id="ellipse3593-5"
         style="stroke-width:0.0926123" />
      <ellipse
         cx="125.85764"
         cy="167.76927"
         rx="1.8522468"
         ry="0.69459254"
         fill="#2f2e41"
         id="ellipse3595-9"
         style="stroke-width:0.0926123" />
      <circle
         cx="123.07929"
         cy="156.23903"
         r="2.5005331"
         fill="#ffffff"
         id="circle3597-9"
         style="stroke-width:0.0926123" />
      <circle
         cx="123.07929"
         cy="156.23903"
         r="0.83351105"
         fill="#3f3d56"
         id="circle3599-0"
         style="stroke-width:0.0926123" />
      <path
         d="m 115.7969,151.28727 c -0.59076,-2.64571 1.29768,-5.31909 4.21794,-5.97116 2.92027,-0.65206 5.76652,0.9641 6.35728,3.60981 0.59077,2.64571 -1.3446,3.62149 -4.26487,4.27356 -2.92026,0.65207 -5.71958,0.7335 -6.31035,-1.91221 z"
         fill="#fba304"
         id="path3601-1"
         style="fill:#cccccc;fill-opacity:1;stroke-width:0.0926123" />
      <ellipse
         cx="-90.640244"
         cy="169.88448"
         rx="1.1484181"
         ry="3.6581874"
         transform="rotate(-64.625738)"
         fill="#2f2e41"
         id="ellipse3603-8"
         style="stroke-width:0.0926123" />
      <path
         d="m 119.30025,160.73074 c 0,0.71608 1.84378,2.13009 3.88972,2.13009 2.04594,0 3.96423,-2.01599 3.96423,-2.73207 0,-0.71608 -1.91829,0.13892 -3.96423,0.13892 -2.04594,0 -3.88972,-0.25301 -3.88972,0.46306 z"
         fill="#ffffff"
         id="path3605-9"
         style="stroke-width:0.0926123" />
    </g>
  </g>
</svg>
