<?xml version="1.0" encoding="UTF-8" standalone="no"?>
<svg
   width="70.350586"
   height="37.974289"
   version="1.1"
   id="svg26682"
   sodipodi:docname="box.svg"
   inkscape:version="1.1.1 (c3084ef, 2021-09-22)"
   xmlns:inkscape="http://www.inkscape.org/namespaces/inkscape"
   xmlns:sodipodi="http://sodipodi.sourceforge.net/DTD/sodipodi-0.dtd"
   xmlns="http://www.w3.org/2000/svg"
   xmlns:svg="http://www.w3.org/2000/svg">
  <defs
     id="defs26686" />
  <sodipodi:namedview
     id="namedview26684"
     pagecolor="#ffffff"
     bordercolor="#666666"
     borderopacity="1.0"
     inkscape:pageshadow="2"
     inkscape:pageopacity="0.0"
     inkscape:pagecheckerboard="0"
     showgrid="false"
     inkscape:zoom="10.066854"
     inkscape:cx="36.505943"
     inkscape:cy="10.281265"
     inkscape:window-width="1296"
     inkscape:window-height="969"
     inkscape:window-x="0"
     inkscape:window-y="25"
     inkscape:window-maximized="0"
     inkscape:current-layer="svg26682" />
  <path
     d="m 69.730323,33.723481 c 0.878216,1.229502 0.702573,2.81029 -0.351286,3.688506 -1.229502,0.878216 -2.985933,0.702572 -3.864149,-0.351286 l -6.14751,-7.903941 -5.971866,7.728298 c -0.878216,1.229501 -2.634647,1.229501 -3.864149,0.351286 -1.229502,-0.878216 -1.405145,-2.459004 -0.526929,-3.688506 l 7.025725,-9.133443 -7.025725,-9.133443 c -0.878216,-1.229502 -0.52693,-2.985933 0.526929,-3.864148 1.229502,-0.878216 2.985933,-0.52693 3.864149,0.526929 l 5.971866,7.903941 6.14751,-7.552655 c 0.878216,-1.229502 2.459004,-1.405145 3.864149,-0.526929 1.229502,0.878215 1.229502,2.634647 0.351286,3.864149 l -6.850082,8.957799 z m -31.96705,-1.053859 c -4.566721,0 -8.255227,-3.512862 -8.255227,-8.079584 0,-4.391078 3.688506,-8.079584 8.255227,-8.079584 4.566722,0 8.255227,3.688506 8.255227,8.079584 -0.175643,4.566722 -3.864148,8.079584 -8.255227,8.079584 z m -24.238752,0 c -4.566721,0 -8.255227,-3.512862 -8.255227,-8.079584 0,-4.391078 3.688506,-8.079584 8.255227,-8.079584 4.566722,0 8.255227,3.688506 8.255227,8.079584 0,4.566722 -3.688505,8.079584 -8.255227,8.079584 z M 37.763273,11.24116 c -5.09365,0 -9.660372,2.81029 -11.943733,7.025726 -2.28336,-4.215436 -6.850082,-7.025726 -12.119376,-7.025726 -3.161576,0 -5.971866,1.053859 -8.255227,2.634647 V 2.634647 C 5.444937,1.2295019 4.215435,0 2.81029,0 1.229502,0 0,1.2295019 0,2.634647 v 22.131034 c 0.175643,7.377012 6.14751,13.173235 13.524521,13.173235 5.269294,0 9.836016,-2.985933 12.119376,-7.201368 2.283361,4.215435 6.850082,7.201368 11.943733,7.201368 7.552655,0 13.700164,-5.971866 13.700164,-13.524521 C 51.463438,17.213027 45.315928,11.24116 37.763273,11.24116 Z"
     fill="#0071f7"
     id="path26680"
     style="stroke-width:1.75643" />
</svg>
