<?xml version="1.0" encoding="UTF-8" standalone="no"?>
<svg
   viewBox="0 0 842.667 313.333"
   version="1.1"
   id="svg1364"
   sodipodi:docname="cbbs.svg"
   inkscape:version="1.1.1 (c3084ef, 2021-09-22)"
   xmlns:inkscape="http://www.inkscape.org/namespaces/inkscape"
   xmlns:sodipodi="http://sodipodi.sourceforge.net/DTD/sodipodi-0.dtd"
   xmlns="http://www.w3.org/2000/svg"
   xmlns:svg="http://www.w3.org/2000/svg">
  <sodipodi:namedview
     id="namedview1366"
     pagecolor="#ffffff"
     bordercolor="#666666"
     borderopacity="1.0"
     inkscape:pageshadow="2"
     inkscape:pageopacity="0.0"
     inkscape:pagecheckerboard="0"
     showgrid="false"
     inkscape:zoom="0.58393183"
     inkscape:cx="350.21211"
     inkscape:cy="281.71097"
     inkscape:window-width="1296"
     inkscape:window-height="969"
     inkscape:window-x="0"
     inkscape:window-y="25"
     inkscape:window-maximized="0"
     inkscape:current-layer="svg1364" />
  <defs
     id="defs1218">
    <clipPath
       clipPathUnits="userSpaceOnUse"
       id="a">
      <path
         d="M1885.82 337.359l1.73-3.839c-9.05-61.192-9.05-97.415 0-158.606 8.33-56.297 24.75-85.504 40.58-140.168L1721.57 75.32c-20.14 73.368-25.71 116.598-51.64 188.118-27 74.429-77.65 105.582-84.84 184.429-3.54 38.785-1.84 61.75 7.37 99.594-28.97 3.984-54.14 13.828-84.83 33.195-55.02 34.719-81.88 72.949-95.9 136.477l.96 2.722c-7.31-.304-14.95-1.105-23.1-2.722-58.96-11.699-84.63-45.028-143.85-55.328-59.54-10.356-95.11-5.028-154.92 3.687-119.972 17.485-165.988-55.328-287.629 117.942-43.957 62.609-40.238 123.433-14.836 195.589-51.183 19.672-86.527 22.467-140.167 11.063-38.434-8.168-53.754-32.512-92.211-40.57-62.524-13.11-98.524 18.441-162.297 22.129-47.399 2.738-75.719-11.711-121.723 0-85.902 21.867-134.137 70.025-169.676 151.235-20.48 46.8-3.523 81.52-22.133 129.1-11.96 30.58-30.363 42.56-40.574 73.77-25.883 79.12 17.336 129.32 36.887 210.25 15.5 64.16 3.453 113.55 47.949 162.29 24.481 26.82 54.688 23.37 77.465 51.64 16.137 20.05 13.504 38.87 29.504 59.02 24.566 30.94 53.226 31.64 84.84 55.33 31.84 23.86 49.101 38.49 77.461 66.39 26.136 25.73 30.922 51.79 62.703 70.09 38.969 22.43 72.699-2.2 114.347 14.75 55.661 22.65 62.352 73.15 114.344 103.28 52.352 30.34 90.895 26.7 147.547 47.95 90.399 33.92 131.332 79.85 224.999 103.28 79.86 19.98 128.48 9.01 210.25 18.44 72.15 8.33 111.84 23.26 184.43 25.83 90.99 3.21 141.66-14.52 232.38-22.13 56.07-4.71 90.67 7.31 143.86-11.07 46.4-16.04 61.8-47.13 106.96-66.39 62.03-26.46 108.3-5.27 169.68-33.2 51.6-23.48 72.13-51.57 118.03-84.84 65-47.11 112.61-61.76 165.99-121.72 71.03-79.78 61.68-156.4 118.03-247.14 46.6-75.03 111.94-95.89 136.48-180.74 12.84-44.41 2.86-72.53 11.07-118.03 12.59-69.85 48.97-102.68 55.33-173.37 9.12-101.48 10.61-180.12-59.02-254.51-61.91-66.127-128.57-64.58-217.63-81.146-28.14-5.234-19.25-11.027-43.72-16.496l-22.67-5.633c57.8-21.844 112.18-13.34 143.85-66.395 31.01-51.937 14.76-98.628-7.38-154.921-30.56-77.723-92.79-92.438-158.6-143.856-115.88-90.531-178.38-176.265-324.6-191.805-48.09-5.113-92.82-7.515-134.52-3.539z"
         id="path1215" />
    </clipPath>
  </defs>
  <g
     id="g1497"
     transform="matrix(0.91220363,0,0,0.91220363,37.26124,13.719748)">
    <path
       d="m 251.443,268.352 0.23,0.512 c -1.206,8.159 -1.206,12.989 0,21.147 1.111,7.507 3.3,11.401 5.411,18.69 l -27.541,-5.41 c -2.686,-9.783 -3.428,-15.547 -6.886,-25.083 -3.6,-9.924 -10.353,-14.077 -11.312,-24.59 -0.472,-5.172 -0.245,-8.234 0.983,-13.28 -3.863,-0.53 -7.219,-1.843 -11.31,-4.425 -7.337,-4.63 -10.918,-9.727 -12.787,-18.197 l 0.128,-0.363 c -0.975,0.04 -1.994,0.147 -3.08,0.363 -7.862,1.56 -11.284,6.003 -19.18,7.377 -7.939,1.38 -12.682,0.67 -20.656,-0.492 -15.997,-2.331 -22.132,7.377 -38.35,-15.726 -5.862,-8.347 -5.366,-16.457 -1.979,-26.078 -6.824,-2.623 -11.537,-2.996 -18.689,-1.475 -5.124,1.089 -7.167,4.335 -12.295,5.41 -8.336,1.747 -13.136,-2.46 -21.64,-2.951 -6.32,-0.365 -10.095,1.561 -16.23,0 -11.453,-2.916 -17.884,-9.337 -22.623,-20.165 -2.73,-6.24 -0.47,-10.87 -2.95,-17.213 -1.595,-4.078 -4.049,-5.675 -5.41,-9.836 -3.451,-10.55 2.311,-17.243 4.918,-28.034 2.066,-8.554 0.46,-15.14 6.393,-21.638 3.264,-3.576 7.292,-3.116 10.329,-6.886 2.151,-2.673 1.8,-5.182 3.934,-7.869 3.275,-4.125 7.096,-4.219 11.312,-7.377 4.245,-3.182 6.546,-5.132 10.328,-8.852 3.484,-3.431 4.123,-6.906 8.36,-9.346 5.196,-2.99 9.693,0.294 15.246,-1.966 7.422,-3.02 8.314,-9.754 15.246,-13.771 6.98,-4.045 12.12,-3.56 19.673,-6.393 12.053,-4.523 17.511,-10.647 30,-13.771 10.648,-2.664 17.13,-1.201 28.033,-2.459 9.62,-1.11 14.912,-3.101 24.591,-3.444 12.132,-0.428 18.888,1.936 30.984,2.951 7.476,0.628 12.09,-0.975 19.181,1.476 6.187,2.139 8.24,6.284 14.262,8.852 8.27,3.528 14.44,0.703 22.624,4.427 6.88,3.13 9.617,6.876 15.737,11.312 8.667,6.281 15.015,8.234 22.132,16.229 9.47,10.637 8.224,20.853 15.737,32.952 6.214,10.004 14.926,12.785 18.198,24.099 1.712,5.921 0.381,9.67 1.476,15.737 1.678,9.313 6.529,13.69 7.377,23.116 1.216,13.53 1.415,24.016 -7.87,33.935 -8.254,8.817 -17.142,8.61 -29.017,10.82 -3.752,0.697 -2.566,1.47 -5.829,2.199 l -3.023,0.75 c 7.707,2.913 14.958,1.78 19.18,8.853 4.135,6.925 1.968,13.15 -0.984,20.656 -4.074,10.364 -12.372,12.326 -21.146,19.181 -15.451,12.071 -23.784,23.502 -43.28,25.574 -6.412,0.682 -12.376,1.002 -17.936,0.472"
       fill="#00354c"
       id="path1220" />
    <g
       clip-path="url(#a)"
       transform="matrix(0.13333,0,0,-0.13333,0,313.333)"
       id="g1310">
      <path
         d="M -615.793,1866.14 1909.27,3323.95 c 51.11,29.5 116.46,11.99 145.97,-39.12 L 3513.05,759.77 c 29.5,-51.114 11.99,-116.465 -39.12,-145.973 L 948.871,-844.008 c -51.113,-29.504 -116.465,-11.996 -145.969,39.113 L -654.906,1720.17 c -29.508,51.11 -11.996,116.46 39.113,145.97"
         fill="#003b54"
         id="path1222" />
      <path
         d="m 757.715,2570.97 185.086,106.86 c 21.906,12.64 49.91,5.14 62.559,-16.76 l 106.85,-185.09 c 12.65,-21.91 5.15,-49.91 -16.76,-62.56 L 910.367,2306.57 c -21.906,-12.65 -49.914,-5.14 -62.558,16.76 l -106.856,185.09 c -12.648,21.9 -5.14,49.91 16.762,62.55 M 427.211,2380.16 c 61.695,35.62 123.391,71.24 185.082,106.86 22.344,11.95 49.187,4.76 62.559,-16.77 35.621,-61.69 71.238,-123.39 106.855,-185.08 7.289,-13.23 7.938,-28.64 1.766,-42.43 -5.95,-6.28 -15.477,-10.2 -23.301,-13.56 A 2885,2885 0 0 1 559.59,2134.62 c -9.09,-4.58 -41.375,-19.01 -43.996,-0.59 -0.039,0.53 0.035,1.19 -0.141,1.7 -35.004,60.62 -70.004,121.25 -105.008,181.87 -11.953,22.35 -4.757,49.19 16.766,62.56 M 96.707,2189.35 c 61.691,35.61 123.387,71.24 185.082,106.85 22.344,11.96 49.184,4.76 62.555,-16.76 34.597,-59.92 69.191,-119.84 103.785,-179.76 0.078,-0.98 0.031,-1.98 0.047,-2.96 -0.805,-20.2 -23.781,-37.27 -39.285,-47.01 -59.95,-36.58 -118.403,-75.52 -174.981,-117.14 -7.156,-5.18 -18.609,-13.3 -27.828,-8.99 -8.066,4.12 -14.664,10.34 -19.281,18.12 -35.621,61.7 -71.242,123.4 -106.86,185.09 -11.953,22.35 -4.761,49.19 16.766,62.56 m -330.508,-190.81 185.082,106.85 c 21.907,12.65 49.914,5.14 62.559,-16.76 l 106.855,-185.09 c 12.649,-21.9 5.141,-49.91 -16.761,-62.56 L -81.152,1734.13 c -21.903,-12.65 -49.911,-5.14 -62.555,16.76 l -106.856,185.09 c -12.648,21.9 -5.14,49.91 16.762,62.56"
         fill="#003b54"
         id="path1224" />
      <path
         d="m 1279.04,2431.28 c 61.69,35.62 123.39,71.24 185.08,106.85 22.34,11.96 49.18,4.76 62.56,-16.76 35.61,-61.69 71.23,-123.39 106.85,-185.08 a 47.46,47.46 0 0 0 6.01,-19.29 c 4.32,-10.98 -7.92,-16.32 -16.64,-18.51 -63.03,-14.86 -125.38,-32.36 -187.16,-51.78 -21.93,-6.41 -50.62,-5.64 -68.54,10.25 -26.28,25.02 -53.46,49 -81.79,71.68 -7.71,13.36 -15.43,26.72 -23.14,40.08 -11.95,22.35 -4.76,49.19 16.77,62.56"
         fill="#ccd8dd"
         id="path1226" />
      <path
         d="m 937.203,2262.98 c 41.516,15.37 83.617,28.88 125.427,43.36 l 70.98,40.98 c 22.35,11.96 49.19,4.76 62.56,-16.76 1.47,-2.54 2.94,-5.09 4.41,-7.64 32.3,-28.72 63.1,-58.93 92.71,-90.42 15.83,-18.39 -5.88,-36.33 -22.46,-43 -76.32,-28.85 -151.64,-60.22 -226.02,-93.75 -21.13,-9 -54.201,-12.97 -68.775,9.33 -23.726,40.4 -47.496,80.76 -71.375,121.06 -9.109,17.92 19.867,31.91 32.543,36.84"
         fill="#b2c4cc"
         id="path1228" />
      <path
         d="m 566.695,2095.38 c 67.672,36.29 136.668,69.99 206.864,101.12 14.593,6.17 44.906,15.95 55.207,-2.04 21.113,-42.99 42.929,-85.63 65.039,-128.11 11.34,-24.58 -12.578,-48.34 -32.414,-59.08 -77.793,-40.04 -154.36,-82.37 -229.571,-127.07 -19.586,-11.06 -50.914,-15.59 -60.75,10.3 -16.636,50.65 -31.433,101.91 -42.371,154.12 -3.386,22.42 20.883,41.18 37.996,50.76"
         fill="#99b0bb"
         id="path1230" />
      <path
         d="m 233.238,1883.32 c 57.762,43.36 117.453,84.01 178.664,122.34 12.477,7.47 40.629,18.68 45.282,-3.16 8.89,-54.03 22.238,-107.16 37.828,-159.61 6.902,-26.83 -10.981,-54.48 -32.176,-69.46 -65.098,-43.75 -128.797,-89.52 -190.621,-137.8 -18.082,-13.38 -40.645,-10.52 -46.879,13.14 -13.02,57.68 -22.41,116.13 -25.867,175.2 -0.453,23.43 16.113,45.53 33.769,59.35"
         fill="#809daa"
         id="path1232" />
      <path
         d="m -42.988,1668.03 78.781,45.48 c 25.75,23.44 50.227,48.22 76.34,71.3 12.18,10.3 30.34,14.33 31.871,-6.39 2.789,-59.76 11.684,-118.92 24.476,-177.32 4.774,-24.62 -3.496,-53.06 -21.765,-70.47 -43.719,-39.42 -85.887,-80.52 -125.5,-124.08 -14.906,-15.36 -28.18,0.72 -32.137,16.39 -10.2,44.97 -16.387,90.23 -21.937,135.95 -8.961,15.53 -17.93,31.06 -26.895,46.58 -11.953,22.35 -4.758,49.19 16.766,62.56"
         fill="#4d7687"
         id="path1234" />
      <path
         d="m 2130.86,2482.4 185.08,106.85 c 21.91,12.65 49.92,5.14 62.56,-16.76 l 106.86,-185.08 c 12.64,-21.91 5.14,-49.91 -16.77,-62.56 l -185.08,-106.86 c -21.9,-12.64 -49.91,-5.14 -62.56,16.76 l -106.86,185.09 c -12.64,21.9 -5.14,49.91 16.77,62.56"
         fill="#003b54"
         id="path1236" />
      <path
         d="m 1800.41,2291.73 c 62.04,34.92 123.38,71.12 185.03,106.71 22.34,11.95 49.18,4.76 62.55,-16.76 35.62,-61.7 71.24,-123.39 106.86,-185.09 2.16,-3.79 3.79,-7.84 4.85,-12.08 6.66,-7.87 15.3,-22.08 1.01,-27.08 -46.44,-14.35 -92.32,-30.45 -137.84,-47.5 -23.89,-7.95 -51.39,4.67 -68.96,20.71 -49.27,46.75 -100.83,90.98 -155.29,131.58 -12.66,9.82 -17.42,25.13 1.79,29.51"
         fill="#e6ecee"
         id="path1238" />
      <path
         d="m 1480.76,2202.8 c 63.02,21.63 126.65,41.44 191,58.73 22.83,5.48 49.2,-0.26 67.88,-14.43 53.89,-43.28 104.83,-90.01 153.5,-139.06 15.35,-16.35 18.66,-40.96 -4.53,-51.7 -68.23,-28.72 -135.79,-58.98 -202.86,-90.31 -27.66,-11.87 -61.07,-3.02 -80.06,20.09 -45.26,58.51 -92.23,115.67 -141.68,170.69 -15.75,18.73 -3.64,38.37 16.75,45.99"
         fill="#ccd8dd"
         id="path1240" />
      <path
         d="m 1080.49,2038.41 c 76.22,35.91 153.36,69.79 231.51,101.29 24.38,9.1 55.98,7.26 74.24,-13.23 47.86,-58.04 93.55,-117.8 137.8,-178.63 17.13,-25.36 6.87,-55.51 -19.19,-69.62 -83.53,-42 -166.35,-85.38 -248.54,-129.94 -28.99,-14.63 -65.63,-8.64 -83.59,19.89 -40.2,69.16 -80.47,138.29 -120.82,207.37 -13.68,25.78 5.64,51.32 28.59,62.87"
         fill="#b2c4cc"
         id="path1242" />
      <path
         d="m 658.465,1811.63 c 76.844,46.48 154.996,90.72 234.328,132.81 23.965,11.92 57.383,12.59 72.594,-13.12 38.403,-71.34 77.363,-142.38 116.683,-213.22 15.43,-30.25 1.49,-64.82 -26.34,-81.97 -83.402,-48.05 -166.093,-97.32 -247.976,-147.91 -27.824,-16.02 -61.559,-7.79 -76.887,20.96 -36.742,75.05 -71.41,151.09 -103.054,228.44 -10.434,28.65 6.527,58.5 30.652,74.01"
         fill="#99b0bb"
         id="path1244" />
      <path
         d="m 293.832,1562.12 c 62.656,48.76 127.086,95.14 192.824,139.64 22.344,14.19 51.024,11.43 62.278,-14.85 30.355,-77.99 64.254,-154.52 100.625,-229.89 12.941,-28.97 5.121,-64.52 -21.219,-83.13 -66.926,-44.04 -133.145,-89.14 -198.348,-135.71 -24.207,-15.95 -50.535,-0.21 -62.605,22.81 -35.856,73.56 -67.949,148.85 -95.063,226.07 -8.355,26.47 0.047,57.23 21.508,75.06"
         fill="#809daa"
         id="path1246" />
      <path
         d="m 42.293,1335.51 c 39.703,42.72 81.812,83.07 125.352,121.85 19.296,15.98 39.343,2.97 47.136,-17.7 26.742,-76.27 58.66,-150.53 94.559,-222.92 10.601,-22.57 13.906,-55.67 -7.176,-73.5 -42.695,-33.13 -84.691,-67.17 -125.336,-102.8 -17.988,-14.17 -38.273,9.87 -46.535,24.1 -36.246,65.71 -68.098,133.66 -94.531,203.9 -7.34,20.98 -8.813,49.13 6.531,67.07"
         fill="#4d7687"
         id="path1248" />
      <path
         d="m -182.68,1146.71 134.051,77.4 c 6.898,8.74 13.016,18.14 19.734,27.03 13.356,16.05 27.887,-8.76 32.47,-20.1 26.538,-68.33 58.448,-134.32 94.745,-197.99 8.219,-14.83 21.328,-43.253 7.961,-58.573 C 96.555,964.664 87.477,954.184 77.661,944.48 41.761,923.758 5.867,903.031 -30.031,882.309 -52.375,870.355 -79.215,877.547 -92.59,899.07 l -106.855,185.09 c -11.953,22.34 -4.762,49.18 16.765,62.55 m 2504.35,1005.18 c 61.69,35.62 123.39,71.24 185.08,106.86 22.35,11.95 49.19,4.76 62.56,-16.77 35.62,-61.69 71.24,-123.39 106.86,-185.08 11.95,-22.35 4.76,-49.19 -16.76,-62.56 -32.97,-19.03 -65.94,-38.07 -98.91,-57.1 -12.18,-8.61 -24.36,-17.22 -36.64,-25.69 -17.47,-10.35 -40.81,13.32 -51.15,25.11 -48.82,57.08 -101.07,111.05 -156.74,161.48 -6.44,5.88 -12.85,12.47 -16.77,20.35 2.21,14.06 10.28,26.06 22.47,33.4"
         fill="#003b54"
         id="path1250" />
      <path
         d="m 2081.18,2051 c 45.56,19.4 91.43,38.08 137.83,55.4 20.88,6.62 44.88,-9.51 59.55,-22.88 56.12,-53.15 108.72,-109.79 157.83,-169.47 10.83,-13.73 26.62,-42.17 7.91,-56.12 -45.28,-29.89 -90.92,-59.25 -136.73,-88.32 -24.56,-14.06 -52.46,5.44 -66.95,25.1 -49.53,70.18 -102.46,137.83 -158.99,202.52 -12.63,15.05 -23.67,42.65 -0.45,53.77"
         fill="#e6ecee"
         id="path1252" />
      <path
         d="m 1741.24,1892.36 c 67.83,33.77 136.06,66.73 204.84,98.52 26.29,10.94 56.22,-2.63 73.95,-22.78 56.26,-67.6 109.03,-137.96 158.54,-210.65 14.73,-22.99 17.62,-56.31 -7.53,-73.3 -69.32,-42.85 -138.91,-85.24 -208.71,-127.3 -29.5,-16.37 -63.7,-2.9 -81.19,24.21 -49.25,81.33 -100.77,161.26 -154.75,239.54 -16.07,24.79 -12.47,56.95 14.85,71.76"
         fill="#ccd8dd"
         id="path1254" />
      <path
         d="m 1307,1662.86 c 83.24,46.24 166.99,91.56 251.29,135.84 29.81,14.43 65.35,4.65 84.39,-22.22 53.2,-80.48 104.33,-162.29 153.58,-245.24 16.53,-30.01 8.79,-67.05 -20.54,-85.74 -84.87,-50.18 -169.98,-99.94 -255.31,-149.33 -31.43,-16.86 -69.2,-6.79 -88.02,23.52 -49.8,86.31 -99.66,172.56 -149.6,258.78 -16.43,30.66 -5.36,66.72 24.21,84.39"
         fill="#b4b78b"
         id="path1256" />
      <path
         d="m 854.637,1398.79 c 82.687,50.65 165.993,100.29 249.833,149.01 30.51,16.44 67.47,7.54 85.73,-22.31 49.21,-86.75 98.89,-173.25 148.99,-259.49 16.76,-31.11 7.03,-68.59 -23.19,-87.1 -83.24,-47.32 -166.68,-94.28 -250.36,-140.81 -30.17,-15.46 -65.51,-3.69 -84.023,23.78 a 5247.839,5247.839 0 0 0 -148.433,251.3 c -15.418,30.11 -7.114,66.78 21.453,85.62"
         fill="#787d2f"
         id="path1258" />
      <path
         d="m 475.406,1153.95 c 65.625,44.94 132.012,88.75 198.918,131.76 28.242,16.75 60.68,3.37 76.656,-23.45 a 4361.437,4361.437 0 0 1 148.641,-246.73 c 15.594,-25.557 13.992,-59.96 -13.66,-76.362 -65.77,-35.816 -131.715,-71.309 -197.918,-106.324 -25.961,-12.383 -55.188,3.906 -71.516,24.445 -53.57,71.184 -103.449,145.001 -149.558,221.231 -13.496,23.77 -15.598,57.48 8.437,75.43"
         fill="#809daa"
         id="path1260" />
      <path
         d="m 221.777,967.668 c 41.036,33.032 83.063,64.802 125.594,95.882 23.074,15.25 48.867,-5.57 61.348,-24.75 45.992,-73.855 95.883,-145.144 149.57,-213.612 12.063,-16.008 24.352,-46.071 1.746,-59.067 -42.301,-21.68 -84.75,-43.074 -127.48,-63.906 -19.817,-8.266 -43.395,11.18 -56.133,24.433 A 1832.298,1832.298 0 0 0 228.813,908.172 c -10.364,15.199 -24.051,44.082 -7.036,59.496"
         fill="#4d7687"
         id="path1262" />
      <path
         d="m 8.129,816.207 c 38.988,22.508 77.977,45.02 116.969,67.527 8.726,7.766 17.054,15.996 25.738,23.821 15.504,12.047 37.469,-14.25 45.621,-25.035 A 1737.471,1737.471 0 0 1 342.992,708.992 c 8.574,-9.012 18.641,-20.5 19.699,-33.472 -4.093,-7 -9.851,-12.735 -16.828,-16.864 C 284.168,623.039 222.477,587.422 160.781,551.801 138.438,539.848 111.598,547.039 98.223,568.566 62.602,630.258 26.984,691.957 -8.633,753.648 c -11.953,22.344 -4.762,49.188 16.762,62.559 M 2574.41,1846.79 c 14.53,11.51 28.75,23.37 43.02,35.19 26.71,15.42 53.43,30.84 80.14,46.26 22.34,11.96 49.18,4.76 62.55,-16.76 35.62,-61.69 71.24,-123.39 106.86,-185.09 11.95,-22.34 4.76,-49.18 -16.77,-62.55 -20.5,-11.84 -41.01,-23.68 -61.51,-35.52 -16.22,-19.94 -31.56,-40.46 -48.52,-59.82 -15.25,-15.59 -33.15,10.23 -39.41,22.46 -34.18,69.23 -73.28,135.8 -116.61,199.69 -8.7,13.2 -25.02,42.28 -9.75,56.14"
         fill="#003b54"
         id="path1264" />
      <path
         d="m 2359.06,1690.84 c 45.94,31.35 91.52,63.23 136.41,96.06 19.83,12.91 42.58,-9.98 52.99,-25.12 43.41,-66.28 82.59,-135.14 116.82,-206.6 9.22,-20.49 13.63,-50.22 -3.35,-68.08 -43.53,-41.85 -89.03,-81.57 -135.65,-119.94 -21.73,-16.5 -44.86,-0.76 -54.92,20.67 -34.86,79 -74.34,155.81 -117.65,230.51 -12.03,21.83 -17.45,55.44 5.35,72.5"
         fill="#e6ecee"
         id="path1266" />
      <path
         d="m 2013.89,1467.43 c 69.99,43.5 139.6,87.61 208.66,132.57 26.07,15.55 54.91,-0.8 69.13,-24.32 43.23,-76.36 82.85,-154.66 118.07,-235.04 10.84,-26.97 4.73,-59.96 -18.6,-78.43 -66.89,-49.27 -135.24,-96.5 -204.66,-142.13 -25.38,-15.56 -56.32,-9.05 -69.94,18.3 -38.01,82.85 -78.93,164.3 -122.13,244.55 -14.59,29.11 -8.42,65.81 19.47,84.5"
         fill="#ccd8dd"
         id="path1268" />
      <path
         d="m 1573.03,1204.05 c 85.25,49.16 170.1,99.03 254.49,149.65 29.76,16.55 65.2,6.32 82.26,-22.97 43.34,-80.43 84.83,-161.84 123.9,-244.44 12.83,-29.88 -1.64,-62.77 -27.99,-79.66 -80.37,-48.185 -161.83,-94.489 -244.31,-138.958 -26.93,-13.535 -61.87,-10.402 -78.84,16.851 a 148206.43,148206.43 0 0 1 -134.08,233.667 c -16.48,31.01 -4.85,67.65 24.57,85.86"
         fill="#d2d4ba"
         id="path1270" />
      <path
         d="m 1120.89,952.836 c 83.33,44.539 166.23,89.874 248.75,135.874 30.57,15.81 67.93,7.04 86.65,-22.29 45.32,-76.443 91.01,-152.666 137.21,-228.584 15.18,-27.145 -0.12,-56.285 -25.76,-69.77 -77.79,-38.093 -156.4,-74.484 -235.92,-108.832 -26.48,-10.531 -59.16,-5.214 -78.13,16.957 -52.21,65.485 -102,132.821 -149.99,201.45 -17.17,26.343 -10.34,59.293 17.19,75.195"
         fill="#f0f1e8"
         id="path1272" />
      <path
         d="m 745.633,760.934 c 66,31.988 131.555,64.875 196.808,98.359 28.43,13.359 61.879,1.312 80.489,-22.633 48.67,-66.293 99.4,-131.027 152.85,-193.531 15.78,-19.598 9.71,-43.176 -13.49,-52.82 -62.29,-23.653 -125.13,-45.778 -188.724,-65.68 -23.804,-6.613 -50.964,2.238 -69.402,17.836 -56.648,50.504 -110.09,104.387 -160.879,160.762 -14.722,17.234 -21.465,44.968 2.348,57.707"
         fill="#809daa"
         id="path1274" />
      <path
         d="m 489.945,645.105 c 43.039,17.688 85.629,36.422 127.981,55.696 23.699,9.551 51.14,-6.543 67.426,-23.102 51.089,-53.879 104.871,-105.09 161.824,-152.75 11.484,-9.965 22.554,-29.492 1.687,-35.453 -18.25,-4.531 -36.797,-8.051 -54.968,-12.844 -37.266,-21.515 -74.532,-43.031 -111.797,-64.543 -22.344,-11.953 -49.184,-4.761 -62.559,16.762 -28.672,49.668 -57.348,99.336 -86.023,149.004 -10.399,9.121 -21.145,17.844 -31.567,26.941 -8.644,7.789 -30.379,31.508 -12.004,40.289"
         fill="#4d7687"
         id="path1276" />
      <path
         d="m 198.941,485.699 185.086,106.856 c 21.903,12.648 49.911,5.144 62.559,-16.762 L 553.441,390.707 c 12.645,-21.902 5.137,-49.91 -16.765,-62.559 L 351.59,221.297 c -21.902,-12.649 -49.91,-5.141 -62.555,16.762 L 182.18,423.145 c -12.645,21.902 -5.141,49.91 16.761,62.554"
         fill="#003b54"
         id="path1278" />
      <path
         d="m 2556.32,1288.63 c 46.79,39.41 92.27,80.32 135.58,123.54 17.01,15.73 33.44,-2.99 39.37,-19.4 21.07,-63.27 37.66,-127.89 48.13,-193.79 2.96,-22.48 -3.73,-47.72 -19.02,-64.73 -42.67,-44.81 -87.9,-87.03 -134.85,-127.31 -15.21,-12.366 -34.67,-12.034 -38.96,9.86 -11.22,66.99 -28.18,132.77 -48.89,197.42 -7.44,25.34 -1.47,56.35 18.64,74.41"
         fill="#e6ecee"
         id="path1280" />
      <path
         d="m 2219.18,1040.83 c 68.91,45.24 136.61,92.26 202.7,141.53 21.13,14.8 45.94,7.93 54.87,-16.65 20.91,-64.35 38.35,-129.76 50.29,-196.378 3.55,-25.281 -12.15,-50.484 -31.5,-65.453 -62,-45.625 -125.88,-88.586 -191.24,-129.258 -16.31,-9.644 -45.05,-17.051 -52.83,6.754 -17.43,62.34 -38.58,123.535 -61.76,183.961 -9.76,28.379 5.99,59.184 29.47,75.494"
         fill="#ccd8dd"
         id="path1282" />
      <path
         d="m 1800.64,795.879 c 81.2,42.559 161.29,87.164 240.19,133.851 23.21,12.946 55.91,13.208 68.47,-14.16 24.13,-58.855 46.62,-118.379 66.05,-178.957 6.56,-24.644 -16.71,-46.648 -36.01,-57.59 A 3517.227,3517.227 0 0 0 1920.35,570.551 c -18.18,-7.789 -49.25,-14.574 -62.15,5.644 -28.98,51.215 -58.07,102.371 -87.2,153.496 -13.61,26.403 6.89,53.547 29.64,66.188"
         fill="#b2c4cc"
         id="path1284" />
      <path
         d="m 1379.38,600.395 c 78.01,31.585 155.08,65.437 231.29,101.171 24.32,10.696 58.46,10.86 74.96,-13.281 30.62,-49 61.54,-97.816 93.05,-146.25 11.64,-20.137 -14.41,-36.867 -30.1,-43.238 -68.78,-26.332 -138.4,-50.379 -208.89,-71.742 -19.94,-5.629 -47.11,-7.539 -64.09,6.652 -40.46,36.922 -78.6,76.25 -115.4,116.801 -16.69,19.89 -0.97,41.144 19.18,49.887"
         fill="#99b0bb"
         id="path1286" />
      <path
         d="m 1027.17,479.598 c 62.6,17.183 124.49,36.789 185.81,58.09 23.93,7.652 53.77,3.656 72.45,-14.028 38.28,-38.531 78.05,-75.558 120.28,-109.75 9.01,-7.68 6,-16.933 -3.46,-22.465 A 47.552,47.552 0 0 0 1388.5,379.27 c -61.7,-35.618 -123.39,-71.235 -185.08,-106.856 -22.35,-11.953 -49.19,-4.762 -62.56,16.766 -24.29,42.07 -48.58,84.144 -72.87,126.218 -14.64,10.926 -30.24,20.625 -45.06,31.336 -14.78,11.254 -14.77,27.098 4.24,32.864"
         fill="#809daa"
         id="path1288" />
      <path
         d="m 720.262,346.008 c 59.211,34.183 118.422,68.371 177.633,102.555 1.613,0.929 4.039,0.949 5.859,1.32 21.473,3.797 45.465,-3.629 63.476,-15.25 0.833,-0.555 2.149,-1.09 2.649,-1.957 l 104.881,-181.66 c 11.95,-22.344 4.76,-49.184 -16.77,-62.559 A 5416870,5416870 0 0 1 872.91,81.602 C 850.566,69.648 823.727,76.84 810.352,98.367 L 703.5,283.45 c -11.957,22.344 -4.766,49.184 16.762,62.559"
         fill="#4d7687"
         id="path1290" />
      <path
         d="m 389.754,155.195 185.082,106.856 c 21.906,12.644 49.914,5.14 62.559,-16.766 L 744.25,60.203 c 12.648,-21.902 5.141,-49.91 -16.762,-62.558 L 542.406,-109.211 c -21.906,-12.644 -49.914,-5.141 -62.558,16.766 L 372.992,92.637 c -12.644,21.906 -5.14,49.914 16.762,62.558"
         fill="#003b54"
         id="path1292" />
      <path
         d="m 2630.81,947.117 c 46.81,39.746 91.87,81.493 134.37,125.843 4.54,4.65 10.77,10.05 17.75,8.17 11.97,-3.27 21.94,-10.84 28.31,-21.47 35.62,-61.699 71.24,-123.394 106.86,-185.09 11.95,-22.343 4.76,-49.183 -16.76,-62.558 -61.7,-35.617 -123.39,-71.235 -185.09,-106.852 -22.34,-11.957 -49.18,-4.765 -62.55,16.758 -18.86,32.664 -37.72,65.332 -56.58,97.992 1.14,22.219 2.26,44.332 1.89,66.598 0.3,22.992 15.01,45.824 31.8,60.609"
         fill="#e6ecee"
         id="path1294" />
      <path
         d="m 2314.87,722.203 c 64.13,39.004 126.77,80.36 187.55,124.402 12.12,8.461 36.97,17.524 38.67,-5.027 0.82,-24.933 0.22,-49.793 -1.5,-74.672 l 48,-83.148 c 11.96,-22.344 4.77,-49.184 -16.76,-62.559 -61.69,-35.617 -123.39,-71.234 -185.08,-106.855 -22.35,-11.953 -49.19,-4.762 -62.56,16.765 l -37.89,65.618 c -1.47,24.156 -4.28,48.14 -8.24,72.015 -2.57,22.512 20.79,42.735 37.81,53.461"
         fill="#ccd8dd"
         id="path1296" />
      <path
         d="m 1941.13,529.711 a 3255.877,3255.877 0 0 1 212.84,101.687 c 12.89,6.489 44.96,18.477 51.03,-2.636 4.8,-21.77 8.55,-43.664 11.63,-65.739 13.48,-23.359 26.97,-46.718 40.46,-70.078 11.95,-22.343 4.76,-49.183 -16.77,-62.554 -61.69,-35.621 -123.39,-71.239 -185.08,-106.86 -22.35,-11.949 -49.19,-4.761 -62.56,16.766 -22.8,39.504 -45.61,79.008 -68.42,118.516 -5.75,10.226 -11.45,20.476 -17.19,30.707 -8.65,18.238 21.21,34.39 34.06,40.191"
         fill="#b2c4cc"
         id="path1298" />
      <path
         d="m 1572.09,397.125 c 1.18,0.688 2.37,1.375 3.57,2.063 66.94,19.441 133.3,40.468 198.86,64.21 15.78,5.473 45.77,13.247 58.17,-2.597 4.72,-6.906 9.6,-13.711 14.22,-20.676 26.56,-45.996 53.11,-91.996 79.67,-137.992 11.96,-22.344 4.76,-49.184 -16.76,-62.555 -61.69,-35.621 -123.39,-71.238 -185.09,-106.859 -22.34,-11.953 -49.18,-4.762 -62.55,16.765 L 1555.32,334.57 c -11.95,22.344 -4.76,49.184 16.77,62.555"
         fill="#99b0bb"
         id="path1300" />
      <path
         d="m 1241.58,206.313 185.08,106.855 c 21.91,12.648 49.91,5.141 62.56,-16.762 L 1596.08,111.32 c 12.64,-21.902 5.13,-49.91 -16.77,-62.554 L 1394.23,-58.09 c -21.91,-12.648 -49.91,-5.14 -62.56,16.762 l -106.85,185.086 c -12.65,21.902 -5.14,49.91 16.76,62.555"
         fill="#809daa"
         id="path1302" />
      <path
         d="m 911.074,15.5 185.086,106.855 c 21.9,12.649 49.91,5.141 62.55,-16.761 l 106.86,-185.086 c 12.64,-21.903 5.14,-49.91 -16.77,-62.555 l -185.08,-106.855 c -21.9,-12.649 -49.91,-5.141 -62.56,16.761 L 894.309,-47.055 c -12.645,21.903 -5.141,49.91 16.765,62.555"
         fill="#4d7687"
         id="path1304" />
      <path
         d="m 2423.91,448.246 185.08,106.856 c 21.91,12.644 49.91,5.14 62.56,-16.766 L 2778.4,353.254 c 12.65,-21.906 5.15,-49.914 -16.76,-62.559 L 2576.55,183.84 c -21.9,-12.645 -49.91,-5.141 -62.55,16.762 l -106.86,185.086 c -12.64,21.902 -5.14,49.91 16.77,62.558 M 2093.4,257.43 2278.49,364.289 c 21.9,12.645 49.91,5.141 62.55,-16.766 L 2447.9,162.441 c 12.65,-21.906 5.14,-49.914 -16.76,-62.558 L 2246.05,-6.973 c -21.9,-12.644 -49.91,-5.14 -62.55,16.762 l -106.86,185.086 c -12.65,21.906 -5.14,49.914 16.76,62.555 M 1762.89,66.621 1947.98,173.477 c 21.91,12.644 49.91,5.14 62.56,-16.766 l 106.85,-185.082 c 12.65,-21.902 5.15,-49.91 -16.76,-62.559 l -185.08,-106.855 c -21.91,-12.645 -49.92,-5.141 -62.56,16.762 L 1746.13,4.062 c -12.64,21.903 -5.14,49.915 16.76,62.56"
         fill="#003b54"
         id="path1306" />
      <path
         d="m 1859.29,-499.414 -231.47,417.578 c -27.4,49.418 -9.54,111.688 39.88,139.082 l 417.57,231.473 c 49.43,27.394 111.69,9.539 139.09,-39.879 l 231.47,-417.582 c 27.39,-49.418 9.54,-111.684 -39.88,-139.078 l -417.58,-231.473 c -49.42,-27.395 -111.69,-9.539 -139.08,39.879"
         fill="#80a2b2"
         id="path1308" />
    </g>
    <path
       d="m 251.443,268.352 0.23,0.512 c -1.206,8.159 -1.206,12.989 0,21.147 1.111,7.507 3.3,11.401 5.411,18.69 l -27.541,-5.41 c -2.686,-9.783 -3.428,-15.547 -6.886,-25.083 -3.6,-9.924 -10.353,-14.077 -11.312,-24.59 -0.472,-5.172 -0.245,-8.234 0.983,-13.28 -3.863,-0.53 -7.219,-1.843 -11.31,-4.425 -7.337,-4.63 -10.918,-9.727 -12.787,-18.197 l 0.128,-0.363 c -0.975,0.04 -1.994,0.147 -3.08,0.363 -7.862,1.56 -11.284,6.003 -19.18,7.377 -7.939,1.38 -12.682,0.67 -20.656,-0.492 -15.997,-2.331 -22.132,7.377 -38.35,-15.726 -5.862,-8.347 -5.366,-16.457 -1.979,-26.078 -6.824,-2.623 -11.537,-2.996 -18.689,-1.475 -5.124,1.089 -7.167,4.335 -12.295,5.41 -8.336,1.747 -13.136,-2.46 -21.64,-2.951 -6.32,-0.365 -10.095,1.561 -16.23,0 -11.453,-2.916 -17.884,-9.337 -22.623,-20.165 -2.73,-6.24 -0.47,-10.87 -2.95,-17.213 -1.595,-4.078 -4.049,-5.675 -5.41,-9.836 -3.451,-10.55 2.311,-17.243 4.918,-28.034 2.066,-8.554 0.46,-15.14 6.393,-21.638 3.264,-3.576 7.292,-3.116 10.329,-6.886 2.151,-2.673 1.8,-5.182 3.934,-7.869 3.275,-4.125 7.096,-4.219 11.312,-7.377 4.245,-3.182 6.546,-5.132 10.328,-8.852 3.484,-3.431 4.123,-6.906 8.36,-9.346 5.196,-2.99 9.693,0.294 15.246,-1.966 7.422,-3.02 8.314,-9.754 15.246,-13.771 6.98,-4.045 12.12,-3.56 19.673,-6.393 12.053,-4.523 17.511,-10.647 30,-13.771 10.648,-2.664 17.13,-1.201 28.033,-2.459 9.62,-1.11 14.912,-3.101 24.591,-3.444 12.132,-0.428 18.888,1.936 30.984,2.951 7.476,0.628 12.09,-0.975 19.181,1.476 6.187,2.139 8.24,6.284 14.262,8.852 8.27,3.528 14.44,0.703 22.624,4.427 6.88,3.13 9.617,6.876 15.737,11.312 8.667,6.281 15.015,8.234 22.132,16.229 9.47,10.637 8.224,20.853 15.737,32.952 6.214,10.004 14.926,12.785 18.198,24.099 1.712,5.921 0.381,9.67 1.476,15.737 1.678,9.313 6.529,13.69 7.377,23.116 1.216,13.53 1.415,24.016 -7.87,33.935 -8.254,8.817 -17.142,8.61 -29.017,10.82 -3.752,0.697 -2.566,1.47 -5.829,2.199 l -3.023,0.75 c 7.707,2.913 14.958,1.78 19.18,8.853 4.135,6.925 1.968,13.15 -0.984,20.656 -4.074,10.364 -12.372,12.326 -21.146,19.181 -15.451,12.071 -23.784,23.502 -43.28,25.574 -6.412,0.682 -12.376,1.002 -17.936,0.472 z"
       fill="none"
       stroke="#00354c"
       stroke-width="8.099"
       stroke-linecap="round"
       stroke-linejoin="round"
       stroke-miterlimit="3.864"
       id="path1312" />
    <path
       d="m 525.64,133.63 c -5.69,21.437 -21.237,32.155 -46.645,32.155 -32.684,0 -49.026,-17.566 -49.026,-52.698 0,-35.002 16.342,-52.502 49.026,-52.502 25.408,0 40.956,10.654 46.645,31.958 h -21.833 c -3.97,-7.675 -12.24,-11.512 -24.812,-11.512 -10.983,0 -18.658,2.92 -23.024,8.761 -3.574,4.779 -5.359,12.543 -5.359,23.295 0,10.752 1.785,18.516 5.359,23.294 4.366,5.974 12.041,8.96 23.024,8.96 12.438,0 20.71,-3.904 24.812,-11.71 h 21.833"
       fill="#004665"
       id="path1314" />
    <path
       d="m 634.813,113.285 c 0,35 -16.409,52.5 -49.225,52.5 -32.685,0 -49.028,-17.533 -49.028,-52.6 V 19.101 h 20.643 v 41.484 h 28.385 c 32.816,0 49.225,17.567 49.225,52.7 z m -20.644,0 c 0,-10.752 -1.785,-18.516 -5.358,-23.294 -4.499,-5.974 -12.24,-8.96 -23.223,-8.96 h -28.385 v 32.254 c 0,10.619 1.786,18.318 5.36,23.096 4.366,5.974 12.041,8.96 23.025,8.96 10.983,0 18.724,-2.986 23.223,-8.96 3.573,-4.778 5.358,-12.477 5.358,-23.096 m 131.028,0 c 0,35 -16.408,52.5 -49.225,52.5 -32.684,0 -49.027,-17.533 -49.027,-52.6 V 19.101 h 20.643 v 41.484 h 28.384 c 32.817,0 49.225,17.567 49.225,52.7 z m -20.642,0 c 0,-10.752 -1.787,-18.516 -5.36,-23.294 -4.499,-5.974 -12.24,-8.96 -23.223,-8.96 h -28.384 v 32.254 c 0,10.619 1.787,18.318 5.36,23.096 4.367,5.974 12.041,8.96 23.024,8.96 10.983,0 18.724,-2.986 23.223,-8.96 3.573,-4.778 5.36,-12.477 5.36,-23.096"
       fill="#004665"
       fill-rule="evenodd"
       id="path1316" />
    <path
       d="m 841.887,91.948 h -20.643 c 0,-3.176 -0.927,-5.492 -2.78,-6.948 -3.175,-2.647 -9.527,-3.97 -19.055,-3.97 -9.526,0 -15.878,1.337 -19.054,4.007 -1.852,1.468 -2.779,3.804 -2.779,7.01 0,4.005 1.29,6.674 3.87,8.01 2.58,1.336 8.833,2.338 18.758,3.006 12.041,0.792 20.973,2.573 26.796,5.344 9.924,5.012 14.887,13.717 14.887,26.117 0,20.973 -14.159,31.46 -42.478,31.46 -28.317,0 -42.476,-10.52 -42.476,-31.56 h 20.643 c 0,3.235 0.927,5.592 2.779,7.075 3.176,2.694 9.528,4.041 19.054,4.041 9.528,0 15.88,-1.336 19.055,-4.007 1.853,-1.469 2.78,-3.805 2.78,-7.009 0,-3.873 -1.192,-6.477 -3.573,-7.813 -2.779,-1.468 -9.064,-2.536 -18.856,-3.204 -12.175,-0.791 -21.107,-2.572 -26.796,-5.343 -10.058,-4.88 -15.086,-13.585 -15.086,-26.117 0,-20.974 14.159,-31.462 42.476,-31.462 28.319,0 42.478,10.455 42.478,31.363"
       fill="#004665"
       id="path1318" />
    <path
       d="m 451.293,253.687 c 0,7.364 -3.452,11.045 -10.356,11.045 -6.876,0 -10.313,-3.688 -10.313,-11.065 v -19.793 h 4.343 v 8.727 h 5.97 c 6.904,0 10.356,3.695 10.356,11.086 z m -4.342,0 c 0,-2.262 -0.376,-3.895 -1.127,-4.9 -0.948,-1.257 -2.576,-1.885 -4.887,-1.885 h -5.97 v 6.785 c 0,2.234 0.376,3.854 1.126,4.86 0.919,1.256 2.534,1.884 4.844,1.884 2.311,0 3.939,-0.628 4.887,-1.885 0.75,-1.005 1.127,-2.625 1.127,-4.859"
       fill="#696f18"
       fill-rule="evenodd"
       id="path1320" />
    <path
       d="m 464.912,246.902 c -2.701,0 -4.567,0.376 -5.596,1.127 -0.752,0.557 -1.128,1.42 -1.128,2.59 v 14.113 h -4.343 v -14.087 c 0,-5.363 3.69,-8.044 11.067,-8.044 v 4.301"
       fill="#696f18"
       id="path1322" />
    <path
       d="m 485.245,258.093 c 0,4.426 -2.992,6.64 -8.977,6.64 -3.424,0 -5.887,-0.794 -7.39,-2.38 -1.03,-1.114 -1.546,-2.534 -1.546,-4.26 0,-1.726 0.516,-3.146 1.545,-4.26 1.504,-1.586 3.967,-2.38 7.391,-2.38 2.032,0 3.383,-0.278 4.05,-0.835 0.39,-0.306 0.585,-0.779 0.585,-1.42 0,-0.667 -0.195,-1.154 -0.584,-1.461 -0.668,-0.556 -2.019,-0.835 -4.051,-0.835 -2.004,0 -3.34,0.279 -4.008,0.835 -0.39,0.307 -0.585,0.794 -0.585,1.461 h -4.343 c 0,-1.715 0.516,-3.125 1.545,-4.232 1.504,-1.576 3.967,-2.365 7.391,-2.365 5.985,0 8.977,2.2 8.977,6.597 z m -4.342,0.024 v -2.947 c -1.28,0.445 -2.824,0.668 -4.635,0.668 -2.004,0 -3.34,0.267 -4.008,0.8 -0.39,0.31 -0.585,0.802 -0.585,1.476 0,0.674 0.194,1.166 0.585,1.474 0.668,0.562 2.004,0.843 4.008,0.843 2.032,0 3.383,-0.28 4.05,-0.841 0.39,-0.31 0.585,-0.8 0.585,-1.473 m 11.938,-19.942 H 488.5 v -4.301 h 4.341 z M 488.5,242.6 h 4.341 v 22.131 H 488.5 v -22.13"
       fill="#696f18"
       fill-rule="evenodd"
       id="path1324" />
    <path
       d="m 516.91,264.732 h -4.343 v -11.065 c 0,-2.256 -0.376,-3.884 -1.128,-4.886 -0.919,-1.252 -2.534,-1.879 -4.844,-1.879 -2.311,0 -3.939,0.627 -4.886,1.88 -0.752,1.001 -1.128,2.63 -1.128,4.885 v 11.065 h -4.341 v -11.045 c 0,-7.39 3.45,-11.086 10.355,-11.086 6.876,0 10.314,3.695 10.314,11.086 v 11.045 m 33.331,-15.534 h -4.343 c 0,-0.667 -0.194,-1.154 -0.585,-1.461 -0.668,-0.556 -2.004,-0.835 -4.008,-0.835 -2.004,0 -3.341,0.28 -4.01,0.843 -0.389,0.309 -0.583,0.8 -0.583,1.474 0,0.843 0.27,1.405 0.814,1.686 0.543,0.281 1.858,0.491 3.946,0.632 2.533,0.167 4.413,0.541 5.637,1.124 2.088,1.055 3.132,2.886 3.132,5.495 0,4.412 -2.979,6.618 -8.936,6.618 -5.957,0 -8.936,-2.213 -8.936,-6.64 h 4.343 c 0,0.681 0.194,1.177 0.584,1.489 0.668,0.567 2.005,0.85 4.009,0.85 2.004,0 3.34,-0.28 4.008,-0.843 0.39,-0.309 0.585,-0.8 0.585,-1.474 0,-0.815 -0.25,-1.363 -0.752,-1.644 -0.584,-0.309 -1.906,-0.533 -3.966,-0.674 -2.562,-0.167 -4.44,-0.541 -5.638,-1.124 -2.116,-1.027 -3.173,-2.858 -3.173,-5.495 0,-4.412 2.979,-6.618 8.936,-6.618 5.957,0 8.936,2.2 8.936,6.597 m 22.76,8.77 c -1.197,4.51 -4.467,6.764 -9.812,6.764 -6.876,0 -10.315,-3.695 -10.315,-11.086 0,-7.363 3.439,-11.045 10.315,-11.045 5.345,0 8.615,2.241 9.812,6.723 h -4.593 c -0.835,-1.615 -2.575,-2.422 -5.219,-2.422 -2.31,0 -3.925,0.614 -4.844,1.843 -0.752,1.006 -1.128,2.639 -1.128,4.9 0,2.263 0.376,3.896 1.128,4.901 0.919,1.257 2.533,1.885 4.844,1.885 2.616,0 4.356,-0.821 5.219,-2.463 H 573"
       fill="#696f18"
       id="path1326" />
    <path
       d="m 579.515,238.175 h -4.343 v -4.301 h 4.343 z m -4.343,4.426 h 4.343 v 22.131 h -4.343 v -22.13 m 28.16,22.13 h -10.315 c -6.902,0 -10.356,-3.681 -10.356,-11.045 0,-7.39 3.454,-11.086 10.356,-11.086 6.876,0 10.315,3.69 10.315,11.072 v 2.165 h -16.201 c 0.445,3.062 2.408,4.593 5.886,4.593 h 10.315 z m -4.468,-13.195 c -0.445,-3.09 -2.395,-4.635 -5.847,-4.635 -3.478,0 -5.441,1.545 -5.886,4.635 h 11.733"
       fill="#696f18"
       fill-rule="evenodd"
       id="path1328" />
    <path
       d="m 627.35,264.732 h -4.343 v -11.065 c 0,-2.256 -0.376,-3.884 -1.127,-4.886 -0.919,-1.252 -2.533,-1.879 -4.844,-1.879 -2.31,0 -3.94,0.627 -4.885,1.88 -0.752,1.001 -1.128,2.63 -1.128,4.885 v 11.065 h -4.343 v -11.045 c 0,-7.39 3.452,-11.086 10.356,-11.086 6.876,0 10.313,3.695 10.313,11.086 v 11.045 m 23.384,-6.764 c -1.197,4.51 -4.466,6.764 -9.812,6.764 -6.876,0 -10.314,-3.695 -10.314,-11.086 0,-7.363 3.438,-11.045 10.314,-11.045 5.346,0 8.615,2.241 9.812,6.723 h -4.593 c -0.835,-1.615 -2.575,-2.422 -5.219,-2.422 -2.31,0 -3.925,0.614 -4.844,1.843 -0.752,1.006 -1.128,2.639 -1.128,4.9 0,2.263 0.376,3.896 1.128,4.901 0.919,1.257 2.534,1.885 4.844,1.885 2.618,0 4.356,-0.821 5.219,-2.463 h 4.593"
       fill="#696f18"
       id="path1330" />
    <path
       d="m 673.325,264.732 h -10.314 c -6.904,0 -10.356,-3.681 -10.356,-11.045 0,-7.39 3.452,-11.086 10.356,-11.086 6.876,0 10.314,3.69 10.314,11.072 v 2.165 h -16.202 c 0.446,3.062 2.408,4.593 5.888,4.593 h 10.314 z m -4.468,-13.195 c -0.445,-3.09 -2.394,-4.635 -5.846,-4.635 -3.48,0 -5.442,1.545 -5.888,4.635 h 11.734"
       fill="#696f18"
       fill-rule="evenodd"
       id="path1332" />
    <path
       d="m 694.587,249.198 h -4.343 c 0,-0.667 -0.195,-1.154 -0.584,-1.461 -0.67,-0.556 -2.005,-0.835 -4.01,-0.835 -2.003,0 -3.34,0.28 -4.007,0.843 -0.391,0.309 -0.586,0.8 -0.586,1.474 0,0.843 0.272,1.405 0.815,1.686 0.543,0.281 1.859,0.491 3.945,0.632 2.534,0.167 4.414,0.541 5.638,1.124 2.088,1.055 3.132,2.886 3.132,5.495 0,4.412 -2.979,6.618 -8.936,6.618 -5.958,0 -8.936,-2.213 -8.936,-6.64 h 4.342 c 0,0.681 0.195,1.177 0.586,1.489 0.668,0.567 2.004,0.85 4.008,0.85 2.004,0 3.34,-0.28 4.009,-0.843 0.39,-0.309 0.584,-0.8 0.584,-1.474 0,-0.815 -0.25,-1.363 -0.75,-1.644 -0.586,-0.309 -1.909,-0.533 -3.969,-0.674 -2.561,-0.167 -4.44,-0.541 -5.637,-1.124 -2.115,-1.027 -3.173,-2.858 -3.173,-5.495 0,-4.412 2.978,-6.618 8.936,-6.618 5.957,0 8.936,2.2 8.936,6.597 M 450.459,216.21 c -1.198,4.51 -4.468,6.765 -9.814,6.765 -6.876,0 -10.314,-3.695 -10.314,-11.086 0,-7.363 3.438,-11.045 10.314,-11.045 5.346,0 8.616,2.241 9.814,6.723 h -4.594 c -0.834,-1.614 -2.574,-2.422 -5.22,-2.422 -2.31,0 -3.925,0.614 -4.844,1.844 -0.75,1.005 -1.128,2.638 -1.128,4.9 0,2.262 0.378,3.895 1.128,4.9 0.919,1.257 2.534,1.886 4.844,1.886 2.616,0 4.358,-0.822 5.22,-2.464 h 4.594"
       fill="#696f18"
       id="path1334" />
    <path
       d="m 473.05,222.975 h -10.314 c -6.904,0 -10.356,-3.681 -10.356,-11.044 0,-7.391 3.452,-11.087 10.356,-11.087 6.876,0 10.313,3.69 10.313,11.072 v 2.165 h -16.201 c 0.445,3.062 2.408,4.594 5.888,4.594 h 10.313 z m -4.469,-13.195 c -0.445,-3.09 -2.393,-4.635 -5.845,-4.635 -3.48,0 -5.443,1.545 -5.888,4.635 h 11.733"
       fill="#696f18"
       fill-rule="evenodd"
       id="path1336" />
    <path
       d="m 497.067,222.975 h -4.343 V 211.91 c 0,-2.255 -0.376,-3.883 -1.127,-4.885 -0.918,-1.254 -2.533,-1.88 -4.844,-1.88 -2.31,0 -3.938,0.626 -4.885,1.88 -0.752,1.002 -1.128,2.63 -1.128,4.885 v 11.065 h -4.343 v -11.044 c 0,-7.391 3.452,-11.087 10.356,-11.087 6.876,0 10.314,3.696 10.314,11.087 v 11.044 m 14.532,0.042 c -7.378,0 -11.066,-2.686 -11.066,-8.059 v -22.84 h 4.343 v 8.726 h 6.723 v 4.301 h -6.723 v 9.832 c 0,1.176 0.376,2.044 1.128,2.605 1.03,0.756 2.895,1.134 5.595,1.134 v 4.301"
       fill="#696f18"
       id="path1338" />
    <path
       d="m 534.539,222.975 h -10.314 c -6.904,0 -10.356,-3.681 -10.356,-11.044 0,-7.391 3.452,-11.087 10.356,-11.087 6.876,0 10.314,3.69 10.314,11.072 v 2.165 h -16.202 c 0.446,3.062 2.408,4.594 5.888,4.594 h 10.314 z m -4.467,-13.195 c -0.447,-3.09 -2.395,-4.635 -5.847,-4.635 -3.48,0 -5.442,1.545 -5.888,4.635 h 11.735"
       fill="#696f18"
       fill-rule="evenodd"
       id="path1340" />
    <path
       d="m 549.079,205.145 c -2.7,0 -4.567,0.376 -5.596,1.127 -0.752,0.557 -1.128,1.42 -1.128,2.59 v 14.113 h -4.343 v -14.087 c 0,-5.363 3.69,-8.044 11.067,-8.044 v 4.301 m 25.645,0 h -6.723 v 17.83 h -4.384 v -22.799 c 0,-5.373 3.702,-8.059 11.107,-8.059 v 4.3 c -2.7,0 -4.565,0.38 -5.595,1.139 -0.752,0.562 -1.128,1.434 -1.128,2.613 v 0.675 h 6.723 v 4.301"
       fill="#696f18"
       id="path1342" />
    <path
       d="m 597.523,211.93 c 0,7.364 -3.438,11.045 -10.314,11.045 -6.904,0 -10.356,-3.681 -10.356,-11.044 0,-7.391 3.452,-11.087 10.356,-11.087 6.876,0 10.314,3.696 10.314,11.087 z m -4.343,0 c 0,-2.261 -0.376,-3.895 -1.128,-4.9 -0.919,-1.257 -2.533,-1.885 -4.843,-1.885 -2.31,0 -3.925,0.628 -4.844,1.885 -0.752,1.005 -1.128,2.639 -1.128,4.9 0,2.263 0.376,3.896 1.128,4.901 0.919,1.229 2.534,1.844 4.844,1.844 2.31,0 3.924,-0.615 4.843,-1.844 0.752,-1.005 1.128,-2.638 1.128,-4.9"
       fill="#696f18"
       fill-rule="evenodd"
       id="path1344" />
    <path
       d="m 611.876,205.145 c -2.7,0 -4.565,0.376 -5.595,1.127 -0.752,0.557 -1.128,1.42 -1.128,2.59 v 14.113 h -4.342 v -14.087 c 0,-5.363 3.688,-8.044 11.065,-8.044 v 4.301"
       fill="#696f18"
       id="path1346" />
    <path
       d="m 647.21,211.93 c 0,7.364 -3.451,11.045 -10.355,11.045 -6.876,0 -10.315,-3.688 -10.315,-11.065 v -19.793 h 4.344 v 8.727 h 5.97 c 6.905,0 10.355,3.696 10.355,11.087 z m -4.342,0 c 0,-2.261 -0.376,-3.895 -1.128,-4.9 -0.947,-1.257 -2.575,-1.885 -4.885,-1.885 h -5.971 v 6.786 c 0,2.234 0.375,3.853 1.127,4.859 0.918,1.256 2.533,1.885 4.844,1.885 2.31,0 3.938,-0.629 4.885,-1.885 0.752,-1.006 1.128,-2.625 1.128,-4.86 m 27.188,11.045 h -10.313 c -6.904,0 -10.356,-3.681 -10.356,-11.044 0,-7.391 3.452,-11.087 10.356,-11.087 6.876,0 10.313,3.69 10.313,11.072 v 2.165 h -16.201 c 0.445,3.062 2.408,4.594 5.888,4.594 h 10.313 z m -4.468,-13.195 c -0.445,-3.09 -2.393,-4.635 -5.845,-4.635 -3.48,0 -5.443,1.545 -5.888,4.635 h 11.733"
       fill="#696f18"
       fill-rule="evenodd"
       id="path1348" />
    <path
       d="m 694.073,222.975 h -4.384 V 211.91 c 0,-2.255 -0.373,-3.883 -1.12,-4.885 -0.912,-1.254 -2.514,-1.88 -4.809,-1.88 -2.295,0 -3.912,0.626 -4.852,1.88 -0.747,1.002 -1.119,2.63 -1.119,4.885 v 11.065 h -4.385 v -30.858 h 4.385 v 10.147 c 1.631,-0.947 3.622,-1.42 5.971,-1.42 6.876,0 10.313,3.696 10.313,11.087 v 11.044"
       fill="#696f18"
       id="path1350" />
    <path
       d="m 714.85,216.336 c 0,4.427 -2.991,6.64 -8.977,6.64 -3.424,0 -5.888,-0.794 -7.39,-2.38 -1.031,-1.114 -1.546,-2.534 -1.546,-4.26 0,-1.726 0.515,-3.146 1.546,-4.26 1.502,-1.586 3.966,-2.38 7.39,-2.38 2.032,0 3.383,-0.278 4.051,-0.835 0.39,-0.306 0.584,-0.779 0.584,-1.42 0,-0.667 -0.195,-1.155 -0.584,-1.46 -0.668,-0.558 -2.019,-0.836 -4.05,-0.836 -2.005,0 -3.34,0.278 -4.01,0.835 -0.39,0.306 -0.584,0.794 -0.584,1.462 h -4.343 c 0,-1.715 0.515,-3.126 1.546,-4.233 1.502,-1.576 3.966,-2.365 7.39,-2.365 5.986,0 8.978,2.2 8.978,6.598 z m -4.342,0.023 v -2.946 c -1.28,0.445 -2.825,0.668 -4.635,0.668 -2.004,0 -3.34,0.267 -4.009,0.8 -0.39,0.31 -0.584,0.802 -0.584,1.476 0,0.674 0.195,1.166 0.584,1.474 0.67,0.562 2.005,0.844 4.01,0.844 2.031,0 3.382,-0.281 4.05,-0.842 0.39,-0.309 0.584,-0.8 0.584,-1.474"
       fill="#696f18"
       fill-rule="evenodd"
       id="path1352" />
    <path
       d="m 737.104,200.844 -8.853,22.424 h -4.05 l -8.853,-22.424 h 4.677 l 6.18,15.7 6.222,-15.7 h 4.677"
       fill="#696f18"
       id="path1354" />
    <path
       d="m 743.547,196.418 h -4.342 v -4.3 h 4.342 z m -4.342,4.426 h 4.342 v 22.131 h -4.342 v -22.13 m 27.908,11.085 c 0,7.364 -3.437,11.045 -10.313,11.045 -6.905,0 -10.357,-3.681 -10.357,-11.044 0,-7.391 3.452,-11.087 10.357,-11.087 6.876,0 10.313,3.696 10.313,11.087 z m -4.342,0 c 0,-2.261 -0.376,-3.895 -1.128,-4.9 -0.919,-1.257 -2.534,-1.885 -4.843,-1.885 -2.312,0 -3.927,0.628 -4.844,1.885 -0.752,1.005 -1.128,2.639 -1.128,4.9 0,2.263 0.376,3.896 1.128,4.901 0.917,1.229 2.532,1.844 4.844,1.844 2.31,0 3.924,-0.615 4.843,-1.844 0.752,-1.005 1.128,-2.638 1.128,-4.9"
       fill="#696f18"
       fill-rule="evenodd"
       id="path1356" />
    <path
       d="m 781.467,205.145 c -2.7,0 -4.566,0.376 -5.595,1.127 -0.752,0.557 -1.128,1.42 -1.128,2.59 v 14.113 h -4.343 v -14.087 c 0,-5.363 3.69,-8.044 11.066,-8.044 v 4.301"
       fill="#696f18"
       id="path1358" />
    <path
       d="m 801.801,216.336 c 0,4.427 -2.992,6.64 -8.977,6.64 -3.424,0 -5.888,-0.794 -7.39,-2.38 -1.031,-1.114 -1.546,-2.534 -1.546,-4.26 0,-1.726 0.515,-3.146 1.545,-4.26 1.503,-1.586 3.967,-2.38 7.391,-2.38 2.032,0 3.383,-0.278 4.05,-0.835 0.39,-0.306 0.585,-0.779 0.585,-1.42 0,-0.667 -0.195,-1.155 -0.584,-1.46 -0.668,-0.558 -2.019,-0.836 -4.051,-0.836 -2.004,0 -3.34,0.278 -4.01,0.835 -0.389,0.306 -0.583,0.794 -0.583,1.462 h -4.343 c 0,-1.715 0.515,-3.126 1.545,-4.233 1.503,-1.576 3.967,-2.365 7.391,-2.365 5.985,0 8.977,2.2 8.977,6.598 z m -4.342,0.023 v -2.946 c -1.28,0.445 -2.826,0.668 -4.635,0.668 -2.004,0 -3.34,0.267 -4.01,0.8 -0.389,0.31 -0.583,0.802 -0.583,1.476 0,0.674 0.194,1.166 0.584,1.474 0.669,0.562 2.005,0.844 4.009,0.844 2.032,0 3.383,-0.281 4.05,-0.842 0.39,-0.309 0.585,-0.8 0.585,-1.474"
       fill="#696f18"
       fill-rule="evenodd"
       id="path1360" />
    <path
       d="m 816.288,222.975 c -7.405,0 -11.108,-2.672 -11.108,-8.017 v -22.84 h 4.343 v 22.876 c 0,1.143 0.389,1.993 1.169,2.551 1.03,0.753 2.895,1.13 5.596,1.13 v 4.3"
       fill="#696f18"
       id="path1362" />
  </g>
</svg>
