<?xml version="1.0" encoding="UTF-8" standalone="no"?>
<!-- Created with Inkscape (http://www.inkscape.org/) -->

<svg
   width="72.549889mm"
   height="75.19574mm"
   viewBox="0 0 72.549889 75.19574"
   version="1.1"
   id="svg25618"
   inkscape:version="1.1.1 (c3084ef, 2021-09-22)"
   sodipodi:docname="conp.svg"
   xmlns:inkscape="http://www.inkscape.org/namespaces/inkscape"
   xmlns:sodipodi="http://sodipodi.sourceforge.net/DTD/sodipodi-0.dtd"
   xmlns="http://www.w3.org/2000/svg"
   xmlns:svg="http://www.w3.org/2000/svg">
  <sodipodi:namedview
     id="namedview25620"
     pagecolor="#ffffff"
     bordercolor="#666666"
     borderopacity="1.0"
     inkscape:pageshadow="2"
     inkscape:pageopacity="0.0"
     inkscape:pagecheckerboard="0"
     inkscape:document-units="mm"
     showgrid="false"
     inkscape:zoom="0.4944234"
     inkscape:cx="122.36476"
     inkscape:cy="251.80847"
     inkscape:window-width="1312"
     inkscape:window-height="969"
     inkscape:window-x="0"
     inkscape:window-y="25"
     inkscape:window-maximized="0"
     inkscape:current-layer="layer1" />
  <defs
     id="defs25615">
    <clipPath
       clipPathUnits="userSpaceOnUse"
       id="clipPath25749">
      <path
         d="M 0,1000 H 1600 V 0 H 0 Z"
         id="path25747" />
    </clipPath>
  </defs>
  <g
     inkscape:label="Layer 1"
     inkscape:groupmode="layer"
     id="layer1"
     transform="translate(-52.841083,-63.548525)">
    <g
       id="g25751"
       transform="matrix(0.18795615,0,0,-0.18795615,89.283149,74.32048)">
      <path
         d="m 0,0 c -12.353,-12.383 -30.188,-18.802 -42.353,-2.217 -1.326,-11.627 -15.082,-49.533 -31.491,-28.228 -11.292,14.662 -9.315,38.993 -5.281,56.368 -17.972,-11.133 -29.83,19.319 -33.822,31.388 0.404,-9.837 2.976,-20.559 -0.963,-29.61 -3.402,-7.817 -12.77,-12.241 -21.283,-9.647 11.424,-12.975 24.854,-35.105 16.165,-52.5 -8.493,-17.002 -33.197,-7.06 -41.176,4.768 0.805,-12.741 -21.603,-17.881 -33.682,-15.581 10.797,-8.415 26.842,-21.473 18.386,-34.388 18.338,1.443 42.778,-1.461 53.778,-14.461 7.159,-8.462 6.911,-23.766 1.602,-36.895 7.974,7.697 29.012,27.412 38.452,11.695 7.967,-13.264 9.87,-29.798 13.892,-44.465 8.98,-32.746 5.389,-119.969 -1.335,-143.844 -0.141,-0.07 -0.282,-0.151 -0.424,-0.257 -3.734,-2.811 -8.645,-2.03 -12.823,-3.783 -3.302,-1.385 -7.308,-4.247 -8.955,-7.393 -1.492,-2.848 0.699,-4.285 2.193,-1.431 3.158,6.03 12.723,4.605 18.051,6.287 -1.343,-1.96 -4.924,-7.518 -5.317,-8.704 -0.53,-1.601 -0.781,-3.342 -0.62,-5.023 0.244,-2.552 1.907,-4.483 -1.049,-12.018 -1.175,-2.995 0.363,-3.865 2.289,-1.335 1.327,1.741 4.292,6.39 3.378,11.147 -0.66,3.439 -0.45,5.69 1.562,8.32 1.399,1.828 3.857,3.759 4.924,5.944 2.444,-2.109 5.572,-3.879 5.969,-7.193 0.417,-3.477 0.67,-7.31 3.148,-10.111 2.137,-2.415 5.274,-2.117 3.148,0.286 -1.415,1.599 -1.975,7.974 -2.211,9.944 -0.203,1.695 -0.758,3.263 -1.563,4.762 -0.666,1.24 -1.501,2.352 -2.435,3.381 1.097,-0.224 2.465,-0.018 3.538,-0.441 3.628,-1.428 6.667,-2.446 9.634,-4.769 2.505,-1.962 4.829,-1.156 2.297,0.828 -2.883,2.258 -4.987,5.312 -8.243,7.119 -3.076,1.708 -6.841,1.564 -9.859,3.116 0.539,16.233 12.024,92.095 0.691,147.064 -2.568,12.46 -10.581,29.159 -8.068,41.518 3.684,18.114 28.441,4.927 41.651,3.681 -6.451,11.488 -9.099,28.316 1.411,43.899 7.258,10.762 18.373,14.548 31.01,15.709 C -12.053,-43.893 -7.521,-14.986 0,0"
         style="fill:#ed1f24;fill-opacity:1;fill-rule:nonzero;stroke:none"
         id="path25753" />
    </g>
    <g
       id="g25755"
       transform="matrix(0.18795615,0,0,-0.18795615,76.586279,90.315943)">
      <path
         d="m 0,0 c -3.618,-6.063 -11.996,-10.122 -17.965,-5.521 -6.026,4.645 -5.716,14.101 -2.005,20.449 3.533,6.044 11.824,10.425 17.85,5.881 C 4.055,16.155 3.855,6.461 0,0"
         style="fill:#ffffff;fill-opacity:1;fill-rule:nonzero;stroke:none"
         id="path25757" />
    </g>
    <g
       id="g25759"
       transform="matrix(0.18795615,0,0,-0.18795615,76.056825,89.910935)">
      <path
         d="m 0,0 c -2.119,-3.494 -5.983,-4.67 -8.614,-2.679 -2.631,1.991 -3.053,6.391 -0.959,9.88 2.094,3.489 5.931,4.748 8.588,2.762 C 1.671,7.977 2.119,3.493 0,0"
         style="fill:#ed1f24;fill-opacity:1;fill-rule:nonzero;stroke:none"
         id="path25761" />
    </g>
    <g
       id="g25763"
       transform="matrix(0.18795615,0,0,-0.18795615,85.599829,92.777361)">
      <path
         d="m 0,0 c 0.067,13.371 11.278,24.244 24.784,24.312 5.943,0 11.345,-1.959 15.6,-5.268 1.621,-1.351 1.891,-3.714 0.675,-5.402 -1.351,-1.689 -3.849,-1.959 -5.402,-0.744 -2.971,2.432 -6.686,3.715 -10.873,3.715 -4.659,0 -8.982,-1.891 -12.156,-4.863 C 9.59,8.644 7.699,4.592 7.699,0 c 0,-4.592 1.891,-8.779 4.929,-11.75 3.174,-2.972 7.497,-4.863 12.156,-4.863 4.187,0 7.834,1.283 10.873,3.714 1.553,1.149 4.051,0.878 5.402,-0.742 1.216,-1.689 0.946,-4.12 -0.675,-5.403 -4.255,-3.309 -9.657,-5.267 -15.6,-5.267 C 11.278,-24.311 0.067,-13.439 0,0"
         style="fill:#4f4c4d;fill-opacity:1;fill-rule:nonzero;stroke:none"
         id="path25765" />
    </g>
    <g
       id="g25767"
       transform="matrix(0.18795615,0,0,-0.18795615,103.11683,92.777361)">
      <path
         d="m 0,0 c 0,4.593 -1.823,8.847 -4.592,11.818 -2.836,3.039 -6.618,4.795 -10.67,4.795 -4.322,0 -8.104,-1.756 -10.94,-4.795 C -29.039,8.847 -30.794,4.593 -30.794,0 c 0,-4.592 1.755,-8.846 4.592,-11.75 2.836,-3.04 6.618,-4.863 10.94,-4.863 4.052,0 7.834,1.823 10.67,4.863 C -1.823,-8.846 0,-4.592 0,0 M 0.878,17.086 C 5.065,12.628 7.699,6.686 7.699,0 c 0,-6.686 -2.634,-12.695 -6.821,-17.085 -3.984,-4.39 -9.927,-7.226 -16.14,-7.226 -6.483,0 -12.426,2.836 -16.545,7.226 -4.187,4.39 -6.686,10.399 -6.686,17.085 0,6.686 2.499,12.628 6.686,17.086 4.119,4.457 10.062,7.226 16.545,7.226 6.213,0 12.156,-2.769 16.14,-7.226"
         style="fill:#4f4c4d;fill-opacity:1;fill-rule:nonzero;stroke:none"
         id="path25769" />
    </g>
    <g
       id="g25771"
       transform="matrix(0.18795615,0,0,-0.18795615,108.9366,96.477559)">
      <path
         d="m 0,0 c 0,-2.026 -1.688,-3.714 -3.646,-3.714 -2.094,0 -3.715,1.688 -3.715,3.714 v 39.236 0.068 c -0.067,1.148 0.473,2.363 1.486,3.106 1.688,1.148 3.984,0.81 5.132,-0.81 L 21.07,11.413 v 27.823 c 0,1.958 1.621,3.647 3.647,3.647 2.026,0 3.714,-1.689 3.714,-3.647 L 28.431,0 c 0,-2.026 -1.688,-3.714 -3.714,-3.714 -1.081,0 -2.093,0.54 -2.769,1.351 -0.135,0.134 -0.27,0.27 -0.338,0.405 L 0,28.026 Z"
         style="fill:#4f4c4d;fill-opacity:1;fill-rule:nonzero;stroke:none"
         id="path25773" />
    </g>
    <g
       id="g25775"
       transform="matrix(0.18795615,0,0,-0.18795615,119.64854,92.358406)">
      <path
         d="m 0,0 h 13.844 c 3.917,0 6.956,3.106 7.023,6.888 -0.067,3.917 -3.106,7.023 -7.023,7.023 H 0 Z M 13.844,-7.496 H 0 v -14.655 c 0,-2.026 -1.688,-3.714 -3.782,-3.714 -2.026,0 -3.715,1.688 -3.715,3.714 v 39.844 c 0,2.094 1.689,3.714 3.715,3.714 h 0.068 17.558 c 8.036,0 14.519,-6.483 14.519,-14.519 0,-7.902 -6.483,-14.384 -14.519,-14.384"
         style="fill:#4f4c4d;fill-opacity:1;fill-rule:nonzero;stroke:none"
         id="path25777" />
    </g>
    <g
       id="g25779"
       transform="matrix(0.18795615,0,0,-0.18795615,95.733485,105.66888)">
      <path
         d="m 0,0 c 0.068,13.371 11.278,24.244 24.785,24.311 5.942,0 11.344,-1.958 15.599,-5.267 1.621,-1.351 1.891,-3.714 0.675,-5.403 -1.35,-1.688 -3.849,-1.958 -5.402,-0.743 -2.971,2.432 -6.686,3.714 -10.872,3.714 -4.66,0 -8.983,-1.89 -12.157,-4.862 C 9.59,8.644 7.699,4.592 7.699,0 c 0,-4.592 1.891,-8.779 4.929,-11.751 3.174,-2.971 7.497,-4.862 12.157,-4.862 4.186,0 7.833,1.283 10.872,3.714 1.553,1.148 4.052,0.878 5.402,-0.743 1.216,-1.688 0.946,-4.119 -0.675,-5.402 -4.255,-3.309 -9.657,-5.268 -15.599,-5.268 C 11.278,-24.312 0.068,-13.439 0,0"
         style="fill:#4f4c4d;fill-opacity:1;fill-rule:nonzero;stroke:none"
         id="path25781" />
    </g>
    <g
       id="g25783"
       transform="matrix(0.18795615,0,0,-0.18795615,123.9439,105.66888)">
      <path
         d="m 0,0 c 0,4.592 -1.824,8.846 -4.592,11.818 -2.837,3.039 -6.618,4.795 -10.67,4.795 -4.322,0 -8.104,-1.756 -10.941,-4.795 C -29.039,8.846 -30.794,4.592 -30.794,0 c 0,-4.592 1.755,-8.847 4.591,-11.75 2.837,-3.04 6.619,-4.863 10.941,-4.863 4.052,0 7.833,1.823 10.67,4.863 C -1.824,-8.847 0,-4.592 0,0 M 0.878,17.085 C 5.065,12.628 7.699,6.686 7.699,0 c 0,-6.686 -2.634,-12.696 -6.821,-17.086 -3.984,-4.389 -9.927,-7.226 -16.14,-7.226 -6.483,0 -12.426,2.837 -16.546,7.226 -4.187,4.39 -6.685,10.4 -6.685,17.086 0,6.686 2.498,12.628 6.685,17.085 4.12,4.458 10.063,7.226 16.546,7.226 6.213,0 12.156,-2.768 16.14,-7.226"
         style="fill:#4f4c4d;fill-opacity:1;fill-rule:nonzero;stroke:none"
         id="path25785" />
    </g>
    <g
       id="g25787"
       transform="matrix(0.18795615,0,0,-0.18795615,108.37694,109.36917)">
      <path
         d="m 0,0 c 0,-2.025 -1.688,-3.714 -3.646,-3.714 -2.094,0 -3.715,1.689 -3.715,3.714 v 39.236 0.068 c -0.068,1.148 0.473,2.363 1.486,3.106 1.688,1.148 3.984,0.811 5.132,-0.81 L 21.07,11.413 v 27.823 c 0,1.959 1.621,3.647 3.647,3.647 2.026,0 3.714,-1.688 3.714,-3.647 L 28.431,0 c 0,-2.025 -1.688,-3.714 -3.714,-3.714 -1.081,0 -2.094,0.54 -2.769,1.351 -0.136,0.135 -0.27,0.27 -0.338,0.405 L 0,28.026 Z"
         style="fill:#4f4c4d;fill-opacity:1;fill-rule:nonzero;stroke:none"
         id="path25789" />
    </g>
    <g
       id="g25791"
       transform="matrix(0.18795615,0,0,-0.18795615,87.008767,105.24991)">
      <path
         d="m 0,0 h 13.844 c 3.917,0 6.956,3.106 7.023,6.888 -0.067,3.917 -3.106,7.023 -7.023,7.023 H 0 Z M 13.844,-7.496 H 0 v -14.655 c 0,-2.026 -1.688,-3.714 -3.782,-3.714 -2.026,0 -3.714,1.688 -3.714,3.714 v 39.844 c 0,2.094 1.688,3.714 3.714,3.714 h 0.068 17.558 c 8.036,0 14.519,-6.483 14.519,-14.519 0,-7.902 -6.483,-14.384 -14.519,-14.384"
         style="fill:#4f4c4d;fill-opacity:1;fill-rule:nonzero;stroke:none"
         id="path25793" />
    </g>
  </g>
</svg>
