<?xml version="1.0" encoding="UTF-8" standalone="no"?>
<!-- Generator: Adobe Illustrator 19.0.0, SVG Export Plug-In . SVG Version: 6.00 Build 0)  -->

<svg
   version="1.1"
   id="Layer_1"
   x="0px"
   y="0px"
   viewBox="0 0 715.70001 375.10002"
   xml:space="preserve"
   sodipodi:docname="dataverse.svg"
   width="715.70001"
   height="375.10001"
   inkscape:version="1.1.1 (c3084ef, 2021-09-22)"
   xmlns:inkscape="http://www.inkscape.org/namespaces/inkscape"
   xmlns:sodipodi="http://sodipodi.sourceforge.net/DTD/sodipodi-0.dtd"
   xmlns="http://www.w3.org/2000/svg"
   xmlns:svg="http://www.w3.org/2000/svg"><defs
   id="defs6195" /><sodipodi:namedview
   id="namedview6193"
   pagecolor="#ffffff"
   bordercolor="#666666"
   borderopacity="1.0"
   inkscape:pageshadow="2"
   inkscape:pageopacity="0.0"
   inkscape:pagecheckerboard="0"
   showgrid="false"
   inkscape:zoom="0.3939687"
   inkscape:cx="2.5382727"
   inkscape:cy="243.67418"
   inkscape:window-width="1440"
   inkscape:window-height="784"
   inkscape:window-x="0"
   inkscape:window-y="25"
   inkscape:window-maximized="1"
   inkscape:current-layer="Layer_1" />
<style
   type="text/css"
   id="style6142">
	.st0{fill:#C65B28;}
	.st1{fill:#9E9E9E;}
</style>












<g
   id="g6502"
   transform="translate(0,8)"><path
     class="st0"
     d="M 37.5,173.6 H 0 v -18.7 c 4.2,0 7.1,-0.8 8.9,-2.5 1.7,-1.6 2.6,-4.5 2.6,-8.5 V 43.6 c 0,-4 -0.9,-6.9 -2.6,-8.5 C 7.2,33.4 4.2,32.6 0,32.6 V 13.9 h 36.5 c 12.5,0 22,0.7 28.5,2.1 6.5,1.4 12.1,3.7 16.7,6.9 7.3,5.1 12.6,12.9 15.7,23.3 3.1,10.4 4.6,26.3 4.6,47.6 0,21.3 -1.6,37.1 -4.8,47.4 -3.2,10.3 -8.6,18 -16.2,23.3 -4.8,3.3 -10.6,5.7 -17.1,7.1 -6.6,1.3 -15.4,2 -26.4,2 z M 42.7,32.5 v 122.3 h 5 c 4.4,0 7.9,-0.5 10.5,-1.5 2.6,-1 4.7,-2.6 6.1,-4.8 2.2,-3.2 3.7,-8 4.6,-14.5 0.8,-6.5 1.3,-20 1.3,-40.4 C 70.2,73.2 69.8,59.7 68.9,53.2 68,46.7 66.5,41.9 64.3,38.7 62.8,36.5 60.8,34.9 58.2,33.9 55.6,32.9 52.1,32.4 47.7,32.4 h -5 z"
     id="path6144" /><path
     class="st0"
     d="m 175.6,159.2 c -3.2,6 -7.3,10.4 -12.1,13.4 -4.8,3 -10.4,4.5 -16.8,4.5 -9.4,0 -16.8,-2.8 -22.3,-8.3 -5.5,-5.5 -8.2,-12.9 -8.2,-22.3 0,-8.3 2.2,-15.2 6.6,-20.7 4.4,-5.5 13,-11.4 25.7,-17.6 10.9,-5.3 17.8,-9.8 20.8,-13.4 3,-3.6 4.5,-8.3 4.5,-13.9 0,-5.4 -1.7,-9.8 -5.1,-13 -3.4,-3.2 -7.9,-4.8 -13.6,-4.8 -3.8,0 -7.1,0.6 -10,1.8 -2.9,1.2 -5.4,3 -7.4,5.5 0.2,0 0.3,0 0.6,-0.1 1.4,-0.2 2.4,-0.3 3.1,-0.3 4.1,0 7.5,1.4 10.1,4.1 2.6,2.8 3.9,6.3 3.9,10.7 0,4.6 -1.6,8.3 -4.7,11.2 -3.1,2.9 -7.1,4.4 -12.1,4.4 -5.4,0 -9.8,-1.7 -13.1,-5 -3.3,-3.3 -5,-7.8 -5,-13.5 0,-9.8 3.8,-17.7 11.4,-23.9 7.6,-6.2 17.6,-9.3 29.9,-9.3 8.9,0 16.3,1.4 22.2,4.1 5.9,2.7 10.6,6.9 14.2,12.5 1.3,2.1 2.3,5.3 2.9,9.4 0.6,4.1 0.9,10.2 0.9,18.2 v 59.3 c 0,2.7 0.3,4.5 0.8,5.5 0.5,0.9 1.4,1.4 2.6,1.4 1.8,0 3.1,-1.1 3.9,-3.2 0.7,-2.1 1.1,-6.1 1.1,-11.9 v -5.2 h 10.9 v 8.7 c 0,10.1 -2,17.7 -6.1,22.5 -4,4.9 -10.3,7.3 -18.6,7.3 -5.6,0 -10.1,-1.4 -13.5,-4.4 -3.4,-3.1 -5.9,-7.6 -7.5,-13.7 z m -2.5,-48.3 c -11.8,7.8 -19.2,13.7 -22.4,17.9 -3.2,4.1 -4.8,8.7 -4.8,13.7 0,4 1.1,7.2 3.2,9.6 2.1,2.3 5,3.5 8.5,3.5 5.2,0 9.1,-2.4 11.7,-7.2 2.6,-4.8 3.9,-11.9 3.9,-21.5 v -16 z"
     id="path6146" /><path
     class="st0"
     d="m 239.7,68 h -12 l 0.1,-16.1 c 8,-0.2 13.9,-2.8 17.7,-7.7 3.8,-4.9 6.1,-13 6.8,-24.4 h 16.6 v 32.1 h 21.3 V 68 h -21.3 v 82.1 c 0,4 0.4,6.7 1.2,8 0.8,1.4 2.1,2.1 4,2.1 2.1,0 3.5,-0.8 4.4,-2.3 0.8,-1.5 1.3,-4.1 1.3,-7.8 0.1,-1.8 0.1,-3.7 0.2,-5.5 0.1,-0.6 0.1,-0.9 0.1,-1 v -7.7 h 13.2 v 12.9 c 0,9.6 -2,16.6 -6.1,21.3 -4.1,4.6 -10.4,7 -18.9,7 -10.8,0 -18.3,-2.2 -22.4,-6.6 -4.2,-4.4 -6.2,-12.6 -6.2,-24.6 z"
     id="path6148" /><path
     class="st0"
     d="m 367.3,159.2 c -3.2,6 -7.3,10.4 -12.1,13.4 -4.8,3 -10.4,4.5 -16.7,4.5 -9.4,0 -16.9,-2.8 -22.3,-8.3 -5.5,-5.5 -8.2,-12.9 -8.2,-22.3 0,-8.3 2.2,-15.2 6.6,-20.7 4.4,-5.5 13,-11.4 25.7,-17.6 10.9,-5.3 17.8,-9.8 20.8,-13.4 3,-3.6 4.5,-8.3 4.5,-13.9 0,-5.4 -1.7,-9.8 -5.1,-13 -3.4,-3.2 -7.9,-4.8 -13.6,-4.8 -3.7,0 -7.1,0.6 -10,1.8 -2.9,1.2 -5.4,3 -7.4,5.5 0.1,0 0.3,0 0.6,-0.1 1.4,-0.2 2.4,-0.3 3.1,-0.3 4.1,0 7.5,1.4 10.1,4.1 2.6,2.8 3.9,6.3 3.9,10.7 0,4.6 -1.6,8.3 -4.7,11.2 -3.1,2.9 -7.1,4.4 -12.1,4.4 -5.4,0 -9.8,-1.7 -13.1,-5 -3.3,-3.3 -5,-7.8 -5,-13.5 0,-9.8 3.8,-17.7 11.4,-23.9 7.6,-6.2 17.6,-9.3 29.9,-9.3 8.9,0 16.3,1.4 22.2,4.1 5.9,2.7 10.6,6.9 14.2,12.5 1.3,2.1 2.3,5.3 2.9,9.4 0.6,4.1 0.9,10.2 0.9,18.2 v 59.3 c 0,2.7 0.3,4.5 0.8,5.5 0.5,0.9 1.4,1.4 2.6,1.4 1.8,0 3.1,-1.1 3.9,-3.2 0.7,-2.1 1.1,-6.1 1.1,-11.9 v -5.2 h 10.9 v 8.7 c 0,10.1 -2,17.7 -6.1,22.5 -4,4.9 -10.2,7.3 -18.6,7.3 -5.6,0 -10.1,-1.4 -13.5,-4.4 -3.6,-3.1 -6.1,-7.6 -7.6,-13.7 z m -2.6,-48.3 c -11.8,7.8 -19.2,13.7 -22.4,17.9 -3.2,4.1 -4.8,8.7 -4.8,13.7 0,4 1.1,7.2 3.2,9.6 2.1,2.3 5,3.5 8.5,3.5 5.2,0 9.1,-2.4 11.7,-7.2 2.6,-4.8 3.9,-11.9 3.9,-21.5 v -16 z"
     id="path6150" /><path
     class="st0"
     d="m 36.01464,324.89391 -24.6,-98.4 c -0.7,-2.9 -1.8,-4.8 -3.1,-5.7 -1.3,-0.9 -3.4,-1.4 -6.3,-1.5 l -0.1,-16.1 h 48.7 v 16.1 c -3.5,0 -5.9,0.4 -7.3,1.3 -1.4,0.8 -2.1,2.4 -2.1,4.6 0,0.3 0,0.7 0.1,1.2 0.1,0.5 0.2,1.3 0.3,2.3 l 12,63 13.8,-62.9 c 0.1,-0.7 0.3,-1.3 0.3,-1.9 0.1,-0.6 0.1,-1.3 0.1,-2.2 0,-1.9 -0.8,-3.3 -2.3,-4.1 -1.5,-0.8 -3.9,-1.3 -7.2,-1.3 v -16.1 h 35.8 v 16.1 c -2.4,0.5 -4.3,1.4 -5.6,2.6 -1.3,1.2 -2.2,3 -2.7,5.2 l -24.6,97.8 z"
     id="path6152" /><path
     class="st0"
     d="m 132.81464,267.99391 v 7 c 0,11.9 1.4,20.7 4.3,26.3 2.9,5.7 7.3,8.5 13.3,8.5 4.6,0 8.1,-1.9 10.6,-5.8 2.5,-3.9 3.8,-9.4 3.8,-16.6 v -11 h 20.9 v 6.9 c 0,15.3 -3.1,26.6 -9.2,33.9 -6.1,7.4 -15.6,11 -28.3,11 -15.7,0 -27.3,-5.3 -34.7,-15.8 -7.4,-10.5 -11.1,-26.9 -11.1,-49.3 0,-20.5 3.8,-36.2 11.4,-47.1 7.6,-10.9 18.5,-16.4 32.7,-16.4 12.6,0 22.2,4.4 29,13.1 6.8,8.7 10.2,21.1 10.2,37.3 v 17.9 h -52.9 z m 0,-17.8 h 25 v -3.6 c 0,-11.8 -0.9,-19.9 -2.5,-24.2 -1.7,-4.3 -4.7,-6.4 -8.9,-6.4 -4.7,0 -8.1,2.5 -10.1,7.6 -2.2,5 -3.3,13.9 -3.5,26.6 z"
     id="path6154" /><path
     class="st0"
     d="m 234.31464,213.59391 c 2.5,-3.7 5.4,-6.6 8.8,-8.7 3.4,-2 7.1,-3 11.1,-3 6.5,0 11.7,2.2 15.6,6.6 3.9,4.4 5.8,10.3 5.8,17.8 0,6.5 -1.5,11.6 -4.4,15.3 -2.9,3.7 -6.9,5.6 -11.8,5.6 -4,0 -7.2,-1.3 -9.6,-4 -2.3,-2.7 -3.5,-6.3 -3.5,-10.9 0,-4.6 1.3,-8.2 3.8,-10.8 2.5,-2.6 6.1,-4.2 10.7,-4.5 -1,-1 -2.1,-1.8 -3.2,-2.3 -1.1,-0.5 -2.4,-0.7 -3.8,-0.7 -5.2,0 -9,2.3 -11.2,6.9 -2.3,4.6 -3.4,12.5 -3.4,23.6 v 54.4 c 0,4.3 0.6,7 1.9,8.1 1.2,1.1 3.9,1.7 7.8,1.7 h 5 v 16.2 h -54.3 v -16.2 c 4.5,0 7.4,-0.6 8.6,-1.7 1.3,-1.1 1.9,-3.8 1.9,-8.1 v -69.7 c 0,-4.3 -0.7,-7 -2,-8.2 -1.3,-1.2 -4.2,-1.8 -8.6,-1.8 v -16.1 h 34.9 v 10.5 z"
     id="path6156" /><path
     class="st0"
     d="m 286.01464,324.89391 v -48.5 h 15.1 c 0.7,10.7 3.7,19.3 8.8,25.9 5.1,6.6 11.3,9.9 18.5,9.9 3.8,0 6.8,-1 8.9,-3 2.1,-2 3.2,-4.8 3.2,-8.4 0,-3.7 -1,-6.8 -2.9,-9.5 -1.9,-2.6 -6.3,-6.1 -13.1,-10.4 -3.5,-2.3 -8.3,-5.2 -14.3,-8.6 -6,-3.5 -9.7,-5.9 -11.2,-7.3 -5.1,-4.6 -8.7,-9.2 -10.8,-13.8 -2.1,-4.6 -3.2,-9.8 -3.2,-15.7 0,-10.6 3.1,-19.2 9.3,-25.8 6.2,-6.6 14.3,-9.9 24.3,-9.9 4.7,0 9,0.8 13,2.5 4,1.7 7.7,4.3 11.1,7.7 l 5.6,-6.8 h 11.8 v 43.8 h -14.4 c -1.1,-9.8 -3.8,-17.3 -7.9,-22.7 -4.2,-5.3 -9.6,-8 -16.1,-8 -3.5,0 -6.3,1 -8.4,3 -2.2,2 -3.2,4.6 -3.2,7.8 0,3.3 1.4,6.5 4.2,9.5 2.8,3.1 7.8,6.7 14.9,10.9 2.6,1.5 6.2,3.5 10.7,6 7,3.9 11.3,6.7 13,8.3 4.7,4.3 8.1,8.9 10.2,13.9 2.1,5 3.1,11 3.1,18.1 0,10.4 -3,18.8 -8.9,25.1 -6,6.3 -13.8,9.5 -23.6,9.5 -5.9,0 -11.1,-1 -15.8,-2.9 -4.6,-1.9 -9.1,-5 -13.3,-9.2 l -5.6,8.6 z"
     id="path6158" /><path
     class="st0"
     d="m 410.21464,267.99391 v 7 c 0,11.9 1.4,20.7 4.3,26.3 2.9,5.7 7.3,8.5 13.3,8.5 4.6,0 8.1,-1.9 10.6,-5.8 2.5,-3.9 3.8,-9.4 3.8,-16.6 v -11 h 20.9 v 6.9 c 0,15.3 -3.1,26.6 -9.2,33.9 -6.1,7.4 -15.6,11 -28.3,11 -15.7,0 -27.3,-5.3 -34.7,-15.8 -7.4,-10.5 -11.1,-26.9 -11.1,-49.3 0,-20.5 3.8,-36.2 11.4,-47.1 7.6,-10.9 18.5,-16.4 32.7,-16.4 12.6,0 22.3,4.4 29,13.1 6.8,8.7 10.2,21.1 10.2,37.3 v 17.9 h -52.9 z m 0,-17.8 h 25 v -3.6 c 0,-11.8 -0.9,-19.9 -2.5,-24.2 -1.7,-4.3 -4.7,-6.4 -8.9,-6.4 -4.7,0 -8.1,2.5 -10.1,7.6 -2.1,5 -3.3,13.9 -3.5,26.6 z"
     id="path6160" /><path
     class="st0"
     d="m 700.8,114.5 c -9.1,-9.1 -21.7,-14.7 -35.6,-14.7 0,0 0,0 0,0 L 656,58.2 c 3.6,-1.7 6.9,-4 9.7,-6.8 6.3,-6.3 10.2,-15 10.2,-24.6 0,-9.6 -3.9,-18.3 -10.2,-24.6 -6.3,-6.3 -15,-10.2 -24.6,-10.2 -9.6,0 -18.3,3.9 -24.6,10.2 -6.3,6.3 -10.2,15 -10.2,24.6 0,9.6 3.9,18.4 10.2,24.6 6.3,6.3 15,10.2 24.6,10.2 0.4,0 0.8,0 1.2,-0.1 l 9,40.3 c -8.2,2.4 -15.6,6.8 -21.5,12.7 -9.1,9.1 -14.7,21.7 -14.7,35.6 0,13.9 5.6,26.5 14.7,35.6 1.8,1.8 3.7,3.4 5.7,4.9 l -17.2,28.8 c -11.4,-6.3 -24.4,-10 -38.3,-9.9 -21.7,0 -41.5,8.8 -55.7,23.1 -14.3,14.2 -23.1,34 -23.1,55.7 0,21.7 8.8,41.5 23.1,55.7 14.2,14.3 34,23.1 55.7,23.1 21.7,0 41.5,-8.8 55.7,-23.1 14.2,-14.2 23.1,-34 23.1,-55.7 0,-21.7 -8.8,-41.5 -23.1,-55.7 -1.8,-1.8 -3.7,-3.5 -5.6,-5.1 L 648,197.4 c 5.4,2 11.3,3.1 17.4,3.1 13.9,0 26.5,-5.6 35.6,-14.7 9.1,-9.1 14.7,-21.7 14.7,-35.6 -0.2,-14 -5.8,-26.6 -14.9,-35.7 z M 616.7,26.7 c 0,-6.7 2.7,-12.7 7.1,-17.1 4.4,-4.4 10.4,-7.1 17.1,-7.1 6.7,0 12.7,2.7 17.1,7.1 4.4,4.4 7.1,10.4 7.1,17.1 0,6.7 -2.7,12.7 -7.1,17.1 -4.4,4.4 -10.4,7.1 -17.1,7.1 -6.7,0 -12.7,-2.7 -17.1,-7.1 -4.4,-4.4 -7.1,-10.4 -7.1,-17.1 z m 27.7,261.6 c 0,17.9 -7.2,34 -18.9,45.7 -11.7,11.7 -27.8,18.9 -45.7,18.9 -17.9,0 -34,-7.2 -45.7,-18.9 -11.7,-11.7 -18.9,-27.8 -18.9,-45.7 0,-17.9 7.2,-34 18.9,-45.7 11.7,-11.7 27.8,-18.9 45.7,-18.9 17.9,0 34,7.2 45.7,18.9 11.7,11.7 18.9,27.8 18.9,45.7 z m 46.4,-112.6 c -6.6,6.6 -15.6,10.6 -25.6,10.6 -10,0 -19,-4 -25.6,-10.6 -6.6,-6.6 -10.6,-15.6 -10.6,-25.6 0,-10 4,-19 10.6,-25.6 6.6,-6.6 15.5,-10.6 25.6,-10.6 10,0 19,4 25.6,10.6 6.5,6.6 10.6,15.6 10.6,25.6 0,10 -4.1,19 -10.6,25.6 z"
     id="path6162" /><g
     id="g6190"
     transform="translate(-445.98536,55.89391)">
	<path
   class="st0"
   d="m 974.4,140.6 c 0,13.2 -10.4,23.6 -23.9,23.6 -13.4,0 -24.1,-10.4 -24.1,-23.6 0,-13 10.7,-23.4 24.1,-23.4 13.5,0 23.9,10.4 23.9,23.4 z m -42,0 c 0,10.4 7.7,18.7 18.2,18.7 10.3,0 17.8,-8.3 17.8,-18.5 0,-10.4 -7.5,-18.8 -17.9,-18.8 -10.5,-0.1 -18.1,8.3 -18.1,18.6 z m 14.3,12.2 h -5.4 v -23.4 c 2.1,-0.4 5.1,-0.7 9,-0.7 4.4,0 6.4,0.7 8.1,1.7 1.3,1 2.3,2.8 2.3,5.1 0,2.6 -2,4.6 -4.8,5.4 v 0.3 c 2.3,0.9 3.6,2.6 4.3,5.7 0.7,3.6 1.1,5 1.7,5.8 H 956 c -0.7,-0.9 -1.1,-3 -1.9,-5.7 -0.4,-2.6 -1.9,-3.7 -4.8,-3.7 h -2.6 z m 0.2,-13.2 h 2.6 c 3,0 5.4,-1 5.4,-3.4 0,-2.1 -1.6,-3.6 -5,-3.6 -1.4,0 -2.4,0.1 -3,0.3 z"
   id="path6188" />
</g></g>
</svg>
