<svg xmlns="http://www.w3.org/2000/svg" viewBox="0 0 333.227 341.066">
  <path fill="#fff" d="m163.202 65-22.236 22.235 22.628 22.627h3.298c11.04 0 20.875 2.61 29.506 7.828 8.63 5.018 15.354 12.142 20.17 21.375 5.019 9.233 7.529 19.87 7.529 31.913 0 11.842-2.308 22.38-6.925 31.613-4.616 9.233-11.04 16.36-19.27 21.377a49.696 49.696 0 0 1-9.308 4.41c2.272 2.416 20.367 17.923 20.367 17.923l-14.474 27.117c11.172-2.181 21.545-5.716 31.114-10.612 17.462-8.831 30.91-21.274 40.344-37.33 9.635-16.058 14.453-34.425 14.453-55.099 0-20.673-4.719-38.937-14.153-54.794-9.433-16.057-22.68-28.503-39.74-37.334-16.861-8.831-36.33-13.25-58.41-13.25z"/>
  <path fill="#ffa200" d="M77.171 65v211.055s78.419.024 84.858 0c6.439-.023 9.167-1.176 9.167-1.176l14.765-23.086-23.629-20.297h-30.064V109.862l-10.492-10.496-12.131-12.131-.007-.003c.002.001 11.168-11.166 22.235-22.232z"/>
</svg>
