<?xml version="1.0" encoding="UTF-8" standalone="no"?>
<!-- Created with Inkscape (http://www.inkscape.org/) -->

<svg
   xmlns:dc="http://purl.org/dc/elements/1.1/"
   xmlns:cc="http://creativecommons.org/ns#"
   xmlns:rdf="http://www.w3.org/1999/02/22-rdf-syntax-ns#"
   xmlns:svg="http://www.w3.org/2000/svg"
   xmlns="http://www.w3.org/2000/svg"
   xmlns:sodipodi="http://sodipodi.sourceforge.net/DTD/sodipodi-0.dtd"
   xmlns:inkscape="http://www.inkscape.org/namespaces/inkscape"
   width="2709.8293"
   height="2226.3628"
   id="svg2"
   version="1.1"
   inkscape:version="0.48.5 r10040"
   sodipodi:docname="datalad-logo2.svg"
   inkscape:export-filename="/home/yoh/picts/datalad-logo2.png"
   inkscape:export-xdpi="100"
   inkscape:export-ydpi="100">
  <sodipodi:namedview
     id="base"
     pagecolor="#ffffff"
     bordercolor="#666666"
     borderopacity="1.0"
     inkscape:pageopacity="0.0"
     inkscape:pageshadow="2"
     inkscape:zoom="0.26151933"
     inkscape:cx="2157.0612"
     inkscape:cy="-202.18072"
     inkscape:document-units="px"
     inkscape:current-layer="layer1"
     showgrid="false"
     showguides="true"
     inkscape:guide-bbox="true"
     fit-margin-top="10"
     fit-margin-left="10"
     fit-margin-right="10"
     fit-margin-bottom="10"
     showborder="true"
     inkscape:snap-global="true">
    <inkscape:grid
       originy="1181.5006px"
       originx="935px"
       snapvisiblegridlinesonly="true"
       enabled="true"
       visible="true"
       empspacing="5"
       id="grid2985"
       type="xygrid" />
    <sodipodi:guide
       id="guide2987"
       position="1155.0001,2181.5006"
       orientation="0,1" />
    <sodipodi:guide
       id="guide2989"
       position="975,2001.5006"
       orientation="1,0" />
    <sodipodi:guide
       id="guide2991"
       position="1175.0001,2141.5006"
       orientation="1,0" />
    <sodipodi:guide
       id="guide2993"
       position="1155.0001,1981.5006"
       orientation="0,1" />
    <sodipodi:guide
       id="guide2995"
       position="1115.0001,1961.5006"
       orientation="1,0" />
    <sodipodi:guide
       id="guide2997"
       position="1315.0001,2021.5006"
       orientation="0,1" />
    <sodipodi:guide
       id="guide3022"
       position="1015,2081.5006"
       orientation="1,0" />
    <sodipodi:guide
       id="guide3024"
       position="1135.0001,2021.5006"
       orientation="1,0" />
    <sodipodi:guide
       id="guide3798"
       position="1065.0001,2121.5006"
       orientation="0,1" />
    <sodipodi:guide
       id="guide3800"
       position="1095.0001,2041.5006"
       orientation="0,1" />
    <sodipodi:guide
       id="guide5074"
       position="1586.4722,2191.8026"
       orientation="0,1" />
    <sodipodi:guide
       id="guide3033"
       position="1027.0089,2168.8985"
       orientation="0,1" />
    <sodipodi:guide
       orientation="0,1"
       position="1679.9999,1866.5006"
       id="guide4104" />
    <sodipodi:guide
       orientation="0,1"
       position="1694.9999,1681.5006"
       id="guide4106" />
    <sodipodi:guide
       orientation="0,1"
       position="1859.9999,1651.5006"
       id="guide4108" />
  </sodipodi:namedview>
  <defs
     id="defs4">
    <inkscape:path-effect
       is_visible="true"
       id="path-effect4119"
       effect="spiro" />
    <inkscape:path-effect
       is_visible="true"
       id="path-effect4115"
       effect="spiro" />
    <inkscape:path-effect
       effect="spiro"
       id="path-effect4111"
       is_visible="true" />
    <inkscape:path-effect
       is_visible="true"
       id="path-effect4046"
       effect="spiro" />
    <inkscape:path-effect
       is_visible="true"
       id="path-effect4005"
       effect="spiro" />
    <inkscape:path-effect
       is_visible="true"
       id="path-effect3093"
       effect="spiro" />
    <inkscape:path-effect
       is_visible="true"
       id="path-effect4185"
       effect="spiro" />
    <inkscape:path-effect
       is_visible="true"
       id="path-effect4181"
       effect="spiro" />
    <inkscape:path-effect
       effect="spiro"
       id="path-effect4136"
       is_visible="true" />
    <inkscape:path-effect
       effect="spiro"
       id="path-effect4110"
       is_visible="true" />
    <inkscape:path-effect
       effect="spiro"
       id="path-effect4100"
       is_visible="true" />
    <inkscape:path-effect
       is_visible="true"
       id="path-effect4095"
       effect="spiro" />
    <inkscape:path-effect
       effect="spiro"
       id="path-effect3075"
       is_visible="true" />
    <inkscape:path-effect
       is_visible="true"
       id="path-effect3071"
       effect="spiro" />
    <inkscape:path-effect
       effect="spiro"
       id="path-effect3880"
       is_visible="true" />
    <inkscape:path-effect
       effect="spiro"
       id="path-effect3864"
       is_visible="true" />
    <inkscape:path-effect
       is_visible="true"
       id="path-effect3860"
       effect="spiro" />
    <inkscape:path-effect
       is_visible="true"
       id="path-effect3039"
       effect="spiro" />
    <inkscape:path-effect
       is_visible="true"
       id="path-effect3031"
       effect="spiro" />
    <inkscape:path-effect
       effect="spiro"
       id="path-effect4875"
       is_visible="true" />
    <inkscape:path-effect
       effect="spiro"
       id="path-effect4674"
       is_visible="true" />
    <marker
       style="overflow:visible"
       id="StopS"
       refX="0"
       refY="0"
       orient="auto"
       inkscape:stockid="StopS">
      <path
         inkscape:connector-curvature="0"
         transform="scale(0.2,0.2)"
         style="fill:none;stroke:#000000;stroke-width:1pt"
         d="M 0,5.65 0,-5.65"
         id="path4000" />
    </marker>
    <marker
       style="overflow:visible"
       id="Legs"
       refX="0"
       refY="0"
       orient="auto"
       inkscape:stockid="Legs">
      <g
         transform="scale(-0.7,-0.7)"
         id="g4024">
        <g
           transform="matrix(0,-1,-1,0,20.70862,21.31391)"
           id="g4026">
          <path
             inkscape:connector-curvature="0"
             style="fill:none;stroke:#000000;stroke-width:1pt"
             d="m 21.22125,20.67536 c -6.910151,4.721157 -2.454525,6.606844 -5.841071,13.443235"
             id="path4028" />
          <path
             inkscape:connector-curvature="0"
             style="fill:none;stroke:#000000;stroke-width:1pt"
             d="m 21.39811,20.54812 c -1.360509,8.347524 3.536072,8.76994 4.505041,13.824958"
             id="path4030" />
        </g>
        <path
           inkscape:connector-curvature="0"
           style="fill:#030300;fill-rule:evenodd;stroke-width:1pt"
           d="m -14.09007,-6.7318716 -0.922168,4.043383 3.962751,-1.22307 -3.040583,-2.820313 z"
           id="path4032" />
        <path
           inkscape:connector-curvature="0"
           style="fill:#030300;fill-rule:evenodd;stroke-width:1pt"
           d="m -15.215679,4.5567534 1.874127,3.699613 2.266874,-3.472855 -4.141001,-0.226758 z"
           id="path4034" />
      </g>
    </marker>
    <marker
       style="overflow:visible"
       id="StopL"
       refX="0"
       refY="0"
       orient="auto"
       inkscape:stockid="StopL">
      <path
         inkscape:connector-curvature="0"
         transform="scale(0.8,0.8)"
         style="fill:none;stroke:#000000;stroke-width:1pt"
         d="M 0,5.65 0,-5.65"
         id="path3994" />
    </marker>
    <inkscape:path-effect
       effect="spiro"
       id="path-effect3033"
       is_visible="true" />
    <marker
       style="overflow:visible"
       id="DotS"
       refX="0"
       refY="0"
       orient="auto"
       inkscape:stockid="DotS">
      <path
         inkscape:connector-curvature="0"
         transform="matrix(0.2,0,0,0.2,1.48,0.2)"
         style="fill-rule:evenodd;stroke:#000000;stroke-width:1pt"
         d="m -2.5,-1 c 0,2.76 -2.24,5 -5,5 -2.76,0 -5,-2.24 -5,-5 0,-2.76 2.24,-5 5,-5 2.76,0 5,2.24 5,5 z"
         id="path3873" />
    </marker>
    <marker
       style="overflow:visible"
       id="DotL"
       refX="0"
       refY="0"
       orient="auto"
       inkscape:stockid="DotL">
      <path
         inkscape:connector-curvature="0"
         transform="matrix(0.8,0,0,0.8,5.92,0.8)"
         style="fill-rule:evenodd;stroke:#000000;stroke-width:1pt"
         d="m -2.5,-1 c 0,2.76 -2.24,5 -5,5 -2.76,0 -5,-2.24 -5,-5 0,-2.76 2.24,-5 5,-5 2.76,0 5,2.24 5,5 z"
         id="path3867" />
    </marker>
    <inkscape:path-effect
       is_visible="true"
       id="path-effect3796"
       effect="spiro" />
    <marker
       style="overflow:visible"
       id="DotS-9"
       refX="0"
       refY="0"
       orient="auto"
       inkscape:stockid="DotS">
      <path
         inkscape:connector-curvature="0"
         transform="matrix(0.2,0,0,0.2,1.48,0.2)"
         style="fill-rule:evenodd;stroke:#000000;stroke-width:1pt"
         d="m -2.5,-1 c 0,2.76 -2.24,5 -5,5 -2.76,0 -5,-2.24 -5,-5 0,-2.76 2.24,-5 5,-5 2.76,0 5,2.24 5,5 z"
         id="path3873-6" />
    </marker>
    <inkscape:path-effect
       is_visible="true"
       id="path-effect3796-4"
       effect="spiro" />
    <filter
       id="filter3866"
       color-interpolation-filters="sRGB"
       inkscape:label="Cutout Glow"
       inkscape:menu="Shadows and Glows"
       inkscape:menu-tooltip="In and out glow with a possible offset and colorizable flood">
      <feOffset
         id="feOffset3868"
         dx="3"
         dy="3" />
      <feGaussianBlur
         id="feGaussianBlur3870"
         stdDeviation="3"
         result="result8" />
      <feFlood
         id="feFlood3872"
         result="result10"
         in="result8"
         flood-opacity="1"
         flood-color="rgb(0,0,0)" />
      <feComposite
         id="feComposite3874"
         result="result9"
         in="result10"
         operator="in"
         in2="SourceGraphic" />
      <feBlend
         id="feBlend3876"
         in="result8"
         in2="result9"
         mode="normal" />
    </filter>
    <filter
       color-interpolation-filters="sRGB"
       inkscape:menu-tooltip="Darken the edges with an inner blur"
       inkscape:menu="Shadows and Glows"
       id="filter3894"
       inkscape:label="Darken edges">
      <feFlood
         id="feFlood3896"
         result="flood"
         flood-color="rgb(0,0,0)"
         flood-opacity="0.3" />
      <feComposite
         id="feComposite3898"
         result="composite1"
         operator="in"
         in2="SourceGraphic"
         in="flood" />
      <feGaussianBlur
         id="feGaussianBlur3900"
         result="blur"
         stdDeviation="2" />
      <feOffset
         id="feOffset3902"
         result="offset"
         dy="2"
         dx="2" />
      <feComposite
         id="feComposite3904"
         result="fbSourceGraphic"
         operator="over"
         in2="offset"
         in="SourceGraphic" />
      <feColorMatrix
         id="feColorMatrix3924"
         values="0 0 0 -1 0 0 0 0 -1 0 0 0 0 -1 0 0 0 0 1 0"
         in="fbSourceGraphic"
         result="fbSourceGraphicAlpha" />
      <feGaussianBlur
         in="fbSourceGraphic"
         result="result8"
         stdDeviation="4"
         id="feGaussianBlur3926" />
      <feOffset
         result="result11"
         dy="4"
         dx="4"
         id="feOffset3928" />
      <feComposite
         operator="in"
         in="fbSourceGraphic"
         result="result6"
         in2="result11"
         id="feComposite3930" />
      <feFlood
         flood-color="rgb(0,0,0)"
         flood-opacity="1"
         in="result6"
         result="result10"
         id="feFlood3932" />
      <feBlend
         result="result12"
         in="result6"
         mode="normal"
         in2="result10"
         id="feBlend3934" />
      <feComposite
         operator="in"
         result="fbSourceGraphic"
         in2="fbSourceGraphic"
         id="feComposite3936" />
      <feColorMatrix
         result="fbSourceGraphicAlpha"
         in="fbSourceGraphic"
         values="0 0 0 -1 0 0 0 0 -1 0 0 0 0 -1 0 0 0 0 1 0"
         id="feColorMatrix4162" />
      <feGaussianBlur
         id="feGaussianBlur4164"
         result="result6"
         stdDeviation="1.5"
         in="fbSourceGraphic" />
      <feComposite
         id="feComposite4166"
         in2="result6"
         operator="atop"
         in="fbSourceGraphic"
         result="result8" />
      <feComposite
         id="feComposite4168"
         in2="fbSourceGraphicAlpha"
         in="result8"
         operator="atop"
         result="result9" />
    </filter>
    <clipPath
       id="clipPath">
      <path
         inkscape:export-ydpi="100"
         inkscape:export-xdpi="100"
         inkscape:export-filename="/tmp/xyz5.png"
         inkscape:connector-curvature="0"
         id="path3943"
         d="m -818.40035,40 0,12.5 0,160 0,12.5 12.5,0 120,0 0,-25 -107.5,0 0,-135 87.5,0 c 8.14923,0 15.45748,0.212945 21.59375,1.75 6.06766,1.519869 11.64823,4.523237 15.65625,8.53125 4.00801,4.008013 7.01138,9.55734 8.53125,15.625 1.53705,6.136268 1.71875,13.44452 1.71875,21.59375 l 0,80 c 0,8.14923 -0.1817,15.45747 -1.71875,21.59375 -1.51987,6.06766 -4.52324,11.64824 -8.53125,15.65625 -4.00802,4.00801 -9.5886,6.98013 -15.65625,8.5 -6.13627,1.53706 -13.44452,1.75 -21.59375,1.75 l -127.5,0 0,-175.03125 -25,0 0,187.53125 0,12.5 12.5,0 140,0 c 8.37576,0 17.79399,-0.0218 27.6875,-2.5 9.96211,-2.49537 19.57307,-7.41682 27.25,-15.09375 7.67692,-7.67693 12.59837,-17.2879 15.09375,-27.25 2.47819,-9.8935 2.46875,-19.28048 2.46875,-27.65625 l 0,-80 c 0,-8.37577 0.009,-17.76275 -2.46875,-27.65625 -2.49196,-9.94846 -7.40364,-19.547051 -15.0625,-27.21875 l -0.0312,-0.03125 c -7.67693,-7.676925 -17.2879,-12.598373 -27.25,-15.09375 -9.8935,-2.478193 -19.31174,-2.5 -27.6875,-2.5 l -100,0 -12.5,0 z"
         style="font-size:medium;font-style:normal;font-variant:normal;font-weight:normal;font-stretch:normal;text-indent:0;text-align:start;text-decoration:none;line-height:normal;letter-spacing:normal;word-spacing:normal;text-transform:none;direction:ltr;block-progression:tb;writing-mode:lr-tb;text-anchor:start;baseline-shift:baseline;color:#000000;fill:#d70a53;fill-opacity:1;stroke:none;stroke-width:25;marker:none;visibility:visible;display:inline;overflow:visible;filter:url(#filter3894);enable-background:accumulate;font-family:Sans;-inkscape-font-specification:Sans" />
    </clipPath>
    <filter
       y="-0.5"
       x="-0.5"
       width="2"
       height="2"
       id="filter"
       color-interpolation-filters="sRGB">
      <feGaussianBlur
         id="feGaussianBlur3996"
         stdDeviation="5.0" />
    </filter>
    <inkscape:path-effect
       is_visible="true"
       id="path-effect3071-0"
       effect="spiro" />
    <inkscape:path-effect
       effect="spiro"
       id="path-effect4875-2"
       is_visible="true" />
    <filter
       inkscape:label="Inner Shadow"
       inkscape:menu="Shadows and Glows"
       inkscape:menu-tooltip="Adds a colorizable drop shadow inside"
       color-interpolation-filters="sRGB"
       id="filter3988">
      <feGaussianBlur
         stdDeviation="4"
         result="result8"
         id="feGaussianBlur3990" />
      <feOffset
         dx="4"
         dy="4"
         result="result11"
         id="feOffset3992" />
      <feComposite
         result="result6"
         in="SourceGraphic"
         operator="in"
         in2="result11"
         id="feComposite3994" />
      <feFlood
         result="result10"
         in="result6"
         flood-opacity="1"
         flood-color="rgb(0,0,0)"
         id="feFlood3996" />
      <feBlend
         mode="normal"
         in="result6"
         in2="result10"
         id="feBlend3998" />
      <feComposite
         result="result2"
         operator="in"
         in2="SourceGraphic"
         id="feComposite4000" />
    </filter>
    <filter
       inkscape:label="Inner Shadow"
       inkscape:menu="Shadows and Glows"
       inkscape:menu-tooltip="Adds a colorizable drop shadow inside"
       color-interpolation-filters="sRGB"
       id="filter4071">
      <feGaussianBlur
         stdDeviation="4"
         result="result8"
         id="feGaussianBlur4073" />
      <feOffset
         dx="4"
         dy="4"
         result="result11"
         id="feOffset4075" />
      <feComposite
         result="result6"
         in="SourceGraphic"
         operator="in"
         in2="result11"
         id="feComposite4077" />
      <feFlood
         result="result10"
         in="result6"
         flood-opacity="1"
         flood-color="rgb(0,0,0)"
         id="feFlood4079" />
      <feBlend
         mode="normal"
         in="result6"
         in2="result10"
         id="feBlend4081" />
      <feComposite
         result="result2"
         operator="in"
         in2="SourceGraphic"
         id="feComposite4083" />
    </filter>
  </defs>
  <metadata
     id="metadata7">
    <rdf:RDF>
      <cc:Work
         rdf:about="">
        <dc:format>image/svg+xml</dc:format>
        <dc:type
           rdf:resource="http://purl.org/dc/dcmitype/StillImage" />
        <dc:title></dc:title>
      </cc:Work>
    </rdf:RDF>
  </metadata>
  <g
     transform="translate(952.5,21.962183)"
     inkscape:label="bg"
     id="layer2"
     inkscape:groupmode="layer" />
  <g
     transform="translate(935,-7.5)"
     id="layer1"
     inkscape:groupmode="layer"
     inkscape:label="Layer 1">
    <path
       sodipodi:nodetypes="ccccccccc"
       inkscape:connector-curvature="0"
       inkscape:original-d="m 874,52.374997 0,199.999993 140,0 c 20,0 60,-40 60,-60 l 0,-80 c 0,-19.999993 -40,-59.999993 -60,-59.999993 l -100,0 0,159.999993 120,0"
       inkscape:path-effect="#path-effect3796"
       id="path3794"
       d="m 874,52.374997 0,199.999993 140,0 c 8.2625,0 16.6135,-0.1123 24.6284,-2.11993 8.0149,-2.00762 15.6059,-5.96087 21.4483,-11.80334 5.8425,-5.84247 9.7957,-13.43345 11.8034,-21.44833 2.0076,-8.01489 2.1199,-16.3659 2.1199,-24.6284 l 0,-80 c 0,-8.2625 -0.1123,-16.613511 -2.1199,-24.628394 -2.0077,-8.014883 -5.9609,-15.605861 -11.8034,-21.44833 -5.8424,-5.842469 -13.4334,-9.795719 -21.4483,-11.803342 C 1030.6135,52.4873 1022.2625,52.374997 1014,52.374997 l -100,0 0,159.999993 120,0"
       style="fill:none;stroke:#000000;stroke-width:20;stroke-linecap:butt;stroke-linejoin:miter;stroke-miterlimit:4;stroke-opacity:1;stroke-dasharray:none;marker-start:url(#DotS)" />
    <path
       sodipodi:nodetypes="ccccccccc"
       inkscape:connector-curvature="0"
       inkscape:original-d="m 308.03571,65.946426 0,186.428564 140,0 c 20,0 60,-40 60,-60 l 0,-80 c 0,-19.999994 -40,-59.999994 -60,-59.999994 l -100,0 0,159.999994 120,0"
       inkscape:path-effect="#path-effect3796-4"
       id="path3794-9"
       d="m 308.03571,65.946426 0,186.428564 140,0 c 8.2625,0 16.61351,-0.1123 24.6284,-2.11993 8.01488,-2.00762 15.60586,-5.96087 21.44833,-11.80334 5.84247,-5.84247 9.79572,-13.43345 11.80334,-21.44833 2.00763,-8.01489 2.11993,-16.3659 2.11993,-24.6284 l 0,-80 c 0,-8.2625 -0.1123,-16.613511 -2.11993,-24.628394 -2.00762,-8.014883 -5.96087,-15.605861 -11.80334,-21.448331 -5.84247,-5.842469 -13.43345,-9.795719 -21.44834,-11.803342 -8.01488,-2.007624 -16.36589,-2.119927 -24.62839,-2.119927 l -100,0 0,159.999994 120,0"
       style="fill:none;stroke:#000000;stroke-width:20;stroke-linecap:butt;stroke-linejoin:miter;stroke-miterlimit:4;stroke-opacity:1;stroke-dasharray:none;marker-start:url(#DotS)" />
    <path
       style="fill:none;stroke:#000000;stroke-width:20;stroke-linecap:butt;stroke-linejoin:miter;stroke-miterlimit:4;stroke-opacity:1;stroke-dasharray:none;marker-start:none"
       d="m 601.42857,42.060226 0,210.314764 140,0 c 8.2625,0 16.61351,-0.1123 24.6284,-2.11993 8.01488,-2.00762 15.60586,-5.96087 21.44833,-11.80334 5.84247,-5.84247 9.79572,-13.43345 11.80334,-21.44833 2.00763,-8.01489 2.11993,-16.3659 2.11993,-24.6284 l 0,-80 c 0,-8.2625 -0.1123,-16.613511 -2.11993,-24.628394 -2.00762,-8.014883 -5.96087,-15.605861 -11.80334,-21.44833 -5.84247,-5.842469 -13.43345,-9.795719 -21.44834,-11.803342 -8.01488,-2.007624 -16.36589,-2.119927 -24.62839,-2.119927 l -100,0 0,159.999993 120,0"
       id="path4873"
       inkscape:path-effect="#path-effect4875"
       inkscape:original-d="m 601.42857,42.060226 0,210.314764 140,0 c 20,0 60,-40 60,-60 l 0,-80 c 0,-19.999993 -40,-59.999993 -60,-59.999993 l -100,0 0,159.999993 120,0"
       inkscape:connector-curvature="0"
       sodipodi:nodetypes="ccccccccc" />
    <path
       sodipodi:nodetypes="ccccccccc"
       inkscape:connector-curvature="0"
       inkscape:original-d="m 1398.2644,65.946426 0,186.428564 140,0 c 20,0 60,-40 60,-60 l 0,-80 c 0,-19.999994 -40,-59.999994 -60,-59.999994 l -100,0 0,159.999994 120,0"
       inkscape:path-effect="#path-effect3031"
       id="path3029"
       d="m 1398.2644,65.946426 0,186.428564 140,0 c 8.2625,0 16.6135,-0.1123 24.6284,-2.11993 8.0149,-2.00762 15.6059,-5.96087 21.4483,-11.80334 5.8425,-5.84247 9.7957,-13.43345 11.8034,-21.44833 2.0076,-8.01489 2.1199,-16.3659 2.1199,-24.6284 l 0,-80 c 0,-8.2625 -0.1123,-16.613511 -2.1199,-24.628394 -2.0077,-8.014883 -5.9609,-15.605861 -11.8034,-21.448331 -5.8424,-5.842469 -13.4334,-9.795719 -21.4483,-11.803342 -8.0149,-2.007624 -16.3659,-2.119927 -24.6284,-2.119927 l -100,0 0,159.999994 120,0"
       style="fill:none;stroke:#000000;stroke-width:20;stroke-linecap:butt;stroke-linejoin:miter;stroke-miterlimit:4;stroke-opacity:1;stroke-dasharray:none;marker-start:none" />
    <path
       inkscape:export-ydpi="100"
       inkscape:export-xdpi="100"
       inkscape:export-filename="/tmp/xyz.png"
       sodipodi:nodetypes="ccccccccc"
       inkscape:connector-curvature="0"
       inkscape:original-d="m 1148.2644,62.362216 0,190.012774 140,0 c 20,0 60,-40 60,-60 l 0,-80 c 0,-19.999994 -40,-59.999994 -60,-59.999994 l -100,0 0,159.999994 120,0"
       inkscape:path-effect="#path-effect3860"
       id="path3035"
       d="m 1148.2644,62.362216 0,190.012774 140,0 c 8.2625,0 16.6135,-0.1123 24.6284,-2.11993 8.0149,-2.00762 15.6059,-5.96087 21.4483,-11.80334 5.8425,-5.84247 9.7957,-13.43345 11.8034,-21.44833 2.0076,-8.01489 2.1199,-16.3659 2.1199,-24.6284 l 0,-80 c 0,-8.2625 -0.1123,-16.613511 -2.1199,-24.628394 -2.0077,-8.014883 -5.9609,-15.605861 -11.8034,-21.448331 -5.8424,-5.842469 -13.4334,-9.795719 -21.4483,-11.803342 -8.0149,-2.007624 -16.3659,-2.119927 -24.6284,-2.119927 l -100,0 0,159.999994 120,0"
       style="fill:none;stroke:#000000;stroke-width:20;stroke-linecap:butt;stroke-linejoin:miter;stroke-miterlimit:4;stroke-opacity:1;stroke-dasharray:none;marker-start:none" />
    <path
       style="fill:none;stroke:#000000;stroke-width:25;stroke-linecap:butt;stroke-linejoin:miter;stroke-miterlimit:4;stroke-opacity:1;stroke-dasharray:none;marker-start:none"
       d="m 40,64.964296 0,187.539844 140.00002,0 c 8.2625,0 16.61351,-0.1123 24.6284,-2.11993 8.01488,-2.00762 15.60586,-5.96087 21.44833,-11.80334 5.84247,-5.84247 9.79572,-13.43345 11.80334,-21.44833 2.00763,-8.01489 2.11993,-16.3659 2.11993,-24.6284 l 0,-80 c 0,-8.2625 -0.1123,-16.613511 -2.11993,-24.628395 -2.00762,-8.014883 -5.96087,-15.605861 -11.80334,-21.448331 -5.84247,-5.84247 -13.43345,-9.795721 -21.44834,-11.803344 -8.01488,-2.007624 -16.36589,-2.119927 -24.62839,-2.119927 l -100.00002,0 0,159.999997 120.00002,0"
       id="path3037"
       inkscape:path-effect="#path-effect3039"
       inkscape:original-d="m 40,64.964296 0,187.539844 140.00002,0 c 20,0 60,-40 60,-60 l 0,-80 c 0,-19.999997 -40,-59.999997 -60,-59.999997 l -100.00002,0 0,159.999997 120.00002,0"
       inkscape:connector-curvature="0"
       sodipodi:nodetypes="ccccccccc"
       inkscape:export-filename="/tmp/xyz2.png"
       inkscape:export-xdpi="100"
       inkscape:export-ydpi="100" />
    <path
       inkscape:export-ydpi="100"
       inkscape:export-xdpi="100"
       inkscape:export-filename="/tmp/xyz3.png"
       sodipodi:nodetypes="ccccccccc"
       inkscape:connector-curvature="0"
       inkscape:original-d="m 40,367.82144 0,187.53984 140.00002,0 c 20,0 60,-40 60,-60 l 0,-80 c 0,-20 -40,-60 -60,-60 l -100.00002,0 0,160 120.00002,0"
       inkscape:path-effect="#path-effect3864"
       id="path3862"
       d="m 40,367.82144 0,187.53984 140.00002,0 c 8.2625,0 16.61351,-0.1123 24.6284,-2.11993 8.01488,-2.00762 15.60586,-5.96087 21.44833,-11.80334 5.84247,-5.84247 9.79572,-13.43345 11.80334,-21.44833 2.00763,-8.01489 2.11993,-16.3659 2.11993,-24.6284 l 0,-80 c 0,-8.2625 -0.1123,-16.61351 -2.11993,-24.6284 -2.00762,-8.01488 -5.96087,-15.60586 -11.80334,-21.44833 -5.84247,-5.84247 -13.43345,-9.79572 -21.44833,-11.80334 -8.01489,-2.00763 -16.3659,-2.11993 -24.6284,-2.11993 l -100.00002,0 0,160 120.00002,0"
       style="fill:none;stroke:#000000;stroke-width:25;stroke-linecap:butt;stroke-linejoin:miter;stroke-miterlimit:4;stroke-opacity:1;stroke-dasharray:none;marker-start:none;filter:url(#filter3866)" />
    <path
       inkscape:export-ydpi="100"
       inkscape:export-xdpi="100"
       inkscape:export-filename="/tmp/xyz4.png"
       inkscape:connector-curvature="0"
       id="path3878"
       d="m -214.34375,40 0,12.5 0,160 0,12.5 12.5,0 120,0 0,-25 -107.5,0 0,-135 87.5,0 c 8.149234,0 15.457481,0.212945 21.59375,1.75 6.06766,1.519869 11.648237,4.523237 15.65625,8.53125 4.008014,4.008013 7.01138,9.55734 8.53125,15.625 1.537056,6.136268 1.71875,13.44452 1.71875,21.59375 l 0,80 c 0,8.14923 -0.181694,15.45747 -1.71875,21.59375 -1.51987,6.06766 -4.523237,11.64824 -8.53125,15.65625 -4.008013,4.00801 -9.588593,6.98013 -15.65625,8.5 -6.136261,1.53706 -13.444512,1.75 -21.59375,1.75 l -127.5,0 0,-175.03125 -25,0 0,187.53125 0,12.5 12.5,0 140,0 c 8.375764,0 17.793993,-0.0218 27.6875,-2.5 9.962111,-2.49537 19.573073,-7.41682 27.25,-15.09375 7.676927,-7.67693 12.598372,-17.2879 15.09375,-27.25 2.478192,-9.8935 2.46875,-19.28048 2.46875,-27.65625 l 0,-80 c 0,-8.37577 0.0094,-17.76275 -2.46875,-27.65625 C -34.30446,74.89529 -39.216136,65.296699 -46.875,57.625 l -0.03125,-0.03125 C -54.583177,49.916825 -64.194142,44.995377 -74.15625,42.5 -84.049749,40.021807 -93.467984,40 -101.84375,40 l -100,0 -12.5,0 z"
       style="font-size:medium;font-style:normal;font-variant:normal;font-weight:normal;font-stretch:normal;text-indent:0;text-align:start;text-decoration:none;line-height:normal;letter-spacing:normal;word-spacing:normal;text-transform:none;direction:ltr;block-progression:tb;writing-mode:lr-tb;text-anchor:start;baseline-shift:baseline;color:#000000;fill:#e31717;fill-opacity:1;stroke:none;stroke-width:25;marker:none;visibility:visible;display:inline;overflow:visible;filter:url(#filter3894);enable-background:accumulate;font-family:Sans;-inkscape-font-specification:Sans" />
    <path
       style="font-size:medium;font-style:normal;font-variant:normal;font-weight:normal;font-stretch:normal;text-indent:0;text-align:start;text-decoration:none;line-height:normal;letter-spacing:normal;word-spacing:normal;text-transform:none;direction:ltr;block-progression:tb;writing-mode:lr-tb;text-anchor:start;baseline-shift:baseline;color:#000000;fill:#d70a53;fill-opacity:1;stroke:none;stroke-width:25;marker:none;visibility:visible;display:inline;overflow:visible;filter:url(#filter3894);enable-background:accumulate;font-family:Sans;-inkscape-font-specification:Sans"
       d="m -508.82134,40 0,12.5 0,160 0,12.5 12.5,0 120,0 0,-25 -107.5,0 0,-135 87.5,0 c 8.14923,0 15.45748,0.212945 21.59375,1.75 6.06766,1.519869 11.64823,4.523237 15.65625,8.53125 4.00801,4.008013 7.01138,9.55734 8.53125,15.625 1.53705,6.136268 1.71875,13.44452 1.71875,21.59375 l 0,80 c 0,8.14923 -0.1817,15.45747 -1.71875,21.59375 -1.51987,6.06766 -4.52324,11.64824 -8.53125,15.65625 -4.00802,4.00801 -9.5886,6.98013 -15.65625,8.5 -6.13627,1.53706 -13.44452,1.75 -21.59375,1.75 l -127.5,0 0,-175.03125 -25,0 0,187.53125 0,12.5 12.5,0 140,0 c 8.37576,0 17.79399,-0.0218 27.6875,-2.5 9.96211,-2.49537 19.57307,-7.41682 27.25,-15.09375 7.67692,-7.67693 12.59837,-17.2879 15.09375,-27.25 2.47819,-9.8935 2.46875,-19.28048 2.46875,-27.65625 l 0,-80 c 0,-8.37577 0.009,-17.76275 -2.46875,-27.65625 -2.49196,-9.94846 -7.40364,-19.547051 -15.0625,-27.21875 l -0.0312,-0.03125 c -7.67693,-7.676925 -17.2879,-12.598373 -27.25,-15.09375 -9.8935,-2.478193 -19.31174,-2.5 -27.6875,-2.5 l -100,0 -12.5,0 z"
       id="path3941"
       inkscape:connector-curvature="0"
       inkscape:export-filename="/tmp/xyz5.png"
       inkscape:export-xdpi="100"
       inkscape:export-ydpi="100" />
    <path
       inkscape:export-ydpi="100"
       inkscape:export-xdpi="100"
       inkscape:export-filename="/tmp/xyz5.png"
       inkscape:connector-curvature="0"
       id="path4024"
       d="m -818.40035,40 0,12.5 0,160 0,12.5 12.5,0 120,0 0,-25 -107.5,0 0,-135 87.5,0 c 8.14923,0 15.45748,0.212945 21.59375,1.75 6.06766,1.519869 11.64823,4.523237 15.65625,8.53125 4.00801,4.008013 7.01138,9.55734 8.53125,15.625 1.53705,6.136268 1.71875,13.44452 1.71875,21.59375 l 0,80 c 0,8.14923 -0.1817,15.45747 -1.71875,21.59375 -1.51987,6.06766 -4.52324,11.64824 -8.53125,15.65625 -4.00802,4.00801 -9.5886,6.98013 -15.65625,8.5 -6.13627,1.53706 -13.44452,1.75 -21.59375,1.75 l -127.5,0 0,-175.03125 -25,0 0,187.53125 0,12.5 12.5,0 140,0 c 8.37576,0 17.79399,-0.0218 27.6875,-2.5 9.96211,-2.49537 19.57307,-7.41682 27.25,-15.09375 7.67692,-7.67693 12.59837,-17.2879 15.09375,-27.25 2.47819,-9.8935 2.46875,-19.28048 2.46875,-27.65625 l 0,-80 c 0,-8.37577 0.009,-17.76275 -2.46875,-27.65625 -2.49196,-9.94846 -7.40364,-19.547051 -15.0625,-27.21875 l -0.0312,-0.03125 c -7.67693,-7.676925 -17.2879,-12.598373 -27.25,-15.09375 -9.8935,-2.478193 -19.31174,-2.5 -27.6875,-2.5 l -100,0 -12.5,0 z"
       style="font-size:medium;font-style:normal;font-variant:normal;font-weight:normal;font-stretch:normal;text-indent:0;text-align:start;text-decoration:none;line-height:normal;letter-spacing:normal;word-spacing:normal;text-transform:none;direction:ltr;block-progression:tb;writing-mode:lr-tb;text-anchor:start;baseline-shift:baseline;color:#000000;fill:#d70a53;fill-opacity:1;stroke:none;stroke-width:25;marker:none;visibility:visible;display:inline;overflow:visible;filter:url(#filter3894);enable-background:accumulate;font-family:Sans;-inkscape-font-specification:Sans" />
    <g
       id="g4027"
       clip-path="url(#clipPath)">
      <g
         id="g4029">
        <path
           inkscape:export-ydpi="100"
           inkscape:export-xdpi="100"
           inkscape:export-filename="/tmp/xyz5.png"
           inkscape:connector-curvature="0"
           id="path4031"
           d="m -818.40035,40 0,12.5 m 0,0 0,160 m 0,0 0,12.5 m 0,0 12.5,0 m 0,0 120,0 m -107.5,-160 87.5,0 m 0,0 c 8.14923,0 15.45748,0.212945 21.59375,1.75 m 0,0 c 6.06766,1.519869 11.64823,4.523237 15.65625,8.53125 m 0,0 c 4.00801,4.008013 7.01138,9.55734 8.53125,15.625 m 0,0 c 1.53705,6.136268 1.71875,13.44452 1.71875,21.59375 m 0,0 0,80 m 0,0 c 0,8.14923 -0.1817,15.45747 -1.71875,21.59375 m 0,0 c -1.51987,6.06766 -4.52324,11.64824 -8.53125,15.65625 m -189.75,-164.78125 0,187.53125 m 0,0 0,12.5 m 0,0 12.5,0 m 0,0 140,0 m 0,0 c 8.37576,0 17.79399,-0.0218 27.6875,-2.5 m 0,0 c 9.96211,-2.49537 19.57307,-7.41682 27.25,-15.09375"
           style="fill:none;stroke:#ffffff;stroke-width:10;stroke-opacity:1;filter:url(#filter)" />
        <path
           inkscape:export-ydpi="100"
           inkscape:export-xdpi="100"
           inkscape:export-filename="/tmp/xyz5.png"
           inkscape:connector-curvature="0"
           id="path4033"
           d="m -685.90035,225 0,-25 m 0,0 -107.5,0 m 0,0 0,-135 m 124.75,164.75 c -4.00802,4.00801 -9.5886,6.98013 -15.65625,8.5 m 0,0 c -6.13627,1.53706 -13.44452,1.75 -21.59375,1.75 m 0,0 -127.5,0 m 0,0 0,-175.03125 m 0,0 -25,0 m 207.4375,182.4375 c 7.67692,-7.67693 12.59837,-17.2879 15.09375,-27.25 m 0,0 c 2.47819,-9.8935 2.46875,-19.28048 2.46875,-27.65625 m 0,0 0,-80 m 0,0 c 0,-8.37577 0.009,-17.76275 -2.46875,-27.65625 m 0,0 c -2.49196,-9.94846 -7.40364,-19.547051 -15.0625,-27.21875 m 0,0 -0.0312,-0.03125 m 0,0 c -7.67693,-7.676925 -17.2879,-12.598373 -27.25,-15.09375 m 0,0 c -9.8935,-2.478193 -19.31174,-2.5 -27.6875,-2.5 m 0,0 -100,0 m 0,0 -12.5,0"
           style="fill:none;stroke:#000000;stroke-width:10;stroke-opacity:1;filter:url(#filter)" />
      </g>
    </g>
    <path
       inkscape:export-ydpi="100"
       inkscape:export-xdpi="100"
       inkscape:export-filename="/tmp/xyz5.png"
       inkscape:connector-curvature="0"
       id="path4116"
       d="m -510.82134,320.30572 0,12.5 0,160 0,12.5 12.5,0 120,0 0,-25 -107.5,0 0,-135 87.5,0 c 8.14923,0 15.45748,0.21294 21.59375,1.75 6.06766,1.51987 11.64823,4.52323 15.65625,8.53125 4.00801,4.00801 7.01138,9.55734 8.53125,15.625 1.53705,6.13626 1.71875,13.44452 1.71875,21.59375 l 0,80 c 0,8.14923 -0.1817,15.45747 -1.71875,21.59375 -1.51987,6.06766 -4.52324,11.64824 -8.53125,15.65625 -4.00802,4.00801 -9.5886,6.98013 -15.65625,8.5 -6.13627,1.53706 -13.44452,1.75 -21.59375,1.75 l -127.5,0 0,-175.03125 -25,0 0,187.53125 0,12.5 12.5,0 140,0 c 8.37576,0 17.79399,-0.0218 27.6875,-2.5 9.96211,-2.49537 19.57307,-7.41682 27.25,-15.09375 7.67692,-7.67693 12.59837,-17.2879 15.09375,-27.25 2.47819,-9.8935 2.46875,-19.28048 2.46875,-27.65625 l 0,-80 c 0,-8.37577 0.009,-17.76275 -2.46875,-27.65625 -2.49196,-9.94846 -7.40364,-19.54705 -15.0625,-27.21875 l -0.0312,-0.0312 c -7.67693,-7.67693 -17.2879,-12.59838 -27.25,-15.09375 -9.8935,-2.4782 -19.31174,-2.5 -27.6875,-2.5 l -100,0 -12.5,0 z"
       style="font-size:medium;font-style:normal;font-variant:normal;font-weight:normal;font-stretch:normal;text-indent:0;text-align:start;text-decoration:none;line-height:normal;letter-spacing:normal;word-spacing:normal;text-transform:none;direction:ltr;block-progression:tb;writing-mode:lr-tb;text-anchor:start;baseline-shift:baseline;color:#000000;fill:#d70a53;fill-opacity:1;stroke:none;stroke-width:25;marker:none;visibility:visible;display:inline;overflow:visible;filter:url(#filter3894);enable-background:accumulate;font-family:Sans;-inkscape-font-specification:Sans" />
    <path
       style="font-size:medium;font-style:normal;font-variant:normal;font-weight:normal;font-stretch:normal;text-indent:0;text-align:start;text-decoration:none;line-height:normal;letter-spacing:normal;word-spacing:normal;text-transform:none;direction:ltr;block-progression:tb;writing-mode:lr-tb;text-anchor:start;baseline-shift:baseline;color:#000000;fill:#d70a53;fill-opacity:1;stroke:none;stroke-width:25;marker:none;visibility:visible;display:inline;overflow:visible;filter:url(#filter3894);enable-background:accumulate;font-family:Sans;-inkscape-font-specification:Sans"
       d="m -507.91392,595.66535 0,12.5 0,150 0,12.5 12.5,0 110,0 0,-25 -97.5,0 0,-125 77.5,0 c 8.14923,0 15.45748,0.21294 21.59375,1.75 6.06766,1.51987 11.64823,4.52323 15.65625,8.53125 4.00801,4.00801 7.01138,9.55734 8.53125,15.625 1.53705,6.13626 1.71875,13.44452 1.71875,21.59375 l 0,80 c 0,8.14923 -0.1817,15.45747 -1.71875,21.59375 -1.51987,6.06766 -4.52324,11.64824 -8.53125,15.65625 -4.00802,4.00801 -9.5886,6.98013 -15.65625,8.5 -6.13627,1.53706 -13.44452,1.75 -21.59375,1.75 l -127.5,0 0,-175.03125 -24.99999,0 0,187.53125 0,12.5 12.5,0 139.99999,0 c 8.37576,0 17.79399,-0.0218 27.6875,-2.5 9.96211,-2.49537 19.57307,-7.41682 27.25,-15.09375 7.67692,-7.67693 12.59837,-17.2879 15.09375,-27.25 2.47819,-9.8935 2.46875,-19.28048 2.46875,-27.65625 l 0,-80 c 0,-8.37577 0.009,-17.76275 -2.46875,-27.65625 -2.49196,-9.94846 -7.40364,-19.54705 -15.0625,-27.21875 l -0.0312,-0.0312 c -7.67693,-7.67693 -17.2879,-12.59838 -27.25,-15.09375 -9.8935,-2.4782 -19.31174,-2.5 -27.6875,-2.5 l -90,0 -12.5,0 z"
       id="path4178"
       inkscape:connector-curvature="0"
       inkscape:export-filename="/tmp/xyz6.png"
       inkscape:export-xdpi="100"
       inkscape:export-ydpi="100"
       sodipodi:nodetypes="cccccccccssssssssssccccccssssssccsssccc" />
    <path
       sodipodi:nodetypes="cccccccccssssssssssccccccssssssccsssccc"
       inkscape:export-ydpi="100"
       inkscape:export-xdpi="100"
       inkscape:export-filename="/tmp/xyz6.png"
       inkscape:connector-curvature="0"
       id="path3066"
       d="m -509.91392,922.36138 0,12.5 0,150.00002 0,12.5 12.5,0 188,0 0,-25 -175.5,0 0,-125.00002 77.5,0 c 8.14923,0 15.45748,0.21294 21.59375,1.75 6.06766,1.51987 11.64823,4.52323 15.65625,8.53125 4.00801,4.00801 7.01138,9.55734 8.53125,15.625 1.53705,6.13626 1.71875,13.44452 1.71875,21.59375 l 0,80.00002 c 0,8.1492 -0.1817,15.4575 -1.71875,21.5937 -1.51987,6.0677 -4.52324,11.6483 -8.53125,15.6563 -4.00802,4.008 -9.5886,6.9801 -15.65625,8.5 -6.13627,1.537 -13.44452,1.75 -21.59375,1.75 l -127.5,0 0,-175.03127 -24.99999,0 0,187.53127 0,12.5 12.5,0 139.99999,0 c 8.37576,0 17.79399,-0.022 27.6875,-2.5 9.96211,-2.4954 19.57307,-7.4168 27.25,-15.0938 7.67692,-7.6769 12.59837,-17.2879 15.09375,-27.25 2.47819,-9.8935 2.46875,-19.2804 2.46875,-27.6562 l 0,-80.00002 c 0,-8.37577 0.009,-17.76275 -2.46875,-27.65625 -2.49196,-9.94846 -7.40364,-19.54705 -15.0625,-27.21875 l -0.0312,-0.0312 c -7.67693,-7.67693 -17.2879,-12.59838 -27.25,-15.09375 -9.8935,-2.4782 -19.31174,-2.5 -27.6875,-2.5 l -90,0 -12.5,0 z"
       style="font-size:medium;font-style:normal;font-variant:normal;font-weight:normal;font-stretch:normal;text-indent:0;text-align:start;text-decoration:none;line-height:normal;letter-spacing:normal;word-spacing:normal;text-transform:none;direction:ltr;block-progression:tb;writing-mode:lr-tb;text-anchor:start;baseline-shift:baseline;color:#000000;fill:#d70a53;fill-opacity:1;stroke:none;stroke-width:25;marker:none;visibility:visible;display:inline;overflow:visible;filter:url(#filter3894);enable-background:accumulate;font-family:Sans;-inkscape-font-specification:Sans" />
    <path
       style="font-size:medium;font-style:normal;font-variant:normal;font-weight:normal;font-stretch:normal;text-indent:0;text-align:start;text-decoration:none;line-height:normal;letter-spacing:normal;word-spacing:normal;text-transform:none;direction:ltr;block-progression:tb;writing-mode:lr-tb;text-anchor:start;baseline-shift:baseline;color:#000000;fill:#d70a53;fill-opacity:1;stroke:none;stroke-width:25;marker:none;visibility:visible;display:inline;overflow:visible;filter:url(#filter3894);enable-background:accumulate;font-family:Sans;-inkscape-font-specification:Sans"
       d="m -182.5,577.875 0,12.5 0,12.5 25,0 77.5,0 c 8.14923,0 15.45748,0.21294 21.59375,1.75 6.06766,1.51987 11.64823,4.52323 15.65625,8.53125 4.00801,4.00801 7.01138,9.55734 8.53125,15.625 1.53705,6.13626 1.71875,13.44452 1.71875,21.59375 l 0,80 c 0,8.14923 -0.1817,15.45747 -1.71875,21.59375 -1.51987,6.06766 -4.52324,11.64824 -8.53125,15.65625 -4.00802,4.00801 -9.5886,6.98013 -15.65625,8.5 -6.13627,1.53706 -13.44452,1.75 -21.59375,1.75 l -127.5,0 0,-175.03125 -25,0 0,187.53125 0,12.5 12.5,0 140,0 c 8.37576,0 17.79399,-0.0218 27.6875,-2.5 9.96211,-2.49537 19.57307,-7.41682 27.25,-15.09375 7.67692,-7.67693 12.59837,-17.2879 15.09375,-27.25 C -7.49056,748.13775 -7.5,738.75077 -7.5,730.375 l 0,-80 c 0,-8.37577 0.009,-17.76275 -2.46875,-27.65625 -2.49196,-9.94846 -7.40364,-19.54705 -15.0625,-27.21875 l -0.03125,-0.0312 c -7.67693,-7.67693 -17.2879,-12.59838 -27.25,-15.09375 -9.8935,-2.4782 -19.31174,-2.5 -27.6875,-2.5 l -90,0 -12.5,0 z m 0,35 0,127.5 0,12.5 12.5,0 110,0 0,-25 -97.5,0 0,-115 -25,0 z"
       transform="translate(17.5,19.474997)"
       id="path3068"
       inkscape:connector-curvature="0"
       inkscape:export-filename="/tmp/xyz7.png"
       inkscape:export-xdpi="100"
       inkscape:export-ydpi="100" />
    <path
       id="path3908"
       d="m 100,597.35 0,12.5 0,12.5 25,0 77.5,0 c 8.14923,0 15.45748,0.21294 21.59375,1.75 6.06766,1.51987 11.64823,4.52323 15.65625,8.53125 4.00801,4.00801 7.01138,9.55734 8.53125,15.625 C 249.8183,654.39251 250,661.70077 250,669.85 l 0,80 c 0,8.14923 -0.1817,15.45747 -1.71875,21.59375 -1.51987,6.06766 -4.52324,11.64824 -8.53125,15.65625 -4.00802,4.00801 -9.5886,6.98013 -15.65625,8.5 -6.13627,1.53706 -13.44452,1.75 -21.59375,1.75 l -127.5,0 0,-175.03125 -25,0 0,187.53125 0,12.5 12.5,0 140,0 c 8.37576,0 17.79399,-0.0218 27.6875,-2.5 9.96211,-2.49537 19.57307,-7.41682 27.25,-15.09375 7.67692,-7.67693 12.59837,-17.2879 15.09375,-27.25 C 275.00944,767.61275 275,758.22577 275,749.85 l 0,-80 c 0,-8.37577 0.009,-17.76275 -2.46875,-27.65625 -2.49196,-9.94846 -7.40364,-19.54705 -15.0625,-27.21875 l -0.0312,-0.0312 c -7.67693,-7.67693 -17.2879,-12.59838 -27.25,-15.09375 -9.8935,-2.4782 -19.31174,-2.5 -27.6875,-2.5 l -90,0 -12.5,0 z m 0,55 0,107.5 0,12.5 12.5,0 110,0 0,-25 -97.5,0 0,-95 z"
       style="font-size:medium;font-style:normal;font-variant:normal;font-weight:normal;font-stretch:normal;text-indent:0;text-align:start;text-decoration:none;line-height:normal;letter-spacing:normal;word-spacing:normal;text-transform:none;direction:ltr;block-progression:tb;writing-mode:lr-tb;text-anchor:start;baseline-shift:baseline;color:#000000;fill:#d70a53;fill-opacity:1;stroke:none;stroke-width:25;marker:none;visibility:visible;display:inline;overflow:visible;filter:url(#filter3894);enable-background:accumulate;font-family:Sans;-inkscape-font-specification:Sans"
       inkscape:connector-curvature="0"
       sodipodi:nodetypes="ccccssssssssssccccccssssssccssscccccccccccc" />
    <g
       id="g4138"
       transform="translate(279.91006,0)">
      <path
         style="fill:none;stroke:#000000;stroke-width:20;stroke-linecap:butt;stroke-linejoin:miter;stroke-miterlimit:4;stroke-opacity:1;stroke-dasharray:none;marker-start:none"
         d="m 455,392.36227 0,159 80,0 c 7.27542,0 14.56782,0.10299 21.80957,-0.59612 7.24175,-0.69911 14.51107,-2.34298 20.82423,-5.959 6.31317,-3.61602 11.45244,-9.28597 14.24961,-16.00218 C 594.68059,522.08876 595,514.63769 595,507.36227 l 0,-80 c 0,-8.2625 -0.1123,-16.61351 -2.11993,-24.6284 -2.00762,-8.01488 -5.96087,-15.60586 -11.80334,-21.44833 -5.84247,-5.84247 -13.43345,-9.79572 -21.44833,-11.80334 -8.01489,-2.00763 -16.3659,-2.11993 -24.6284,-2.11993 l -116,0 0,215 571,0"
         id="path3069"
         inkscape:path-effect="#path-effect3071"
         inkscape:original-d="m 455,392.36227 0,159 80,0 c 20,0 60,-24 60,-44 l 0,-80 c 0,-20 -40,-60 -60,-60 l -116,0 0,215 571,0"
         inkscape:connector-curvature="0"
         sodipodi:nodetypes="ccccccccc" />
      <path
         sodipodi:nodetypes="cccccc"
         inkscape:connector-curvature="0"
         d="m 609.99995,557.36227 60,-175 60,170 110,0 60,-170 60.00005,175"
         inkscape:original-d="m 609.99995,557.36227 60,-175 60,170 110,0 c 26.38069,-48.07437 41.52757,-115.38583 60,-170 l 60.00005,175"
         inkscape:path-effect="#path-effect4095"
         style="fill:none;stroke:#000000;stroke-width:15;stroke-linecap:butt;stroke-linejoin:miter;stroke-miterlimit:4;stroke-opacity:1;stroke-dasharray:none;marker-start:none"
         id="path4093" />
      <path
         sodipodi:nodetypes="cccc"
         inkscape:connector-curvature="0"
         inkscape:original-d="m 784.99998,552.36227 0,-185 -60,0 120,0"
         inkscape:path-effect="#path-effect4100"
         id="path4098"
         d="m 784.99998,552.36227 0,-185 -60,0 120,0"
         style="fill:none;stroke:#000000;stroke-width:16;stroke-linecap:butt;stroke-linejoin:miter;stroke-miterlimit:4;stroke-opacity:1;stroke-dasharray:none" />
      <path
         sodipodi:nodetypes="cccccssssc"
         inkscape:connector-curvature="0"
         d="m 992,585.36227 60,-203 62,200 36.1199,-0.3716 0,-215 116,0 c 8.2625,0 16.6135,0.1123 24.6284,2.11993 8.0149,2.00762 15.6059,5.96087 21.4483,11.80334 5.8425,5.84247 9.7957,13.43345 11.8034,21.44833 2.0076,8.01489 2.1199,16.3659 2.1199,24.6284 l 0,111.3716 c 0,7.27542 -0.3194,14.72649 -3.1166,21.4427 -2.7972,6.71621 -7.9364,12.38616 -14.2496,16.00218 -6.3132,3.61602 -13.5825,5.25989 -20.8242,5.959 -7.2418,0.69911 -14.5342,0.59612 -21.8096,0.59612 l -80,0"
         inkscape:original-d="m 992,585.36227 60,-203 62,200 36.1199,-0.3716 0,-215 116,0 c 20,0 60,40 60,60 l 0,111.3716 c 0,20 -40,44 -60,44 l -80,0"
         inkscape:path-effect="#path-effect3071-0"
         style="fill:none;stroke:#000000;stroke-width:15;stroke-linecap:butt;stroke-linejoin:miter;stroke-miterlimit:4;stroke-opacity:1;stroke-dasharray:none;marker-start:none"
         id="path3069-4" />
    </g>
    <path
       style="fill:none;stroke:#000000;stroke-width:20;stroke-linecap:butt;stroke-linejoin:miter;stroke-miterlimit:4;stroke-opacity:1;stroke-dasharray:none;marker-start:none"
       d="m 455,384.7112 0,159 80,0 c 7.27542,0 14.56782,0.10299 21.80957,-0.59612 7.24175,-0.69911 14.51107,-2.34298 20.82423,-5.959 6.31317,-3.61602 11.45244,-9.28597 14.24961,-16.00218 C 594.68059,514.43769 595,506.98662 595,499.7112 l 0,-80 c 0,-8.2625 -0.1123,-16.61351 -2.11993,-24.6284 -2.00762,-8.01488 -5.96087,-15.60586 -11.80334,-21.44833 C 575.23426,367.792 567.64328,363.83875 559.6284,361.83113 551.61351,359.8235 543.2625,359.7112 535,359.7112 l -116,0 0,215 186,0"
       id="path4134"
       inkscape:path-effect="#path-effect4136"
       inkscape:original-d="m 455,384.7112 0,159 80,0 c 20,0 60,-24 60,-44 l 0,-80 c 0,-20 -40,-60 -60,-60 l -116,0 0,215 186,0"
       inkscape:connector-curvature="0"
       sodipodi:nodetypes="ccccccccc" />
    <g
       id="g4144"
       transform="translate(0,545)" />
    <path
       id="path4873-0"
       style="fill:none;stroke:#000000;stroke-width:20;stroke-linecap:butt;stroke-linejoin:miter;stroke-miterlimit:4;stroke-opacity:1;stroke-dasharray:none;marker-start:none"
       inkscape:path-effect="#path-effect4875-2"
       inkscape:original-d="m 1160,652.76873 0,192.00006 140,0 c 20,0 60,-40 60,-60.0001 l 0,-79.99999 c 0,-19.99999 -40,-59.99999 -60,-59.99999 l -100,0 0,160.00008 120,0 m -527.00002,10 0,-171.00003 -60,0 120,0 m -235.00003,176.00003 60,-161.00003 60,156.00003 110,0 c 26.38069,-48.0744 41.52757,-101.38586 60,-156.00003 L 968,819.76879 m -523,-151.00003 0,145.00003 90,0 c 20,0 60,-24 60,-44 l 0,-80.00003 c 0,-20 -40,-46 -60,-46 l -130,0 0,201.00003 586,0 61,-180.00003 62,180.00003 46,0"
       d="m 1160,652.76873 0,192.00006 140,0 c 8.2625,0 16.6135,-0.1123 24.6284,-2.11994 8.0149,-2.00763 15.6059,-5.96089 21.4483,-11.80338 5.8425,-5.84248 9.7958,-13.43347 11.8034,-21.44836 2.0076,-8.0149 2.1199,-16.36591 2.1199,-24.62842 l 0,-79.99999 c 0,-8.2625 -0.1123,-16.61351 -2.1199,-24.62839 -2.0077,-8.01489 -5.9609,-15.60586 -11.8034,-21.44833 -5.8424,-5.84247 -13.4334,-9.79572 -21.4483,-11.80334 -8.0149,-2.00763 -16.3659,-2.11993 -24.6284,-2.11993 l -100,0 0,160.00008 120,0 m -527.00002,10 0,-171.00003 -60,0 120,0 m -235.00003,176.00003 60,-161.00003 60,156.00003 110,0 60,-156.00003 L 968,819.76879 m -523,-151.00003 0,145.00003 90,0 c 7.27542,0 14.56782,0.10299 21.80957,-0.59612 7.24175,-0.69911 14.51107,-2.34298 20.82423,-5.959 6.31317,-3.61602 11.45244,-9.28597 14.24961,-16.00218 C 594.68059,784.49528 595,777.04421 595,769.76879 l 0,-80.00003 c 0,-7.38472 -0.29142,-14.93178 -2.98793,-21.80658 -2.69651,-6.87481 -7.69249,-12.79826 -13.96014,-16.70347 -6.26765,-3.90521 -13.59064,-5.8413 -20.9248,-6.70396 C 549.79297,643.6921 542.38472,643.76876 535,643.76876 l -130,0 0,201.00003 586,0 61,-180.00003 62,180.00003 46,0"
       inkscape:connector-curvature="0"
       sodipodi:nodetypes="ccsssscccccccccccccccsssscccccc" />
    <path
       sodipodi:nodetypes="ccsssscccccccccccccsssscccccc"
       inkscape:connector-curvature="0"
       d="m 1397.0762,934.03864 0,192.00006 140,0 c 8.2625,0 16.6135,-0.1123 24.6284,-2.1199 8.0149,-2.0077 15.6059,-5.9609 21.4483,-11.8034 5.8425,-5.8425 9.7958,-13.4335 11.8034,-21.4484 2.0076,-8.0149 2.1199,-16.3659 2.1199,-24.6284 l 0,-79.99999 c 0,-8.2625 -0.1123,-16.61351 -2.1199,-24.62839 -2.0077,-8.01489 -5.9609,-15.60586 -11.8034,-21.44833 -5.8424,-5.84247 -13.4334,-9.79572 -21.4483,-11.80334 -8.0149,-2.00763 -16.3659,-2.11993 -24.6284,-2.11993 l -100,0 m -407.0001,170.00008 0,-171.00003 -59.99995,0 119.99995,0 m -234.99998,176.00003 60,-161.00003 60,156.00003 109.99998,0 60,-156.00003 60.0001,161.00003 m -523.00003,-151.00003 0,145.00003 90,0 c 7.27542,0 14.56782,0.103 21.80957,-0.5961 7.24175,-0.6991 14.51107,-2.343 20.82423,-5.959 6.31317,-3.616 11.45244,-9.286 14.24961,-16.0022 2.79718,-6.7162 3.11659,-14.1673 3.11659,-21.4427 l 0,-80.00003 c 0,-7.38472 -0.29142,-14.93178 -2.98793,-21.80658 -2.69651,-6.87481 -7.69249,-12.79826 -13.96014,-16.70347 -6.26765,-3.90521 -13.59064,-5.8413 -20.9248,-6.70396 -7.33416,-0.86265 -14.74241,-0.78599 -22.12713,-0.78599 l -130,0 0,201.00003 586.00003,0 61,-180.00003 62,180.00003 46,0"
       inkscape:original-d="m 1397.0762,934.03864 0,192.00006 140,0 c 20,0 60,-40 60,-60.0001 l 0,-79.99999 c 0,-19.99999 -40,-59.99999 -60,-59.99999 l -100,0 m -407.0001,170.00008 0,-171.00003 -59.99995,0 119.99995,0 m -234.99998,176.00003 60,-161.00003 60,156.00003 109.99998,0 c 26.3807,-48.0744 41.5276,-101.38586 60,-156.00003 l 60.0001,161.00003 m -523.00003,-151.00003 0,145.00003 90,0 c 20,0 60,-24 60,-44 l 0,-80.00003 c 0,-20 -40,-46 -60,-46 l -130,0 0,201.00003 586.00003,0 61,-180.00003 62,180.00003 46,0"
       inkscape:path-effect="#path-effect4185"
       style="fill:none;stroke:#000000;stroke-width:20;stroke-linecap:butt;stroke-linejoin:miter;stroke-miterlimit:4;stroke-opacity:1;stroke-dasharray:none;marker-start:none"
       id="path4183" />
    <path
       id="path3091"
       style="font-size:medium;font-style:normal;font-variant:normal;font-weight:normal;font-stretch:normal;text-indent:0;text-align:start;text-decoration:none;line-height:normal;letter-spacing:normal;word-spacing:normal;text-transform:none;direction:ltr;block-progression:tb;writing-mode:lr-tb;text-anchor:start;baseline-shift:baseline;color:#000000;fill:#d70a53;fill-opacity:1;stroke:none;stroke-width:20;marker:none;visibility:visible;display:inline;overflow:visible;filter:url(#filter3988);enable-background:accumulate;font-family:Sans;-inkscape-font-specification:Sans"
       d="m 914.91992,1250.4601 -9.21875,24.75 -60,161 18.75,6.9687 50.75,-136.2187 50.53125,131.3437 2.46875,6.4063 6.875,0 110.00003,0 6.875,0 2.4687,-6.4063 50.5313,-131.3437 50.75,136.2187 18.75,-6.9687 -60,-161 -9.2188,-24.75 -9.5,24.6563 -57.5312,149.5937 -38.125,0 0,-151 50,0 0,-20 -50,0 -70.00003,0 0,20 50.00003,0 0,151 -38.12503,0 -57.53125,-149.5937 -9.5,-24.6563 z m -282.84375,3.25 0,10 0,201 0,10 10,0 586.00003,0 7.1562,0 2.3126,-6.8125 51.5937,-152.25 52.4687,152.3125 2.3438,6.75 7.125,0 36,0 10,0 140,0 c 8.3531,0 17.5447,-0.053 27.0625,-2.4375 9.5726,-2.3979 18.7837,-7.1273 26.0937,-14.4375 7.3101,-7.31 12.0397,-16.4898 14.4376,-26.0625 2.384,-9.5178 2.4062,-18.7094 2.4062,-27.0625 l 0,-80 c 0,-8.3531 -0.022,-17.5447 -2.4062,-27.0625 -2.3979,-9.5725 -7.1275,-18.7837 -14.4376,-26.0938 -7.3099,-7.3098 -16.5209,-12.0396 -26.0937,-14.4374 l -0.094,-0.031 c -9.4832,-2.36 -18.6441,-2.375 -26.9688,-2.375 l -100,0 -10,0 0,10 0,160 0,10 10,0 120,0 0,-20 -110,0 0,-140 90,0 c 8.1719,0 15.6755,0.1813 22.1875,1.8125 6.457,1.6174 12.4375,4.8126 16.8125,9.1875 4.3749,4.3749 7.57,10.3241 9.1875,16.7813 1.6312,6.512 1.8125,14.0468 1.8125,22.2187 l 0,80 c 0,8.1719 -0.1813,15.6755 -1.8125,22.1875 l -0.031,0.094 c -1.6247,6.4202 -4.8029,12.3654 -9.1562,16.7187 -4.3748,4.3748 -10.3553,7.57 -16.8125,9.1875 -6.512,1.6312 -14.0156,1.8125 -22.1875,1.8125 l -130,0 0,-182 -20,0 0,182 -28.8438,0 -59.6874,-173.25 -9.5313,-27.6875 -9.4063,27.7188 -58.6875,173.2187 -568.84373,0 0,-181 120,0 c 7.45396,0 14.47883,-0.045 20.96875,0.7187 6.37709,0.7501 12.22176,2.4091 16.78125,5.25 4.43994,2.7665 8.06117,7.0913 9.9375,11.875 1.87751,4.7868 2.3125,11.0347 2.3125,18.1563 l 0,80 c 0,6.9827 -0.45194,13.0514 -2.34375,17.5937 -1.89376,4.5471 -5.56795,8.6178 -10,11.1563 -4.57459,2.6202 -10.42609,4.071 -16.8125,4.6875 -6.50911,0.6284 -13.47395,0.5625 -20.84375,0.5625 l -80,0 0,-135 -20,0 0,145 0,10 10,0 90,0 c 7.18104,0 14.80686,0.1136 22.78125,-0.6563 8.09709,-0.7816 16.76077,-2.6069 24.8125,-7.2187 8.19429,-4.6935 14.83067,-11.9584 18.53125,-20.8437 3.70255,-8.8901 3.875,-17.7132 3.875,-25.2813 l 0,-80 c 0,-7.6478 -0.17199,-16.5059 -3.6875,-25.4687 -3.51669,-8.9659 -9.87339,-16.4873 -17.96875,-21.5313 -7.97581,-4.9696 -16.77127,-7.1811 -25.0625,-8.1563 -8.1784,-0.962 -15.96577,-0.8437 -23.28125,-0.8437 l -130,0 -10,0 z"
       inkscape:connector-curvature="0" />
    <g
       id="g4105"
       inkscape:export-filename="/tmp/xyz10.png"
       inkscape:export-xdpi="100"
       inkscape:export-ydpi="100"
       transform="translate(-1252.6573,-325.58308)">
      <rect
         transform="translate(-890.90035,7.5)"
         ry="2.2124023e-05"
         rx="2.2124023e-05"
         y="1513.3694"
         x="1248.3856"
         height="370.88138"
         width="1407.3441"
         id="rect4103"
         style="color:#000000;fill:#000000;fill-opacity:1;fill-rule:nonzero;stroke:none;stroke-width:24;marker:none;visibility:visible;display:inline;overflow:visible;filter:url(#filter4009);enable-background:accumulate" />
      <path
         inkscape:export-ydpi="100"
         inkscape:export-xdpi="100"
         inkscape:export-filename="/tmp/xyz9.png"
         inkscape:connector-curvature="0"
         id="path4044"
         d="m 856.46985,1590.3569 -11.0625,29.7188 -60,161 22.5,8.375 48.9375,-131.3125 48.625,126.4063 2.9375,7.7187 8.25,0 110.00005,0 8.25,0 2.9375,-7.7187 48.625,-126.4063 48.9375,131.3125 22.5,-8.375 -60,-161 -11.0625,-29.7188 -11.375,29.5938 -57.0313,148.3125 -34.78125,0 0,-147 48.00005,0 0,-24 -48.00005,0 -72,0 0,24 48,0 0,147 -34.78125,0 -57.03125,-148.3125 -11.375,-29.5938 z m 374.09365,2.7813 -11.2812,33.25 -58.2499,171.875 -565.37505,0 0,-177 118,0 c 7.46781,0 14.39768,-0.056 20.71875,0.6875 6.18568,0.7275 11.78215,2.3407 16,4.9688 4.0744,2.5386 7.41271,6.5407 9.125,10.9062 1.71371,4.3691 2.15625,10.3685 2.15625,17.4375 l 0,80 c 0,6.9242 -0.47676,12.7049 -2.1875,16.8125 -1.71308,4.1132 -5.10043,7.8957 -9.15625,10.2188 -4.22688,2.421 -9.78465,3.8062 -16,4.4062 -6.36258,0.6142 -13.26757,0.5625 -20.65625,0.5625 l -78,0 0,-133 -24,0 0,145 0,12 12,0 90,0 c 7.16216,0 14.84783,0.1277 22.96875,-0.6563 8.26815,-0.7981 17.22556,-2.689 25.625,-7.5 8.57052,-4.9089 15.49374,-12.4933 19.375,-21.8124 3.88362,-9.3249 4.03125,-18.4047 4.03125,-26.0313 l 0,-80 c 0,-7.7004 -0.13319,-16.807 -3.8125,-26.1875 -3.68073,-9.3841 -10.32035,-17.2595 -18.78125,-22.5312 -8.31745,-5.1826 -17.39236,-7.4399 -25.875,-8.4376 -8.34725,-0.9818 -16.22962,-0.8437 -23.53125,-0.8437 l -130,0 -12,0 0,12 0,201 0,12 12,0 586.00005,0 8.5937,0 2.7813,-8.1563 49.7187,-146.7187 50.5624,146.7813 2.7813,8.0937 8.5625,0 34,0 12,0 140,0 c 8.3712,0 17.7129,-0.041 27.5312,-2.5 9.8842,-2.4759 19.4277,-7.3338 27.0313,-14.9375 7.6036,-7.6036 12.4929,-17.147 14.9687,-27.0312 2.4594,-9.8184 2.4688,-19.1601 2.4688,-27.5313 l 0,-80 c 0,-8.3712 -0.01,-17.7442 -2.4688,-27.5625 -2.4759,-9.8841 -7.365,-19.3964 -14.9687,-27 -7.6036,-7.6037 -17.1471,-12.4928 -27.0313,-14.9688 -9.8183,-2.4593 -19.16,-2.4687 -27.5312,-2.4687 l -100,0 -12,0 0,12 0,160 0,12 12,0 120,0 0,-24 -108,0 0,-136 88,0 c 8.1538,0 15.5073,0.1941 21.7188,1.75 6.1456,1.5395 11.7937,4.5749 15.875,8.6563 4.0813,4.0812 7.1167,9.7293 8.6562,15.875 1.5559,6.2114 1.75,13.5649 1.75,21.7187 l 0,80 c 0,8.1538 -0.1941,15.476 -1.75,21.6875 -1.5393,6.1455 -4.5748,11.8248 -8.6562,15.9062 -4.0813,4.0814 -9.7294,7.0856 -15.875,8.625 -6.2115,1.5559 -13.565,1.7813 -21.7188,1.7813 l -128,0 0,-180 -24,0 0,180 -25.4375,0 -59.2187,-171.9063 -11.4376,-33.2187 z"
         style="font-size:medium;font-style:normal;font-variant:normal;font-weight:normal;font-stretch:normal;text-indent:0;text-align:start;text-decoration:none;line-height:normal;letter-spacing:normal;word-spacing:normal;text-transform:none;direction:ltr;block-progression:tb;writing-mode:lr-tb;text-anchor:start;baseline-shift:baseline;color:#000000;fill:#d70a53;fill-opacity:1;stroke:none;stroke-width:24;marker:none;visibility:visible;display:inline;overflow:visible;filter:url(#filter4071);enable-background:accumulate;font-family:Sans;-inkscape-font-specification:Sans" />
    </g>
    <path
       id="path4109"
       style="fill:none;stroke:#000000;stroke-width:20;stroke-linecap:butt;stroke-linejoin:miter;stroke-miterlimit:4;stroke-opacity:1;stroke-dasharray:none;marker-start:none"
       inkscape:path-effect="#path-effect4111"
       inkscape:original-d="m 1517.1808,1782.2899 54,0 c 20,0 60,-40 60,-60.0001 l 0,-80 c 0,-20 -40,-60 -60,-60 l -100,0 m -321,170.0001 0,-171 -60,0 120,0 m -235.00006,176 59.99996,-161 60,156 110,0 c 26.3807,-48.0744 41.5276,-101.3859 60.0001,-156 l 60,161 m -523.00001,-151 0,145 90,0 c 20,0 60,-24 60,-44 l 0,-80 c 0,-20 -40,-46 -60,-46 l -130,0 0,201 586.00001,0 61,-180 62,180 46,0"
       d="m 1517.1808,1782.2899 54,0 c 8.2625,0 16.6135,-0.1123 24.6284,-2.1199 8.0149,-2.0077 15.6059,-5.9609 21.4483,-11.8034 5.8425,-5.8425 9.7958,-13.4335 11.8034,-21.4484 2.0076,-8.0149 2.1199,-16.3659 2.1199,-24.6284 l 0,-80 c 0,-8.2625 -0.1123,-16.6135 -2.1199,-24.6284 -2.0077,-8.0149 -5.9609,-15.6059 -11.8034,-21.4483 -5.8424,-5.8425 -13.4334,-9.7957 -21.4483,-11.8034 -8.0149,-2.0076 -16.3659,-2.1199 -24.6284,-2.1199 l -100,0 m -321,170.0001 0,-171 -60,0 120,0 m -235.00006,176 59.99996,-161 60,156 110,0 60.0001,-156 60,161 m -523.00001,-151 0,145 90,0 c 7.27542,0 14.56782,0.103 21.80957,-0.5961 7.24175,-0.6991 14.51107,-2.343 20.82423,-5.959 6.31317,-3.616 11.45244,-9.286 14.24961,-16.0022 2.79718,-6.7162 3.11659,-14.1673 3.11659,-21.4427 l 0,-80 c 0,-7.3847 -0.29142,-14.9318 -2.98793,-21.8066 -2.69651,-6.8748 -7.69249,-12.7982 -13.96014,-16.7034 -6.26765,-3.9053 -13.59064,-5.8414 -20.9248,-6.704 -7.33416,-0.8627 -14.74241,-0.786 -22.12713,-0.786 l -130,0 0,201 586.00001,0 61,-180 62,180 46,0"
       inkscape:connector-curvature="0"
       sodipodi:nodetypes="csssscccccccccccccsssscccccc" />
    <path
       sodipodi:nodetypes="csssscccccccccccccccsssscccccc"
       inkscape:connector-curvature="0"
       d="m 1463.1808,2033.2128 140,0 c 8.2625,0 16.6135,-0.1123 24.6284,-2.1199 8.0149,-2.0077 15.6059,-5.9609 21.4483,-11.8034 5.8425,-5.8425 9.7958,-13.4335 11.8034,-21.4484 2.0076,-8.0149 2.1199,-16.3659 2.1199,-24.6284 l 0,-80 c 0,-8.2625 -0.1123,-16.6135 -2.1199,-24.6284 -2.0077,-8.0148 -5.9609,-15.6058 -11.8034,-21.4483 -5.8425,-5.8424 -13.4334,-9.7957 -21.4483,-11.8033 -8.0149,-2.0076 -16.3659,-2.1199 -24.6284,-2.1199 l -100,0 0,160 120,0 m -473,10 0,-171 -60,0 120,0 m -235.00006,176 59.99996,-161 60,156 110,0 60.0001,-156 60,161 m -523.00001,-151 0,145 90,0 c 7.27542,0 14.56782,0.103 21.80957,-0.5961 7.24175,-0.6991 14.51107,-2.343 20.82423,-5.959 6.31317,-3.616 11.45244,-9.286 14.24961,-16.0022 2.79718,-6.7162 3.11659,-14.1673 3.11659,-21.4427 l 0,-80 c 0,-7.3847 -0.29142,-14.9318 -2.98793,-21.8066 -2.69651,-6.8748 -7.69249,-12.7982 -13.96014,-16.7034 -6.26765,-3.9053 -13.59064,-5.8414 -20.9248,-6.704 -7.33416,-0.8627 -14.74241,-0.786 -22.12713,-0.786 l -130,0 0,201 586.00001,0 61,-180 62,180 -8,0"
       inkscape:original-d="m 1463.1808,2033.2128 140,0 c 20,0 60,-40 60,-60.0001 l 0,-80 c 0,-19.9999 -40,-59.9999 -60,-59.9999 l -100,0 0,160 120,0 m -473,10 0,-171 -60,0 120,0 m -235.00006,176 59.99996,-161 60,156 110,0 c 26.3807,-48.0744 41.5276,-101.3858 60.0001,-156 l 60,161 m -523.00001,-151 0,145 90,0 c 20,0 60,-24 60,-44 l 0,-80 c 0,-20 -40,-46 -60,-46 l -130,0 0,201 586.00001,0 61,-180 62,180 -8,0"
       inkscape:path-effect="#path-effect4115"
       style="fill:none;stroke:#000000;stroke-width:20;stroke-linecap:butt;stroke-linejoin:miter;stroke-miterlimit:4;stroke-opacity:1;stroke-dasharray:none;marker-start:none"
       id="path4113" />
    <path
       sodipodi:nodetypes="cssssccccccccccccsssscccccc"
       inkscape:connector-curvature="0"
       d="m 512.0002,2044.2208 54,0 c 8.26251,0 16.61353,-0.1123 24.62841,-2.1199 8.01489,-2.0077 15.60587,-5.9609 21.44834,-11.8034 5.84247,-5.8425 9.79571,-13.4335 11.80333,-21.4484 2.00762,-8.0149 2.11992,-16.3659 2.11992,-24.6284 l 0,-80 c 0,-8.2625 -0.1123,-16.6135 -2.11993,-24.6284 -2.00762,-8.0149 -5.96087,-15.6059 -11.80334,-21.4483 -5.84247,-5.8425 -13.43345,-9.7957 -21.44833,-11.8034 -8.01489,-2.0076 -16.3659,-2.1199 -24.6284,-2.1199 l -100,0 m -321,170.0001 0,-171 -60,0 120,0 m -235.00006,176 59.99996,-161 60,156 110,0 60.0001,-156 60,161 m -511.00001,-6 78,0 c 7.27542,0 14.567819,0.103 21.809569,-0.5961 7.24175,-0.6991 14.511067,-2.343 20.824235,-5.959 6.313168,-3.616 11.452433,-9.286 14.24961,-16.0022 2.797178,-6.7162 3.116586,-14.1673 3.116586,-21.4427 l 0,-80 c 0,-7.3847 -0.29142,-14.9318 -2.98793,-21.8066 -2.69651,-6.8748 -7.692492,-12.7982 -13.960141,-16.7034 -6.267649,-3.9053 -13.590636,-5.8414 -20.924798,-6.704 -7.334162,-0.8627 -14.742411,-0.786 -22.127131,-0.786 l -118,0 0,201 574.00001,0 61,-180 62,180 46,0"
       inkscape:original-d="m 512.0002,2044.2208 54,0 c 20,0 60,-40 60,-60.0001 l 0,-80 c 0,-20 -40,-60 -60,-60 l -100,0 m -321,170.0001 0,-171 -60,0 120,0 m -235.00006,176 59.99996,-161 60,156 110,0 c 26.3807,-48.0744 41.5276,-101.3859 60.0001,-156 l 60,161 m -511.00001,-6 78,0 c 20,0 60,-24 60,-44 l 0,-80 c 0,-20 -40,-46 -60,-46 l -118,0 0,201 574.00001,0 61,-180 62,180 46,0"
       inkscape:path-effect="#path-effect4119"
       style="fill:none;stroke:#000000;stroke-width:20;stroke-linecap:butt;stroke-linejoin:miter;stroke-miterlimit:4;stroke-opacity:1;stroke-dasharray:none;marker-start:none"
       id="path4117" />
  </g>
</svg>
