<?xml version="1.0" encoding="UTF-8" standalone="no"?>
<!-- Created with Inkscape (http://www.inkscape.org/) -->

<svg
   xmlns:dc="http://purl.org/dc/elements/1.1/"
   xmlns:cc="http://creativecommons.org/ns#"
   xmlns:rdf="http://www.w3.org/1999/02/22-rdf-syntax-ns#"
   xmlns:svg="http://www.w3.org/2000/svg"
   xmlns="http://www.w3.org/2000/svg"
   xmlns:xlink="http://www.w3.org/1999/xlink"
   xmlns:sodipodi="http://sodipodi.sourceforge.net/DTD/sodipodi-0.dtd"
   xmlns:inkscape="http://www.inkscape.org/namespaces/inkscape"
   width="32"
   height="32"
   id="svg2"
   version="1.1"
   inkscape:version="0.48.5 r10040"
   inkscape:export-filename="/home/mih/private/www/datalad.org/www/pics/favicon.png"
   inkscape:export-xdpi="90"
   inkscape:export-ydpi="90"
   sodipodi:docname="favicon.svg">
  <defs
     id="defs4">
    <linearGradient
       id="linearGradient4189">
      <stop
         style="stop-color:#f9f9f9;stop-opacity:1;"
         offset="0"
         id="stop4191" />
      <stop
         id="stop4209"
         offset="0.56321841"
         style="stop-color:white;stop-opacity:0.49803922;" />
      <stop
         id="stop4197"
         offset="1"
         style="stop-color:black;stop-opacity:1;" />
    </linearGradient>
    <radialGradient
       inkscape:collect="always"
       xlink:href="#linearGradient4189"
       id="radialGradient4207"
       cx="15.787339"
       cy="15.341992"
       fx="15.787339"
       fy="15.341992"
       r="16"
       gradientTransform="matrix(1.8536036,0,0,1.7188,-13.528629,-11.227811)"
       gradientUnits="userSpaceOnUse" />
  </defs>
  <sodipodi:namedview
     id="base"
     pagecolor="#ffffff"
     bordercolor="#666666"
     borderopacity="1.0"
     inkscape:pageopacity="0.0"
     inkscape:pageshadow="2"
     inkscape:zoom="2.8284271"
     inkscape:cx="-26.892416"
     inkscape:cy="-10.925463"
     inkscape:document-units="px"
     inkscape:current-layer="g4187"
     showgrid="false"
     inkscape:window-width="1920"
     inkscape:window-height="1141"
     inkscape:window-x="0"
     inkscape:window-y="30"
     inkscape:window-maximized="1"
     showguides="false"
     inkscape:guide-bbox="true"
     showborder="false">
    <sodipodi:guide
       orientation="1,0"
       position="-2820,1616"
       id="guide3869" />
    <sodipodi:guide
       orientation="0,1"
       position="-2799.0822,1204.2028"
       id="guide3871" />
  </sodipodi:namedview>
  <metadata
     id="metadata7">
    <rdf:RDF>
      <cc:Work
         rdf:about="">
        <dc:format>image/svg+xml</dc:format>
        <dc:type
           rdf:resource="http://purl.org/dc/dcmitype/StillImage" />
        <dc:title />
      </cc:Work>
    </rdf:RDF>
  </metadata>
  <g
     inkscape:label="Layer 1"
     inkscape:groupmode="layer"
     id="layer1"
     transform="translate(0,-1020.3622)"
     style="display:inline">
    <rect
       style="fill:url(#radialGradient4207);fill-opacity:1;fill-rule:evenodd;stroke:#4d4d4d;stroke-width:1;stroke-linecap:round;stroke-linejoin:miter;stroke-miterlimit:4;stroke-opacity:1;stroke-dasharray:none;stroke-dashoffset:0"
       id="rect4199"
       width="31"
       height="31.125"
       x="0.5"
       y="0.37499994"
       transform="translate(0,1020.3622)"
       rx="3.4375"
       ry="3.4375"
       inkscape:export-xdpi="90"
       inkscape:export-ydpi="90" />
    <g
       id="g3091" />
  </g>
  <g
     inkscape:groupmode="layer"
     id="layer3"
     inkscape:label="qr">
    <g
       style="display:inline"
       id="g4187"
       transform="matrix(0.01973424,0,0,0.01973424,64.24775,26.3303)">
      <path
         inkscape:connector-curvature="0"
         id="rect3875"
         transform="translate(0,1020.3622)"
         d="m -3169.875,-2272 0,175 0,175 175,0 174.875,0 0,-350 -174.875,0 -175,0 z m 50,50 125,0 125,0 0,125 0,125 -125,0 -125,0 0,-125 0,-125 z m 50,50 0,75 0,75 75,0 75,0 0,-75 0,-75 -75,0 -75,0 z m -100,300 0,25 0,25 25,0 25,0 0,-25 0,-25 -25,0 -25,0 z m 50,50 0,25 0,25 -25,0 -25,0 0,25 0,25 50,0 50,0 0,-25 0,-25 50,0 50,0 0,25 0,25 75,0 74.875,0 0,-50 -49.875,0 -50,0 0,-50 0,-50 -25,0 -25,0 0,25 0,25 -25,0 -25,0 0,-25 0,-25 -25,0 -25,0 0,25 0,25 -25,0 -25,0 z m 150,100 -25,0 -25,0 0,25 0,25 25,0 25,0 0,-25 0,-25 z m 100,-150 0,25 0,25 49.875,0 0,-50 -49.875,0 z m -300,200 0,25 0,25 50,0 50,0 0,-25 0,-25 -50,0 -50,0 z m 100,50 0,50 0,50 50,0 50,0 0,25 0,25 50,0 50,0 0,-25 0,-25 25,0 24.875,0 0,-50 -24.875,0 -25,0 0,-25 0,-25 25,0 24.875,0 0,-50 -49.875,0 -50,0 0,50 0,50 -25,0 -25,0 0,-25 0,-25 -50,0 -50,0 z m 200,150 0,25 0,25 25,0 24.875,0 0,-50 -24.875,0 -25,0 z m -200,-50 -25,0 -25,0 0,-25 0,-25 -25,0 -25,0 0,50 0,50 25,0 25,0 0,50 0,50 -25,0 -25,0 0,75 0,75 75,0 75,0 0,-25 0,-25 25,0 25,0 0,-50 0,-50 25,0 25,0 0,-25 0,-25 -50,0 -50,0 0,50 0,50 -25,0 -25,0 0,-50 0,-50 25,0 25,0 0,-25 0,-25 -25,0 -25,0 0,-25 0,-25 z m 200,150 0,25 0,25 25,0 24.875,0 0,-50 -24.875,0 -25,0 z m 0,50 -25,0 -25,0 0,50 0,50 99.875,0 0,-50 -49.875,0 0,-25 0,-25 z m 300,149.8125 0,0.1875 0,50 25,0 25,0 0,-50 0,-0.1875 -50,0 z m 50,50.1875 0,25 0,25 75,0 75,0 0,-25 0,-25 -25,0 -25,0 0,-25 0,-25 -25,0 -25,0 0,25 0,25 -25,0 -25,0 z m 150,0 25,0 25,0 0,-25 0,-25 -25,0 -25,0 0,25 0,25 z m 0,50 0,25 0,25 -25,0 -25,0 0,25 0,25 -25,0 -25,0 0,-25 0,-25 -25,0 -25,0 0,-25 0,-25 -25,0 -25,0 0,50 0,50 25,0 25,0 0,25 0,25 75,0 75,0 0,-25 0,-25 25,0 25,0 0,-25 0,-25 25,0 25,0 0,25 0,25 -25,0 -25,0 0,75 0,75 100,0 100,0 0,-25 0,-25 -75,0 -75,0 0,-25 0,-25 75,0 75,0 0,-25 0,-25 -50,0 -50,0 0,-50 0,-50 -75,0 -75,0 z m -150,150 -25,0 -25,0 0,-25 0,-25 -25,0 -25,0 0,50 0,50 50,0 50,0 0,-25 0,-25 z m 0,50 0,25 0,25 75,0 75,0 0,-25 0,-25 -75,0 -75,0 z m -100,0 -50,0 -50,0 0,25 0,25 50,0 50,0 0,-25 0,-25 z m -550,-300 0,175 0,175 175,0 175,0 0,-175 0,-175 -175,0 -175,0 z m 400,0 0,25 0,25 25,0 25,0 0,-25 0,-25 -25,0 -25,0 z m 50,50 0,25 0,25 25,0 25,0 0,-25 0,-25 -25,0 -25,0 z m 50,0 25,0 25,0 0,-25 0,-25 -25,0 -25,0 0,25 0,25 z m 0,50 0,25 0,25 25,0 25,0 0,-25 0,-25 -25,0 -25,0 z m -50,0 -25,0 -25,0 0,75 0,75 50,0 50,0 0,-25 0,-25 -25,0 -25,0 0,-50 0,-50 z m 450,-100 0,25 0,25 25,0 25,0 0,-25 0,-25 -25,0 -25,0 z m 100,0 0,25 0,25 25,0 25,0 0,-25 0,-25 -25,0 -25,0 z m 100,0 0,175 0,175 175,0 175,0 0,-175 0,-175 -175,0 -175,0 z m -1050,50 125,0 125,0 0,125 0,125 -125,0 -125,0 0,-125 0,-125 z m 1100,0 125,0 125,0 0,125 0,125 -125,0 -125,0 0,-125 0,-125 z m -1050,50 0,75 0,75 75,0 75,0 0,-75 0,-75 -75,0 -75,0 z m 1100,0 0,75 0,75 75,0 75,0 0,-75 0,-75 -75,0 -75,0 z"
         style="color:#000000;fill:#2db967;fill-opacity:1;fill-rule:nonzero;stroke:none;stroke-width:3;marker:none;visibility:visible;display:inline;overflow:visible;enable-background:accumulate" />
      <path
         id="path4181"
         transform="translate(0,1020.3622)"
         d="m -2820,-2272 0,350 0.125,0 0,-175 0,-175 -0.125,0 z m 50.125,0 0,75 0,75 25,0 25,0 0,-50 0,-50 25,0 25,0 0,-25 0,-25 -50,0 -50,0 z m 50,150 0,50 0,50 25,0 25,0 0,-50 0,-50 -25,0 -25,0 z m 50,100 0,50 0,50 50,0 50,0 0,-75 0,-75 -25,0 -25,0 0,25 0,25 -25,0 -25,0 z m 100,100 0,50 0,50 25,0 25,0 0,25 0,25 -75,0 -75,0 0,25 0,25 25,0 25,0 0,25 0,25 50,0 50,0 0,-25 0,-25 25,0 25,0 0,25 0,25 25,0 25,0 0,-25 0,-25 25,0 25,0 0,-25 0,-25 -50,0 -50,0 0,-25 0,-25 25,0 25,0 0,-25 0,-25 -25,0 -25,0 0,-25 0,-25 25,0 25,0 0,25 0,25 25,0 25,0 0,-25 0,-25 25,0 25,0 0,-25 0,-25 -100,0 -100,0 0,25 0,25 -25,0 -25,0 z m 250,-50 25,0 25,0 0,-75 0,-75 25,0 25,0 0,-25 0,-25 -25,0 -25,0 0,-50 0,-50 -25,0 -25,0 0,25 0,25 -25,0 -25,0 0,50 0,50 -25,0 -25,0 0,25 0,25 50,0 50,0 0,50 0,50 z m 100,-200 25,0 25,0 0,25 0,25 25,0 25,0 0,-25 0,-25 25,0 25,0 0,-50 0,-50 -25,0 -25,0 0,25 0,25 -25,0 -25,0 0,-25 0,-25 -25,0 -25,0 0,50 0,50 z m 100,50 0,25 0,25 -25,0 -25,0 0,-25 0,-25 -25,0 -25,0 0,50 0,50 25,0 25,0 0,25 0,25 -50,0 -50,0 0,25 0,25 50,0 50,0 0,25 0,25 -25,0 -25,0 0,25 0,25 -25,0 -25,0 0,25 0,25 50,0 50,0 0,25 0,25 25,0 25,0 0,-50 0,-50 25,0 25,0 0,100 0,100 25,0 25,0 0,25 0,25 -25,0 -25,0 0,50 0,50 25,0 25,0 0,-25 0,-25 25,0 25,0 0,-75 0,-75 25,0 25,0 0,-25 0,-25 -25,0 -25,0 0,-50 0,-50 25,0 25,0 0,-75 0,-75 25,0 25,0 0,-25 0,-25 -25,0 -25,0 0,-25 0,-25 25,0 25,0 0,25 0,25 75,0 71.1562,0 c -7.7634,-40.916 -23.7298,-78.9944 -46.1562,-112.5625 l 0,12.5625 -25,0 -25,0 0,-25 0,-25 20.625,0 c -17.3229,-18.9106 -36.9794,-35.7239 -58.5312,-50 l -12.0938,0 0,25 0,25 -50,0 -50,0 0,25 0,25 -25,0 -25,0 0,25 0,25 -25,0 -25,0 0,-25 0,-25 -25,0 -25,0 z m 150,-50 0,-25 0,-25 -25,0 -25,0 0,25 0,25 25,0 25,0 z m 0,-50 25,0 25,0 0,-25 0,-6.9062 c -16.0743,-6.1396 -32.7734,-11.0169 -50,-14.5313 l 0,21.4375 0,25 z m 100,250 0,50 0,50 50,0 50,0 0,-25 0,-25 -25,0 -25,0 0,-25 0,-25 -25,0 -25,0 z m -50,300 0,25 0,25 25,0 25,0 0,-25 0,-25 -25,0 -25,0 z m 50,50 0,25 0,25 -25,0 -25,0 0,25 0,25 75,0 75,0 0,25 0,25 -25,0 -25,0 0,25 0,25 50,0 50,0 0,-75 0,-75 -25,0 -25,0 0,-25 0,-25 -50,0 -50,0 z m -50,100 -25,0 -25,0 0,25 0,25 25,0 25,0 0,-25 0,-25 z m -50,50 -25,0 -25,0 0,25 0,25 25,0 25,0 0,-25 0,-25 z m 0,50 0,25 0,25 25,0 25,0 0,25 0,25 25,0 25,0 0,-50 0,-50 -50,0 -50,0 z m 100,100 0,25 0,25 -50,0 -50,0 0,25 0,25 75,0 75,0 0,-25 0,-25 25,0 25,0 0,-25 0,-25 25,0 25,0 0,-25 0,-25 -50,0 -50,0 0,25 0,25 -25,0 -25,0 z m -150,-100 -25,0 -25,0 0,-25 0,-25 -25,0 -25,0 0,-25 0,-25 -25,0 -25,0 0,25 0,25 -25,0 -25,0 0,25 0,25 50,0 50,0 0,50 0,50 50,0 50,0 0,-50 0,-50 z m -200,0 -25,0 -25,0 0,-25 0,-25 -25,0 -25,0 0,50 0,50 -25,0 -25,0 0,25 0,25 25,0 25,0 0,25 0,25 25,0 25,0 0,-25 0,-25 25,0 25,0 0,-50 0,-50 z m 0,100 0,25 0,25 25,0 25,0 0,-25 0,-25 -25,0 -25,0 z m -100,50 -50,0 -50,0 0,25 0,25 50,0 50,0 0,-25 0,-25 z m -50,-100 0,-75 0,-75 50,0 50,0 0,-25 0,-25 -100,0 -100,0 0,-50 0,-50 -25,0 -25,0 0,25 0,25 -50,0 -50,0 0,-25 0,-25 -25,0 -25,0 0,-25 0,-25 -25,0 -25,0 0,25 0,25 -25,0 -25,0 0,25 0,25 -25,0 -25,0 0,25 0,25 125,0 125,0 0,25 0,25 -25,0 -25,0 0,50 0,50 25,0 25,0 0,25 0,25 25,0 25,0 0,-50 0,-50 25,0 25,0 0,-25 0,-25 25,0 25,0 0,50 0,50 -25,0 -25,0 0,25 0,25 50,0 50,0 z m -100,0 -25,0 -25,0 0,25 0,25 25,0 25,0 0,-25 0,-25 z m -50,50 -50,0 -50,0 0,-25 0,-25 -75,0 -75,0 0,25 0,25 50,0 50,0 0,25 0,25 -100,0 -50.125,0 0,50 75.125,0 175,0 0,-25 0,-25 25,0 25,0 0,-25 0,-25 z m -50,100 0,49.8125 50,0 0,-49.8125 -25,0 -25,0 z m -200,-150 0,-25 0,-25 -25,0 -25,0 0,25 0,25 25,0 25,0 z m -50,0 -0.125,0 0,50 0.125,0 0,-25 0,-25 z m 0,-50 0,-25 0,-25 -0.125,0 0,50 0.125,0 z m 0,-150 -0.125,0 0,50 0.125,0 0,-25 0,-25 z m 0,-50 0,-25 0,-25 -0.125,0 0,50 0.125,0 z m 100,-100 0,-25 0,-25 -25,0 -25,0 0,25 0,25 25,0 25,0 z m 450,150 25,0 25,0 0,-25 0,-25 -25,0 -25,0 0,25 0,25 z m 0,-50 0,-25 0,-25 50,0 50,0 0,-25 0,-25 -75,0 -75,0 0,50 0,50 25,0 25,0 z m 50,50 0,25 0,25 25,0 25,0 0,-25 0,-25 -25,0 -25,0 z m 50,0 50,0 50,0 0,-25 0,-25 -50,0 -50,0 0,25 0,25 z m -50,50 -25,0 -25,0 0,25 0,25 25,0 25,0 0,-25 0,-25 z m -50,-300 0,-50 0,-50 -25,0 -25,0 0,50 0,50 25,0 25,0 z m -150,150 0,25 0,25 25,0 25,0 0,-25 0,-25 -25,0 -25,0 z m -250,-250 -25,0 -25,0 0,-50 0,-50 -25,0 -25,0 0,75 0,75 -50,0 -0.125,0 0,50 25.125,0 75,0 0,-25 0,-25 25,0 25,0 0,-25 0,-25 z m 0,50 0,25 0,25 25,0 25,0 0,-25 0,-25 -25,0 -25,0 z m 100,-400 0,25 0,25 -25,0 -25,0 0,25 0,25 25,0 25,0 0,25 0,25 25,0 25,0 0,-25 0,-25 25,0 25,0 0,-50 0,-50 -50,0 -50,0 z m 50,150 0,50 0,50 25,0 25,0 0,-50 0,-50 -25,0 -25,0 z m 400,100 75,0 75,0 0,75 0,75 -75,0 -75,0 0,-75 0,-75 z m 50,50 0,25 0,25 25,0 25,0 0,-25 0,-25 -25,0 -25,0 z m 200,150 0,50 0,50 25,0 25,0 0,25 0,25 25,0 25,0 0,-25 0,-25 25,0 25,0 0,-25 0,-25 -25,0 -25,0 0,-25 0,-25 -50,0 -50,0 z m -950.125,50 0,50 0.125,0 0,-25 0,-25 -0.125,0 z m 100.125,250 0,50 0,50 25,0 25,0 0,-50 0,-50 -25,0 -25,0 z m 600,250 0,25 0,25 25,0 25,0 0,-25 0,-25 -25,0 -25,0 z"
         style="color:#000000;fill:#b92d2d;fill-opacity:1;fill-rule:nonzero;stroke:none;stroke-width:3;marker:none;visibility:visible;display:inline;overflow:visible;enable-background:accumulate"
         inkscape:connector-curvature="0" />
      <rect
         rx="0"
         y="-727.02197"
         x="-2609.053"
         height="407.50125"
         width="414.61185"
         id="rect4185"
         style="color:#000000;fill:#ffffff;fill-opacity:1;fill-rule:nonzero;stroke:#ffffff;stroke-width:152.02005005;stroke-opacity:1;marker:none;visibility:visible;display:inline;overflow:visible;enable-background:accumulate" />
    </g>
  </g>
</svg>
