<?xml version="1.0" encoding="UTF-8" standalone="no"?>
<!-- Created with Inkscape (http://www.inkscape.org/) -->

<svg
   xmlns:dc="http://purl.org/dc/elements/1.1/"
   xmlns:cc="http://creativecommons.org/ns#"
   xmlns:rdf="http://www.w3.org/1999/02/22-rdf-syntax-ns#"
   xmlns:svg="http://www.w3.org/2000/svg"
   xmlns="http://www.w3.org/2000/svg"
   xmlns:xlink="http://www.w3.org/1999/xlink"
   xmlns:sodipodi="http://sodipodi.sourceforge.net/DTD/sodipodi-0.dtd"
   xmlns:inkscape="http://www.inkscape.org/namespaces/inkscape"
   width="59.922714"
   height="59.922714"
   id="svg2"
   version="1.1"
   inkscape:version="0.48.5 r10040"
   inkscape:export-filename="/home/mih/private/www/datalad.org/www/pics/favicon.png"
   inkscape:export-xdpi="90"
   inkscape:export-ydpi="90"
   sodipodi:docname="logo1.svg">
  <defs
     id="defs4">
    <linearGradient
       id="linearGradient4189">
      <stop
         style="stop-color:#f9f9f9;stop-opacity:1;"
         offset="0"
         id="stop4191" />
      <stop
         id="stop4209"
         offset="0.56321841"
         style="stop-color:white;stop-opacity:0.49803922;" />
      <stop
         id="stop4197"
         offset="1"
         style="stop-color:black;stop-opacity:1;" />
    </linearGradient>
    <radialGradient
       inkscape:collect="always"
       xlink:href="#linearGradient4189"
       id="radialGradient4207"
       cx="15.787339"
       cy="15.341992"
       fx="15.787339"
       fy="15.341992"
       r="16"
       gradientTransform="matrix(1.8536036,0,0,1.7188,-13.528629,-11.227811)"
       gradientUnits="userSpaceOnUse" />
  </defs>
  <sodipodi:namedview
     id="base"
     pagecolor="#ffffff"
     bordercolor="#666666"
     borderopacity="1.0"
     inkscape:pageopacity="0.0"
     inkscape:pageshadow="2"
     inkscape:zoom="2.8284272"
     inkscape:cx="121.07021"
     inkscape:cy="70.555901"
     inkscape:document-units="px"
     inkscape:current-layer="g4379"
     showgrid="false"
     inkscape:window-width="1920"
     inkscape:window-height="1141"
     inkscape:window-x="0"
     inkscape:window-y="30"
     inkscape:window-maximized="1"
     showguides="false"
     inkscape:guide-bbox="true"
     showborder="true"
     fit-margin-top="0"
     fit-margin-left="0"
     fit-margin-right="0"
     fit-margin-bottom="0">
    <sodipodi:guide
       orientation="1,0"
       position="-2818.9032,1613.148"
       id="guide3869" />
    <sodipodi:guide
       orientation="0,1"
       position="-2797.9854,1201.3508"
       id="guide3871" />
    <sodipodi:guide
       orientation="1,0"
       position="1.3168108e-05,26.487543"
       id="guide3053" />
    <sodipodi:guide
       orientation="1,0"
       position="60.735705,4.9627046"
       id="guide3055" />
  </sodipodi:namedview>
  <metadata
     id="metadata7">
    <rdf:RDF>
      <cc:Work
         rdf:about="">
        <dc:format>image/svg+xml</dc:format>
        <dc:type
           rdf:resource="http://purl.org/dc/dcmitype/StillImage" />
        <dc:title />
      </cc:Work>
    </rdf:RDF>
  </metadata>
  <g
     inkscape:label="Layer 1"
     inkscape:groupmode="layer"
     id="layer1"
     transform="translate(1.0968201,-989.58746)"
     style="display:inline">
    <g
       id="g3091" />
  </g>
  <g
     inkscape:groupmode="layer"
     id="layer3"
     inkscape:label="qr"
     transform="translate(1.0968201,30.774692)"
     style="display:inline">
    <g
       style="display:inline"
       id="g4187"
       transform="matrix(0.04132601,0,0,0.04132601,130.65805,20.950504)" />
    <g
       inkscape:groupmode="layer"
       id="layer2"
       inkscape:label="qr-d-orig"
       style="display:none"
       sodipodi:insensitive="true">
      <path
         transform="matrix(0.04132601,0,0,0.04132601,130.65805,20.9505)"
         inkscape:connector-curvature="0"
         style="color:#000000;fill:#d40000;fill-opacity:1;fill-rule:nonzero;stroke:none;stroke-width:3;marker:none;visibility:visible;display:inline;overflow:visible;enable-background:accumulate"
         d="m -2838.6978,-1251.6378 0,350 0.125,0 0,-175 0,-175 -0.125,0 z m 50.125,0 0,75 0,75 25,0 25,0 0,-50 0,-50 25,0 25,0 0,-25 0,-25 -50,0 -50,0 z m 50,150 0,50 0,50 25,0 25,0 0,-50 0,-50 -25,0 -25,0 z m 50,100 0,50 0,50 50,0 50,0 0,-75 0,-75 -25,0 -25,0 0,25 0,25 -25,0 -25,0 z m 100,100 0,50 0,50 25,0 25,0 0,25 0,25 -75,0 -75,0 0,25 0,25 25,0 25,0 0,25 0,25 50,0 50,0 0,-25 0,-25 25,0 25,0 0,25 0,25 25,0 25,0 0,-25 0,-25 25,0 25,0 0,-25 0,-25 -50,0 -50,0 0,-25 0,-25 25,0 25,0 0,-25 0,-25 -25,0 -25,0 0,-25 0,-25 25,0 25,0 0,25 0,25 25,0 25,0 0,-25 0,-25 25,0 25,0 0,-25 0,-25 -100,0 -100,0 0,25 0,25 -25,0 -25,0 z m 250,-50 25,0 25,0 0,-75 0,-75 25,0 25,0 0,-25 0,-25 -25,0 -25,0 0,-50 0,-50 -25,0 -25,0 0,25 0,25 -25,0 -25,0 0,50 0,50 -25,0 -25,0 0,25 0,25 50,0 50,0 0,50 0,50 z m 100,-200 25,0 25,0 0,25 0,25 25,0 25,0 0,-25 0,-25 25,0 25,0 0,-50 0,-50 -25,0 -25,0 0,25 0,25 -25,0 -25,0 0,-25 0,-25 -25,0 -25,0 0,50 0,50 z m 100,50 0,25 0,25 -25,0 -25,0 0,-25 0,-25 -25,0 -25,0 0,50 0,50 25,0 25,0 0,25 0,25 -50,0 -50,0 0,25 0,25 50,0 50,0 0,25 0,25 -25,0 -25,0 0,25 0,25 -25,0 -25,0 0,25 0,25 50,0 50,0 0,25 0,25 25,0 25,0 0,-50 0,-50 25,0 25,0 0,100 0,100 25,0 25,0 0,25 0,25 -25,0 -25,0 0,50 0,50 25,0 25,0 0,-25 0,-25 25,0 25,0 0,-75 0,-75 25,0 25,0 0,-25 0,-25 -25,0 -25,0 0,-50 0,-50 25,0 25,0 0,-75 0,-75 25,0 25,0 0,-25 0,-25 -25,0 -25,0 0,-25 0,-25 25,0 25,0 0,25 0,25 75,0 71.1562,0 c -7.7634,-40.916 -23.7298,-78.9944 -46.1562,-112.5625 l 0,12.5625 -25,0 -25,0 0,-25 0,-25 20.625,0 c -17.3229,-18.9106 -36.9794,-35.7239 -58.5312,-50 l -12.0938,0 0,25 0,25 -50,0 -50,0 0,25 0,25 -25,0 -25,0 0,25 0,25 -25,0 -25,0 0,-25 0,-25 -25,0 -25,0 z m 150,-50 0,-25 0,-25 -25,0 -25,0 0,25 0,25 25,0 25,0 z m 0,-50 25,0 25,0 0,-25 0,-6.9062 c -16.0743,-6.1396 -32.7734,-11.0169 -50,-14.5313 l 0,21.4375 0,25 z m 100,250 0,50 0,50 50,0 50,0 0,-25 0,-25 -25,0 -25,0 0,-25 0,-25 -25,0 -25,0 z m -50,300 0,25 0,25 25,0 25,0 0,-25 0,-25 -25,0 -25,0 z m 50,50 0,25 0,25 -25,0 -25,0 0,25 0,25 75,0 75,0 0,25 0,25 -25,0 -25,0 0,25 0,25 50,0 50,0 0,-75 0,-75 -25,0 -25,0 0,-25 0,-25 -50,0 -50,0 z m -50,100 -25,0 -25,0 0,25 0,25 25,0 25,0 0,-25 0,-25 z m -50,50 -25,0 -25,0 0,25 0,25 25,0 25,0 0,-25 0,-25 z m 0,50 0,25 0,25 25,0 25,0 0,25 0,25 25,0 25,0 0,-50 0,-50 -50,0 -50,0 z m 100,100 0,25 0,25 -50,0 -50,0 0,25 0,25 75,0 75,0 0,-25 0,-25 25,0 25,0 0,-25 0,-25 25,0 25,0 0,-25 0,-25 -50,0 -50,0 0,25 0,25 -25,0 -25,0 z m -150,-100 -25,0 -25,0 0,-25 0,-25 -25,0 -25,0 0,-25 0,-25 -25,0 -25,0 0,25 0,25 -25,0 -25,0 0,25 0,25 50,0 50,0 0,50 0,50 50,0 50,0 0,-50 0,-50 z m -200,0 -25,0 -25,0 0,-25 0,-25 -25,0 -25,0 0,50 0,50 -25,0 -25,0 0,25 0,25 25,0 25,0 0,25 0,25 25,0 25,0 0,-25 0,-25 25,0 25,0 0,-50 0,-50 z m 0,100 0,25 0,25 25,0 25,0 0,-25 0,-25 -25,0 -25,0 z m -100,50 -50,0 -50,0 0,25 0,25 50,0 50,0 0,-25 0,-25 z m -50,-100 0,-75 0,-75 50,0 50,0 0,-25 0,-25 -100,0 -100,0 0,-50 0,-50 -25,0 -25,0 0,25 0,25 -50,0 -50,0 0,-25 0,-25 -25,0 -25,0 0,-25 0,-25 -25,0 -25,0 0,25 0,25 -25,0 -25,0 0,25 0,25 -25,0 -25,0 0,25 0,25 125,0 125,0 0,25 0,25 -25,0 -25,0 0,50 0,50 25,0 25,0 0,25 0,25 25,0 25,0 0,-50 0,-50 25,0 25,0 0,-25 0,-25 25,0 25,0 0,50 0,50 -25,0 -25,0 0,25 0,25 50,0 50,0 z m -100,0 -25,0 -25,0 0,25 0,25 25,0 25,0 0,-25 0,-25 z m -50,50 -50,0 -50,0 0,-25 0,-25 -75,0 -75,0 0,25 0,25 50,0 50,0 0,25 0,25 -100,0 -50.125,0 0,50 75.125,0 175,0 0,-25 0,-25 25,0 25,0 0,-25 0,-25 z m -50,100 0,49.8125 50,0 0,-49.8125 -25,0 -25,0 z m -200,-150 0,-25 0,-25 -25,0 -25,0 0,25 0,25 25,0 25,0 z m -50,0 -0.125,0 0,50 0.125,0 0,-25 0,-25 z m 0,-50 0,-25 0,-25 -0.125,0 0,50 0.125,0 z m 0,-150 -0.125,0 0,50 0.125,0 0,-25 0,-25 z m 0,-50 0,-25 0,-25 -0.125,0 0,50 0.125,0 z m 100,-100 0,-25 0,-25 -25,0 -25,0 0,25 0,25 25,0 25,0 z m 450,150 25,0 25,0 0,-25 0,-25 -25,0 -25,0 0,25 0,25 z m 0,-50 0,-25 0,-25 50,0 50,0 0,-25 0,-25 -75,0 -75,0 0,50 0,50 25,0 25,0 z m 50,50 0,25 0,25 25,0 25,0 0,-25 0,-25 -25,0 -25,0 z m 50,0 50,0 50,0 0,-25 0,-25 -50,0 -50,0 0,25 0,25 z m -50,50 -25,0 -25,0 0,25 0,25 25,0 25,0 0,-25 0,-25 z m -50,-300 0,-50 0,-50 -25,0 -25,0 0,50 0,50 25,0 25,0 z m -150,150 0,25 0,25 25,0 25,0 0,-25 0,-25 -25,0 -25,0 z m -250,-250 -25,0 -25,0 0,-50 0,-50 -25,0 -25,0 0,75 0,75 -50,0 -0.125,0 0,50 25.125,0 75,0 0,-25 0,-25 25,0 25,0 0,-25 0,-25 z m 0,50 0,25 0,25 25,0 25,0 0,-25 0,-25 -25,0 -25,0 z m 100,-400 0,25 0,25 -25,0 -25,0 0,25 0,25 25,0 25,0 0,25 0,25 25,0 25,0 0,-25 0,-25 25,0 25,0 0,-50 0,-50 -50,0 -50,0 z m 50,150 0,50 0,50 25,0 25,0 0,-50 0,-50 -25,0 -25,0 z m 400,100 75,0 75,0 0,75 0,75 -75,0 -75,0 0,-75 0,-75 z m 50,50 0,25 0,25 25,0 25,0 0,-25 0,-25 -25,0 -25,0 z m 200,150 0,50 0,50 25,0 25,0 0,25 0,25 25,0 25,0 0,-25 0,-25 25,0 25,0 0,-25 0,-25 -25,0 -25,0 0,-25 0,-25 -50,0 -50,0 z m -950.125,50 0,50 0.125,0 0,-25 0,-25 -0.125,0 z m 100.125,250 0,50 0,50 25,0 25,0 0,-50 0,-50 -25,0 -25,0 z m 600,250 0,25 0,25 25,0 25,0 0,-25 0,-25 -25,0 -25,0 z"
         id="path3064" />
    </g>
    <text
       xml:space="preserve"
       style="font-size:20px;font-style:normal;font-variant:normal;font-weight:normal;font-stretch:normal;text-align:start;line-height:125%;letter-spacing:0px;word-spacing:0px;writing-mode:lr-tb;text-anchor:start;fill:#000000;fill-opacity:1;stroke:none;font-family:DejaVu Sans;-inkscape-font-specification:DejaVu Sans"
       x="33.96162"
       y="18.71612"
       id="text2996"
       sodipodi:linespacing="125%"><tspan
         sodipodi:role="line"
         id="tspan2998"
         x="33.96162"
         y="18.71612" /></text>
    <g
       id="g3024"
       transform="matrix(2.1851612,0,0,2.1851612,12.824479,47.052141)">
      <g
         id="g4373">
        <text
           sodipodi:linespacing="125%"
           id="text3000"
           y="12.99073"
           x="31.300013"
           style="font-size:20px;font-style:normal;font-variant:normal;font-weight:bold;font-stretch:normal;text-align:start;line-height:125%;letter-spacing:0px;word-spacing:0px;writing-mode:lr-tb;text-anchor:start;fill:#b92d2d;fill-opacity:1;stroke:none;font-family:Universalis ADF Std;-inkscape-font-specification:Universalis ADF Std Bold"
           xml:space="preserve"><tspan
             sodipodi:role="line"
             id="tspan3004"
             x="31.300013"
             y="12.99073">ata</tspan></text>
        <text
           xml:space="preserve"
           style="font-size:20px;font-style:normal;font-variant:normal;font-weight:bold;font-stretch:normal;text-align:start;line-height:125%;letter-spacing:0px;word-spacing:0px;writing-mode:lr-tb;text-anchor:start;fill:#2db967;fill-opacity:1;stroke:none;font-family:Universalis ADF Std;-inkscape-font-specification:Universalis ADF Std Bold"
           x="32.245232"
           y="29.656803"
           id="text3006"
           sodipodi:linespacing="125%"><tspan
             y="29.656803"
             x="32.245232"
             id="tspan3008"
             sodipodi:role="line">ad</tspan></text>
      </g>
    </g>
    <text
       xml:space="preserve"
       style="font-size:28px;font-style:normal;font-variant:normal;font-weight:normal;font-stretch:normal;text-align:start;line-height:125%;letter-spacing:0px;word-spacing:0px;writing-mode:lr-tb;text-anchor:start;fill:#000000;fill-opacity:1;stroke:none;font-family:DejaVu Sans;-inkscape-font-specification:DejaVu Sans"
       x="82"
       y="80"
       id="text3010"
       sodipodi:linespacing="125%"><tspan
         sodipodi:role="line"
         id="tspan3012"
         x="82"
         y="80" /></text>
    <path
       style="color:#000000;fill:#d8382d;fill-opacity:1;fill-rule:nonzero;stroke:none;stroke-width:3;marker:none;visibility:visible;display:inline;overflow:visible;enable-background:accumulate"
       d="m 16.5,0 0,3.09375 0,3.09375 1.0625,0 1.03125,0 0,-2.0625 0,-2.0625 1.03125,0 1.03125,0 0,-1.03125 0,-1.03125 -2.0625,0 z m 2.09375,6.1875 0,2.0625 0,2.09375 1.03125,0 1.03125,0 0,-2.09375 0,-2.0625 -1.03125,0 z m 2.0625,4.15625 0,2.0625 0,2.0625 2.0625,0 2.0625,0 0,-3.09375 0,-3.125 -1.03125,0 -1.03125,0 0,1.0625 0,1.03125 -1.03125,0 z m 4.125,4.125 0,2.0625 0,2.0625 c 2.0625,0 4.125,0 6.1875,0 l 0,-1.03125 0,-1.03125 -1.03125,0 -1.03125,0 0,-1.03125 0,-1.03125 1.03125,0 1.03125,0 0,1.03125 0,1.03125 1.03125,0 1.03125,0 0,-1.03125 0,-1.03125 1.03125,0 1.0625,0 0,-1.03125 0,-1.03125 -4.15625,0 -4.125,0 0,1.03125 0,1.03125 -1.03125,0 z m 10.34375,-2.0625 1.03125,0 1.03125,0 0,-3.09375 0,-3.125 1.03125,0 1.03125,0 0,-1.03125 0,-1.03125 -1.03125,0 -1.03125,0 0,-2.0625 0,-2.0625 -1.03125,0 -1.03125,0 0,1.03125 0,1.03125 -1.0625,0 -1.03125,0 0,2.0625 0,2.0625 -1.03125,0 -1.03125,0 0,1.03125 0,1.03125 2.0625,0 2.09375,0 0,2.09375 z M 39.25,4.125 l 1.03125,0 1.03125,0 0,1.03125 0,1.03125 1.03125,0 1.03125,0 0,-1.03125 0,-1.03125 1.03125,0 1.03125,0 0,-2.0625 0,-2.0625 -1.03125,0 -1.03125,0 0,1.03125 0,1.03125 -1.03125,0 -1.03125,0 0,-1.03125 0,-1.03125 -1.03125,0 -1.03125,0 0,2.0625 z m 4.125,2.0625 0,1.03125 0,1.03125 -1.03125,0 -1.03125,0 0,-1.03125 0,-1.03125 -1.03125,0 -1.03125,0 0,2.0625 0,2.09375 1.03125,0 1.03125,0 0,1.03125 0,1.03125 -2.0625,0 -2.0625,0 0,1.03125 0,1.03125 2.0625,0 2.0625,0 0,1.03125 0,1.03125 -1.03125,0 -1.03125,0 0,1.03125 0,1.03125 2.0625,0 c 0,1.375 0,2.75 0,4.125 l 1.03125,0 1.03125,0 c 0,-1.375 0,-2.75 0,-4.125 l 1.03125,0 1.03125,0 0,4.125 0,4.15625 1.03125,0 1.03125,0 0,1.03125 0,1.03125 -1.03125,0 -1.03125,0 0,2.0625 0,2.0625 1.03125,0 1.03125,0 0,-1.03125 0,-1.03125 1.03125,0 1.03125,0 0,-3.09375 0,-3.125 1.03125,0 1.0625,0 0,-1.03125 0,-1.03125 -1.0625,0 -1.03125,0 0,-2.0625 0,-2.0625 1.03125,0 1.0625,0 0,-3.09375 0,-3.09375 1.03125,0 1.03125,0 0,-1.03125 0,-1.03125 -1.03125,0 -1.03125,0 0,-1.03125 0,-1.0625 1.03125,0 1.03125,0 0,1.0625 0,1.03125 3.09375,0 2.9375,0 C 59.42917,8.652855 58.770544,7.0747356 57.84375,5.6875 l 0,0.5 -1.03125,0 -1.03125,0 0,-1.03125 0,-1.03125 0.84375,0 C 55.909114,3.3435004 55.1094,2.6524743 54.21875,2.0625 l -0.5,0 0,1.03125 0,1.03125 -2.0625,0 -2.09375,0 0,1.03125 0,1.03125 -1.03125,0 -1.03125,0 0,1.03125 0,1.03125 -1.03125,0 -1.03125,0 0,-1.03125 0,-1.03125 -1.03125,0 z m 6.1875,-2.0625 0,-1.03125 0,-1.03125 -1.03125,0 -1.03125,0 0,1.03125 0,1.03125 1.03125,0 z m 0,-2.0625 1.03125,0 1.0625,0 0,-1.03125 0,-0.28125 C 50.991963,0.49627483 50.274407,0.30148613 49.5625,0.15625 l 0,0.875 z m 4.15625,10.34375 0,2.0625 0,2.0625 2.0625,0 2.0625,0 0,-1.03125 0,-1.03125 -1.03125,0 -1.03125,0 0,-1.03125 0,-1.03125 -1.03125,0 z m -2.0625,12.375 0,1.0625 0,1.03125 1.03125,0 1.03125,0 0,-1.03125 0,-1.0625 -1.03125,0 z m 2.0625,2.09375 0,1.03125 0,1.03125 -1.03125,0 -1.03125,0 0,1.03125 0,1.03125 3.09375,0 3.09375,0 0,1.03125 0,1.03125 -1.03125,0 -1.03125,0 0,1.03125 0,1.03125 2.0625,0 2.0625,0 0,-3.09375 0,-3.09375 -1.03125,0 -1.03125,0 0,-1.03125 0,-1.03125 -2.0625,0 z m -2.0625,4.125 -1.0625,0 -1.03125,0 0,1.03125 0,1.03125 1.03125,0 1.0625,0 0,-1.03125 z m -2.09375,2.0625 -1.03125,0 -1.03125,0 0,1.03125 0,1.03125 1.03125,0 1.03125,0 0,-1.03125 z m 0,2.0625 0,1.03125 0,1.03125 1.03125,0 1.0625,0 0,1.03125 0,1.03125 1.03125,0 1.03125,0 0,-2.0625 0,-2.0625 -2.0625,0 z m 4.15625,4.125 0,1.03125 0,1.03125 -2.0625,0 -2.09375,0 0,1.03125 0,1.0625 3.125,0 3.09375,0 0,-1.0625 0,-1.03125 1.03125,0 1.03125,0 0,-1.03125 0,-1.03125 1.03125,0 1.03125,0 0,-1.03125 0,-1.03125 -2.0625,0 -2.0625,0 0,1.03125 0,1.03125 -1.03125,0 z M 47.5,35.125 l -1.03125,0 -1.03125,0 0,-1.03125 0,-1.03125 -1.03125,0 -1.03125,0 0,-1.03125 0,-1.03125 -1.03125,0 -1.03125,0 c 0,1.375 0,2.75 0,4.125 l 2.0625,0 c 0,1.375 0,2.75 0,4.125 l 2.0625,0 2.0625,0 0,-2.0625 z m -2.0625,-6.1875 0,-1.03125 0,-1.03125 -2.0625,0 -2.0625,0 0,2.0625 2.0625,0 z m -8.25,-14.46875 -1.03125,0 -1.03125,0 0,2.0625 0,2.0625 2.0625,0 0,-2.0625 z m -16.53125,0 -1.03125,0 -1.03125,0 0,-2.0625 0,-2.0625 -1.03125,0 -1.0625,0 0,3.09375 0,3.09375 -2.0625,0 0,2.0625 1.03125,0 3.125,0 0,-1.03125 0,-1.03125 1.03125,0 1.03125,0 0,-1.03125 z m 0,2.0625 0,1.03125 0,1.03125 2.0625,0 0,-1.03125 0,-1.03125 -1.03125,0 z M 24.78125,0 l 0,1.03125 0,1.03125 -1.03125,0 -1.03125,0 0,1.03125 0,1.03125 1.03125,0 1.03125,0 0,1.03125 0,1.03125 1.03125,0 1.03125,0 0,-1.03125 0,-1.03125 1.03125,0 1.03125,0 0,-2.0625 0,-2.0625 -2.0625,0 z m 2.0625,6.1875 0,2.0625 0,2.09375 1.03125,0 1.03125,0 0,-2.09375 0,-2.0625 -1.03125,0 z m 16.53125,4.15625 3.09375,0 3.09375,0 0,3.09375 0,3.09375 -3.09375,0 -3.09375,0 0,-3.09375 z m 2.0625,2.0625 0,1.03125 0,1.03125 1.03125,0 1.03125,0 0,-1.03125 0,-1.03125 -1.03125,0 z m 8.28125,6.1875 0,2.0625 0,2.0625 1.03125,0 1.03125,0 0,1.03125 0,1.03125 1.03125,0 1.03125,0 0,-1.03125 0,-1.03125 1.03125,0 1.03125,0 0,-1.03125 0,-1.03125 -1.03125,0 -1.03125,0 0,-1.03125 0,-1.03125 -2.0625,0 z M 16.5,20.65625 l 0,1.03125 0,1.03125 1.0625,0 1.03125,0 0,-1.03125 0,-1.03125 -1.03125,0 z m 0,4.125 0,1.0625 0,1.03125 -1.03125,0 -1.03125,0 0,1.03125 0,1.03125 4.15625,0 0,-4.15625 -1.03125,0 z m -2.0625,10.34375 0,1.03125 0,1.03125 1.03125,0 1.03125,0 0,-1.03125 0,-1.03125 -1.03125,0 z m 2.0625,2.0625 0,1.03125 0,1.03125 2.09375,0 0,-2.0625 z m -2.0625,4.125 0,2.09375 3.125,0 7.21875,0 0,-1.0625 0,-1 C 21.376166,41.36943 17.616935,41.31058 14.4375,41.3125 z m 10.34375,2.09375 0,2.03125 2.0625,0 0,-2.03125 -1.03125,0 z M 43.375,41.3125 c 0,0.697917 0,1.395833 0,2.09375 0.6875,0 1.375,0 2.0625,0 0,-0.697917 0,-1.395833 0,-2.09375 -0.6875,0 -1.375,0 -2.0625,0 z m -12.40625,0.03125 0,1 0,1.0625 2.0625,0 2.09375,0 0,-1.0625 0,-1 z"
       transform="translate(-1.0968201,-30.774692)"
       id="path4628"
       inkscape:connector-curvature="0"
       sodipodi:nodetypes="ccccccccccccccccccccccccccccccccccccccccccccccccccccccccccccccccccccccccccccccccccccccccccccccccccccccccccccccccccccccccccccccccccccccccccccccccccccccccccccccccccccccccccccccccccccccccccccccccccccccccccccccccccccccccccccccccccccccccccccccccccccccccccccccccccccccccccccccccccccccccccccccccccccccccccccccccccccccccccccccccccccccccccccccccccccccccccccccccccccccccccccccccccccccccccccccccccccccccccccccccccccccccccccccccccccccccccccccccccccccccccccccccccccccccccccccccccccccccccccccccccccccccccccccccccccccccccccccccccccccccccccccccccc" />
    <g
       id="g3177">
      <path
         style="color:#000000;fill:#40bf4c;fill-opacity:1;fill-rule:nonzero;stroke:none;stroke-width:3;marker:none;visibility:visible;display:inline;overflow:visible;enable-background:accumulate"
         d="m -3188.1827,-1251.6378 0,175 0,175 175,0 174.875,0 0,-350 -174.875,0 -175,0 z m 50,50 125,0 125,0 0,125 0,125 -125,0 -125,0 0,-125 0,-125 z m 50,50 0,75 0,75 75,0 75,0 0,-75 0,-75 -75,0 -75,0 z m -100,300 0,25 0,25 25,0 25,0 0,-25 0,-25 -25,0 -25,0 z m 50,50 0,25 0,25 -25,0 -25,0 0,25 0,25 50,0 50,0 0,-25 0,-25 50,0 50,0 0,25 0,25 75,0 74.875,0 0,-50 -49.875,0 -50,0 0,-50 0,-50 -25,0 -25,0 0,25 0,25 -25,0 -25,0 0,-25 0,-25 -25,0 -25,0 0,25 0,25 -25,0 -25,0 z m 150,100 -25,0 -25,0 0,25 0,25 25,0 25,0 0,-25 0,-25 z m 100,-150 0,25 0,25 49.875,0 0,-50 -49.875,0 z m -300,200 0,25 0,25 50,0 50,0 0,-25 0,-25 -50,0 -50,0 z m 100,50 0,50 0,50 50,0 50,0 0,25 0,25 50,0 50,0 0,-25 0,-25 25,0 24.875,0 0,-50 -24.875,0 -25,0 0,-25 0,-25 25,0 24.875,0 0,-50 -49.875,0 -50,0 0,50 0,50 -25,0 -25,0 0,-25 0,-25 -50,0 -50,0 z m 200,150 0,25 0,25 25,0 24.875,0 0,-50 -24.875,0 -25,0 z m -200,-50 -25,0 -25,0 0,-25 0,-25 -25,0 -25,0 0,50 0,50 25,0 25,0 0,50 0,50 -25,0 -25,0 0,75 0,75 75,0 75,0 0,-25 0,-25 25,0 25,0 0,-50 0,-50 25,0 25,0 0,-25 0,-25 -50,0 -50,0 0,50 0,50 -25,0 -25,0 0,-50 0,-50 25,0 25,0 0,-25 0,-25 -25,0 -25,0 0,-25 0,-25 z m 200,150 0,25 0,25 25,0 24.875,0 0,-50 -24.875,0 -25,0 z m 0,50 -25,0 -25,0 0,50 0,50 99.875,0 0,-50 -49.875,0 0,-25 0,-25 z m 300,149.8125 0,0.1875 0,50 25,0 25,0 0,-50 0,-0.1875 -50,0 z m 50,50.1875 0,25 0,25 75,0 75,0 0,-25 0,-25 -25,0 -25,0 0,-25 0,-25 -25,0 -25,0 0,25 0,25 -25,0 -25,0 z m 150,0 25,0 25,0 0,-25 0,-25 -25,0 -25,0 0,25 0,25 z m 0,50 0,25 0,25 -25,0 -25,0 0,25 0,25 -25,0 -25,0 0,-25 0,-25 -25,0 -25,0 0,-25 0,-25 -25,0 -25,0 0,50 0,50 25,0 25,0 0,25 0,25 75,0 75,0 0,-25 0,-25 25,0 25,0 0,-25 0,-25 25,0 25,0 0,25 0,25 -25,0 -25,0 0,75 0,75 100,0 100,0 0,-25 0,-25 -75,0 -75,0 0,-25 0,-25 75,0 75,0 0,-25 0,-25 -50,0 -50,0 0,-50 0,-50 -75,0 -75,0 z m -150,150 -25,0 -25,0 0,-25 0,-25 -25,0 -25,0 0,50 0,50 50,0 50,0 0,-25 0,-25 z m 0,50 0,25 0,25 75,0 75,0 0,-25 0,-25 -75,0 -75,0 z m -100,0 -50,0 -50,0 0,25 0,25 50,0 50,0 0,-25 0,-25 z m -550,-300 0,175 0,175 175,0 175,0 0,-175 0,-175 -175,0 -175,0 z m 400,0 0,25 0,25 25,0 25,0 0,-25 0,-25 -25,0 -25,0 z m 50,50 0,25 0,25 25,0 25,0 0,-25 0,-25 -25,0 -25,0 z m 50,0 25,0 25,0 0,-25 0,-25 -25,0 -25,0 0,25 0,25 z m 0,50 0,25 0,25 25,0 25,0 0,-25 0,-25 -25,0 -25,0 z m -50,0 -25,0 -25,0 0,75 0,75 50,0 50,0 0,-25 0,-25 -25,0 -25,0 0,-50 0,-50 z m 450,-100 0,25 0,25 25,0 25,0 0,-25 0,-25 -25,0 -25,0 z m 100,0 0,25 0,25 25,0 25,0 0,-25 0,-25 -25,0 -25,0 z m 100,0 0,175 0,175 175,0 175,0 0,-175 0,-175 -175,0 -175,0 z m -1050,50 125,0 125,0 0,125 0,125 -125,0 -125,0 0,-125 0,-125 z m 1100,0 125,0 125,0 0,125 0,125 -125,0 -125,0 0,-125 0,-125 z m -1050,50 0,75 0,75 75,0 75,0 0,-75 0,-75 -75,0 -75,0 z m 1100,0 0,75 0,75 75,0 75,0 0,-75 0,-75 -75,0 -75,0 z"
         id="rect3875"
         inkscape:connector-curvature="0"
         transform="matrix(0.04132601,0,0,0.04132601,130.65805,20.950504)" />
    </g>
    <text
       xml:space="preserve"
       style="font-size:7.13590527000000030px;font-style:normal;font-variant:normal;font-weight:normal;font-stretch:normal;text-align:start;line-height:125%;letter-spacing:0px;word-spacing:0px;writing-mode:lr-tb;text-anchor:start;fill:#666666;fill-opacity:1;stroke:none;font-family:Good Times;-inkscape-font-specification:Good Times"
       x="-1.5493817"
       y="35.690159"
       id="text4632"
       sodipodi:linespacing="125%"><tspan
         sodipodi:role="line"
         id="tspan4634"
         x="-1.5493817"
         y="35.690159"><tspan
   style="fill:#666666;fill-opacity:1"
   id="tspan4306">data</tspan>lad<tspan
   style="fill:#666666;fill-opacity:1"
   id="tspan4304">.org</tspan></tspan></text>
    <flowRoot
       xml:space="preserve"
       id="flowRoot4320"
       style="font-size:28px;font-style:normal;font-variant:normal;font-weight:normal;font-stretch:normal;text-align:start;line-height:125%;letter-spacing:0px;word-spacing:0px;writing-mode:lr-tb;text-anchor:start;fill:#000000;fill-opacity:1;stroke:none;font-family:DejaVu Sans;-inkscape-font-specification:DejaVu Sans"
       transform="translate(-1.0968201,-30.774692)"><flowRegion
         id="flowRegion4322"><rect
           id="rect4324"
           width="74.875"
           height="67.125"
           x="-7.625"
           y="-6.5376658" /></flowRegion><flowPara
         id="flowPara4326"></flowPara></flowRoot>    <text
       sodipodi:linespacing="125%"
       id="text4328"
       y="44.175442"
       x="-1.5493817"
       style="font-size:7.13590527px;font-style:normal;font-variant:normal;font-weight:normal;font-stretch:normal;text-align:start;line-height:125%;letter-spacing:0px;word-spacing:0px;writing-mode:lr-tb;text-anchor:start;fill:#40bf4c;fill-opacity:1;stroke:none;font-family:Good Times;-inkscape-font-specification:Good Times"
       xml:space="preserve"><tspan
         y="44.175442"
         x="-1.5493817"
         id="tspan4330"
         sodipodi:role="line"><tspan
   id="tspan4332"
   style="fill:#d8382d;fill-opacity:1">data</tspan>lad<tspan
   id="tspan4334"
   style="fill:#666666;fill-opacity:1">.org</tspan></tspan></text>
    <g
       style="font-size:7.13590527px;font-style:normal;font-variant:normal;font-weight:normal;font-stretch:normal;text-align:start;line-height:125%;letter-spacing:0px;word-spacing:0px;writing-mode:lr-tb;text-anchor:start;fill:#666666;fill-opacity:1;stroke:none;font-family:Good Times;-inkscape-font-specification:Good Times"
       id="text4336">
      <g
         id="g4367"
         style="stroke-width:0.2;stroke-miterlimit:4;stroke-dasharray:none">
        <path
           id="path4345"
           style="fill:#666666;fill-opacity:1;stroke:#666666;stroke-opacity:1;stroke-width:0.2;stroke-miterlimit:4;stroke-dasharray:none"
           d="m 4.2949247,49.374796 c -5.9e-6,0.718349 -0.2331119,1.313008 -0.6993187,1.783976 -0.4614599,0.47097 -1.0466036,0.706455 -1.7554327,0.706455 l -2.74732356,0 0,-4.873824 2.74732356,0 c 0.7183437,5e-6 1.3058659,0.21884 1.7625686,0.656504 0.4614496,0.437672 0.6921769,1.013301 0.6921828,1.726889 M 3.445752,49.446155 C 3.445747,48.975188 3.2935145,48.58985 2.989054,48.290138 2.6893418,47.990434 2.3063819,47.84058 1.8401733,47.840576 l -1.90528674,0 0,3.175478 1.90528674,0 c 0.4662086,1e-6 0.8491685,-0.145096 1.1488807,-0.43529 0.3044605,-0.290192 0.456693,-0.668395 0.456698,-1.134609" />
        <path
           id="path4347"
           style="fill:#666666;fill-opacity:1;stroke:#666666;stroke-opacity:1;stroke-width:0.2;stroke-miterlimit:4;stroke-dasharray:none"
           d="m 11.24931,51.865227 -1.091793,-0.0071 -0.8206294,-1.362958 -2.3120333,0 0.5137852,-0.842037 1.2915989,0 -0.8491728,-1.405773 -2.1978588,3.610768 -1.0917935,0 2.6474209,-4.402854 c 0.066599,-0.11417 0.1593655,-0.21883 0.2783003,-0.31398 0.1427148,-0.109412 0.271161,-0.16412 0.3853388,-0.164125 0.1236855,5e-6 0.2521316,0.05233 0.3853389,0.15699 0.1141705,0.09039 0.2069372,0.197431 0.2783003,0.321115 l 2.5831975,4.40999" />
        <path
           id="path4349"
           style="fill:#666666;fill-opacity:1;stroke:#666666;stroke-opacity:1;stroke-width:0.2;stroke-miterlimit:4;stroke-dasharray:none"
           d="m 14.829193,47.840576 -1.919558,0 0,4.024651 -0.842037,0 0,-4.024651 -1.926695,0 0,-0.849173 4.68829,0 0,0.849173" />
        <path
           id="path4351"
           style="fill:#666666;fill-opacity:1;stroke:#666666;stroke-opacity:1;stroke-width:0.2;stroke-miterlimit:4;stroke-dasharray:none"
           d="m 20.245847,51.865227 -1.091794,-0.0071 -0.820629,-1.362958 -2.312033,0 0.513785,-0.842037 1.291599,0 -0.849173,-1.405773 -2.197858,3.610768 -1.091794,0 2.647421,-4.402854 c 0.0666,-0.11417 0.159365,-0.21883 0.2783,-0.31398 0.142715,-0.109412 0.271161,-0.16412 0.385339,-0.164125 0.123686,5e-6 0.252132,0.05233 0.385339,0.15699 0.11417,0.09039 0.206937,0.197431 0.2783,0.321115 l 2.583198,4.40999" />
      </g>
      <path
         d="m 24.652437,51.865227 -4.203049,0 0,-4.873824 0.849173,0 0,4.024651 3.353876,0 0,0.849173"
         style=""
         id="path4353" />
      <path
         d="m 31.555978,51.865227 -1.091793,-0.0071 -0.82063,-1.362958 -2.312033,0 0.513785,-0.842037 1.291599,0 -0.849173,-1.405773 -2.197858,3.610768 -1.091794,0 2.647421,-4.402854 c 0.0666,-0.11417 0.159366,-0.21883 0.2783,-0.31398 0.142715,-0.109412 0.271161,-0.16412 0.385339,-0.164125 0.123686,5e-6 0.252132,0.05233 0.385339,0.15699 0.114171,0.09039 0.206937,0.197431 0.2783,0.321115 l 2.583198,4.40999"
         style=""
         id="path4355" />
      <path
         d="m 37.354236,49.374796 c -6e-6,0.718349 -0.233112,1.313008 -0.699319,1.783976 -0.46146,0.47097 -1.046604,0.706455 -1.755433,0.706455 l -2.747323,0 0,-4.873824 2.747323,0 c 0.718344,5e-6 1.305866,0.21884 1.762569,0.656504 0.461449,0.437672 0.692177,1.013301 0.692183,1.726889 m -0.849173,0.07136 c -5e-6,-0.470967 -0.152238,-0.856305 -0.456698,-1.156017 -0.299712,-0.299704 -0.682672,-0.449558 -1.148881,-0.449562 l -1.905287,0 0,3.175478 1.905287,0 c 0.466209,1e-6 0.849169,-0.145096 1.148881,-0.43529 0.30446,-0.290192 0.456693,-0.668395 0.456698,-1.134609"
         style=""
         id="path4357" />
      <path
         d="m 38.885332,51.451344 c -2e-6,0.128447 -0.04044,0.233107 -0.121311,0.31398 -0.08087,0.08087 -0.185534,0.12131 -0.313979,0.12131 -0.12369,0 -0.22835,-0.04044 -0.31398,-0.12131 -0.08087,-0.08087 -0.121311,-0.185533 -0.121311,-0.31398 0,-0.123688 0.04044,-0.225969 0.121311,-0.306844 0.08563,-0.08087 0.19029,-0.121309 0.31398,-0.12131 0.128445,10e-7 0.233105,0.04044 0.313979,0.12131 0.08087,0.08087 0.121309,0.183156 0.121311,0.306844"
         style="fill:#666666;fill-opacity:1"
         id="path4359" />
      <path
         d="m 46.194619,49.374796 c -6e-6,0.718349 -0.230734,1.313008 -0.692182,1.783976 -0.461461,0.47097 -1.048983,0.706455 -1.762569,0.706455 l -1.362958,0 c -0.708835,0 -1.296358,-0.235485 -1.762569,-0.706455 -0.461455,-0.470968 -0.692183,-1.065627 -0.692182,-1.783976 -10e-7,-0.713588 0.228348,-1.289217 0.685047,-1.726889 0.461453,-0.437664 1.051354,-0.656499 1.769704,-0.656504 l 1.362958,0 c 0.7231,5e-6 1.313001,0.21884 1.769704,0.656504 0.456692,0.437672 0.685041,1.013301 0.685047,1.726889 m -0.842036,0.07136 c -6e-6,-0.470967 -0.152239,-0.856305 -0.456698,-1.156017 -0.299713,-0.299704 -0.685052,-0.449558 -1.156017,-0.449562 l -1.362958,0 c -0.466215,4e-6 -0.851553,0.149858 -1.156017,0.449562 -0.299709,0.299712 -0.449563,0.68505 -0.449562,1.156017 -1e-6,0.466214 0.149853,0.844417 0.449562,1.134609 0.304464,0.290194 0.689802,0.435291 1.156017,0.43529 l 1.362958,0 c 0.470965,1e-6 0.856304,-0.145096 1.156017,-0.43529 0.304459,-0.290192 0.456692,-0.668395 0.456698,-1.134609"
         style="fill:#666666;fill-opacity:1"
         id="path4361" />
      <path
         d="m 52.609352,51.865227 -1.255919,0 -1.362958,-1.370094 -1.833928,0 0,-0.842037 2.28349,0 c 0.313975,2e-6 0.578003,-0.06898 0.792085,-0.206941 0.242616,-0.161745 0.363926,-0.392472 0.363931,-0.692183 -5e-6,-0.608927 -0.385343,-0.913392 -1.156016,-0.913396 l -2.783003,0 0,4.024651 -0.849173,0 0,-4.873824 3.496593,0 c 0.627956,5e-6 1.134604,0.135587 1.519948,0.406747 0.442421,0.309227 0.663633,0.763546 0.663639,1.362958 -6e-6,0.409128 -0.128452,0.761166 -0.385338,1.056114 -0.237869,0.275923 -0.561363,0.468593 -0.970484,0.578008 l 1.477133,1.469997"
         style="fill:#666666;fill-opacity:1"
         id="path4363" />
      <path
         d="m 58.825841,51.865227 -3.096983,0 c -0.708836,0 -1.296358,-0.235485 -1.762569,-0.706455 -0.461456,-0.470968 -0.692183,-1.065627 -0.692183,-1.783976 0,-0.713588 0.228349,-1.289217 0.685047,-1.726889 0.461454,-0.437664 1.051355,-0.656499 1.769705,-0.656504 l 2.747323,0 0,0.849173 -2.747323,0 c -0.466215,4e-6 -0.851554,0.149858 -1.156017,0.449562 -0.299709,0.299712 -0.449563,0.68505 -0.449562,1.156017 -10e-7,0.466214 0.149853,0.844417 0.449562,1.134609 0.304463,0.290194 0.689802,0.435291 1.156017,0.43529 l 2.24781,0 0,-1.06325 -2.312033,0 0,-0.777814 3.161206,0 0,2.690237"
         style="fill:#666666;fill-opacity:1"
         id="path4365" />
    </g>
    <g
       id="g4379"
       style="font-size:7.13590527px;font-style:normal;font-variant:normal;font-weight:normal;font-stretch:normal;text-align:start;line-height:125%;letter-spacing:0px;word-spacing:0px;writing-mode:lr-tb;text-anchor:start;fill:#666666;fill-opacity:1;stroke:none;font-family:Good Times;-inkscape-font-specification:Good Times"
       transform="matrix(4.6104015,0,0,10.923926,69.7507,-541.02843)">
      <g
         id="g4381"
         transform="matrix(1.1181847,0,0,0.75523453,0.10977476,12.145153)">
        <path
           d="m 4.2949247,49.374796 c -5.9e-6,0.718349 -0.2331119,1.313008 -0.6993187,1.783976 -0.4614599,0.47097 -1.0466036,0.706455 -1.7554327,0.706455 l -2.74732356,0 0,-4.873824 2.74732356,0 c 0.7183437,5e-6 1.3058659,0.21884 1.7625686,0.656504 0.4614496,0.437672 0.6921769,1.013301 0.6921828,1.726889 M 3.445752,49.446155 C 3.445747,48.975188 3.2935145,48.58985 2.989054,48.290138 2.6893418,47.990434 2.3063819,47.84058 1.8401733,47.840576 l -1.90528674,0 0,3.175478 1.90528674,0 c 0.4662086,1e-6 0.8491685,-0.145096 1.1488807,-0.43529 0.3044605,-0.290192 0.456693,-0.668395 0.456698,-1.134609"
           style="fill:#666666;fill-opacity:1;stroke:#666666;stroke-width:0.03066716;stroke-miterlimit:4;stroke-opacity:1;stroke-dasharray:none"
           id="path4383"
           inkscape:connector-curvature="0" />
        <path
           d="m 11.24931,51.865227 -1.091793,-0.0071 -0.8206294,-1.362958 -2.3120333,0 0.5137852,-0.842037 1.2915989,0 -0.8491728,-1.405773 -2.1978588,3.610768 -1.0917935,0 2.6474209,-4.402854 c 0.066599,-0.11417 0.1593655,-0.21883 0.2783003,-0.31398 0.1427148,-0.109412 0.271161,-0.16412 0.3853388,-0.164125 0.1236855,5e-6 0.2521316,0.05233 0.3853389,0.15699 0.1141705,0.09039 0.2069372,0.197431 0.2783003,0.321115 l 2.5831975,4.40999"
           style="fill:#666666;fill-opacity:1;stroke:#666666;stroke-width:0.03066716;stroke-miterlimit:4;stroke-opacity:1;stroke-dasharray:none"
           id="path4385"
           inkscape:connector-curvature="0" />
        <path
           d="m 14.829193,47.840576 -1.919558,0 0,4.024651 -0.842037,0 0,-4.024651 -1.926695,0 0,-0.849173 4.68829,0 0,0.849173"
           style="fill:#666666;fill-opacity:1;stroke:#666666;stroke-width:0.03066716;stroke-miterlimit:4;stroke-opacity:1;stroke-dasharray:none"
           id="path4387"
           inkscape:connector-curvature="0" />
        <path
           d="m 20.245847,51.865227 -1.091794,-0.0071 -0.820629,-1.362958 -2.312033,0 0.513785,-0.842037 1.291599,0 -0.849173,-1.405773 -2.197858,3.610768 -1.091794,0 2.647421,-4.402854 c 0.0666,-0.11417 0.159365,-0.21883 0.2783,-0.31398 0.142715,-0.109412 0.271161,-0.16412 0.385339,-0.164125 0.123686,5e-6 0.252132,0.05233 0.385339,0.15699 0.11417,0.09039 0.206937,0.197431 0.2783,0.321115 l 2.583198,4.40999"
           style="fill:#666666;fill-opacity:1;stroke:#666666;stroke-width:0.03066716;stroke-miterlimit:4;stroke-opacity:1;stroke-dasharray:none"
           id="path4389"
           inkscape:connector-curvature="0" />
      </g>
      <g
         id="g4405"
         transform="matrix(1.1181847,0,0,0.75523453,0.10977476,12.145153)">
        <path
           inkscape:connector-curvature="0"
           d="m 24.652437,51.865227 -4.203049,0 0,-4.873824 0.849173,0 0,4.024651 3.353876,0 0,0.849173"
           id="path4391" />
        <path
           inkscape:connector-curvature="0"
           d="m 31.555978,51.865227 -1.091793,-0.0071 -0.82063,-1.362958 -2.312033,0 0.513785,-0.842037 1.291599,0 -0.849173,-1.405773 -2.197858,3.610768 -1.091794,0 2.647421,-4.402854 c 0.0666,-0.11417 0.159366,-0.21883 0.2783,-0.31398 0.142715,-0.109412 0.271161,-0.16412 0.385339,-0.164125 0.123686,5e-6 0.252132,0.05233 0.385339,0.15699 0.114171,0.09039 0.206937,0.197431 0.2783,0.321115 l 2.583198,4.40999"
           id="path4393" />
        <path
           inkscape:connector-curvature="0"
           d="m 37.354236,49.374796 c -6e-6,0.718349 -0.233112,1.313008 -0.699319,1.783976 -0.46146,0.47097 -1.046604,0.706455 -1.755433,0.706455 l -2.747323,0 0,-4.873824 2.747323,0 c 0.718344,5e-6 1.305866,0.21884 1.762569,0.656504 0.461449,0.437672 0.692177,1.013301 0.692183,1.726889 m -0.849173,0.07136 c -5e-6,-0.470967 -0.152238,-0.856305 -0.456698,-1.156017 -0.299712,-0.299704 -0.682672,-0.449558 -1.148881,-0.449562 l -1.905287,0 0,3.175478 1.905287,0 c 0.466209,10e-7 0.849169,-0.145096 1.148881,-0.43529 0.30446,-0.290192 0.456693,-0.668395 0.456698,-1.134609"
           id="path4395" />
      </g>
    </g>
  </g>
</svg>
