<?xml version="1.0" encoding="UTF-8" standalone="no"?>
<!-- Created with Inkscape (http://www.inkscape.org/) -->

<svg
   width="149.64867mm"
   height="89.86837mm"
   viewBox="0 0 149.64867 89.86837"
   version="1.1"
   id="svg1126"
   inkscape:version="1.1.1 (c3084ef, 2021-09-22)"
   sodipodi:docname="console.svg"
   xmlns:inkscape="http://www.inkscape.org/namespaces/inkscape"
   xmlns:sodipodi="http://sodipodi.sourceforge.net/DTD/sodipodi-0.dtd"
   xmlns="http://www.w3.org/2000/svg"
   xmlns:svg="http://www.w3.org/2000/svg">
  <sodipodi:namedview
     id="namedview1128"
     pagecolor="#ffffff"
     bordercolor="#666666"
     borderopacity="1.0"
     inkscape:pageshadow="2"
     inkscape:pageopacity="0"
     inkscape:pagecheckerboard="true"
     inkscape:document-units="mm"
     showgrid="false"
     inkscape:zoom="5.4214112"
     inkscape:cx="508.44695"
     inkscape:cy="337.45826"
     inkscape:window-width="1440"
     inkscape:window-height="773"
     inkscape:window-x="232"
     inkscape:window-y="127"
     inkscape:window-maximized="0"
     inkscape:current-layer="layer1" />
  <defs
     id="defs1123" />
  <g
     inkscape:label="Layer 1"
     inkscape:groupmode="layer"
     id="layer1"
     transform="translate(-44.346944,-76.513548)">
    <path
       d="M 191.90469,76.513548 H 46.437844 a 2.0932232,1.6838976 0 0 0 -2.0909,1.682025 v 86.504307 a 2.0932232,1.6838976 0 0 0 2.0909,1.68204 H 191.90469 a 2.0932232,1.6838976 0 0 0 2.09092,-1.68204 V 78.195573 a 2.0932232,1.6838976 0 0 0 -2.09092,-1.682025 z m 1.49351,88.186332 a 1.4940969,1.2019293 0 0 1 -1.49351,1.20145 H 46.437844 a 1.4940969,1.2019293 0 0 1 -1.493499,-1.20145 V 78.195573 a 1.4940969,1.2019293 0 0 1 1.493499,-1.201442 H 191.90469 a 1.4940969,1.2019293 0 0 1 1.49351,1.201442 z"
       fill="#3f3d56"
       id="path1215"
       style="stroke-width:0.267907;fill:#000000;fill-opacity:1" />
    <rect
       x="44.645645"
       y="83.251251"
       width="149.05125"
       height="0.48057947"
       fill="#3f3d56"
       id="rect1217"
       style="stroke-width:0.267907" />
    <circle
       cx="47.946606"
       cy="79.817085"
       fill="#3f3d56"
       id="circle1219"
       style="stroke-width:0.274596"
       r="1.647578" />
    <circle
       cx="52.683392"
       cy="79.817085"
       fill="#3f3d56"
       id="circle1221"
       style="stroke-width:0.274596"
       r="1.647578" />
    <circle
       cx="57.420181"
       cy="79.817085"
       fill="#3f3d56"
       id="circle1223"
       style="stroke-width:0.274596"
       r="1.647578" />
    <path
       style="opacity:0.897106;fill:#000000;fill-opacity:0.315789;stroke-width:1.0206;stroke-dasharray:4.08237, 1.0206;stroke-opacity:0.251012"
       d="m 45.522396,165.41785 c -0.362407,-0.29153 -0.472263,-9.82851 -0.472263,-40.99906 V 83.799649 h 73.988097 73.98808 v 40.806891 c 0,36.91849 -0.0593,40.8252 -0.62251,40.99906 -0.34239,0.10569 -33.4245,0.19216 -73.51582,0.19216 -56.170067,0 -73.001667,-0.0872 -73.365584,-0.37991 z"
       id="path1735" />
    <path
       style="opacity:0.897106;fill:#000000;fill-opacity:1;stroke:none;stroke-width:1.02819;stroke-dasharray:4.11277, 1.02819;stroke-opacity:0.251012"
       d="m 72.713074,165.96174 -27.658845,-0.0317 -0.472095,-3.23918 0.127159,-6.13162 -0.06011,-4.79085 -0.06011,-4.79086 c -0.132238,-10.53989 0.09999,-29.38349 0.0689,-41.46044 l -0.05652,-21.958056 h 74.498297 74.49831 l 0.36744,41.486236 c 0.0499,5.6322 -0.0841,11.01409 -0.13193,15.92041 -0.0478,4.90632 -0.0986,9.33712 -0.14896,13.06731 -0.0504,3.73019 -0.1007,6.75977 -0.14772,8.86364 -0.047,2.10387 -0.26717,2.99822 -0.30461,3.02557 -0.37589,0.27449 -86.89274,0.23467 -120.519205,0.0395 z"
       id="path1996"
       sodipodi:nodetypes="cccccsscccssssssc" />
  </g>
</svg>
