<svg xmlns="http://www.w3.org/2000/svg" viewBox="0 0 381.982 205.331">
  <text xml:space="preserve" transform="translate(10.652 24.674) scale(.26458)"><tspan x="1811.955" y="520.7"><tspan dx="0 27.969 24.297 11.016 11.016 24.063 24.922 24.297 17.109 24.063 15.781">Collaborate</tspan></tspan></text>
  <text xml:space="preserve" transform="translate(10.652 24.674) scale(.26458)"><tspan x="1582.594" y="513.056"><tspan dx="0 27.969 24.297 11.016 11.016 24.063 24.922 24.297 17.109 24.063 15.781 23.828">Collaborate
</tspan></tspan></text>
  <g transform="translate(385.014 54.687) scale(1.16247)">
    <g opacity=".608" transform="translate(-138.96 -154.83) scale(1.41363)">
      <path fill="#e5e5e5" d="M23.83 112.428H-5.35a.88.88 0 0 1-.879-.88v-9.843a.88.88 0 0 1 .88-.879H23.83a.88.88 0 0 1 .879.879v9.844a.88.88 0 0 1-.88.879z"/>
      <path fill="#fff" d="M-1.659 103.463h7.734v.879h-7.734z"/>
      <circle cx="16.271" cy="103.99" r=".527" fill="#fba304"/>
      <circle cx="18.029" cy="103.99" r=".527" fill="#fba304"/>
      <circle cx="19.787" cy="103.99" r=".527" fill="#fba304"/>
      <path fill="#e5e5e5" d="M23.83 124.908H-5.35a.88.88 0 0 1-.879-.879v-9.844a.88.88 0 0 1 .88-.878H23.83a.88.88 0 0 1 .879.878v9.844a.88.88 0 0 1-.88.88z"/>
      <path fill="#fff" d="M-1.659 115.943h7.734v.879h-7.734z"/>
      <circle cx="16.271" cy="116.471" r=".527" fill="#fba304"/>
      <circle cx="18.029" cy="116.471" r=".527" fill="#fba304"/>
      <circle cx="19.787" cy="116.471" r=".527" fill="#fba304"/>
      <path fill="#e5e5e5" d="M23.83 137.389H-5.35a.88.88 0 0 1-.879-.88v-9.843a.88.88 0 0 1 .88-.879H23.83a.88.88 0 0 1 .879.879v9.844a.88.88 0 0 1-.88.879z"/>
      <path fill="#fff" d="M-1.659 128.424h7.734v.879h-7.734z"/>
      <circle cx="16.271" cy="128.951" r=".527" fill="#fba304"/>
      <circle cx="18.029" cy="128.951" r=".527" fill="#fba304"/>
      <circle cx="19.787" cy="128.951" r=".527" fill="#fba304"/>
    </g>
    <g fill="#cbcbda" data-name="Group 100">
      <path d="M-112.378 35.389a1.143 1.143 0 1 0 1.144 1.143 1.143 1.143 0 0 0-1.144-1.143zm0 1.847a.704.704 0 1 1 .704-.704.704.704 0 0 1-.704.704z" data-name="Path 1465"/>
      <path d="M-116.776 34.509h4.398v4.353a.573.573 0 0 1-.573.572h-3.252a.573.573 0 0 1-.573-.572z" data-name="Path 1467"/>
    </g>
    <path fill="#cacaca" d="M-103.583 39.571h-51.966a.079.119 0 0 1 0-.236h51.966a.079.119 0 0 1 0 .236z" data-name="Path 944"/>
    <path fill="#ffb6b6" d="m-145.478 37.943 7.602 2.539.603-2.984-7.796-1.577z"/>
    <path fill="#2f2e41" d="m-144.305 35.54-.805 3.98a2.588 2.588 0 0 1-3.05 2.024l-.083-.017 1.318-6.518z"/>
    <circle cx="-136.455" cy="2.915" r="5.162" fill="#feb8b8" data-name="Ellipse 276"/>
    <path fill="#2f2e41" d="M-131.633-1.538a5.962 5.962 0 0 0-3.392-2.593l-.634.463v-.6a5.488 5.488 0 0 0-1.025-.06l-.546.494v-.453a5.905 5.905 0 0 0-4.074 2.423c-1.187 1.711-1.387 4.093-.22 5.818.321-.985.71-1.91 1.03-2.895a2.916 2.916 0 0 0 .76.004l.39-.91.11.872a51.246 51.246 0 0 0 4.147-.549l-.111-.668.667.555c.35-.08.56-.154.542-.21.852 1.374 1.895 2.252 2.748 3.626.323-1.938.696-3.549-.392-5.317z" data-name="Path 1461"/>
    <ellipse cx="-134.775" cy="32.976" fill="#2f2e41" data-name="Ellipse 260" rx="13.291" ry="3.718"/>
    <path fill="#fba304" d="M-125.353 16.19c-.177-1.068-.36-2.157-.857-3.119-.326-.63-.844-1.23-1.542-1.355a1.492 1.492 0 0 1-.401-.093 139.984 139.984 0 0 1-3.39-1.94c-.375-.235-.967-.67-1.266-.67-.3-.006-1.452.262-5.947-.09a16.235 16.235 0 0 0-2.19 1.077c-.014-.01-4.665 2.488-4.84 2.482-.331-.014-.639.198-.828.464-.19.267-.279.597-.372.917 1.016 2.262 1.945 4.527 2.961 6.79a.58.58 0 0 1 .074.278.68.68 0 0 1-.127.279c-.498.8-.482 1.807-.428 2.747.055.94.122 1.934-.298 2.778-.115.231-.263.443-.372.674-.255.525-.347 2.201-.198 2.765l18.636.533c-.4-1.1 1.385-14.518 1.385-14.518z"/>
    <path fill="#fbbebe" d="M-148.597 20.753a3.29 3.29 0 0 0-.011.811l.267 3.836c.025.362.05.722.084 1.083.064.7.16 1.394.278 2.088a.372.372 0 0 0 .381.361c1.176.249 2.39.239 3.59.171 1.832-.102 6.516-.295 6.803-.667.286-.372.12-.973-.254-1.274-.373-.3-6.555-1.034-6.555-1.034.06-.478.242-.929.415-1.383.31-.807.6-1.64.606-2.503.006-.863-.32-1.771-1.027-2.266-.582-.406-1.33-.481-2.04-.464-.516.014-1.407-.11-1.878.093-.373.164-.59.783-.659 1.148z" data-name="Path 1421"/>
    <path fill="#2f2e41" d="M-125.32 29.424c.31-.118.651-.075.983-.03 1.068.145 2.152.295 3.141.721.465.2.908.465 1.222.856.278.353.441.784.596 1.209l.357.977a4.707 4.707 0 0 1 .31 1.146c.112 1.17-.688 2.274-1.694 2.882-1.007.608-2.192.824-3.347 1.051a107.32 107.32 0 0 0-3.463.744 13.94 13.94 0 0 1-1.629.32c-1.23.14-2.517-.066-3.686.341-.465.163-.921.405-1.403.517a8.732 8.732 0 0 1-.97.148l-2.214.253a12.072 12.072 0 0 1-1.357.104c-.966 0-1.917-.23-2.856-.458a.722.722 0 0 1-.279-.112c-.148-.118-.18-.325-.202-.513q-.142-1.246-.249-2.495c-.022-.27-.039-.563.109-.791.186-.279.548-.366.88-.42a22.946 22.946 0 0 1 4.245-.295c.54-.54 1.43-.543 2.138-.836a6.359 6.359 0 0 0 .754-.41 9.852 9.852 0 0 1 4.138-1.308 3.853 3.853 0 0 0 .847-.12c.548-.17 1.047-.634 1.609-.52.07-.193.118-.45.279-.582.08-.068.178-.114.252-.186.155-.157.169-.404.145-.624-.023-.22-.075-.444-.018-.658a.91.91 0 0 1 .103-.23c.278-.48.699-.728 1.26-.681z" data-name="Path 1423"/>
    <path fill="#fba304" d="M-147.04 13.932a.962.962 0 0 0-.206.33 15.602 15.602 0 0 0-1.31 5.355.535.535 0 0 1-.061.26 1.135 1.135 0 0 1-.137.147.513.513 0 0 0 .062.723q.012.011.026.02c.153-.288.52-.382.846-.407 1.563-.124 3.089.603 4.656.548-.11-.382-.27-.749-.36-1.136-.399-1.716.596-3.585-.014-5.239-.121-.33-.325-.656-.646-.801a1.72 1.72 0 0 0-.413-.11c-.396-.071-1.184-.377-1.567-.254-.142.045-.197.178-.314.259-.178.113-.414.155-.562.305z" data-name="Path 1430"/>
    <path fill="#fbbebe" d="M-125.341 19.605c-.472-.202-1.363-.079-1.879-.093-.709-.017-1.458.058-2.04.464-.707.495-1.033 1.403-1.027 2.266.006.864.295 1.696.606 2.502.173.455.355.906.415 1.384 0 0-6.182.733-6.555 1.034-.373.3-.54.902-.253 1.274.286.372 9.216.745 10.392.496a.372.372 0 0 0 .38-.361 26.83 26.83 0 0 0 .28-2.088c.033-.36.058-.721.083-1.083l.267-3.836a3.29 3.29 0 0 0-.01-.811c-.07-.365-.287-.984-.66-1.148z" data-name="Path 1421"/>
    <path fill="#fba304" d="M-126.801 13.627c-.118-.08-.173-.214-.315-.26-.382-.122-1.17.184-1.567.256a1.72 1.72 0 0 0-.413.109c-.32.145-.524.47-.646.801-.61 1.654.385 3.523-.014 5.24-.09.386-.25.753-.36 1.135 1.567.055 3.093-.672 4.656-.548.326.025.693.12.847.408l.026-.02a.513.513 0 0 0 .06-.724 1.135 1.135 0 0 1-.136-.147.535.535 0 0 1-.06-.26 15.602 15.602 0 0 0-1.31-5.355.962.962 0 0 0-.207-.33c-.147-.15-.383-.192-.561-.305z" data-name="Path 1430"/>
    <path fill="#ffb6b6" d="m-124.46 40.851-8.014-.075.4-3.017 7.886 1.048z"/>
    <path fill="#2f2e41" d="m-122.137 38.549-.876 6.592-.083-.011a2.588 2.588 0 0 1-2.225-2.907l.535-4.026z"/>
    <path fill="#2f2e41" d="M-143.043 30.458c0 .093-.146 0-.16-.1-.102-.751-.699-1.371-1.394-1.672-.695-.301-1.487-.317-2.24-.245-1.138.107-2.416.543-2.833 1.607-.098.25-1.021 2.464-.931 2.963.242 1.329 1.151 2.466 2.253 3.253 1.101.787 2.388 1.257 3.672 1.682a63.685 63.685 0 0 0 10.41 2.486c.572.086 1.15.166 1.699.35.49.165.95.411 1.43.604 1.115.448 2.315.608 3.503.765.203.026.435.045.585-.093.193-.179.13-.491.075-.749a4.03 4.03 0 0 1 .475-2.859c.199-.334.457-.677.42-1.065-.045-.451-.495-.771-.943-.844-.448-.072-.903.035-1.353.093a.725.725 0 0 1-.46-.045.919.919 0 0 1-.18-.16 2.038 2.038 0 0 0-2.374-.332c-.167.093-.418-.114-.592-.192l-1.954-.885c-2.246-1.016-4.503-2.036-6.878-2.68a1.444 1.444 0 0 1-.53-.22c-.118-.093-.203-.219-.311-.322-.237-.224-.568-.314-.852-.473-.284-.159-.602-.548-.537-.867z" data-name="Path 1427"/>
    <circle cx="-137.983" cy="27.722" r="1.393" fill="#fbbebe"/>
    <circle cx="-134.898" cy="27.722" r="1.393" fill="#fbbebe"/>
    <path fill="#3f3d56" d="M-126.298 30.861h-19.141a.844.844 0 0 1-.843-.842V18.407a.844.844 0 0 1 .843-.843h19.14a.844.844 0 0 1 .843.843v11.612a.844.844 0 0 1-.842.842z"/>
    <circle cx="-135.915" cy="24.213" r=".558" fill="#fff" data-name="Ellipse 263"/>
    <path fill="#3f3d56" d="M-52.985 34.424h-24.868a.498.498 0 0 0-.498.497v4.688h.2V34.92a.299.299 0 0 1 .298-.298h24.868a.299.299 0 0 1 .299.298v4.72h.199v-4.72a.498.498 0 0 0-.498-.497Z"/>
    <path fill="#3f3d56" d="M-111.077 39.343h67.106v.229h-67.106z"/>
    <path d="M-103.848-.984v40.432h.246V-.733h25.2-.39l.048-.252z"/>
    <g transform="rotate(32.376 -53.636 -316.582) scale(.64885)">
      <circle cx="163.725" cy="-40.911" r="7.316" fill="#2f2e41"/>
      <path fill="#2f2e41" d="m168.738-31.937-2.188.396-.71-3.918 2.188-.396zm-4.374.792-2.188.396-.709-3.918 2.188-.396z"/>
      <ellipse cx="143.983" cy="82.03" fill="#2f2e41" rx="1.852" ry=".695" transform="rotate(-40.261)"/>
      <ellipse cx="147.753" cy="84.207" fill="#2f2e41" rx="1.852" ry=".695" transform="rotate(-40.261)"/>
      <circle cx="163.213" cy="-42.701" r="2.501" fill="#fff"/>
      <circle cx="163.172" cy="-42.564" r=".834" fill="#3f3d56"/>
      <path fill="#fba304" d="M169.497-48.87c.11-2.71-2.225-5.004-5.215-5.125-2.99-.122-5.502 1.976-5.612 4.684-.11 2.709 1.968 3.324 4.958 3.446 2.99.121 5.759-.297 5.869-3.006z"/>
      <ellipse cx="76.247" cy="143.563" fill="#2f2e41" rx="1.148" ry="3.658" transform="rotate(-77.09)"/>
      <ellipse cx="77.128" cy="158.095" fill="#2f2e41" rx="1.148" ry="3.658" transform="rotate(-77.09)"/>
      <path fill="#fff" d="M161.567-36.891c1.167 2.642 6.022.782 4.844-1.856-.485-1.092-1.324.33-2.602.761-1.277.431-2.727.003-2.242 1.095z"/>
      <path fill="none" stroke="#3f3d56" stroke-miterlimit="10" stroke-width=".343" d="m148.13-51.673 5.832 8.877"/>
      <circle cx="145.027" cy="-56.646" r="6.298" fill="#ff6584"/>
    </g>
    <circle cx="-85.007" cy="39.441" r="1.712" fill="#fba304" data-name="Ellipse 266"/>
    <circle cx="-73.202" cy="34.472" r="1.712" fill="#3f3d56" data-name="Ellipse 268"/>
    <circle cx="-64.227" cy="34.472" r="1.712" fill="#ccc" data-name="Ellipse 269"/>
    <circle cx="-68.576" cy="39.441" r="1.712" fill="#fba304" data-name="Ellipse 270"/>
    <circle cx="-44.205" cy="39.441" r="1.712" fill="#fba304" data-name="Ellipse 271"/>
    <circle cx="-52.587" cy="39.441" r="1.712" fill="#fba304" data-name="Ellipse 272"/>
    <path fill="#3f3d56" d="M-97.095 39.556a.1.1 0 0 1-.1-.099v-4.912a.498.498 0 0 1 .498-.498h4.844a.1.1 0 0 1 0 .2h-4.844a.299.299 0 0 0-.298.298v4.912a.1.1 0 0 1-.1.1z"/>
    <circle cx="-91.625" cy="34.109" r="1.712" fill="#e6e6e6" data-name="Ellipse 265"/>
    <path fill="#3f3d56" d="M-58.781 39.547h-.2v4.913a.498.498 0 0 0 .498.497h4.844v-.199h-4.844a.299.299 0 0 1-.298-.298z"/>
    <circle cx="-53.411" cy="44.61" r="1.712" fill="#e6e6e6" data-name="Ellipse 265"/>
  </g>
  <path fill="#333" d="M231.174 130.364v-1.46l5.033-5.593h1.43zm-.994 3.308v-10.361h1.118v10.361zm2.734-5.84 5.08 5.84h-1.554l-4.365-5.08zm9.915 6.073q-1.103 0-1.91-.45-.809-.466-1.244-1.383-.435-.916-.435-2.283 0-2.004.901-2.998.917-1.01 2.501-1.01 1.243 0 1.989.56.761.558 1.087 1.506.326.948.31 2.144H239.8l.077-1.026h5.422l-.435.156q-.047-1.165-.59-1.74-.529-.575-1.632-.575-.76 0-1.273.28-.497.28-.746.978-.249.684-.249 1.927 0 1.413.653 2.159.668.73 1.864.73.575 0 1.056-.078.482-.093.886-.248t.714-.342v1.15q-.559.264-1.242.404-.668.14-1.476.14zm8.495 0q-1.103 0-1.91-.45-.808-.466-1.243-1.383-.435-.916-.435-2.283 0-2.004.9-2.998.917-1.01 2.502-1.01 1.242 0 1.988.56.761.558 1.087 1.506.327.948.311 2.144h-6.229l.078-1.026h5.421l-.435.156q-.046-1.165-.59-1.74-.528-.575-1.631-.575-.761 0-1.274.28-.497.28-.746.978-.248.684-.248 1.927 0 1.413.652 2.159.668.73 1.864.73.575 0 1.057-.078.481-.093.885-.248t.715-.342v1.15q-.56.264-1.243.404-.668.14-1.476.14zm8.34-.015q-.342 0-.777-.093-.42-.094-.823-.233-.404-.14-.715-.296l.389-.388v4.163h-1.119v-9.724q0-.482.295-.777.311-.295.793-.45.481-.171 1.025-.233.544-.078 1.025-.078.932 0 1.756.388.823.389 1.336 1.32.512.917.512 2.502 0 1.196-.435 2.081-.42.87-1.243 1.352-.823.466-2.019.466zm0-1.025q.854 0 1.398-.358.56-.373.839-1.025.28-.652.28-1.491 0-.84-.187-1.57-.186-.73-.714-1.164-.529-.45-1.538-.45-.808 0-1.414.186-.59.186-.59.528v4.8q.481.28.963.42.481.124.963.124zm12.714.932q-.824 0-1.383-.497-.56-.513-.56-1.507v-4.847h-1.35v-1.025h1.35v-2.19h1.12v2.19h2.003v1.025h-2.004v4.49q0 .652.202.978.202.326.824.326.28 0 .543-.046.264-.062.435-.14v1.056q-.217.078-.56.124-.325.063-.62.063zm3.204-.125v-7.13q.186-.078.715-.264.543-.186 1.289-.342.761-.155 1.569-.155.124 0 .248.031l.249.062v.994q-.404-.046-.792-.046-.373 0-.73.046-.358.031-.715.094l-.715.124v6.586zm8.528.233q-.513 0-1.041-.108-.513-.11-.963-.373-.435-.264-.715-.715-.264-.466-.264-1.165 0-.963.357-1.538.373-.59 1.01-.839.652-.264 1.491-.264.637 0 1.103.078.466.078.824.233.372.14.667.326l.218 1.025q-.357-.264-1.04-.45-.669-.202-1.477-.202-.978 0-1.506.373-.529.373-.529 1.087 0 .575.311.917.326.342.808.481.497.14 1.01.14 1.01 0 1.522-.14.528-.155.528-.683v-3.557q0-.901-.528-1.32-.528-.42-1.507-.42-.621 0-1.32.186-.684.171-1.18.56v-1.12q.48-.31 1.288-.465.808-.171 1.57-.171.512 0 .947.109.435.093.777.295.341.186.574.497.249.295.373.699.14.388.14.885v3.76q0 .823-.497 1.227-.482.404-1.274.528-.776.124-1.677.124zm9.19-.108q-.62 0-1.273-.156-.637-.17-1.18-.59-.529-.435-.855-1.227-.326-.792-.326-2.035t.326-2.02q.326-.792.855-1.227.543-.435 1.18-.59.653-.171 1.274-.171.59 0 1.165.109.59.108 1.134.326v1.072q-.513-.218-1.056-.326-.544-.11-1.119-.11-1.382 0-2.02.7-.62.699-.62 2.237 0 1.553.62 2.252.638.684 2.02.684.575 0 1.119-.109.543-.109 1.056-.326v1.087q-.544.202-1.134.31-.575.11-1.165.11zm5.27-4.769 3.402-3.107h1.398l-4.552 4.023zm.248 4.644H297.7V122.97h1.118zm.311-4.83 4.8 4.83h-1.491l-4.07-4.116z"/>
</svg>
