<svg xmlns="http://www.w3.org/2000/svg" xmlns:xlink="http://www.w3.org/1999/xlink" viewBox="0 0 381.982 205.331">
  <defs>
    <path id="a" fill="#f9f9f9" d="m17.453 8.721-1.907 1.907 1.94 1.94h.283c.947 0 1.79.224 2.53.671a4.447 4.447 0 0 1 1.73 1.833c.43.791.645 1.703.645 2.736 0 1.015-.198 1.919-.594 2.71-.396.792-.946 1.403-1.652 1.834a4.283 4.283 0 0 1-.798.378c.195.207 1.746 1.536 1.746 1.536l-1.24 2.326c.957-.188 1.846-.49 2.667-.91 1.497-.758 2.65-1.824 3.46-3.201.825-1.377 1.238-2.952 1.238-4.724 0-1.773-.404-3.339-1.213-4.699-.809-1.376-1.945-2.444-3.408-3.2-1.445-.758-3.115-1.137-5.008-1.137Z"/>
    <path id="b" fill="#ffa200" d="M10.076 8.721v18.097h7.276c.552-.002.786-.101.786-.101l1.266-1.98-2.026-1.74H14.8v-10.43l-.9-.9-1.04-1.04 1.907-1.906z"/>
  </defs>
  <text xml:space="preserve" transform="translate(10.652 24.674) scale(.26458)"><tspan x="1811.955" y="519.598"><tspan dx="0 27.93 24.473 11.113 11.113 24.512 25.391 24.473 16.445 24.512 15.684">Collaborate</tspan></tspan></text>
  <text xml:space="preserve" transform="translate(10.652 24.674) scale(.26458)"><tspan x="1582.594" y="511.953"><tspan dx="0 27.93 24.473 11.113 11.113 24.512 25.391 24.473 16.445 24.512 15.684 24.609">Collaborate
</tspan></tspan></text>
  <path fill="#ffe5b8" d="M265.147 58.444c-.509.007-.713.098-2.039.723-1.6.755-1.846.94-1.657 1.243.088.14 18.544 8.732 19.095 8.894.095.028.457.036.806.018.6-.031 1.001-.205 7.788-3.381 3.935-1.842 7.202-3.426 7.26-3.52.19-.302-.057-.487-1.657-1.242-1.514-.715-1.565-.73-2.28-.722l-.73.01-4.814 2.261c-2.648 1.244-5.022 2.31-5.277 2.369-.343.079-.58.077-.913-.006-.247-.063-2.61-1.129-5.25-2.369l-9.36-4.267-.73-.01h-.242z"/>
  <path fill="#b3b3b3" fill-rule="evenodd" d="m288.438 66.236-.73.337-.973-1.563-2.548-.988.73-.336 2.547.988zm-1.465.671-.73.336-.973-1.562-2.548-.988.73-.337 2.547.989z"/>
  <path fill="#ffe5b8" d="M220.976 70.949c-.509.007-.713.097-2.039.723-1.6.755-1.846.94-1.657 1.242.088.141 18.544 8.733 19.095 8.895.095.028.458.036.806.018.6-.032 1.001-.205 7.788-3.382 3.935-1.841 7.202-3.425 7.26-3.519.19-.302-.057-.488-1.657-1.243-1.514-.714-1.565-.73-2.28-.721l-.73.01-4.814 2.26c-2.648 1.245-5.022 2.31-5.277 2.37-.343.078-.58.077-.913-.007-.247-.062-2.61-1.128-5.25-2.369l-9.36-4.267-.73-.01h-.242z"/>
  <path fill="#b3b3b3" fill-rule="evenodd" d="m244.267 78.74-.73.337-.973-1.562-2.548-.988.73-.337 2.548.988zm-1.465.671-.73.337-.973-1.562-2.548-.989.73-.336 2.548.988z"/>
  <path fill="#333" d="m206.174 63.963-4.15 1.943a1821.29 1821.29 0 0 1-5.006 2.337c-3.47 1.599-4.96 2.328-5.05 2.47-.075.119-.075.213-.002.329.082.13 13.703 6.578 14.247 6.745.084.025.43.03.772.012.586-.032 1-.212 7.626-3.316 3.853-1.805 7.051-3.355 7.107-3.443.072-.114.071-.209-.003-.326-.09-.143-1.58-.872-5.05-2.471-.47-.217-2.722-1.269-5.005-2.337l-4.15-1.943h-.668zm11.13 11.472-4.85 2.277-4.85 2.276h-1.526l-4.847-2.275-4.846-2.275-.693.036c-.628.031-.83.1-2.185.74-.82.389-1.517.77-1.547.848a.551.551 0 0 0 0 .309c.055.175 13.42 6.485 14.261 6.733.238.07.622.104.859.076.29-.035 2.562-1.043 7.012-3.112 3.62-1.684 6.807-3.17 7.081-3.304.863-.421.795-.709-.285-1.21a86.627 86.627 0 0 1-1.453-.694c-.528-.26-.821-.338-1.4-.376zm-21.718 6.377c-.498.006-.698.095-1.996.707-1.566.739-1.807.92-1.622 1.216.086.138 13.688 6.58 14.227 6.737.093.028.449.036.79.018.588-.03.98-.2 7.623-3.31 3.851-1.803 7.05-3.353 7.107-3.445.185-.296-.057-.477-1.622-1.216-1.483-.7-1.532-.715-2.232-.706l-.716.009-4.711 2.214c-2.592 1.217-4.916 2.26-5.166 2.318a1.702 1.702 0 0 1-.893-.006c-.242-.061-2.554-1.104-5.139-2.319l-4.698-2.207-.716-.01h-.236zm107.238-39.698-4.15 1.943a1821.29 1821.29 0 0 1-5.006 2.337c-3.47 1.599-4.96 2.328-5.05 2.47-.074.119-.075.213-.001.329.082.13 13.702 6.578 14.247 6.745.083.025.43.03.771.012.587-.033 1-.213 7.626-3.316 3.854-1.805 7.052-3.355 7.108-3.443.072-.114.07-.209-.003-.326-.09-.143-1.58-.872-5.05-2.471-.47-.217-2.723-1.269-5.006-2.337l-4.15-1.943h-.668zm11.131 11.472-4.85 2.277-4.85 2.276h-1.527l-4.846-2.275-4.847-2.275-.692.035c-.628.032-.831.1-2.185.741-.821.389-1.518.77-1.547.848a.551.551 0 0 0-.001.309c.055.175 13.421 6.485 14.262 6.733.237.07.621.104.858.076.29-.035 2.562-1.043 7.013-3.112 3.62-1.684 6.807-3.17 7.08-3.304.863-.421.796-.709-.285-1.21a90.544 90.544 0 0 1-1.453-.694c-.527-.26-.82-.338-1.399-.377zm-21.718 6.376c-.499.007-.699.095-1.996.708-1.566.739-1.808.92-1.623 1.216.087.138 13.688 6.579 14.228 6.737.093.028.448.036.789.018.588-.03.98-.2 7.623-3.31 3.852-1.803 7.05-3.353 7.107-3.445.186-.296-.056-.477-1.622-1.216-1.483-.7-1.532-.715-2.232-.706l-.715.009-4.712 2.213c-2.591 1.218-4.916 2.261-5.165 2.319a1.702 1.702 0 0 1-.894-.006c-.242-.061-2.554-1.104-5.138-2.319l-4.699-2.207-.716-.01h-.235z"/>
  <path fill="#fff" d="M307.969 48.388q.845.153 1.295.702.45.539.45 1.343 0 .62-.294 1.15-.294.52-.9.835-.597.315-1.47.315-.68 0-1.342-.193-.653-.203-1.112-.57l.58-1.262q.367.305.845.478.486.164.992.164.56 0 .883-.235.32-.244.32-.682 0-.875-1.203-.875h-.68V48.47l1.323-1.658h-2.738v-1.323h4.503v1.068z"/>
  <g stroke-linejoin="round" stroke-miterlimit="100000" stroke-width=".613" transform="translate(293.35 41.63) scale(.40908)">
    <use xlink:href="#a"/>
    <use xlink:href="#b"/>
  </g>
  <path fill="#ffe5b8" d="M272.064 61.589c-.51.007-.714.097-2.04.723-1.6.755-1.846.94-1.657 1.242.088.141 35.113 16.454 35.664 16.616.095.028.458.036.807.018.6-.032 1.001-.205 7.788-3.382 3.934-1.842 7.202-3.425 7.26-3.519.19-.303-.057-.488-1.657-1.243-1.515-.714-1.565-.73-2.28-.721l-.73.009-4.814 2.262c-2.648 1.243-5.022 2.31-5.277 2.368-.343.08-.581.077-.913-.006-.247-.062-2.61-1.128-5.25-2.369L273.035 61.6l-.73-.009h-.241z"/>
  <path fill="#b3b3b3" fill-rule="evenodd" d="m311.924 77.102-.73.336-.973-1.562-2.548-.988.73-.337 2.547.988zm-1.465.67-.73.337-.973-1.562-2.548-.989.73-.336 2.547.988z"/>
  <path fill="#333" d="m326.058 53.231-4.15 1.943c-2.283 1.069-4.536 2.12-5.006 2.337-3.47 1.6-4.96 2.328-5.05 2.471-.075.118-.075.212-.001.328.082.13 13.702 6.579 14.247 6.745.084.026.43.031.772.012.586-.032 1-.212 7.626-3.316 3.853-1.805 7.051-3.354 7.107-3.442.072-.115.07-.21-.003-.327-.09-.143-1.58-.872-5.05-2.47-.47-.218-2.723-1.27-5.005-2.338l-4.15-1.943h-.668zm11.13 11.473-4.85 2.276-4.85 2.276h-1.526l-4.847-2.274-4.846-2.275-.693.035c-.628.032-.83.1-2.185.74-.82.39-1.517.77-1.547.848a.55.55 0 0 0 0 .31c.055.175 13.42 6.485 14.261 6.732.238.07.622.104.859.076.29-.034 2.562-1.042 7.012-3.112 3.621-1.683 6.807-3.17 7.081-3.303.863-.422.795-.71-.285-1.211-.432-.2-1.086-.513-1.453-.693-.528-.26-.821-.339-1.399-.377zM315.47 71.08c-.498.007-.698.095-1.996.707-1.565.74-1.807.92-1.622 1.217.086.138 13.688 6.578 14.227 6.737.093.027.449.035.79.017.588-.03.98-.2 7.623-3.31 3.851-1.802 7.05-3.352 7.107-3.444.185-.296-.057-.478-1.622-1.217-1.483-.7-1.532-.715-2.232-.706l-.716.01-4.711 2.213c-2.592 1.217-4.916 2.26-5.166 2.318a1.7 1.7 0 0 1-.893-.006c-.242-.06-2.554-1.104-5.139-2.318l-4.698-2.208-.716-.01h-.236z"/>
  <path fill="#fff" d="M334.378 62.037h-1.049v1.496h-1.451v-1.496h-3.464v-1.109l3.031-4.519h1.563l-2.812 4.285h1.728V59.36h1.406v1.334h1.048z" aria-label="4"/>
  <g stroke-linejoin="round" stroke-miterlimit="100000" stroke-width=".613" transform="translate(316.873 52.551) scale(.40908)">
    <use xlink:href="#a"/>
    <use xlink:href="#b"/>
  </g>
  <path fill="#333" d="m258.653 54.87-4.15 1.943a1821.29 1821.29 0 0 1-5.006 2.337c-3.47 1.6-4.96 2.328-5.05 2.471-.074.119-.075.212-.001.328.082.13 13.702 6.579 14.247 6.745.083.026.43.031.771.012.587-.032 1-.212 7.626-3.316 3.854-1.805 7.052-3.354 7.108-3.442.072-.115.07-.21-.003-.327-.09-.143-1.58-.872-5.05-2.47-.47-.217-2.723-1.27-5.006-2.338l-4.15-1.942h-.668zm11.131 11.473-4.85 2.276-4.85 2.276h-1.526l-4.847-2.274-4.847-2.275-.692.035c-.628.032-.831.1-2.185.74-.821.39-1.518.77-1.547.848a.551.551 0 0 0-.001.31c.055.175 13.421 6.485 14.262 6.733.237.07.621.103.858.075.29-.034 2.562-1.042 7.013-3.112 3.62-1.683 6.807-3.17 7.08-3.303.863-.422.796-.71-.285-1.211-.432-.2-1.085-.512-1.453-.693-.527-.26-.82-.339-1.399-.377zm-21.718 6.376c-.499.007-.699.095-1.996.707-1.566.74-1.808.92-1.623 1.217.087.138 13.688 6.579 14.228 6.737.093.027.448.035.79.017.587-.03.98-.2 7.622-3.31 3.852-1.802 7.05-3.352 7.107-3.444.186-.296-.056-.477-1.622-1.216-1.483-.7-1.532-.716-2.232-.707l-.715.01-4.712 2.213c-2.591 1.218-4.916 2.26-5.165 2.318a1.702 1.702 0 0 1-.894-.006c-.242-.06-2.554-1.104-5.138-2.318l-4.699-2.208-.715-.009h-.236z"/>
  <path fill="#fff" d="M265.692 63.84v1.343h-4.86v-1.068l2.48-2.595q.395-.418.534-.713.138-.305.138-.6 0-.428-.266-.652-.259-.234-.764-.234-.422 0-.763.183-.34.173-.57.53l-1.083-.774q.376-.62 1.038-.967.661-.356 1.516-.356.717 0 1.25.265.541.254.836.732.303.468.303 1.11 0 .58-.22 1.088t-.856 1.161l-1.478 1.547z" aria-label="2"/>
  <g stroke-linejoin="round" stroke-miterlimit="100000" stroke-width=".613" transform="translate(249.272 54.201) scale(.40908)">
    <use xlink:href="#a"/>
    <use xlink:href="#b"/>
  </g>
  <path fill="#ececec" stroke="#ccc" stroke-linejoin="round" stroke-miterlimit="100" stroke-width=".159" d="m248.066 72.72-.43.2c-.237.112-.471.22-.52.243-.36.166-.514.242-.523.257-.007.012-.007.021 0 .034.007.013 1.42.682 1.477.7a.507.507 0 0 0 .08 0c.06-.003.103-.021.79-.343.4-.188.732-.348.737-.357.007-.013.007-.022 0-.034-.009-.015-.164-.09-.523-.257a186.08 186.08 0 0 1-.52-.242l-.43-.202h-.07zm1.154 1.387-.503.236-.503.237h-.158l-.503-.236-.502-.236-.072.004c-.065.003-.086.01-.227.077a.876.876 0 0 0-.16.087.06.06 0 0 0 0 .033c.005.017 1.391.672 1.479.698.024.007.064.01.089.008.03-.004.265-.108.727-.323l.734-.342c.09-.044.082-.074-.03-.126a9.047 9.047 0 0 1-.15-.072.326.326 0 0 0-.145-.039zm-2.252.86c-.052 0-.073.01-.207.073-.163.077-.188.095-.168.126.008.014 1.419.683 1.475.7a.41.41 0 0 0 .082 0c.06-.002.101-.02.79-.343.4-.187.731-.348.737-.357.02-.03-.006-.05-.168-.126-.154-.073-.159-.075-.232-.074l-.074.002-.488.23a9.91 9.91 0 0 1-.536.24.172.172 0 0 1-.092 0 10.086 10.086 0 0 1-.533-.241l-.487-.23h-.099zm45.269-15.004-.43.201-.52.243c-.36.166-.514.241-.523.256-.009.012-.009.022 0 .034.008.014 1.42.682 1.477.7a.524.524 0 0 0 .08.001c.06-.003.103-.022.79-.344.4-.187.732-.348.737-.357.009-.012.009-.022 0-.034-.009-.015-.164-.09-.524-.256l-.519-.243-.43-.201h-.07zm1.154 1.388-.503.236-.503.236h-.158l-.503-.236-.502-.236-.072.004c-.065.003-.087.01-.227.077a.888.888 0 0 0-.16.088.118.118 0 0 0 0 .032 31.01 31.01 0 0 0 1.478.698.276.276 0 0 0 .09.009c.03-.004.265-.109.726-.323l.735-.343c.09-.044.082-.073-.03-.126a9.953 9.953 0 0 1-.15-.071.326.326 0 0 0-.146-.04zm-2.252.86c-.052 0-.073.009-.207.072-.163.077-.188.096-.168.127a49.75 49.75 0 0 0 1.475.699c.01.002.046.004.082 0 .06-.002.101-.02.79-.342.4-.187.731-.348.737-.358.018-.03-.006-.05-.168-.126-.154-.073-.16-.074-.232-.073l-.074.001-.488.23c-.27.126-.51.234-.536.24a.172.172 0 0 1-.093 0 10.113 10.113 0 0 1-.533-.24l-.487-.23-.074-.001h-.024zm24.079 9.121-.43.202c-.237.11-.47.22-.52.242-.36.166-.514.241-.523.256-.008.013-.008.022 0 .034.008.014 1.42.683 1.477.7a.506.506 0 0 0 .08.001c.061-.003.104-.022.791-.344.4-.187.731-.348.737-.357.009-.012.009-.021 0-.034-.009-.014-.164-.09-.524-.256l-.519-.242-.43-.202h-.07zm1.154 1.388-.503.236-.503.236h-.158l-.502-.236-.503-.236-.072.004c-.065.004-.086.011-.226.077a.89.89 0 0 0-.16.088.118.118 0 0 0 0 .032c.005.018 1.39.673 1.478.699.025.007.064.01.09.008.03-.004.265-.108.726-.323l.734-.343c.09-.043.083-.073-.03-.125a10.02 10.02 0 0 1-.15-.072.326.326 0 0 0-.145-.04zm-2.252.86c-.051 0-.072.01-.207.073-.162.076-.187.095-.168.126.009.014 1.42.682 1.475.699.01.002.047.004.082.001.061-.003.102-.02.79-.343.4-.187.732-.348.738-.357.018-.031-.006-.05-.169-.127-.154-.072-.159-.074-.231-.073l-.074.001-.489.23c-.269.126-.51.235-.536.24a.175.175 0 0 1-.092 0 10.092 10.092 0 0 1-.533-.24l-.487-.23h-.099z"/>
  <g stroke-miterlimit="100000">
    <path fill="#fff" d="m210.743 67.407.012 7.124-1.49.003-.009-5.802-1.287.002-.002-1.324z"/>
    <g stroke-linejoin="round" stroke-width=".613" transform="translate(196.641 63.571) scale(.40908)">
      <use xlink:href="#a"/>
      <use xlink:href="#b"/>
    </g>
  </g>
  <path fill="#333" d="M217.505 134.213q-2.32 0-3.497-1.296-1.16-1.296-1.16-3.859 0-2.562 1.16-3.858 1.176-1.297 3.497-1.297.8 0 1.568.196.769.196 1.492.543v1.04q-.693-.377-1.432-.558-.738-.196-1.507-.196-1.266 0-2.08.437-.799.437-1.19 1.357-.378.904-.378 2.336t.377 2.352q.392.904 1.19 1.341.815.437 2.08.437.77 0 1.508-.18.739-.182 1.432-.558v1.04q-.482.226-.995.391-.497.166-1.025.242-.512.09-1.04.09zm5.081-.121v-6.918q.181-.075.694-.256.527-.181 1.25-.332.74-.15 1.523-.15.12 0 .241.03l.241.06v.965q-.392-.046-.768-.046-.362 0-.709.046-.346.03-.693.09l-.693.12v6.391zm8.257.227q-1.07 0-1.854-.438-.784-.452-1.206-1.341-.422-.89-.422-2.216 0-1.944.875-2.909.889-.98 2.426-.98 1.206 0 1.93.543.738.543 1.055 1.462.316.92.301 2.08h-6.044l.075-.995h5.26l-.421.151q-.046-1.13-.573-1.688-.513-.558-1.583-.558-.738 0-1.236.272-.482.27-.723.95-.241.662-.241 1.868 0 1.372.633 2.095.648.709 1.808.709.558 0 1.025-.076.468-.09.86-.24.391-.152.693-.332v1.115q-.543.256-1.206.392-.648.136-1.432.136zm7.731 0q-.498 0-1.01-.106-.498-.105-.935-.362-.422-.256-.693-.693-.256-.452-.256-1.13 0-.935.346-1.493.362-.572.98-.814.633-.256 1.447-.256.618 0 1.07.075.452.076.799.227.362.135.648.316l.211.995q-.347-.256-1.01-.437-.648-.196-1.432-.196-.95 0-1.462.362-.512.361-.512 1.055 0 .557.301.889.317.332.784.467.482.136.98.136.98 0 1.477-.136.512-.15.512-.663v-3.452q0-.874-.512-1.28-.513-.408-1.462-.408-.603 0-1.281.181-.664.166-1.146.543v-1.086q.467-.301 1.251-.452.784-.166 1.523-.166.497 0 .919.106.422.09.754.286.331.181.557.483.241.286.362.678.136.377.136.86v3.647q0 .799-.483 1.19-.467.392-1.236.513-.753.12-1.627.12zm8.134-.106q-.799 0-1.341-.482-.543-.498-.543-1.462v-4.703h-1.311v-.995h1.311v-2.125h1.085v2.125h1.945v.995h-1.945v4.356q0 .633.196.95.196.316.8.316.27 0 .527-.045.256-.06.422-.136v1.025q-.211.076-.543.12-.316.061-.603.061zm6.214.106q-1.07 0-1.854-.438-.783-.452-1.205-1.341-.422-.89-.422-2.216 0-1.944.874-2.909.89-.98 2.427-.98 1.205 0 1.929.543.738.543 1.055 1.462.316.92.301 2.08h-6.044l.076-.995h5.26l-.422.151q-.045-1.13-.573-1.688-.512-.558-1.582-.558-.739 0-1.236.272-.483.27-.724.95-.241.662-.241 1.868 0 1.372.633 2.095.648.709 1.809.709.557 0 1.025-.076.467-.09.859-.24.392-.152.693-.332v1.115q-.542.256-1.206.392-.648.136-1.432.136zm11.621 0q-.814 0-1.372-.166-.543-.166-1.13-.468v-1.145q.467.256.829.437.361.18.738.271.377.076.86.076.753 0 1.22-.332.482-.331.482-.859 0-.422-.24-.648-.227-.226-.589-.377-.361-.15-.753-.316-.437-.121-.89-.257-.437-.15-.813-.377-.362-.24-.588-.602-.226-.377-.226-.965 0-.573.226-.98.24-.407.618-.663.377-.271.844-.392.467-.12.934-.12.679 0 1.16.18.483.181.996.407v1.086q-.573-.302-1.025-.483-.452-.196-1.07-.196-.618 0-1.116.257-.482.24-.482.753 0 .422.241.678.256.242.663.392.407.136.874.272.377.12.784.27.407.137.754.378.347.226.558.603.226.376.226.964 0 .8-.407 1.327-.407.512-1.04.753-.618.242-1.266.242zm7.1-.106q-.799 0-1.341-.482-.543-.498-.543-1.462v-4.703h-1.311v-.995h1.31v-2.125h1.086v2.125h1.945v.995h-1.945v4.356q0 .633.196.95.196.316.799.316.271 0 .528-.045.256-.06.422-.136v1.025q-.211.076-.543.12-.317.061-.603.061zm3.109-.121v-6.918q.181-.075.694-.256.527-.181 1.25-.332.74-.15 1.523-.15.12 0 .241.03l.241.06v.965q-.392-.046-.768-.046-.362 0-.709.046-.346.03-.693.09l-.693.12v6.391zm8.832.227q-.995 0-1.703-.347-.708-.347-1.085-1.01-.362-.663-.362-1.628v-4.763h1.085v4.522q0 1.146.498 1.688.512.528 1.567.528t1.553-.528q.512-.542.512-1.688v-4.522h1.085v4.763q0 1.432-.829 2.216-.813.769-2.32.769zm8.714-.106q-.603 0-1.236-.15-.618-.166-1.145-.573-.513-.422-.83-1.191-.316-.769-.316-1.975t.317-1.96q.316-.768.829-1.19.527-.422 1.145-.573.633-.166 1.236-.166.573 0 1.13.106.573.105 1.101.317v1.04q-.497-.211-1.025-.317-.528-.105-1.085-.105-1.342 0-1.96.678-.603.678-.603 2.17 0 1.508.603 2.186.618.663 1.96.663.557 0 1.085-.105.528-.106 1.025-.317v1.055q-.528.196-1.1.302-.558.105-1.13.105zm6.635 0q-.799 0-1.341-.482-.543-.498-.543-1.462v-4.703h-1.311v-.995h1.311v-2.125h1.085v2.125h1.945v.995h-1.945v4.356q0 .633.196.95.196.316.799.316.271 0 .528-.045.256-.06.422-.136v1.025q-.211.076-.543.12-.317.061-.603.061zm6.26.106q-.995 0-1.704-.347-.708-.347-1.085-1.01-.362-.663-.362-1.628v-4.763h1.086v4.522q0 1.146.497 1.688.512.528 1.568.528 1.055 0 1.552-.528.512-.542.512-1.688v-4.522h1.086v4.763q0 1.432-.83 2.216-.813.769-2.32.769zm5.563-.227v-6.918q.181-.075.694-.256.527-.181 1.25-.332.74-.15 1.523-.15.12 0 .241.03l.241.06v.965q-.392-.046-.768-.046-.362 0-.709.046-.346.03-.693.09l-.693.12v6.391zm8.257.227q-1.07 0-1.854-.438-.784-.452-1.206-1.341-.422-.89-.422-2.216 0-1.944.874-2.909.89-.98 2.427-.98 1.206 0 1.93.543.738.543 1.055 1.462.316.92.301 2.08h-6.044l.075-.995h5.26l-.421.151q-.046-1.13-.573-1.688-.513-.558-1.583-.558-.738 0-1.236.272-.482.27-.723.95-.241.662-.241 1.868 0 1.372.633 2.095.648.709 1.808.709.558 0 1.025-.076.468-.09.86-.24.391-.152.693-.332v1.115q-.543.256-1.206.392-.648.136-1.432.136z" aria-label="Create structure"/>
</svg>
