<?xml version="1.0" encoding="UTF-8" standalone="no"?>
<svg
   viewBox="0 0 367.815 179.781"
   version="1.1"
   id="svg1159"
   sodipodi:docname="get_support.svg"
   inkscape:version="1.1.1 (c3084ef, 2021-09-22)"
   xmlns:inkscape="http://www.inkscape.org/namespaces/inkscape"
   xmlns:sodipodi="http://sodipodi.sourceforge.net/DTD/sodipodi-0.dtd"
   xmlns="http://www.w3.org/2000/svg"
   xmlns:svg="http://www.w3.org/2000/svg">
  <sodipodi:namedview
     id="namedview1161"
     pagecolor="#ffffff"
     bordercolor="#666666"
     borderopacity="1.0"
     inkscape:pageshadow="2"
     inkscape:pageopacity="0.0"
     inkscape:pagecheckerboard="0"
     showgrid="false"
     inkscape:zoom="0.83960316"
     inkscape:cx="-71.462333"
     inkscape:cy="425.7964"
     inkscape:window-width="1920"
     inkscape:window-height="1027"
     inkscape:window-x="0"
     inkscape:window-y="25"
     inkscape:window-maximized="1"
     inkscape:current-layer="svg1159" />
  <defs
     id="defs825">
    <path
       id="a"
       fill="#ffa200"
       d="M142.78 142.581 96.9 159.1l-83.735-18.122 55.747-10.163z" />
  </defs>
  <g
     id="g18569"
     transform="matrix(0.52034614,0,0,0.52034614,252.78841,-187.82251)">
    <path
       d="m 110.18922,574.27169 a 120.19557,120.19557 0 0 1 -5.20535,37.60869 c -0.13026,0.4424 -0.28642,0.88482 -0.44257,1.32738 H 27.918534 a 68.766555,68.766555 0 0 1 5.179461,-15.61605 C 39.474421,584.05778 49.885118,572.47584 60.16572,560.97206 74.324275,545.1217 88.144504,529.4016 90.330827,508.78846 a 118.37916,118.37916 0 0 1 13.325663,27.51029 32.334169,32.334169 0 0 0 -10.696962,6.55863 c -0.858926,0.80682 -1.769957,1.97806 -1.327384,3.09719 0.416353,0.93692 1.561536,1.24939 2.576588,1.45749 2.4465,0.46847 4.893042,0.93692 7.339568,1.3795 1.92595,0.39026 3.87796,0.75471 5.82997,1.11913 a 127.80051,127.80051 0 0 1 2.81095,24.361 z"
       fill="#f2f2f2"
       id="path1419"
       style="stroke-width:0.6994" />
    <path
       d="m 174.55334,565.83905 c -12.28475,7.46966 -20.09277,19.02555 -26.4692,31.96076 a 32.692108,32.692108 0 0 0 -14.86131,7.80803 c -0.88498,0.80698 -1.79585,1.97806 -1.32739,3.09719 0.39046,0.93708 1.5617,1.24939 2.57658,1.45749 2.42047,0.4686 4.89305,0.93708 7.31351,1.3795 -0.23415,0.54661 -0.46845,1.11913 -0.70261,1.66574 H 59.879469 a 114.82356,114.82356 0 0 1 12.206553,-13.95032 c 0.962975,-0.96314 1.952024,-1.87401 2.967084,-2.81094 a 121.4528,121.4528 0 0 1 35.136114,-22.17483 123.60741,123.60741 0 0 1 64.36412,-8.43262 z"
       fill="#f2f2f2"
       id="path1421"
       style="stroke-width:0.6994" />
    <path
       d="M 69.413412,613.20776 H -2.8889789 a 117.45131,117.45131 0 0 1 0.1042105,-17.38584 C 0.1041649,560.08708 19.54607,526.04421 48.878269,505.43091 c -3.747859,13.35173 -1.821936,26.62545 2.082113,39.95115 -0.546462,0.18221 -1.093078,0.33836 -1.587596,0.54646 a 32.337212,32.337212 0 0 0 -10.696954,6.5588 c -0.858925,0.80682 -1.769803,1.97805 -1.32739,3.09718 0.390307,0.93693 1.561542,1.24924 2.576588,1.4575 2.4465,0.46846 4.893042,0.93692 7.31351,1.37949 1.952025,0.39027 3.904049,0.75472 5.856018,1.14519 0.910877,0.15614 1.821936,0.3382 2.732778,0.5204 0.130088,0.31231 0.20826,0.59873 0.338363,0.88498 4.580732,12.62291 9.577823,25.35003 11.920295,38.28541 a 89.367834,89.367834 0 0 1 1.197288,9.81197 c 0.07805,1.3795 0.13013,2.75883 0.13013,4.13832 z"
       fill="#f2f2f2"
       id="path1423"
       style="stroke-width:0.6994" />
    <path
       d="m -320.64097,574.27169 a 120.19557,120.19557 0 0 1 -5.20536,37.60869 c -0.13025,0.4424 -0.28641,0.88482 -0.44256,1.32738 h -76.62277 a 68.766555,68.766555 0 0 1 5.17946,-15.61605 c 6.37643,-13.53393 16.78713,-25.11587 27.06773,-36.61965 14.15855,-15.85036 27.97878,-31.57046 30.16511,-52.1836 a 118.37916,118.37916 0 0 1 13.32566,27.51029 32.334169,32.334169 0 0 0 -10.69696,6.55863 c -0.85893,0.80682 -1.76996,1.97806 -1.32739,3.09719 0.41636,0.93692 1.56154,1.24939 2.57659,1.45749 2.4465,0.46847 4.89304,0.93692 7.33956,1.3795 1.92596,0.39026 3.87797,0.75471 5.82998,1.11913 a 127.80051,127.80051 0 0 1 2.81095,24.361 z"
       fill="#f2f2f2"
       id="path1425"
       style="stroke-width:0.6994" />
    <path
       d="m -256.27687,565.83905 c -12.28471,7.46966 -20.09273,19.02555 -26.46916,31.96076 a 32.692108,32.692108 0 0 0 -14.86133,7.80803 c -0.88498,0.80698 -1.79585,1.97806 -1.3274,3.09719 0.39047,0.93708 1.56171,1.24939 2.57663,1.45749 2.42047,0.4686 4.89304,0.93708 7.31351,1.3795 -0.23415,0.54661 -0.46846,1.11913 -0.70261,1.66574 h -81.20349 a 114.82356,114.82356 0 0 1 12.20655,-13.95032 c 0.96298,-0.96314 1.95203,-1.87401 2.96709,-2.81094 a 121.4528,121.4528 0 0 1 35.13611,-22.17483 123.60741,123.60741 0 0 1 64.3641,-8.43262 z"
       fill="#f2f2f2"
       id="path1427"
       style="stroke-width:0.6994" />
    <path
       d="m -357.41678,613.20776 h -72.30239 a 117.45131,117.45131 0 0 1 0.10421,-17.38584 c 2.88893,-35.73484 22.33084,-69.77771 51.66304,-90.39101 -3.74786,13.35173 -1.82194,26.62545 2.08211,39.95115 -0.54646,0.18221 -1.09308,0.33836 -1.58759,0.54646 a 32.337212,32.337212 0 0 0 -10.69696,6.5588 c -0.85892,0.80682 -1.7698,1.97805 -1.32739,3.09718 0.39031,0.93693 1.56154,1.24924 2.57659,1.4575 2.4465,0.46846 4.89304,0.93692 7.31351,1.37949 1.95202,0.39027 3.90405,0.75472 5.85602,1.14519 0.91087,0.15614 1.82193,0.3382 2.73278,0.5204 0.13008,0.31231 0.20826,0.59873 0.33836,0.88498 4.58073,12.62291 9.57782,25.35003 11.92029,38.28541 a 89.367834,89.367834 0 0 1 1.19729,9.81197 c 0.0781,1.3795 0.13013,2.75883 0.13013,4.13832 z"
       fill="#f2f2f2"
       id="path1429"
       style="stroke-width:0.6994" />
    <path
       d="m -294.89782,599.99452 a 18.681853,18.681853 0 0 0 1.34984,6.98 17.862982,17.862982 0 0 0 1.22395,2.48987 18.950933,18.950933 0 0 0 2.11219,2.92349 18.716215,18.716215 0 0 0 14.07192,6.37153 H -2.4578405 a 18.7579,18.7579 0 0 0 0,-37.5158 H -276.13992 a 18.776391,18.776391 0 0 0 -18.7579,18.75091 z"
       fill="#e6e6e6"
       id="path1443"
       style="stroke-width:0.6994" />
    <path
       d="m -441.03039,610.70933 a 202.1293,202.1293 0 0 0 19.66712,20.24762 h 564.12178 a 202.1293,202.1293 0 0 0 19.6671,-20.24762 z"
       fill="#3f3d56"
       id="path1449"
       style="stroke-width:0.6994" />
    <path
       d="m -163.58553,543.00044 v 71.73043 h 50.25186 v -71.73043 a 2.41153,2.41153 0 0 0 -1.69954,-2.30801 2.2202932,2.2202932 0 0 0 -0.72038,-0.11191 h -45.40505 a 2.4222099,2.4222099 0 0 0 -2.42689,2.41992 z m 19.61116,24.64685 a 5.3646332,5.3646332 0 0 1 10.72879,0 v 8.32285 a 5.3644653,5.3644653 0 0 1 -10.72879,0 z"
       fill="#2f2e41"
       id="path1451"
       style="stroke-width:0.6994" />
    <path
       d="m -163.73935,612.43686 v 6.91707 a 1.3611856,1.3611856 0 0 0 1.34984,1.35683 h 47.85992 a 1.3566325,1.3566325 0 0 0 1.34984,-1.35683 v -6.91707 z"
       fill="#3f3d56"
       id="path1453"
       style="stroke-width:0.6994" />
    <path
       d="m -242.6387,434.92924 v 130.96958 a 6.2995907,6.2995907 0 0 0 6.2946,6.29459 h 194.083404 a 6.2995627,6.2995627 0 0 0 6.294597,-6.29459 V 434.92924 a 6.3026191,6.3026191 0 0 0 -6.294597,-6.28761 H -236.3441 a 6.302647,6.302647 0 0 0 -6.2946,6.28761 z"
       fill="#3f3d56"
       id="path1455"
       style="stroke-width:0.6994" />
    <path
       d="m -238.0856,436.55881 v 127.72437 a 3.3699454,3.3699454 0 0 0 3.36411,3.36411 h 190.845188 a 3.3699104,3.3699104 0 0 0 3.364112,-3.36411 V 436.55881 a 3.3714281,3.3714281 0 0 0 -3.364112,-3.37111 H -234.72149 a 3.3714631,3.3714631 0 0 0 -3.36411,3.37111 z"
       fill="#6c63ff"
       id="path1457"
       style="fill:#ffa200;fill-opacity:1;stroke-width:0.6994" />
    <path
       d="m -199.17099,622.34034 a 2.062103,2.062103 0 0 0 1.62261,0.77634 h 113.540588 a 2.0892746,2.0892746 0 0 0 2.042247,-2.51784 l -1.762487,-8.37182 a 2.0930374,2.0930374 0 0 0 -1.300883,-1.51769 2.0244193,2.0244193 0 0 0 -0.741364,-0.13988 H -195.79284 a 2.0242165,2.0242165 0 0 0 -0.74136,0.13988 2.0928626,2.0928626 0 0 0 -1.30089,1.51769 l -1.76248,8.37182 a 2.087666,2.087666 0 0 0 0.42658,1.7415 z"
       fill="#2f2e41"
       id="path1459"
       style="stroke-width:0.6994" />
    <rect
       x="86.576729"
       y="-614.17542"
       width="3.4969983"
       height="2.0981989"
       rx="0.3414399"
       transform="scale(-1)"
       fill="#3f3d56"
       id="rect1461"
       style="stroke-width:0.6994" />
    <rect
       x="93.570724"
       y="-614.17542"
       width="3.4969983"
       height="2.0981989"
       rx="0.3414399"
       transform="scale(-1)"
       fill="#3f3d56"
       id="rect1463"
       style="stroke-width:0.6994" />
    <rect
       x="100.56471"
       y="-614.17542"
       width="3.4969983"
       height="2.0981989"
       rx="0.3414399"
       transform="scale(-1)"
       fill="#3f3d56"
       id="rect1465"
       style="stroke-width:0.6994" />
    <rect
       x="107.55872"
       y="-614.17542"
       width="3.4969983"
       height="2.0981989"
       rx="0.3414399"
       transform="scale(-1)"
       fill="#3f3d56"
       id="rect1467"
       style="stroke-width:0.6994" />
    <rect
       x="114.55271"
       y="-614.17542"
       width="3.4969983"
       height="2.0981989"
       rx="0.3414399"
       transform="scale(-1)"
       fill="#3f3d56"
       id="rect1469"
       style="stroke-width:0.6994" />
    <rect
       x="121.54671"
       y="-614.17542"
       width="3.4969983"
       height="2.0981989"
       rx="0.3414399"
       transform="scale(-1)"
       fill="#3f3d56"
       id="rect1471"
       style="stroke-width:0.6994" />
    <rect
       x="128.54071"
       y="-614.17542"
       width="3.4969983"
       height="2.0981989"
       rx="0.3414399"
       transform="scale(-1)"
       fill="#3f3d56"
       id="rect1473"
       style="stroke-width:0.6994" />
    <rect
       x="135.5347"
       y="-614.17542"
       width="3.4969983"
       height="2.0981989"
       rx="0.3414399"
       transform="scale(-1)"
       fill="#3f3d56"
       id="rect1475"
       style="stroke-width:0.6994" />
    <rect
       x="142.52872"
       y="-614.17542"
       width="3.4969983"
       height="2.0981989"
       rx="0.3414399"
       transform="scale(-1)"
       fill="#3f3d56"
       id="rect1477"
       style="stroke-width:0.6994" />
    <rect
       x="149.52271"
       y="-614.17542"
       width="3.4969983"
       height="2.0981989"
       rx="0.3414399"
       transform="scale(-1)"
       fill="#3f3d56"
       id="rect1479"
       style="stroke-width:0.6994" />
    <rect
       x="156.51671"
       y="-614.17542"
       width="3.4969983"
       height="2.0981989"
       rx="0.3414399"
       transform="scale(-1)"
       fill="#3f3d56"
       id="rect1481"
       style="stroke-width:0.6994" />
    <rect
       x="163.51071"
       y="-614.17542"
       width="3.4969983"
       height="2.0981989"
       rx="0.3414399"
       transform="scale(-1)"
       fill="#3f3d56"
       id="rect1483"
       style="stroke-width:0.6994" />
    <rect
       x="170.5047"
       y="-614.17542"
       width="3.4969983"
       height="2.0981989"
       rx="0.3414399"
       transform="scale(-1)"
       fill="#3f3d56"
       id="rect1485"
       style="stroke-width:0.6994" />
    <rect
       x="177.49869"
       y="-614.17542"
       width="3.4969983"
       height="2.0981989"
       rx="0.3414399"
       transform="scale(-1)"
       fill="#3f3d56"
       id="rect1487"
       style="stroke-width:0.6994" />
    <rect
       x="184.49269"
       y="-614.17542"
       width="3.4969983"
       height="2.0981989"
       rx="0.3414399"
       transform="scale(-1)"
       fill="#3f3d56"
       id="rect1489"
       style="stroke-width:0.6994" />
    <rect
       x="191.48669"
       y="-614.17542"
       width="3.4969983"
       height="2.0981989"
       rx="0.3414399"
       transform="scale(-1)"
       fill="#3f3d56"
       id="rect1491"
       style="stroke-width:0.6994" />
    <rect
       x="86.494095"
       y="-617.67242"
       width="3.4969983"
       height="2.0981989"
       rx="0.3414399"
       transform="scale(-1)"
       fill="#3f3d56"
       id="rect1493"
       style="stroke-width:0.6994" />
    <rect
       x="93.488083"
       y="-617.67242"
       width="3.4969983"
       height="2.0981989"
       rx="0.3414399"
       transform="scale(-1)"
       fill="#3f3d56"
       id="rect1495"
       style="stroke-width:0.6994" />
    <rect
       x="100.48208"
       y="-617.67242"
       width="3.4969983"
       height="2.0981989"
       rx="0.3414399"
       transform="scale(-1)"
       fill="#3f3d56"
       id="rect1497"
       style="stroke-width:0.6994" />
    <rect
       x="107.47608"
       y="-617.67242"
       width="3.4969983"
       height="2.0981989"
       rx="0.3414399"
       transform="scale(-1)"
       fill="#3f3d56"
       id="rect1499"
       style="stroke-width:0.6994" />
    <rect
       x="114.47008"
       y="-617.67242"
       width="3.4969983"
       height="2.0981989"
       rx="0.3414399"
       transform="scale(-1)"
       fill="#3f3d56"
       id="rect1501"
       style="stroke-width:0.6994" />
    <rect
       x="121.46407"
       y="-617.67242"
       width="3.4969983"
       height="2.0981989"
       rx="0.3414399"
       transform="scale(-1)"
       fill="#3f3d56"
       id="rect1503"
       style="stroke-width:0.6994" />
    <rect
       x="128.45807"
       y="-617.67242"
       width="3.4969983"
       height="2.0981989"
       rx="0.3414399"
       transform="scale(-1)"
       fill="#3f3d56"
       id="rect1505"
       style="stroke-width:0.6994" />
    <rect
       x="135.45207"
       y="-617.67242"
       width="3.4969983"
       height="2.0981989"
       rx="0.3414399"
       transform="scale(-1)"
       fill="#3f3d56"
       id="rect1507"
       style="stroke-width:0.6994" />
    <rect
       x="142.44606"
       y="-617.67242"
       width="3.4969983"
       height="2.0981989"
       rx="0.3414399"
       transform="scale(-1)"
       fill="#3f3d56"
       id="rect1509"
       style="stroke-width:0.6994" />
    <rect
       x="149.44005"
       y="-617.67242"
       width="3.4969983"
       height="2.0981989"
       rx="0.3414399"
       transform="scale(-1)"
       fill="#3f3d56"
       id="rect1511"
       style="stroke-width:0.6994" />
    <rect
       x="156.43405"
       y="-617.67242"
       width="3.4969983"
       height="2.0981989"
       rx="0.3414399"
       transform="scale(-1)"
       fill="#3f3d56"
       id="rect1513"
       style="stroke-width:0.6994" />
    <rect
       x="163.42805"
       y="-617.67242"
       width="3.4969983"
       height="2.0981989"
       rx="0.3414399"
       transform="scale(-1)"
       fill="#3f3d56"
       id="rect1515"
       style="stroke-width:0.6994" />
    <rect
       x="170.42204"
       y="-617.67242"
       width="3.4969983"
       height="2.0981989"
       rx="0.3414399"
       transform="scale(-1)"
       fill="#3f3d56"
       id="rect1517"
       style="stroke-width:0.6994" />
    <rect
       x="177.41605"
       y="-617.67242"
       width="3.4969983"
       height="2.0981989"
       rx="0.3414399"
       transform="scale(-1)"
       fill="#3f3d56"
       id="rect1519"
       style="stroke-width:0.6994" />
    <rect
       x="184.41003"
       y="-617.67242"
       width="3.4969983"
       height="2.0981989"
       rx="0.3414399"
       transform="scale(-1)"
       fill="#3f3d56"
       id="rect1521"
       style="stroke-width:0.6994" />
    <rect
       x="191.40404"
       y="-617.67242"
       width="3.4969983"
       height="2.0981989"
       rx="0.3414399"
       transform="scale(-1)"
       fill="#3f3d56"
       id="rect1523"
       style="stroke-width:0.6994" />
    <rect
       x="120.06527"
       y="-621.86877"
       width="27.975986"
       height="2.0981989"
       rx="0.3414399"
       transform="scale(-1)"
       fill="#3f3d56"
       id="rect1525"
       style="stroke-width:0.6994" />
    <path
       d="m -225.1314,450.78231 h 178.573075 a 0.7103033,0.7103033 0 0 0 0,-1.42027 H -225.1314 a 0.7103033,0.7103033 0 0 0 0,1.42027 z"
       fill="#3f3d56"
       id="path1527"
       style="stroke-width:0.6994" />
    <ellipse
       cx="-58.71405"
       cy="441.48175"
       rx="4.1617289"
       ry="4.2544761"
       fill="#3f3d56"
       id="ellipse1529"
       style="stroke-width:0.6994" />
    <ellipse
       cx="-73.090889"
       cy="441.48175"
       rx="4.1617289"
       ry="4.2544761"
       fill="#3f3d56"
       id="ellipse1531"
       style="stroke-width:0.6994" />
    <ellipse
       cx="-87.467766"
       cy="441.48175"
       rx="4.1617289"
       ry="4.2544761"
       fill="#3f3d56"
       id="ellipse1533"
       style="stroke-width:0.6994" />
    <path
       d="m -217.2365,439.05567 a 0.76570275,0.76570275 0 0 0 0.76235,0.76934 h 10.21123 a 0.77304644,0.77304644 0 0 0 0,-1.54568 h -10.21123 a 0.77171758,0.77171758 0 0 0 -0.76235,0.77634 z"
       fill="#3f3d56"
       id="path1535"
       style="stroke-width:0.6994" />
    <path
       d="m -217.2365,441.9582 a 0.76566778,0.76566778 0 0 0 0.76235,0.76934 h 10.21123 a 0.77302546,0.77302546 0 0 0 0,-1.54568 h -10.21123 a 0.77171758,0.77171758 0 0 0 -0.76235,0.77634 z"
       fill="#3f3d56"
       id="path1537"
       style="stroke-width:0.6994" />
    <path
       d="m -217.2365,444.85372 a 0.77171758,0.77171758 0 0 0 0.76235,0.77633 h 10.21123 a 0.77304644,0.77304644 0 0 0 0,-1.54567 h -10.21123 a 0.76567477,0.76567477 0 0 0 -0.76235,0.76934 z"
       fill="#3f3d56"
       id="path1539"
       style="stroke-width:0.6994" />
    <rect
       x="-219.76411"
       y="467.28577"
       width="7.6976557"
       height="4.0284863"
       rx="2.0142431"
       fill="#e6e6e6"
       id="rect1541"
       style="stroke-width:0.6994" />
    <rect
       x="-177.80014"
       y="467.28577"
       width="7.6976557"
       height="4.0284863"
       rx="2.0142431"
       fill="#e6e6e6"
       id="rect1543"
       style="stroke-width:0.6994" />
    <rect
       x="-165.91034"
       y="467.28577"
       width="7.6976557"
       height="4.0284863"
       rx="2.0142431"
       fill="#e6e6e6"
       id="rect1545"
       style="stroke-width:0.6994" />
    <rect
       x="-208.34978"
       y="466.94992"
       width="26.832958"
       height="4.0284863"
       rx="2.0142431"
       fill="#e6e6e6"
       id="rect1547"
       style="stroke-width:0.6994" />
    <rect
       x="-152.39781"
       y="466.94992"
       width="26.832958"
       height="4.0284863"
       rx="2.0142431"
       fill="#e6e6e6"
       id="rect1549"
       style="stroke-width:0.6994" />
    <rect
       x="-208.57373"
       y="476.37796"
       width="7.6976557"
       height="4.0284863"
       rx="2.0142431"
       fill="#e6e6e6"
       id="rect1551"
       style="stroke-width:0.6994" />
    <rect
       x="-166.60974"
       y="476.37796"
       width="7.6976557"
       height="4.0284863"
       rx="2.0142431"
       fill="#e6e6e6"
       id="rect1553"
       style="stroke-width:0.6994" />
    <rect
       x="-154.71996"
       y="476.37796"
       width="7.6976557"
       height="4.0284863"
       rx="2.0142431"
       fill="#e6e6e6"
       id="rect1555"
       style="stroke-width:0.6994" />
    <rect
       x="-197.15939"
       y="476.04211"
       width="26.832958"
       height="4.0284863"
       rx="2.0142431"
       fill="#e6e6e6"
       id="rect1557"
       style="stroke-width:0.6994" />
    <rect
       x="-141.20741"
       y="476.04211"
       width="26.832958"
       height="4.0284863"
       rx="2.0142431"
       fill="#e6e6e6"
       id="rect1559"
       style="stroke-width:0.6994" />
    <rect
       x="-197.38333"
       y="485.47015"
       width="7.6976557"
       height="4.0284863"
       rx="2.0142431"
       fill="#e6e6e6"
       id="rect1561"
       style="stroke-width:0.6994" />
    <rect
       x="-155.41936"
       y="485.47015"
       width="7.6976557"
       height="4.0284863"
       rx="2.0142431"
       fill="#e6e6e6"
       id="rect1563"
       style="stroke-width:0.6994" />
    <rect
       x="-143.52956"
       y="485.47015"
       width="7.6976557"
       height="4.0284863"
       rx="2.0142431"
       fill="#e6e6e6"
       id="rect1565"
       style="stroke-width:0.6994" />
    <rect
       x="-185.96899"
       y="485.13431"
       width="26.832958"
       height="4.0284863"
       rx="2.0142431"
       fill="#e6e6e6"
       id="rect1567"
       style="stroke-width:0.6994" />
    <rect
       x="-130.01703"
       y="485.13431"
       width="26.832958"
       height="4.0284863"
       rx="2.0142431"
       fill="#e6e6e6"
       id="rect1569"
       style="stroke-width:0.6994" />
    <rect
       x="-186.19293"
       y="494.56235"
       width="7.6976557"
       height="4.0284863"
       rx="2.0142431"
       fill="#e6e6e6"
       id="rect1571"
       style="stroke-width:0.6994" />
    <rect
       x="-144.22896"
       y="494.56235"
       width="7.6976557"
       height="4.0284863"
       rx="2.0142431"
       fill="#e6e6e6"
       id="rect1573"
       style="stroke-width:0.6994" />
    <rect
       x="-132.33916"
       y="494.56235"
       width="7.6976557"
       height="4.0284863"
       rx="2.0142431"
       fill="#e6e6e6"
       id="rect1575"
       style="stroke-width:0.6994" />
    <rect
       x="-174.77859"
       y="494.2265"
       width="26.832958"
       height="4.0284863"
       rx="2.0142431"
       fill="#e6e6e6"
       id="rect1577"
       style="stroke-width:0.6994" />
    <rect
       x="-177.80014"
       y="530.7168"
       width="7.6976557"
       height="4.0284863"
       rx="2.0142431"
       fill="#e6e6e6"
       id="rect1579"
       style="stroke-width:0.6994" />
    <rect
       x="-165.91034"
       y="530.7168"
       width="7.6976557"
       height="4.0284863"
       rx="2.0142431"
       fill="#e6e6e6"
       id="rect1581"
       style="stroke-width:0.6994" />
    <rect
       x="-152.39781"
       y="531.05261"
       width="26.832958"
       height="4.0284863"
       rx="2.0142431"
       fill="#e6e6e6"
       id="rect1583"
       style="stroke-width:0.6994" />
    <rect
       x="-219.76411"
       y="530.7168"
       width="7.6976557"
       height="4.0284863"
       rx="2.0142431"
       fill="#e6e6e6"
       id="rect1585"
       style="stroke-width:0.6994" />
    <rect
       x="-208.34978"
       y="531.05261"
       width="26.832958"
       height="4.0284863"
       rx="2.0142431"
       fill="#e6e6e6"
       id="rect1587"
       style="stroke-width:0.6994" />
    <rect
       x="-208.57373"
       y="521.62457"
       width="7.6976557"
       height="4.0284863"
       rx="2.0142431"
       fill="#e6e6e6"
       id="rect1589"
       style="stroke-width:0.6994" />
    <rect
       x="-166.60974"
       y="521.62457"
       width="7.6976557"
       height="4.0284863"
       rx="2.0142431"
       fill="#e6e6e6"
       id="rect1591"
       style="stroke-width:0.6994" />
    <rect
       x="-154.71996"
       y="521.62457"
       width="7.6976557"
       height="4.0284863"
       rx="2.0142431"
       fill="#e6e6e6"
       id="rect1593"
       style="stroke-width:0.6994" />
    <rect
       x="-197.15939"
       y="521.96039"
       width="26.832958"
       height="4.0284863"
       rx="2.0142431"
       fill="#e6e6e6"
       id="rect1595"
       style="stroke-width:0.6994" />
    <rect
       x="-197.38333"
       y="512.53235"
       width="7.6976557"
       height="4.0284863"
       rx="2.0142431"
       fill="#e6e6e6"
       id="rect1597"
       style="stroke-width:0.6994" />
    <rect
       x="-155.41936"
       y="512.53235"
       width="7.6976557"
       height="4.0284863"
       rx="2.0142431"
       fill="#e6e6e6"
       id="rect1599"
       style="stroke-width:0.6994" />
    <rect
       x="-143.52956"
       y="512.53235"
       width="7.6976557"
       height="4.0284863"
       rx="2.0142431"
       fill="#e6e6e6"
       id="rect1601"
       style="stroke-width:0.6994" />
    <rect
       x="-185.96899"
       y="512.86823"
       width="26.832958"
       height="4.0284863"
       rx="2.0142431"
       fill="#e6e6e6"
       id="rect1603"
       style="stroke-width:0.6994" />
    <rect
       x="-186.19293"
       y="503.44019"
       width="7.6976557"
       height="4.0284863"
       rx="2.0142431"
       fill="#e6e6e6"
       id="rect1605"
       style="stroke-width:0.6994" />
    <rect
       x="-144.22896"
       y="503.44019"
       width="7.6976557"
       height="4.0284863"
       rx="2.0142431"
       fill="#e6e6e6"
       id="rect1607"
       style="stroke-width:0.6994" />
    <rect
       x="-132.33916"
       y="503.44019"
       width="7.6976557"
       height="4.0284863"
       rx="2.0142431"
       fill="#e6e6e6"
       id="rect1609"
       style="stroke-width:0.6994" />
    <rect
       x="-174.77859"
       y="503.776"
       width="26.832958"
       height="4.0284863"
       rx="2.0142431"
       fill="#e6e6e6"
       id="rect1611"
       style="stroke-width:0.6994" />
    <path
       d="m -196.30209,661.30545 c -0.15387,0.077 -0.30774,0.15387 -0.46161,0.22381 q -1.45825,0.72388 -2.93748,1.42677 -4.4272,2.10869 -8.9663,4.00756 a 199.66652,199.66652 0 0 1 -24.45801,8.41378 c -1.39879,-8.72151 -2.75563,-29.29086 -4.05651,-44.41887 -0.24479,-2.84656 -0.48958,-5.49732 -0.73437,-7.84027 a 67.950349,67.950349 0 0 0 -1.32187,-9.14815 3.048788,3.048788 0 0 0 -0.27276,-0.67842 c 0.13288,1.20996 0.27276,4.81887 0.40565,9.82657 0.0699,2.34299 0.13288,4.99371 0.20282,7.84027 0.32872,14.5615 0.67143,34.37549 1.01413,45.65681 -0.97216,0.23779 -1.95132,0.47559 -2.93048,0.6994 -0.61547,0.14687 -1.23794,0.28675 -1.8604,0.41964 -0.75536,0.16785 -1.51071,0.33571 -2.26606,0.48954 q -1.18548,0.25185 -2.37096,0.48259 a 202.8765,202.8765 0 0 1 -39.20835,3.80473 c -0.87425,0 -1.7415,-0.007 -2.61575,-0.014 -0.26578,0 -0.53155,-0.007 -0.80431,-0.014 -0.76934,-0.014 -1.56666,-0.028 -2.37796,-0.049 a 201.84052,201.84052 0 0 1 -46.04848,-6.6373 l 0.60848,-44.83852 0.10491,-7.84027 0.042,-2.97245 a 10.618495,10.618495 0 0 0 -0.61548,2.97245 c -0.24479,1.90936 -0.49657,4.61604 -0.74835,7.84027 -0.95818,12.42134 -1.94434,32.45914 -2.96546,43.85936 -12.09262,-3.44105 -20.93303,-6.58135 -31.98355,-12.10661 -0.42666,-0.20982 -0.86026,-0.42664 -1.28689,-0.64345 0.0769,-0.53854 0.16086,-1.07708 0.2378,-1.6296 1.25192,-8.70053 -0.22381,-20.02381 1.161,-29.4797 1.05609,-7.29473 2.14716,-14.30272 3.24521,-20.24762 1.32886,-7.15486 2.67867,-12.77803 4.01456,-15.51268 1.53868,-3.15429 3.07736,-6.25963 4.56708,-9.23208 q 0.96521,-1.91985 1.89537,-3.76976 c 0.33571,-0.66443 0.67142,-1.32187 1.00014,-1.96531 1.49672,-2.93049 2.9095,-5.63717 4.20339,-8.03611 0.90922,-1.68555 1.7485,-3.21024 2.51784,-4.54609 0.90223,-1.57365 1.69954,-2.87454 2.35698,-3.86069 a 38.680928,38.680928 0 0 1 20.47842,-15.53367 l 0.20982,-0.056 0.20283,0.0839 0.23076,0.10491 13.33056,-4.87482 5.95189,-14.3307 30.57076,-1.88138 4.93776,3.75578 2.52484,1.92335 2.69268,2.04924 4.95175,3.76976 1.4058,0.43363 2.0912,0.64345 14.30273,4.39223 0.14687,-0.063 0.20982,0.056 a 38.584417,38.584417 0 0 1 19.13557,13.63829 c 0.4756,0.61548 0.91622,1.25193 1.34285,1.89538 1.16101,1.72052 2.72766,4.44119 4.57408,7.85426 0.76234,1.40579 1.56665,2.93048 2.41292,4.54609 0.51057,0.97217 4.91678,14.72237 9.2041,28.76631 4.00756,13.14872 7.91021,26.55621 8.42078,29.99725 0.0909,0.63646 0.18883,1.27987 0.27976,1.91636 0.5805,3.97958 1.154,7.98714 1.70653,11.89679 0.8183,5.79802 1.61561,11.39322 2.37796,16.39392 0.007,0.049 0.014,0.091 0.021,0.13992 z"
       fill="#3f3d56"
       id="path1613"
       style="stroke-width:0.6994" />
    <polygon
       points="287.59,469.07 303.59,473.566 295.093,440.774 "
       opacity="0.2"
       id="polygon1615"
       transform="matrix(0.69939966,0,0,0.69939966,-441.03039,279.46666)" />
    <path
       d="m -429.95938,610.41261 a 4.4874951,4.4874951 0 0 0 4.32447,3.0291 l 18.52837,-0.47683 a 4.4261298,4.4261298 0 0 0 4.183,-3.25711 l 2.62197,-28.03699 a 6.8499203,6.8499203 0 0 0 2.964,0.60903 6.7571329,6.7571329 0 0 0 -0.33913,-13.51001 5.7238379,5.7238379 0 0 0 -1.21428,0.12629 4.5794382,4.5794382 0 0 0 -3.40891,-1.47084 l -28.5009,0.73597 a 4.0944115,4.0944115 0 0 0 -0.70303,0.0873 4.4513641,4.4513641 0 0 0 -3.4083,5.78028 z m 30.1955,-30.64548 1.86574,-6.68118 a 4.55056,4.55056 0 0 0 0.0143,-2.36018 c 0.0905,-2.4e-4 0.1704,-0.0432 0.26092,-0.0434 a 4.8331944,4.8331944 0 0 1 0.22631,9.66371 4.5497557,4.5497557 0 0 1 -2.36721,-0.57898 z"
       fill="#2f2e41"
       id="path1617"
       style="stroke-width:0.6994" />
    <path
       d="m -431.50381,568.2485 c 0.6072,3.4719 7.43398,5.91264 15.64266,5.4884 7.54843,-0.34779 13.72045,-2.99833 14.8512,-6.13969 a 4.213883,4.213883 0 0 0 -1.28993,-0.17197 l -28.5009,0.73597 a 4.0944115,4.0944115 0 0 0 -0.70303,0.0873 z"
       fill="#3f3d56"
       id="path1619"
       style="stroke-width:0.6994" />
    <path
       d="m -414.35673,595.00608 a 0.34742678,0.34742678 0 0 0 0.10555,-0.0464 l 4.02375,-2.63371 a 0.34916129,0.34916129 0 0 0 2.3e-4,-0.58484 l -4.18226,-2.73932 a 0.349504,0.349504 0 1 0 -0.38322,0.58459 l 3.73543,2.44663 -3.57673,2.34155 a 0.34963688,0.34963688 0 0 0 0.27722,0.63156 z"
       fill="#6c63ff"
       id="path1621"
       style="fill:#ffa200;fill-opacity:1;stroke-width:0.6994" />
    <path
       d="m -420.712,595.29915 a 0.34969983,0.34969983 0 0 0 0.0882,-0.64234 l -3.70895,-2.12641 3.58484,-2.66278 a 0.34944591,0.34944591 0 1 0 -0.41684,-0.56097 l -4.01359,2.98129 a 0.34935712,0.34935712 0 0 0 0.0344,0.58383 l 4.1721,2.39173 a 0.34945504,0.34945504 0 0 0 0.25987,0.0357 z"
       fill="#6c63ff"
       id="path1623"
       style="fill:#ffa200;fill-opacity:1;stroke-width:0.6994" />
    <path
       d="m -414.75694,597.3141 a 0.33711064,0.33711064 0 0 0 0.0958,-0.0405 0.34953197,0.34953197 0 0 0 0.11715,-0.48059 l -5.70394,-9.3778 a 0.34988167,0.34988167 0 0 0 -0.59757,0.36409 l 5.70391,9.3778 a 0.34993063,0.34993063 0 0 0 0.38463,0.15696 z"
       fill="#6c63ff"
       id="path1625"
       style="fill:#ffa200;fill-opacity:1;stroke-width:0.6994" />
    <polygon
       points="591.659,469.07 575.659,473.566 584.156,440.774 "
       opacity="0.2"
       id="polygon1631"
       transform="matrix(0.69939966,0,0,0.69939966,-441.03039,279.46666)" />
    <circle
       cx="-26.864014"
       cy="585.94806"
       r="28.442862"
       fill="#2f2e41"
       id="circle12983-9-3"
       style="stroke-width:5.66139"
       transform="scale(-1,1)" />
    <path
       fill="#2f2e41"
       d="m 39.822945,608.27099 h -8.639286 v 15.47826 h 8.639286 z m -17.278571,0 h -8.639301 v 15.47826 h 8.639301 z"
       id="path12985-4-6"
       style="stroke-width:5.66139" />
    <ellipse
       cx="-32.621593"
       cy="623.93042"
       fill="#2f2e41"
       rx="7.2012968"
       ry="2.7004862"
       id="ellipse12987-1-5"
       style="stroke-width:5.66139"
       transform="scale(-1,1)" />
    <ellipse
       cx="-15.34302"
       cy="623.57373"
       fill="#2f2e41"
       rx="7.2012968"
       ry="2.7004862"
       id="ellipse12989-3-9"
       style="stroke-width:5.66139"
       transform="scale(-1,1)" />
    <circle
       cx="-17.626421"
       cy="578.74677"
       r="9.7206192"
       fill="#ffffff"
       id="circle12991-7-5"
       style="stroke-width:5.66139"
       transform="scale(-1,1)" />
    <circle
       cx="-13.367147"
       cy="576.61713"
       r="3.2383194"
       fill="#3f3d56"
       id="circle12993-8-4"
       style="stroke-width:5.66139"
       transform="scale(-1,1)" />
    <path
       fill="#fba304"
       d="m 54.451992,559.49805 c 2.298533,-10.28108 -5.038635,-20.6754 -16.395403,-23.21172 -11.351094,-2.5363 -22.419118,3.74783 -24.711992,14.03461 -2.298533,10.2811 5.225476,14.07423 16.576569,16.61053 11.351108,2.5363 22.237968,2.85335 24.530826,-7.43342 z"
       id="path12995-8-9"
       style="fill:#ff6584;fill-opacity:1;stroke-width:5.66139" />
    <path
       d="m 119.72663,595.73519 c -2.12618,29.29086 0.0769,42.18779 -11.65899,66.33806 a 200.13987,200.13987 0 0 1 -33.235475,12.74306 q -1.783469,0.50357 -3.573932,0.97916 a 201.83828,201.83828 0 0 1 -46.048473,6.6373 c -0.811304,0.021 -1.60862,0.035 -2.377959,0.049 -0.272766,0.007 -0.538538,0.014 -0.80431,0.014 -0.874249,0.007 -1.741505,0.014 -2.615755,0.014 a 202.31611,202.31611 0 0 1 -48.636252,-5.89594 q -2.391947,-0.5875 -4.762912,-1.23794 a 199.65945,199.65945 0 0 1 -24.458006,-8.41378 q -6.294597,-2.62274 -12.365386,-5.65814 c -0.916213,-0.4616 -1.832427,-0.92321 -2.734652,-1.3988 -4.63702,-8.155 -7.273757,-18.07249 -7.329709,-29.99026 3.21028,-20.53436 193.509901,-51.88846 200.601811,-34.17966 z"
       fill="#2f2e41"
       id="path1633"
       style="stroke-width:0.6994" />
    <path
       d="m 119.72114,600.75141 c 0.1086,-1.81334 0.23,-3.68648 0.3716,-5.63707 -7.09191,-17.7088 -197.391562,13.64529 -200.601806,34.17966 0.0088,1.88268 0.08934,3.70972 0.22471,5.49348 7.77424,-20.26741 188.561446,-50.06745 200.005496,-34.03607 z"
       opacity="0.2"
       id="path1635"
       style="stroke-width:0.6994" />
    <circle
       cx="-294.50082"
       cy="480.5802"
       r="39.120941"
       fill="#a0616a"
       id="circle1641"
       style="stroke-width:0.6994" />
    <path
       d="m -333.15198,453.62137 c 3.18082,-4.2872 7.75269,-7.33523 11.24969,-11.36866 1.91876,-2.21309 3.51197,-4.72061 5.66909,-6.70182 4.00784,-3.68106 9.61273,-5.1894 15.05127,-5.37698 a 37.980605,37.980605 0 0 1 31.00517,14.71427 q 4.26411,-2.50015 8.52822,-5.00019 1.68463,4.43398 3.36927,8.86806 a 5.169074,5.169074 0 0 1 7.87779,6.46805 c 0.67648,-2.0905 3.77617,-2.53401 5.48505,-1.15299 1.70887,1.38113 2.16646,3.8383 1.88775,6.01773 a 12.113434,12.113434 0 0 1 -9.13753,10.0196 c -3.70966,0.82646 -8.02732,-0.0418 -10.99638,2.33073 -2.38042,1.90204 -3.09904,5.36553 -5.52826,7.20469 -2.99348,2.2663 -7.22438,1.2182 -10.94536,1.719 -6.51007,0.87634 -11.66485,7.53463 -10.88248,14.0567 -0.58897,-2.05796 -1.20796,-4.17549 -2.54479,-5.84721 -1.33693,-1.67172 -3.5885,-2.80228 -5.63886,-2.18769 -3.38917,1.01589 -3.94362,5.63557 -3.12222,9.07695 2.17845,9.12717 10.43456,23.88031 10.43456,23.88031 -10.7202,4.22871 -23.49197,0.2301 -31.76336,-7.79411 -8.27128,-8.02422 -12.57915,-19.38651 -14.45569,-30.7567 -1.59123,-9.64187 -1.36573,-20.32153 4.45707,-28.16974 z"
       fill="#2f2e41"
       id="path1643"
       style="stroke-width:0.6994" />
    <path
       d="m -185.06271,646.8676 -8.97998,-14.97817 29.85818,-22.65226 12.41434,-13.10724 a 13.401463,13.401463 0 0 1 22.55206,5.31789 v 0 a 13.401449,13.401449 0 0 1 -8.4923,16.58035 l -19.29126,6.58586 z"
       fill="#a0616a"
       id="path1649"
       style="stroke-width:0.6994" />
    <path
       d="m -178.57233,646.37329 -13.981,11.652 -3.76976,3.1403 -0.44058,0.36369 q -1.45825,0.72388 -2.93748,1.42677 -4.4272,2.10869 -8.9663,4.00756 a 199.66652,199.66652 0 0 1 -24.45801,8.41378 q -2.37091,0.65044 -4.76291,1.23794 c -0.97216,0.2378 -1.95132,0.47559 -2.93048,0.6994 -0.61548,0.14687 -1.23794,0.28675 -1.86041,0.41964 -0.75535,0.16785 -1.5107,0.33571 -2.26605,0.48954 q -1.18548,0.25185 -2.37097,0.48259 a 21.655701,21.655701 0 0 1 -6.72822,-15.69453 c 0,-0.1888 0,-0.38467 0.007,-0.58047 l 2.24508,-57.58157 0.99318,-25.52109 a 22.113618,22.113618 0 0 1 22.16397,-21.52753 c 0.67143,0 1.33586,0.035 1.99329,0.0979 0.47559,0.61547 0.91622,1.25193 1.34285,1.89537 1.161,1.72053 2.72766,4.44119 4.57407,7.85426 0.76235,1.4058 1.56666,2.93049 2.41293,4.5461 0.51056,0.97217 4.91678,14.72236 9.2041,28.76631 l -1.88838,14.66641 -3.41307,26.43734 14.00198,-9.19011 9.86154,-6.47644 1.168,1.95132 3.04238,5.07765 5.87496,9.79159 z"
       fill="#3f3d56"
       id="path1651"
       style="stroke-width:0.6994" />
    <path
       d="m -186.23773,629.91643 c -0.007,1.18898 -0.035,2.35698 -0.0979,3.51099 a 68.015491,68.015491 0 0 1 -1.10505,9.48386 55.353629,55.353629 0 0 1 -5.11261,15.11403 c -0.32173,0.63645 -0.66443,1.26595 -1.01413,1.88138 -0.90223,0.47564 -1.81844,0.9372 -2.73466,1.3988 -0.15386,0.077 -0.30773,0.15387 -0.4616,0.22381 q -5.84348,2.90601 -11.90378,5.43433 a 199.66652,199.66652 0 0 1 -24.45801,8.41378 q -2.37091,0.65044 -4.76291,1.23794 -4.66844,1.15401 -9.42791,2.09121 a 202.8765,202.8765 0 0 1 -39.20834,3.80473 c -0.87425,0 -1.74151,-0.007 -2.61576,-0.014 -0.26577,0 -0.53154,-0.007 -0.80431,-0.014 -0.76934,-0.014 -1.56665,-0.028 -2.37796,-0.0489 a 201.84052,201.84052 0 0 1 -46.04847,-6.63731 q -1.79396,-0.47209 -3.57393,-0.97916 a 200.14342,200.14342 0 0 1 -33.23547,-12.74306 c -11.73593,-24.15027 -9.53282,-37.0472 -11.659,-66.33806 4.36426,-10.90364 78.19988,-3.20325 135.04708,9.11318 15.42876,3.34313 29.5986,7.02897 40.79599,10.77775 11.56807,3.86768 19.95387,7.79831 23.24105,11.49118 a 5.5513449,5.5513449 0 0 1 1.51769,2.79755 z"
       fill="#2f2e41"
       id="path1653"
       style="stroke-width:0.6994" />
    <path
       d="m -386.83541,600.75141 c -0.1086,-1.81334 -0.23,-3.68648 -0.3716,-5.63707 7.09192,-17.7088 197.39157,13.64529 200.60181,34.17966 -0.009,1.88268 -0.0893,3.70972 -0.22471,5.49348 -7.77424,-20.26741 -188.56145,-50.06745 -200.0055,-34.03607 z"
       opacity="0.2"
       id="path1655"
       style="stroke-width:0.6994" />
    <circle
       cx="-31.540863"
       cy="510.04318"
       r="26.258888"
       fill="#2f2e41"
       id="circle827-9"
       transform="scale(-1,1)"
       style="stroke-width:2.30443" />
    <path
       fill="#2f2e41"
       d="m 43.507741,530.65158 h -7.977909 v 14.29203 h 7.977909 z m -15.955818,0 h -7.977908 v 14.29203 h 7.977908 z"
       id="path829-7"
       style="stroke-width:2.30443" />
    <ellipse
       cx="-36.859501"
       cy="545.10956"
       fill="#2f2e41"
       rx="6.6482573"
       ry="2.4933844"
       id="ellipse831-0"
       transform="scale(-1,1)"
       style="stroke-width:2.30443" />
    <ellipse
       cx="-20.903656"
       cy="544.77771"
       fill="#2f2e41"
       rx="6.6482573"
       ry="2.4933844"
       id="ellipse833-3"
       transform="scale(-1,1)"
       style="stroke-width:2.30443" />
    <ellipse
       cx="-207.36624"
       cy="449.89008"
       fill="#2f2e41"
       rx="14.568556"
       ry="4.5742774"
       transform="matrix(-0.91356886,-0.40668408,-0.40668408,0.91356886,0,0)"
       id="ellipse835-9"
       style="stroke-width:2.30443" />
    <ellipse
       cx="-460.9061"
       cy="248.53058"
       fill="#2f2e41"
       rx="14.568556"
       ry="4.5742774"
       transform="matrix(-0.57035523,-0.82139815,-0.82139815,0.57035523,0,0)"
       id="ellipse837-8"
       style="stroke-width:2.30443" />
    <circle
       cx="-28.387739"
       cy="504.19183"
       r="8.9734192"
       fill="#ffffff"
       id="circle839-6"
       transform="scale(-1,1)"
       style="stroke-width:2.30443" />
    <circle
       cx="-25.338991"
       cy="503.27271"
       r="2.9911397"
       fill="#3f3d56"
       id="circle841-5"
       transform="scale(-1,1)"
       style="stroke-width:2.30443" />
    <path
       fill="#ffffff"
       d="m 19.755713,522.48272 c -0.880288,3.17089 2.327466,6.21042 7.164448,6.78652 4.834677,0.57611 10.530321,-1.93685 12.836558,-4.9037 l 3.639767,-5.92903 c -3.001006,0.7058 -8.989219,1.83169 -13.826201,1.25558 -4.836982,-0.5738 -8.938852,-0.38254 -9.814534,2.78835 z"
       id="path843-7"
       style="stroke-width:2.30443"
       sodipodi:nodetypes="ccccccc" />
    <path
       fill="#ffa200"
       d="m 40.728608,494.58969 a 46.390317,46.390317 0 0 0 13.550001,3.1801 1.5439627,1.5439627 0 0 0 1.534745,-0.95634 l 3.986649,-9.91593 a 1.5255273,1.5255273 0 0 0 -0.843418,-1.9818 l -24.89006,-10.0104 a 1.5255273,1.5255273 0 0 0 -1.981804,0.84572 l -3.986649,9.90901 a 1.5278317,1.5278317 0 0 0 0.460884,1.76288 48.279942,48.279942 0 0 0 12.169652,7.16676 z"
       id="path845-6"
       style="stroke-width:2.30443" />
    <path
       d="m 32.363556,475.86395 -0.663673,1.65918 11.568198,10.13947 a 1.2282569,1.2282569 0 0 0 0.781199,0.29956 l 14.858912,0.34336 0.610672,-1.52091 a 1.2213436,1.2213436 0 0 0 -0.675196,-1.58775 l -24.892365,-10.0081 a 1.2213436,1.2213436 0 0 0 -1.585442,0.67519 z"
       opacity="0.2"
       id="path847-2"
       style="stroke-width:2.30443" />
    <path
       fill="#ffa200"
       d="m 44.415683,485.8974 a 1.5255273,1.5255273 0 0 0 0.534626,0.10831 l 22.203105,0.51389 a 1.5255273,1.5255273 0 0 0 1.030076,-2.67774 L 52.529552,470.33334 a 1.5393538,1.5393538 0 0 0 -0.903333,-0.36871 l -22.972781,-1.39187 a 1.5232229,1.5232229 0 0 0 -1.094601,2.66852 l 16.42131,14.38881 a 1.5209184,1.5209184 0 0 0 0.43784,0.26731 z"
       id="path849-7"
       style="stroke-width:2.30443" />
    <path
       fill="#3f3d56"
       d="m 48.55212,478.10385 16.688623,6.70817 -3.071794,7.63686 0.566888,0.22814 3.295323,-8.20375 -17.250902,-6.93631 z"
       id="path851-0"
       style="stroke-width:2.30443" />
    <polygon
       points="643.134,138.016 642.841,138.313 516.341,265.813 517.763,267.219 643.969,140.016 703.552,140.016 703.552,138.016 "
       fill="#3f3d56"
       id="polygon17454"
       transform="matrix(0.66373083,0,0,0.39878766,-378.78593,377.22085)" />
    <circle
       cx="-86.044739"
       cy="485.30814"
       r="1.0395341"
       fill="#3f3d56"
       id="circle853-3"
       transform="scale(-1,1)"
       style="stroke-width:1.9651" />
    <rect
       x="111.04995"
       y="429.68896"
       width="65.230095"
       height="5.8125834"
       fill="#6c63ff"
       id="rect17456"
       style="fill:#ff6584;fill-opacity:1;stroke-width:0.446098" />
    <path
       d="M 103.10007,439.17693 H 89.291082 v -13.8092 h 13.808988 z m -12.916843,-0.8922 h 12.024613 v -12.0248 H 90.183227 Z"
       fill="#3f3d56"
       id="path17458"
       style="stroke-width:0.446098" />
    <rect
       x="111.04995"
       y="449.06424"
       width="65.230095"
       height="5.8125834"
       fill="#6c63ff"
       id="rect17460"
       style="fill:#ff6584;fill-opacity:1;stroke-width:0.446098" />
    <path
       d="M 103.10007,458.55212 H 89.291082 v -13.80899 h 13.808988 z m -12.916843,-0.89219 h 12.024613 v -12.0246 H 90.183227 Z"
       fill="#3f3d56"
       id="path17462"
       style="stroke-width:0.446098" />
    <rect
       x="111.04995"
       y="468.43951"
       width="65.230095"
       height="5.8125834"
       fill="#6c63ff"
       id="rect17464"
       style="fill:#ff6584;fill-opacity:1;stroke-width:0.446098" />
    <path
       d="M 103.10007,477.92729 H 89.291082 v -13.80898 h 13.808988 z m -12.916843,-0.8922 H 102.20784 V 465.01051 H 90.183227 Z"
       fill="#3f3d56"
       id="path17466"
       style="stroke-width:0.446098" />
    <path
       d="m -418.63341,540.06856 v 0 a 197.08418,197.08418 0 0 1 -1.65372,-42.7217 l 1.65372,-23.59769 v 0 c -9.11237,18.13166 -7.05299,41.99612 0,66.31934 z"
       fill="#cacaca"
       id="path17410-4"
       style="stroke-width:0.789517" />
    <path
       d="m -411.52776,544.01614 v 0 a 144.87412,144.87412 0 0 1 -0.79568,-25.42954 l 0.79568,-14.04629 v 0 c -4.38427,10.7927 -3.39343,24.99768 0,39.47583 z"
       fill="#cacaca"
       id="path17412-3"
       style="stroke-width:0.789517" />
  </g>
</svg>
