<svg xmlns="http://www.w3.org/2000/svg" viewBox="0 0 119.718 86.605">
  <g transform="translate(-48.238 -93.95)">
    <g opacity=".608" transform="translate(65.87 -32.317) scale(1.496)">
      <path fill="#e5e5e5" d="M23.83 112.428H-5.35a.88.88 0 0 1-.879-.88v-9.843a.88.88 0 0 1 .88-.879H23.83a.88.88 0 0 1 .879.879v9.844a.88.88 0 0 1-.88.879z"/>
      <path fill="#fff" d="M-1.659 103.463h7.734v.879h-7.734z"/>
      <circle cx="16.271" cy="103.99" r=".527" fill="#fba304"/>
      <circle cx="18.029" cy="103.99" r=".527" fill="#fba304"/>
      <circle cx="19.787" cy="103.99" r=".527" fill="#fba304"/>
      <path fill="#e5e5e5" d="M23.83 124.908H-5.35a.88.88 0 0 1-.879-.879v-9.844a.88.88 0 0 1 .88-.878H23.83a.88.88 0 0 1 .879.878v9.844a.88.88 0 0 1-.88.88z"/>
      <path fill="#fff" d="M-1.659 115.943h7.734v.879h-7.734z"/>
      <circle cx="16.271" cy="116.471" r=".527" fill="#fba304"/>
      <circle cx="18.029" cy="116.471" r=".527" fill="#fba304"/>
      <circle cx="19.787" cy="116.471" r=".527" fill="#fba304"/>
      <path fill="#e5e5e5" d="M23.83 137.389H-5.35a.88.88 0 0 1-.879-.88v-9.843a.88.88 0 0 1 .88-.879H23.83a.88.88 0 0 1 .879.879v9.844a.88.88 0 0 1-.88.879z"/>
      <path fill="#fff" d="M-1.659 128.424h7.734v.879h-7.734z"/>
      <circle cx="16.271" cy="128.951" r=".527" fill="#fba304"/>
      <circle cx="18.029" cy="128.951" r=".527" fill="#fba304"/>
      <circle cx="19.787" cy="128.951" r=".527" fill="#fba304"/>
    </g>
    <g fill="#cbcbda" data-name="Group 100">
      <path d="M94 168.985a1.21 1.21 0 1 0 1.21 1.21 1.21 1.21 0 0 0-1.21-1.21zm0 1.955a.745.745 0 1 1 .744-.745.745.745 0 0 1-.745.745z" data-name="Path 1465"/>
      <path d="M89.345 168.055H94v4.606a.606.606 0 0 1-.606.606h-3.441a.606.606 0 0 1-.607-.606z" data-name="Path 1467"/>
    </g>
    <path fill="#cacaca" d="M103.306 173.412H48.312a.083.126 0 0 1 0-.25h54.994a.083.126 0 0 1 0 .25z" data-name="Path 944"/>
    <path fill="#ffb6b6" d="m67.015 174.375.639-3.157-8.251-1.669-.433 2.14z"/>
    <path fill="#2f2e41" d="m60.212 169.145-.852 4.213a2.74 2.74 0 0 1-3.228 2.141l-.088-.017 1.396-6.898z"/>
    <circle cx="68.52" cy="134.62" r="5.463" fill="#feb8b8" data-name="Ellipse 276"/>
    <path fill="#2f2e41" d="M73.622 129.907a6.309 6.309 0 0 0-3.59-2.743l-.67.489v-.636a5.807 5.807 0 0 0-1.085-.063l-.578.524v-.48a6.249 6.249 0 0 0-4.31 2.564c-1.257 1.811-1.47 4.331-.234 6.157.34-1.042.751-2.02 1.09-3.063a3.086 3.086 0 0 0 .805.004l.412-.963.116.922a54.232 54.232 0 0 0 4.39-.58l-.119-.708.706.588c.371-.085.592-.163.574-.222.902 1.454 2.006 2.383 2.908 3.837.342-2.05.737-3.756-.415-5.627z" data-name="Path 1461"/>
    <ellipse cx="70.297" cy="166.433" fill="#2f2e41" data-name="Ellipse 260" rx="14.066" ry="3.934"/>
    <path fill="#fba304" d="M80.269 148.668c-.188-1.13-.382-2.282-.907-3.3-.345-.667-.893-1.303-1.632-1.435a1.579 1.579 0 0 1-.425-.098 148.125 148.125 0 0 1-3.587-2.054c-.397-.248-1.024-.708-1.34-.708-.318-.007-1.536.277-6.293-.095a17.181 17.181 0 0 0-2.318 1.14c-.016-.01-4.938 2.633-5.123 2.626-.35-.015-.675.21-.876.492-.2.282-.295.631-.393.97 1.075 2.393 2.058 4.79 3.133 7.185a.613.613 0 0 1 .078.295.72.72 0 0 1-.134.294c-.527.847-.51 1.913-.453 2.908.058.996.13 2.047-.316 2.94-.12.244-.278.468-.393.713-.27.555-.367 2.33-.21 2.926l19.722.565c-.424-1.166 1.466-15.365 1.466-15.365z"/>
    <path fill="#fbbebe" d="M55.67 153.497a3.482 3.482 0 0 0-.012.859l.283 4.06c.026.382.052.763.088 1.145a29 29 0 0 0 .295 2.21.393.393 0 0 0 .403.382c1.245.263 2.53.253 3.8.18 1.938-.107 6.895-.312 7.198-.705.303-.394.127-1.03-.268-1.348-.395-.319-6.937-1.094-6.937-1.094.064-.507.256-.984.44-1.465.328-.853.635-1.734.64-2.648.007-.914-.338-1.874-1.086-2.398-.616-.43-1.409-.51-2.16-.492-.545.016-1.488-.115-1.987.099-.395.174-.623.829-.697 1.215z" data-name="Path 1421"/>
    <path fill="#2f2e41" d="M80.304 162.673c.327-.125.688-.08 1.04-.032 1.13.154 2.276.313 3.324.764.492.21.96.492 1.292.906.295.373.468.829.63 1.278l.379 1.035a4.981 4.981 0 0 1 .33 1.213c.117 1.238-.73 2.406-1.795 3.05-1.065.643-2.32.872-3.541 1.112-1.222.24-2.448.505-3.665.787a14.753 14.753 0 0 1-1.724.339c-1.303.147-2.664-.07-3.901.361-.492.172-.975.428-1.485.547a9.24 9.24 0 0 1-1.027.156l-2.342.268a12.776 12.776 0 0 1-1.436.11c-1.023 0-2.03-.242-3.023-.484a.764.764 0 0 1-.295-.12c-.157-.123-.191-.343-.214-.541q-.15-1.32-.263-2.641c-.024-.287-.042-.596.115-.837.197-.295.58-.388.93-.445a24.283 24.283 0 0 1 4.494-.312c.571-.571 1.513-.574 2.262-.885a6.73 6.73 0 0 0 .798-.434 10.426 10.426 0 0 1 4.38-1.384 4.077 4.077 0 0 0 .896-.128c.58-.18 1.107-.67 1.702-.55.074-.203.125-.476.295-.615.085-.072.19-.12.267-.197.164-.166.179-.428.154-.66-.024-.232-.08-.47-.02-.696a.963.963 0 0 1 .11-.243c.294-.51.74-.77 1.333-.722z" data-name="Path 1423"/>
    <path fill="#fba304" d="M57.318 146.278a1.018 1.018 0 0 0-.219.35 16.511 16.511 0 0 0-1.387 5.667.567.567 0 0 1-.063.275 1.2 1.2 0 0 1-.145.156.543.543 0 0 0 .065.765l.027.022c.163-.306.551-.405.896-.432 1.654-.13 3.269.638 4.927.58-.117-.404-.285-.792-.38-1.202-.422-1.816.63-3.794-.015-5.544-.129-.35-.344-.695-.684-.848a1.82 1.82 0 0 0-.437-.116c-.42-.076-1.254-.4-1.659-.27-.15.049-.208.19-.332.274-.188.12-.438.165-.594.323z" data-name="Path 1430"/>
    <path fill="#fbbebe" d="M80.28 152.282c-.498-.214-1.442-.083-1.988-.099-.75-.017-1.543.062-2.158.492-.75.524-1.093 1.484-1.087 2.398.006.914.312 1.795.64 2.648.184.481.377.958.44 1.465 0 0-6.542.775-6.937 1.093-.394.319-.57.955-.268 1.349.303.393 9.754.788 10.998.525a.393.393 0 0 0 .403-.383c.126-.734.227-1.468.295-2.21.036-.38.062-.762.089-1.145l.282-4.06a3.482 3.482 0 0 0-.012-.858c-.073-.387-.302-1.042-.697-1.215z" data-name="Path 1421"/>
    <path fill="#fba304" d="M78.735 145.955c-.124-.085-.183-.225-.332-.273-.405-.13-1.24.193-1.658.27a1.82 1.82 0 0 0-.438.115c-.34.153-.555.498-.684.848-.645 1.75.408 3.728-.014 5.544-.096.41-.264.798-.381 1.202 1.658.058 3.273-.71 4.927-.58.345.027.734.126.896.432q.014-.01.027-.022a.543.543 0 0 0 .065-.765 1.2 1.2 0 0 1-.144-.156.567.567 0 0 1-.064-.275 16.511 16.511 0 0 0-1.387-5.667 1.018 1.018 0 0 0-.218-.35c-.156-.158-.406-.202-.595-.323z" data-name="Path 1430"/>
    <path fill="#ffb6b6" d="m72.732 174.687.424-3.193 8.345 1.109-.287 2.163z"/>
    <path fill="#2f2e41" d="m83.672 172.33-.928 6.976-.088-.012a2.74 2.74 0 0 1-2.354-3.076l.566-4.26z"/>
    <path fill="#2f2e41" d="M61.547 163.768c0 .098-.154 0-.169-.105-.108-.796-.74-1.452-1.475-1.77-.736-.32-1.574-.336-2.37-.26-1.205.114-2.558.575-2.999 1.701-.104.263-1.08 2.608-.985 3.135.257 1.407 1.218 2.61 2.384 3.443 1.166.833 2.528 1.33 3.886 1.78a67.395 67.395 0 0 0 11.017 2.63c.606.092 1.217.177 1.798.371.519.174 1.005.435 1.513.64 1.18.474 2.45.643 3.708.81.214.027.46.047.618-.1.205-.189.137-.52.08-.792a4.264 4.264 0 0 1 .502-3.025c.21-.355.484-.718.444-1.127-.047-.478-.523-.817-.997-.893-.474-.077-.956.036-1.432.098a.767.767 0 0 1-.487-.048.973.973 0 0 1-.19-.17 2.157 2.157 0 0 0-2.513-.35c-.176.098-.442-.122-.626-.204l-2.068-.937c-2.377-1.075-4.765-2.155-7.279-2.835a1.529 1.529 0 0 1-.56-.233c-.126-.099-.215-.232-.33-.342-.251-.237-.6-.331-.901-.5-.3-.168-.638-.58-.569-.917z" data-name="Path 1427"/>
    <circle cx="66.902" cy="160.872" r="1.474" fill="#fbbebe"/>
    <circle cx="70.167" cy="160.872" r="1.474" fill="#fbbebe"/>
    <path fill="#3f3d56" d="M79.268 164.195H59.012a.893.893 0 0 1-.892-.892v-12.29a.893.893 0 0 1 .892-.891h20.256a.893.893 0 0 1 .892.892v12.289a.893.893 0 0 1-.892.892z"/>
    <circle cx="69.091" cy="157.158" r=".59" fill="#fff" data-name="Ellipse 263"/>
    <ellipse cx="-80.114" cy="177.918" fill="#2f2e41" rx="2.512" ry=".789" transform="rotate(-69.082)"/>
    <circle cx="138.605" cy="136.146" r=".87" fill="#fba304"/>
    <ellipse cx="135.247" cy="163.771" fill="#3f3d56" rx="10.811" ry="1.471"/>
    <circle cx="134.662" cy="156.585" r="5.024" fill="#2f2e41"/>
    <path fill="#2f2e41" d="M132.373 160.528h1.526v2.734h-1.526zm3.052 0h1.526v2.734h-1.526z"/>
    <ellipse cx="133.645" cy="163.294" fill="#2f2e41" rx="1.272" ry=".477"/>
    <ellipse cx="136.697" cy="163.231" fill="#2f2e41" rx="1.272" ry=".477"/>
    <circle cx="134.789" cy="155.313" r="1.717" fill="#fff"/>
    <circle cx="134.789" cy="155.313" r=".572" fill="#3f3d56"/>
    <path fill="#fba304" d="M129.789 151.913c-.406-1.816.89-3.652 2.896-4.1 2.005-.448 3.96.662 4.365 2.479.406 1.816-.923 2.486-2.928 2.934-2.005.448-3.928.504-4.333-1.313z"/>
    <circle cx="132.945" cy="142.15" r="5.024" fill="#2f2e41"/>
    <path fill="#2f2e41" d="M130.656 146.092h1.526v2.734h-1.526zm3.052 0h1.526v2.734h-1.526z"/>
    <ellipse cx="131.928" cy="148.859" fill="#2f2e41" rx="1.272" ry=".477"/>
    <ellipse cx="134.98" cy="148.795" fill="#2f2e41" rx="1.272" ry=".477"/>
    <circle cx="133.072" cy="140.878" r="1.717" fill="#fff"/>
    <circle cx="133.072" cy="139.788" r=".572" fill="#3f3d56"/>
    <path fill="#fba304" d="M128.072 137.478c-.406-1.817.89-3.653 2.896-4.1 2.005-.448 3.96.662 4.365 2.478.406 1.817-.923 2.487-2.928 2.935-2.005.447-3.928.503-4.333-1.313z"/>
    <ellipse cx="-71.784" cy="174.923" fill="#2f2e41" rx=".789" ry="2.512" transform="rotate(-64.626)"/>
    <path fill="#fff" d="M136.263 143.88c-.102-.48-1.543-1.166-2.917-.874-1.374.293-2.374 1.922-2.271 2.403.102.48 1.268-.368 2.642-.661 1.374-.293 2.649-.387 2.546-.868z"/>
    <circle cx="128.812" cy="162.282" r=".87" fill="#fba304"/>
    <path fill="#ff6584" d="M140.754 161.263h2.289v2.289h-2.289z"/>
    <circle cx="140.767" cy="162.791" r=".87" fill="#fba304"/>
    <path fill="#3f3d56" d="M156.853 167.965h-26.317a.527.527 0 0 0-.527.526v4.96h.211v-4.96a.316.316 0 0 1 .316-.316h26.317a.316.316 0 0 1 .316.316v4.995h.21v-4.995a.527.527 0 0 0-.526-.526z"/>
    <path fill="#3f3d56" d="M95.376 173.17h71.017v.242H95.376z"/>
    <path d="M103.026 97.387v75.893h.26V97.654h26.67-.414l.051-.267z"/>
    <g transform="matrix(.57992 .36768 -.36768 .57992 24.706 77.801)">
      <circle cx="163.725" cy="-40.911" r="7.316" fill="#2f2e41"/>
      <path fill="#2f2e41" d="m168.738-31.937-2.188.396-.71-3.918 2.188-.396zm-4.374.792-2.188.396-.709-3.918 2.188-.396z"/>
      <ellipse cx="143.983" cy="82.03" fill="#2f2e41" rx="1.852" ry=".695" transform="rotate(-40.261)"/>
      <ellipse cx="147.753" cy="84.207" fill="#2f2e41" rx="1.852" ry=".695" transform="rotate(-40.261)"/>
      <circle cx="163.213" cy="-42.701" r="2.501" fill="#fff"/>
      <circle cx="163.172" cy="-42.564" r=".834" fill="#3f3d56"/>
      <path fill="#fba304" d="M169.497-48.87c.11-2.71-2.225-5.004-5.215-5.125-2.99-.122-5.502 1.976-5.612 4.684-.11 2.709 1.968 3.324 4.958 3.446 2.99.121 5.759-.297 5.869-3.006z"/>
      <ellipse cx="76.247" cy="143.563" fill="#2f2e41" rx="1.148" ry="3.658" transform="rotate(-77.09)"/>
      <ellipse cx="77.128" cy="158.095" fill="#2f2e41" rx="1.148" ry="3.658" transform="rotate(-77.09)"/>
      <path fill="#fff" d="M161.563-36.905a2.124 2.475 62.75 1 1 4.791-.938c.12 1.189-.928 1.645-2.251 1.904-1.323.258-2.42.222-2.54-.966z"/>
      <path fill="none" stroke="#3f3d56" stroke-miterlimit="10" stroke-width=".343" d="m148.13-51.673 5.832 8.877"/>
      <circle cx="145.027" cy="-56.646" r="6.298" fill="#ff6584"/>
    </g>
    <circle cx="122.965" cy="173.274" r="1.812" fill="#fba304" data-name="Ellipse 266"/>
    <circle cx="135.458" cy="168.016" r="1.812" fill="#3f3d56" data-name="Ellipse 268"/>
    <circle cx="144.956" cy="168.016" r="1.812" fill="#ccc" data-name="Ellipse 269"/>
    <circle cx="140.354" cy="173.274" r="1.812" fill="#fba304" data-name="Ellipse 270"/>
    <circle cx="166.145" cy="173.274" r="1.812" fill="#fba304" data-name="Ellipse 271"/>
    <circle cx="157.274" cy="173.274" r="1.812" fill="#fba304" data-name="Ellipse 272"/>
    <path fill="#3f3d56" d="M110.173 173.396a.105.105 0 0 1-.105-.105v-5.199a.527.527 0 0 1 .526-.526h5.126a.105.105 0 0 1 0 .21h-5.126a.316.316 0 0 0-.316.316v5.199a.105.105 0 0 1-.105.105z"/>
    <circle cx="115.961" cy="167.632" r="1.812" fill="#e6e6e6" data-name="Ellipse 265"/>
    <path fill="#3f3d56" d="M150.719 173.387h-.21v5.198a.527.527 0 0 0 .526.527h5.126v-.21h-5.126a.316.316 0 0 1-.316-.317z"/>
    <circle cx="156.402" cy="178.744" r="1.812" fill="#e6e6e6" data-name="Ellipse 265"/>
    <path fill="none" stroke="#3f3d56" stroke-width=".265" d="M135.571 167.512v-5.153"/>
  </g>
</svg>
