<svg xmlns="http://www.w3.org/2000/svg" xmlns:xlink="http://www.w3.org/1999/xlink" viewBox="0 0 367.815 179.781">
  <defs>
    <path id="a" fill="#ffa200" d="M142.78 142.581 96.9 159.1l-83.735-18.122 55.747-10.163z"/>
  </defs>
  <g transform="translate(-209.66 -207.765)">
    <circle cx="451.807" cy="286.64" r="11.395" fill="#2f2e41"/>
    <path fill="#2f2e41" d="M446.614 295.583h3.462v6.202h-3.462zm6.924 0H457v6.202h-3.462z"/>
    <ellipse cx="449.499" cy="301.857" fill="#2f2e41" rx="2.885" ry="1.082"/>
    <ellipse cx="456.423" cy="301.713" fill="#2f2e41" rx="2.885" ry="1.082"/>
    <ellipse cx="128.791" cy="525.388" fill="#2f2e41" rx="6.322" ry="1.985" transform="rotate(-45.022)"/>
    <ellipse cx="11.844" cy="527.454" fill="#2f2e41" rx="6.322" ry="1.985" transform="rotate(-55.225)"/>
    <circle cx="451.327" cy="285.025" r="3.894" fill="#fff"/>
    <circle cx="452.65" cy="283.702" r="1.298" fill="#3f3d56"/>
    <path fill="#fff" d="M455.997 292.228c.382 1.376-1.01 2.695-3.109 2.945-2.098.25-4.11-.662-4.491-2.038l-.001-.005c-.38-1.376 1.243-1.863 3.342-2.113 2.099-.249 3.879-.166 4.259 1.21z"/>
    <path fill="#ffa200" d="M447.82 279.934a20.131 20.131 0 0 1-5.88 1.38.67.67 0 0 1-.666-.415l-1.73-4.303a.662.662 0 0 1 .366-.86l10.801-4.344a.662.662 0 0 1 .86.367l1.73 4.3a.663.663 0 0 1-.2.765 20.951 20.951 0 0 1-5.281 3.11z"/>
    <path d="m451.45 271.808.288.72-5.02 4.4a.533.533 0 0 1-.339.13l-6.448.149-.265-.66a.53.53 0 0 1 .293-.689l10.802-4.343a.53.53 0 0 1 .688.293z" opacity=".2"/>
    <path fill="#ffa200" d="M446.22 276.162a.662.662 0 0 1-.232.047l-9.635.223a.662.662 0 0 1-.447-1.162l6.793-5.862a.668.668 0 0 1 .392-.16l9.969-.604a.661.661 0 0 1 .475 1.158l-7.126 6.244a.66.66 0 0 1-.19.116z"/>
    <path fill="#3f3d56" d="m444.425 272.78-7.242 2.911 1.333 3.314-.246.099-1.43-3.56 7.486-3.01z"/>
    <circle cx="438.492" cy="279.3" r=".529" fill="#3f3d56"/>
  </g>
  <g transform="translate(-242.547 -247.331)">
    <path fill="#ffa200" d="M495.187 259.717a20.13 20.13 0 0 1-4.586-3.93.67.67 0 0 1-.058-.783l2.451-3.937a.662.662 0 0 1 .912-.212l9.882 6.153a.662.662 0 0 1 .212.911l-2.45 3.935a.663.663 0 0 1-.735.29 20.951 20.951 0 0 1-5.628-2.427z"/>
    <path d="m503.888 257.849-.41.658-6.516-1.454a.533.533 0 0 1-.304-.196l-3.927-5.116.376-.604a.53.53 0 0 1 .729-.17l9.882 6.153a.53.53 0 0 1 .17.729z" opacity=".2"/>
    <path fill="#ffa200" d="M497.287 256.199a.662.662 0 0 1-.175-.159l-5.87-7.645a.662.662 0 0 1 .675-1.047l8.741 2.022a.668.668 0 0 1 .36.222l6.374 7.689a.661.661 0 0 1-.653 1.067l-9.247-2.065a.66.66 0 0 1-.205-.084z"/>
    <path fill="#3f3d56" d="m490.219 251.52 2.027-3.257 6.851 4.266-.14.224-6.626-4.125-1.888 3.032z"/>
    <circle cx="490.191" cy="251.815" r=".529" fill="#3f3d56"/>
    <circle cx="522.754" cy="273.675" r="11.395" fill="#2f2e41"/>
    <path fill="#2f2e41" d="m527.7 281.39 2.955-1.806 3.234 5.292-2.954 1.805zm-5.907 3.61 2.954-1.806 3.234 5.292-2.954 1.806z"/>
    <ellipse cx="304.11" cy="521.556" fill="#2f2e41" rx="2.885" ry="1.082" transform="rotate(-31.431)"/>
    <ellipse cx="297.186" cy="521.412" fill="#2f2e41" rx="2.885" ry="1.082" transform="rotate(-31.431)"/>
    <ellipse cx="173.161" cy="550.891" fill="#2f2e41" rx="1.985" ry="6.322" transform="rotate(-44.978)"/>
    <ellipse cx="280.445" cy="533.35" fill="#2f2e41" rx="1.985" ry="6.322" transform="rotate(-34.775)"/>
    <circle cx="519.265" cy="270.473" r="3.894" fill="#fff"/>
    <circle cx="517.942" cy="269.15" r="1.298" fill="#3f3d56"/>
    <path fill="#fff" d="M514.25 276.97c-.738 1.21.245 2.846 2.198 3.655 1.952.81 4.133.485 4.872-.725l.003-.004c.736-1.21-.694-2.117-2.647-2.925-1.953-.808-3.69-1.212-4.426-.002z"/>
    <path fill="#e6e6e6" d="M518.93 259.368c1.018-4.098 5.51-6.51 10.032-5.386 4.523 1.123 7.365 5.355 6.347 9.453-1.017 4.097-4.393 4.11-8.915 2.987-4.523-1.123-8.48-2.957-7.463-7.054z"/>
  </g>
  <g transform="translate(155.612 22.3) scale(.26458)">
    <path fill="#e6e6e6" d="M464.906 218.808h337.121v9.889H464.906z"/>
    <path fill="#e6e6e6" d="M492.774 136.101h85.404v85.404h-85.404z"/>
    <path fill="#ccc" d="M509.855 153.182h51.242v51.242h-51.242z"/>
    <path fill="#e6e6e6" d="M684.259 136.101h21.576v85.404h-21.576z"/>
    <path fill="#ccc" d="M684.259 149.586h21.576v9.889h-21.576zm0 43.151h21.576v9.889h-21.576z"/>
    <path fill="#e6e6e6" d="M650.997 136.101h21.576v85.404h-21.576z"/>
    <path fill="#ccc" d="M650.997 149.586h21.576v9.889h-21.576zm0 43.151h21.576v9.889h-21.576z"/>
    <path fill="#e6e6e6" d="m705.09 145.321 19.335-9.573 37.893 76.537-19.336 9.573z"/>
    <path fill="#ccc" d="m711.072 157.405 19.336-9.573 4.388 8.862-19.336 9.573zm19.147 38.672 19.336-9.573 4.387 8.862-19.336 9.573z"/>
    <path fill="#e6e6e6" d="m535.554 189.201 10.865 18.819h-43.461l10.865-18.819 10.865-18.819z"/>
    <path fill="#e6e6e6" d="m554.432 192.797 10.866 18.819h-43.461l10.865-18.819 10.865-18.819z"/>
    <circle cx="551.209" cy="162.171" r="6.293" fill="#e6e6e6"/>
    <path fill="#e6e6e6" d="M802.027 92.95H464.906v-9.89h337.121z"/>
    <path fill="#e6e6e6" d="M774.158 85.757h-85.404V.353h85.404z"/>
    <path fill="#ccc" d="M757.078 68.676h-51.242V17.434h51.242z"/>
    <path fill="#e6e6e6" d="M582.673 85.757h-21.576V.353h21.576z"/>
    <path fill="#ccc" d="M582.673 23.727h-21.576v-9.89h21.576zm0 43.152h-21.576v-9.89h21.576z"/>
    <path fill="#e6e6e6" d="M615.936 85.757H594.36V.353h21.576z"/>
    <path fill="#ccc" d="M615.936 23.727H594.36v-9.89h21.576zm0 43.152H594.36v-9.89h21.576z"/>
    <path fill="#e6e6e6" d="m523.95 86.11-19.335-9.572L542.508 0l19.335 9.573z"/>
    <path fill="#ccc" d="m551.473 30.52-19.336-9.573 4.387-8.862 19.336 9.573zm-19.147 38.672-19.336-9.573 4.388-8.862 19.336 9.573z"/>
    <path fill="#e6e6e6" d="m731.379 53.453-10.865 18.819h43.461l-10.866-18.819-10.865-18.819z"/>
    <path fill="#e6e6e6" d="m712.5 57.049-10.865 18.819h43.461l-10.865-18.819-10.866-18.819z"/>
    <circle cx="715.724" cy="26.424" r="6.293" fill="#e6e6e6"/>
    <path fill="#e6e6e6" d="M802.027 364.445H464.906v-9.89h337.121z"/>
    <path fill="#e6e6e6" d="M774.158 357.253h-85.404v-85.404h85.404z"/>
    <path fill="#ccc" d="M757.078 340.172h-51.242V288.93h51.242z"/>
    <path fill="#e6e6e6" d="M582.673 357.253h-21.576v-85.404h21.576z"/>
    <path fill="#ccc" d="M582.673 295.222h-21.576v-9.889h21.576zm0 43.151h-21.576v-9.889h21.576z"/>
    <path fill="#e6e6e6" d="M615.936 357.253H594.36v-85.404h21.576z"/>
    <path fill="#ccc" d="M615.936 295.222H594.36v-9.889h21.576zm0 43.151H594.36v-9.889h21.576z"/>
    <path fill="#e6e6e6" d="m523.95 357.606-19.336-9.573 37.893-76.538 19.336 9.574z"/>
    <path fill="#ccc" d="m551.472 302.015-19.336-9.573 4.388-8.862 19.336 9.573zm-19.145 38.671-19.336-9.573 4.387-8.862 19.336 9.573z"/>
    <path fill="#e6e6e6" d="m731.379 324.948-10.865 18.82h43.461l-10.866-18.82-10.865-18.819z"/>
    <path fill="#e6e6e6" d="m712.5 328.544-10.865 18.82h43.461l-10.865-18.82-10.866-18.819z"/>
    <circle cx="715.724" cy="297.919" r="6.293" fill="#e6e6e6"/>
    <ellipse cx="397.129" cy="562.711" fill="#e6e6e6" rx="397.129" ry="28.205"/>
    <path fill="#ffa200" d="M707.387 578.506c-64.755-11.525-135.568-9.61-209.847 0 33.855-28.581 63.075-57.163 29.22-85.744 66.038 13.624 75.288 12.245 148.751 0-17.039 28.581 14.836 57.163 31.876 85.744z"/>
    <path d="M707.387 578.506c-64.755-11.525-135.568-9.61-209.847 0 33.855-28.581 63.075-57.163 29.22-85.744 66.038 13.624 75.288 12.245 148.751 0-17.039 28.581 14.836 57.163 31.876 85.744z" opacity=".2"/>
    <path fill="#ffa200" d="M691.592 566.312c-55.007-9.2-115.16-7.67-178.257 0 28.759-22.814 53.58-45.628 24.82-68.442 56.098 10.875 63.956 9.774 126.36 0-14.474 22.814 12.603 45.628 27.077 68.442z"/>
    <circle cx="670.64" cy="500.244" r="29.309" fill="#2f2e41"/>
    <path fill="#a0616a" d="m557.899 469.634 10.154 29.333-29.333 18.052-33.847-50.77h32.718z"/>
    <circle cx="595.13" cy="463.993" r="47.385" fill="#a0616a"/>
    <path fill="#2f2e41" d="M333.386 291.377S218.308 303.787 198 301.53c-20.308-2.257-29.334-4.513-29.334-4.513s-13.538 18.051-6.769 25.949a48.822 48.822 0 0 0 13.538 11.282s12.41-3.385 21.436 0c9.026 3.384 100.411 18.051 116.206 4.513 15.795-13.539 20.308-47.385 20.308-47.385z"/>
    <path fill="#2f2e41" d="M341.283 542.967s-75.59-21.436-89.128-116.205v-9.026s-14.957 26.239-20.308 31.59c-6.205 6.205-28.205 62.052-27.077 67.693 1.128 5.64 0 7.897 0 7.897l-32.718-3.384v-10.154s17.487-52.462 18.615-64.872c1.128-12.41 43.436-98.719 43.436-98.719s15.795-32.718 42.872 0c27.077 32.718 29.334 55.283 29.334 55.283l34.974 67.692zM172.052 293.633l-36.103-12.41s-33.846-24.82-25.949 0c7.898 24.82 44 78.975 54.154 73.334 10.154-5.641 22.366-19.644 19.645-21.668-2.722-2.025-20.773-16.691-11.747-39.256z"/>
    <path fill="#2f2e41" d="m176.416 504.717-29.144 14.233s-35.244 5.422-15.589 15.588c19.655 10.167 73.876 21.011 76.588 11.522 2.71-9.488 1.635-25.236-1.216-24.817-2.851.418-22.506 2.451-30.64-16.526z"/>
    <path fill="#575a89" d="M326.616 468.506s-14.666 63.18 10.154 76.718c24.82 13.538 198.565 15.795 212.103-9.026 13.539-24.82 6.77-24.82 6.77-24.82l-36.103-40.616 29.333-2.256s0-9.026-10.153-10.154c-10.154-1.128-41.744-12.41-68.821-4.513-27.077 7.897-42.872-15.795-42.872-15.795z"/>
    <path fill="#3f3d56" d="m443.95 265.428-136.513 5.641-19.18 104.924 132.001-15.795z"/>
    <path fill="#fff" d="m438.873 269.377-127.487 5.641-15.795 93.641 120.154-14.102z"/>
    <path fill="#b3b3b3" d="m288.257 375.993-2.256 4.512 36.103 100.411 3.395-1.298 1.117-6.599-33.846-95.898z"/>
    <path fill="#d0cde1" d="m420.258 360.198-132.001 14.666 36.103 104.924 136.513-20.308z"/>
    <path fill="#3f3d56" d="m405.591 360.198-99.282 11.282v5.641l100.41-11.282zm3.385 12.41-100.411 10.154 15.795 44 102.667-12.41z"/>
    <path fill="#a0616a" d="m437.18 444.813-3.384-9.025s-25.949-45.129-39.487-36.103c-13.539 9.026 28.205 53.026 28.205 53.026h13.539zm-85.743 6.77-3.385-13.539s-9.025-41.744 6.77-39.487c15.795 2.256 20.307 41.743 20.307 41.743l-1.128 9.026z"/>
    <path fill="#575a89" d="M378.514 445.942s-29.333-4.513-30.462 2.256c-1.128 6.77-6.769 108.308 21.436 111.693 28.206 3.384 168.103 18.05 153.437-16.924-14.667-34.974-37.231-30.461-37.231-30.461l-95.898 10.154zm63.744 34.41 24.82-21.436-29.897-20.872-19.744 15.231z"/>
    <path d="m401.642 516.455-14.666-37.231 4.512 42.872 77.847-4.513z" opacity=".2"/>
    <circle cx="618.521" cy="472.603" r="56.41" fill="#2f2e41"/>
    <path fill="#ffa200" d="m332.822 281.71-4.513 26.026 69.949-2.435 6.769-25.77z"/>
    <path fill="#e6e6e6" d="m311.386 318.239-1.128 4.164 106.051-3.385 1.128-4.513zm-2.257 11.282-1.128 4.164 106.052-3.385 1.128-4.513zm-1.128 9.025-1.128 4.164 106.051-3.384 1.129-4.513z"/>
  </g>
  <path fill="#ffa200" d="m112.58 154.389-15.68 4.71-76.167-.371-7.568-17.751 26.76-1.943-4.663-19.462 52.93-6.86-50.685-17.62 4.477-1.064 81.5 13.296-4.488 30.373z"/>
  <path fill="#ffa200" d="M21.901 151.293s4.673-.748 7.477 2.555c0 0-2.056 1.62-6.48-.623zm-.489-.073s-2.982 3.67-1.514 7.755c0 0 2.43-.973 2.695-5.926zm-2.68-6.033s1.87-3.43 9.346 1.37c0 0-.997 2.306-4.299 2.12-3.302-.188-4.174-1.683-5.047-3.49zm-.482-.247s-3.88-.445-4.255 8.434c0 0 2.459.51 4.205-2.299 1.747-2.808 1.03-4.384.05-6.135zm-2.26-7.083s2.182-6.044 10.095-1.745c0 0-1.807 5.546-9.284 3.801zm-2.43-9.035s4.113-6.106 11.403-.445c0 0-2.555 5.733-10.78 2.617zm-.872-8.598s4.798-5.61 12.017 0c0 0-4.549 4.922-12.017 1.433zm-.748-8.351s4.86-5.857 11.777-.312c0 0-5.483 5.172-11.776 1.682zm.437-7.415s5.118-7.54 11.59-2.43c0 0-5.484 6.48-11.59 3.863zm1.183-8.661s5.422-7.477 11.715-1.744c0 0-6.418 6.48-11.714 3.115zm1.808-7.741s6.417-7.028 12.016-4.228c0 0-6.687 7.463-12.297 6.092zm2.242-7.339s7.406-8.608 11.715-5.733c0 0-5.457 6.676-12.24 7.344zm3.239-8.512s6.482-7.027 11.217-5.283c0 0-5.545 7.29-12.088 7.477zm2.931-7.962s7.165-6.73 10.28-5.545c0 0-5.172 7.477-10.592 7.04zm2.865-7.353s6.169-8.04 9.536-7.416c0 0-3.741 7.167-9.536 8.233zm3.111-9.913s5.452-6.162 8.398-6.148c0 0-4.303 8.233-8.622 8.158zm1.843-6.6 5.267-12.835s.263 11.602-5.937 15.216zm2.138-14.155s.873-10.719.312-11.591c0 0 3.765 8.912-.347 16.326zM15.786 137.715s-5.46-3.385-8.997 4.895c0 0 4.86 3.227 9.64-2.784zm-2.401-9.237s-6.698-3.056-9.947 5.59c0 0 5.174 3.56 10.557-3.405zm-1.008-7.74s-4.798-5.61-12.017 0c0 0 4.549 4.922 12.017 1.433zm-.601-8.865S6.916 106.016 0 111.56c0 0 5.483 5.172 11.776 1.682z"/>
  <path fill="#ffa200" d="M12.377 104.672s-3.41-8.445-10.82-4.814c0 0 4.006 7.488 10.517 6.216zm1.613-8.917s-3.389-8.592-10.904-4.609c0 0 4.602 7.876 10.57 5.935zm2.1-7.657s-1.334-9.42-7.565-10.263c0 0 1.322 9.934 6.727 11.96zm1.679-7.364s-.521-11.348-5.672-11.745c0 0 .173 8.614 5.091 13.352zm3.614-8.847s-1.536-9.438-6.454-10.59c0 0 .61 9.139 5.966 12.906zm2.979-7.567s-.051-9.83-3.055-11.275c0 0-1.863 8.902 2.185 12.53zm2.513-7.54s-.421-10.123-3.532-11.55c0 0-1.064 8.011 3.066 12.213zm3.315-8.995s-.018-8.234-2.238-10.165c0 0-2.208 9.019 1.079 11.82z"/>
  <path fill="#ffa200" d="m31.338 39.972-2.16-13.703s-2.935 11.229 2.263 16.178zm.421-13.621s-5.545-9.212-5.432-10.236c0 0 .59 9.655 7.566 14.464zm.65-2.721s-5.234-13.085-7.602-14.144c0 0 7.477 3.8 8.038 13.77z"/>
  <path fill="#444053" d="m29.505 49.064-.358-.109c4.417-14.404 5.518-23.587 3.104-25.89l.256-.272c2.561 2.43 1.522 11.513-3.002 26.271z"/>
  <path fill="#444053" d="m17.341 82.79-.53-.189c.47-1.32.976-2.659 1.505-3.978 4.61-11.492 8.536-22.182 11.053-30.389l.46-.222c-2.52 8.222-6.377 19.322-10.992 30.829a87.808 87.808 0 0 0-1.496 3.95z"/>
  <path fill="#444053" d="M28.486 162.072c-.072-.078-7.23-8.14-12.222-21.903a81.04 81.04 0 0 1-4.822-25.096c-.342-10.71 1.905-22.67 5.755-33.533l.418.49c-8.643 24.382-5.21 45.275-.654 57.856 4.938 13.64 12.016 21.612 12.085 21.692z"/>
  <path fill="#d5d6db" d="M140.354 144.956s-5.045 6.157-1.039 15.465L99.038 177.89l-3.866.81-1.78-7.789 1.19-9.829v-5.372z"/>
  <use xlink:href="#a"/>
  <use xlink:href="#a"/>
  <path fill="#ffa200" d="M13.165 140.975s-5.214 9.878.794 19.001l82.669 17.914s-5.132-7.869.265-18.79z"/>
  <path d="M13.165 140.975s-5.214 9.878.794 19.001l82.669 17.914s-5.132-7.869.265-18.79z" opacity=".1"/>
  <path d="M15.628 144.4s-2.98 7.227 0 11.904" opacity=".1"/>
  <path fill="#ffa200" d="m96.628 177.89 46.152-19.694s2.581.556.912 2.448c-1.669 1.891-46.174 19.137-46.174 19.137l-83.559-19.805Z"/>
  <path d="m96.628 177.89 46.152-19.694s2.581.556.912 2.448c-1.669 1.891-46.174 19.137-46.174 19.137l-83.559-19.805Z" opacity=".1"/>
  <path d="M92.845 161.089s-4.45 5.34 0 13.351m1.583-6.782 19.963-6.66.07.212-19.962 6.66zm-.006 1.792 23.968-9.114.079.208-23.968 9.114zm.134 2.112 27.506-11.259.085.207-27.506 11.258zm.321 1.861 31.178-14.083.092.203-31.178 14.084zm.247.907 34.286-14.986.09.204-34.287 14.987zm.517 1.522 41.106-17.754.089.205-41.107 17.754z" opacity=".1"/>
  <path fill="#fff" d="M96.9 138.391 64.805 148.74l-30.93-6.676 39.164-8.234z" opacity=".3"/>
  <path fill="#ffa200" d="M142.78 142.581s2.025.817.836 2.079c-1.188 1.261-46.723 14.44-46.723 14.44z"/>
  <path fill="#d5d6db" d="M162.449 123.553s-5.043 6.155-1.037 15.466l-40.277 17.468-3.866.814-1.78-7.788 1.208-9.827v-5.378z"/>
  <path fill="#3a3768" d="m164.877 121.179-45.88 16.518-83.735-18.125 55.745-10.16zm-129.624-1.607s-5.216 9.878.792 19.002l82.668 17.913s-5.129-7.875.274-18.792z"/>
  <path d="M35.253 119.572s-5.216 9.878.792 19.002l82.668 17.913s-5.129-7.875.274-18.792l-26.142-5.66z" opacity=".1"/>
  <path d="M37.723 122.997s-2.978 7.225 0 11.905" opacity=".1"/>
  <path fill="#3a3768" d="m118.722 156.487 46.155-19.694s2.579.557.91 2.448c-1.67 1.892-46.175 19.137-46.175 19.137l-83.558-19.804Z"/>
  <path d="m118.722 156.487 46.155-19.694s2.579.557.91 2.448c-1.67 1.892-46.175 19.137-46.175 19.137l-83.558-19.804Z" opacity=".1"/>
  <path d="M114.94 139.686s-4.451 5.34 0 13.352m1.585-6.78 19.963-6.66.07.212-19.962 6.66zm-.003 1.791 23.967-9.114.08.208-23.968 9.114zm.13 2.109 27.506-11.259.084.206-27.506 11.259zm.324 1.862 31.178-14.084.091.203-31.177 14.084zm.244.904 34.285-14.986.09.204-34.287 14.986zm.518 1.522 41.107-17.754.088.204-41.106 17.755z" opacity=".1"/>
  <path fill="#fff" d="m118.996 116.988-32.093 10.348-30.93-6.676 39.164-8.233z" opacity=".45"/>
  <path fill="#3a3768" d="M164.877 121.179s2.022.816.836 2.076c-1.186 1.26-46.717 14.44-46.717 14.44z"/>
  <path fill="#d5d6db" d="M164.54 99.068s-5.044 11.053-1.039 20.362l-40.277 12.572-3.856.817-1.78-7.788 1.19-9.83v-5.378z"/>
  <path fill="#ffa200" d="m166.977 96.694-45.882 16.518L37.36 95.09l55.747-10.163z"/>
  <path fill="#ffa200" d="M37.36 95.087s-5.223 9.878.786 19.002l82.668 17.913s-5.131-7.875.272-18.79z"/>
  <path d="M37.36 95.087s-5.223 9.878.786 19.002l82.668 17.913s-5.131-7.875.272-18.79z" opacity=".1"/>
  <path d="M39.823 98.512s-2.98 7.228 0 11.905" opacity=".1"/>
  <path fill="#ffa200" d="m120.823 132.002 46.152-14.798s2.581.557.912 2.448c-1.669 1.892-46.174 14.242-46.174 14.242l-83.559-19.805Z"/>
  <path d="m120.823 132.002 46.152-14.798s2.581.557.912 2.448c-1.669 1.892-46.174 14.242-46.174 14.242l-83.559-19.805Z" opacity=".1"/>
  <path d="M117.04 115.202s-4.45 5.34 0 13.351m1.587-6.78 19.963-6.66.07.211-19.963 6.66zm-.005 1.792 23.967-9.114.08.208-23.968 9.114zm.128 2.11 27.506-11.258.084.206-27.505 11.259zm.326 1.859 31.178-14.083.092.203-31.178 14.084zm.245.907 34.286-14.986.09.204-34.286 14.986zm.519 1.523 41.106-17.754.088.205-41.106 17.754z" opacity=".1"/>
  <path fill="#fff" d="M121.095 92.504 89.002 102.85 58.07 96.176l39.164-8.234z" opacity=".3"/>
  <path fill="#ffa200" d="M166.975 96.694s2.025.817.837 2.078c-1.189 1.262-46.717 14.44-46.717 14.44z"/>
  <g transform="translate(-265.154 89.948) scale(.91747)">
    <circle cx="426.186" cy="-12.359" r="11.395" fill="#2f2e41"/>
    <path fill="#2f2e41" d="M420.993-3.416h3.462v6.202h-3.462zm6.924 0h3.462v6.202h-3.462z"/>
    <ellipse cx="423.878" cy="2.858" fill="#2f2e41" rx="2.885" ry="1.082"/>
    <ellipse cx="430.801" cy="2.714" fill="#2f2e41" rx="2.885" ry="1.082"/>
    <ellipse cx="321.812" cy="297.044" fill="#2f2e41" rx="6.322" ry="1.985" transform="rotate(-45.022)"/>
    <ellipse cx="305.251" cy="278.896" fill="#2f2e41" rx="1.985" ry="6.322" transform="rotate(-44.978)"/>
    <circle cx="425.706" cy="-13.974" r="3.894" fill="#fff"/>
    <circle cx="425.706" cy="-13.974" r="1.298" fill="#3f3d56"/>
    <path fill="#fff" d="M428.798-6.771a2.533 2.533 0 0 1-4.984.907v-.005c-.25-1.376.815-1.863 2.19-2.113 1.377-.249 2.545-.166 2.794 1.21z"/>
    <path fill="#d5d6db" d="M425.892-19.833a20.13 20.13 0 0 1-5.97-.912.67.67 0 0 1-.464-.634v-4.639a.662.662 0 0 1 .662-.661h11.641a.662.662 0 0 1 .662.661v4.636a.663.663 0 0 1-.47.635 20.951 20.951 0 0 1-6.06.914z"/>
    <path d="M432.29-26.018v.776l-6.3 2.209a.533.533 0 0 1-.362-.005l-6.037-2.268v-.711a.53.53 0 0 1 .529-.53h11.641a.53.53 0 0 1 .53.53z" opacity=".2"/>
    <path fill="#d5d6db" d="M425.815-23.93a.662.662 0 0 1-.233-.042l-9.022-3.388a.662.662 0 0 1 .018-1.245l8.49-2.904a.668.668 0 0 1 .422-.002l9.475 3.158a.661.661 0 0 1 .01 1.252l-8.941 3.134a.66.66 0 0 1-.219.037z"/>
    <path fill="#3f3d56" d="M425.412-28.002v.265h-7.806v3.571h-.264v-3.836z"/>
    <circle cx="417.474" cy="-23.901" r=".529" fill="#3f3d56"/>
    <circle cx="423.068" cy="-69.781" r="11.395" fill="#2f2e41"/>
    <path fill="#2f2e41" d="M417.876-60.838h3.462v6.202h-3.462zm6.923 0h3.462v6.202h-3.462z"/>
    <ellipse cx="420.761" cy="-54.564" fill="#2f2e41" rx="2.885" ry="1.082"/>
    <ellipse cx="427.684" cy="-54.708" fill="#2f2e41" rx="2.885" ry="1.082"/>
    <ellipse cx="356.975" cy="-260.69" fill="#2f2e41" rx="6.322" ry="1.985" transform="rotate(27.32)"/>
    <ellipse cx="-159.768" cy="381.761" fill="#2f2e41" rx="1.985" ry="6.322" transform="rotate(-122.013)"/>
    <circle cx="422.589" cy="-71.396" r="3.894" fill="#fff"/>
    <circle cx="422.589" cy="-71.396" r="1.298" fill="#3f3d56"/>
    <path fill="#fff" d="M428.432-64.104a5.082 2.457 0 0 1-10 .88l-.001-.004c-.5-1.336 1.635-1.808 4.397-2.05 2.762-.242 5.104-.16 5.604 1.174z"/>
    <path fill="#ffbe4c" d="M422.775-77.255a20.13 20.13 0 0 1-5.97-.912.67.67 0 0 1-.464-.634v-4.639a.662.662 0 0 1 .662-.661h11.641a.662.662 0 0 1 .662.661v4.636a.663.663 0 0 1-.471.635 20.951 20.951 0 0 1-6.06.914z"/>
    <path d="M429.173-83.44v.776l-6.3 2.209a.533.533 0 0 1-.362-.005l-6.038-2.268v-.711a.53.53 0 0 1 .53-.53h11.641a.53.53 0 0 1 .53.53z" opacity=".2"/>
    <path fill="#ffbe4c" d="M422.697-81.352a.662.662 0 0 1-.232-.042l-9.023-3.387a.662.662 0 0 1 .019-1.246l8.489-2.904a.668.668 0 0 1 .423-.002l9.475 3.159a.661.661 0 0 1 .01 1.251l-8.942 3.134a.66.66 0 0 1-.218.037z"/>
    <path fill="#3f3d56" d="M422.294-85.16h-7.805v3.573h-.265v-3.837h8.07z"/>
    <circle cx="414.357" cy="-81.323" r=".529" fill="#3f3d56"/>
    <path d="m386.01-59.027 6.57-5.939s25.475-1.67 26.529 6.99c0 0 9.031-10.268 28.025-7.981l8.036 6.4-22.212 9.747-21.585 7.487-15.898-7.116z" opacity=".1"/>
    <path fill="#d5d6db" d="m386.01-58.656 6.57-5.939s25.475-1.67 26.529 6.99c0 0 9.031-10.267 28.025-7.98l8.036 6.398-22.212 9.748-21.585 7.487-15.898-7.116z"/>
    <path d="m416.819-21.596-1.337-34.621-.026-.583-32.353-1.113 2.907 34.77z" opacity=".1"/>
    <path fill="#ffa200" d="m416.819-22.338-1.337-34.621-.026-.583-32.353-1.114 2.907 34.77z"/>
    <path d="m424.8-18.964 31.057-4.488.724-35.204-31.782 4.766z" opacity=".1"/>
    <path fill="#ffa200" d="m424.8-19.707 31.057-4.487.724-35.204-31.782 4.766z"/>
    <path fill="#fff" d="m432.294-43.118 16.781-1.833.011-5.925-17.167 1.908z" opacity=".3"/>
    <path d="M424.8-53.893a10.69 10.69 0 0 1-9.321-2.324l1.34 34.617s3.155 3.415 7.98 2.636z" opacity=".1"/>
    <path fill="#ffa200" d="M424.8-54.636a10.69 10.69 0 0 1-9.321-2.323l1.34 34.617s3.155 3.415 7.98 2.635z"/>
    <path d="M424.8-54.636a10.69 10.69 0 0 1-9.321-2.323l1.34 34.617s3.155 3.415 7.98 2.635zm.742-3.901s12.928-3.953 16.299-3.396m-30.761 1.67s-12.531-2.97-14.625-2.127m37.238 4.347s8.645-3.17 11.77-1.663" opacity=".1"/>
  </g>
</svg>
