<svg xmlns="http://www.w3.org/2000/svg" viewBox="0 0 349.258 221.658">
  <g transform="translate(406.503 -51.839) scale(.85364)">
    <path fill="#e6e6e6" d="m-284.691 180.363-.06-.001h-3.887v-.573h3.901c.09.003 1.933.055 3.631-2.005 2.53-3.07 4.609-10.672.138-29.448-6.01-25.246-.997-47.55 1.437-55.966a2.795 2.795 0 0 0-2.689-3.569h-58.053a2.807 2.807 0 0 0-2.264 1.153c-1.031 1.418-2.446 4.143-3.332 9.071l-.564-.101c.905-5.035 2.366-7.84 3.433-9.307a3.382 3.382 0 0 1 2.727-1.389h58.053a3.368 3.368 0 0 1 3.24 4.3c-2.422 8.375-7.41 30.562-1.43 55.676 4.533 19.04 2.354 26.805-.273 29.967-1.732 2.086-3.64 2.192-4.008 2.192z"/>
    <path fill="#ccc" d="m-295.151 190.823-.06-.001h-3.887v-.573h3.901c.091.003 1.933.055 3.631-2.005 2.53-3.07 4.609-10.672.138-29.448-6.01-25.246-.997-47.55 1.437-55.966a2.795 2.795 0 0 0-2.689-3.569h-58.053a2.807 2.807 0 0 0-2.264 1.153c-1.031 1.418-2.446 4.143-3.332 9.071l-.564-.101c.905-5.035 2.366-7.84 3.433-9.307a3.382 3.382 0 0 1 2.727-1.389h58.053a3.368 3.368 0 0 1 3.24 4.3c-2.422 8.375-7.41 30.562-1.43 55.676 4.533 19.04 2.354 26.805-.273 29.967-1.732 2.086-3.64 2.192-4.008 2.192z"/>
    <path fill="#3f3d56" d="m-305.611 201.283-.06-.001h-57.158a3.367 3.367 0 0 1-3.132-4.615c2.074-5.181 4.866-17.612.267-42.653-5.431-29.57-.569-40.255 1.774-43.477a3.382 3.382 0 0 1 2.727-1.389h58.053a3.368 3.368 0 0 1 3.24 4.3c-2.422 8.374-7.41 30.562-1.43 55.676 4.533 19.04 2.354 26.805-.273 29.967-1.732 2.086-3.64 2.192-4.008 2.192zm-55.582-91.562a2.807 2.807 0 0 0-2.264 1.153c-2.299 3.162-7.064 13.686-1.673 43.036 4.393 23.922 2.262 36.571-.299 42.97a2.747 2.747 0 0 0 .28 2.598 2.798 2.798 0 0 0 2.32 1.23h57.172c.09.005 1.933.056 3.631-2.004 2.53-3.071 4.609-10.672.138-29.448-6.01-25.246-.997-47.55 1.437-55.966a2.795 2.795 0 0 0-2.689-3.569z"/>
    <path fill="#ffa200" d="M-313.014 134.94h-45.566a2.293 2.293 0 1 1 0-4.585h45.566a2.293 2.293 0 0 1 0 4.585z"/>
    <path fill="#ccc" d="M-313.014 144.683h-45.566a2.293 2.293 0 1 1 0-4.585h45.566a2.293 2.293 0 0 1 0 4.585zm0 9.744h-45.566a2.293 2.293 0 1 1 0-4.585h45.566a2.293 2.293 0 0 1 0 4.585zm3.439 9.743h-45.566a2.293 2.293 0 1 1 0-4.585h45.566a2.293 2.293 0 0 1 0 4.585zm0 9.744h-45.566a2.293 2.293 0 1 1 0-4.585h45.566a2.293 2.293 0 0 1 0 4.585z"/>
    <path fill="#ffa200" d="M-337.086 125.196h-21.494a2.293 2.293 0 1 1 0-4.585h21.494a2.293 2.293 0 0 1 0 4.585z"/>
    <path fill="#3f3d56" d="M-339.862 189.625c.463-1.96 2.636-2.601 4.413-2.53a18.836 18.836 0 0 1 3.327.527c1.142.256 2.273.558 3.398.879 2.063.588 4.104 1.3 6.201 1.76 1.746.382 3.643.607 5.384.078 1.673-.508 3.093-1.755 3.548-3.48.43-1.625-.16-3.402-1.735-4.145-1.436-.677-3.25-.333-3.962 1.199-.803 1.727 0 3.61 1.27 4.86a14.234 14.234 0 0 0 2.36 1.793 8.791 8.791 0 0 0 2.828 1.266c1.657.354 3.632-.167 4.487-1.751a2.96 2.96 0 0 0 .336-1.157c.05-.55-.81-.547-.86 0-.145 1.577-1.992 2.316-3.373 2.143a6.856 6.856 0 0 1-2.615-1.015 15.324 15.324 0 0 1-2.166-1.529c-1.171-1.013-2.27-2.682-1.483-4.264.641-1.288 2.311-1.275 3.327-.444 1.23 1.006 1.01 2.832.2 4.027-.9 1.323-2.527 1.877-4.063 1.937-1.668.065-3.322-.318-4.916-.77-1.981-.563-3.943-1.193-5.933-1.722a44.416 44.416 0 0 0-3.42-.783 11.284 11.284 0 0 0-3.315-.23c-1.794.207-3.625 1.251-4.067 3.122-.127.538.702.768.83.229z"/>
    <g fill="#f1f1f1">
      <path d="M-118.333 285.018a25.419 25.419 0 0 1-1.188 7.027l-.05.158h-4.432c.005-.048.01-.1.014-.158.295-3.397-1.392-23.824-3.43-27.359.18.287 9.43 9.54 9.086 20.332z" data-name="Path 133"/>
      <path d="M-118.666 292.045a5.252 5.252 0 0 1-.115.158h-3.324l.088-.158a172.13 172.13 0 0 0 3.684-7.027c1.62-3.3 3.109-6.727 2.983-7.968.04.28 1.161 8.807-3.316 14.995z" data-name="Path 134"/>
    </g>
    <g fill="#f1f1f1">
      <path d="M-429.755 285.336a23.807 23.807 0 0 0 1.112 6.582l.048.147h4.15l-.013-.147c-.277-3.182 1.304-22.314 3.212-25.625-.167.269-8.831 8.935-8.51 19.043z" data-name="Path 133"/>
      <path d="M-429.444 291.918c.035.049.07.098.108.147h3.114l-.083-.147a161.218 161.218 0 0 1-3.45-6.582c-1.518-3.092-2.912-6.3-2.795-7.462-.036.261-1.087 8.248 3.106 14.044z" data-name="Path 134"/>
    </g>
    <path fill="#f2f2f2" d="M-225.36 256.79v34.397h-86.175c-9.818 0-17.806-7.716-17.806-17.198 0-9.483 7.988-17.198 17.806-17.198z"/>
    <path fill="#ccc" d="M-223.243 290.922a1.323 1.323 0 0 1-1.323 1.323h-88.503a18.124 18.124 0 1 1 0-36.248h88.503a1.323 1.323 0 0 1 0 2.646h-88.503a15.478 15.478 0 1 0 0 30.956h88.503a1.323 1.323 0 0 1 1.323 1.323z"/>
    <path fill="#ccc" d="M-225.36 264.728h-92.604a.265.265 0 1 1 0-.529h92.604a.265.265 0 0 1 0 .53zm0 6.35h-92.604a.265.265 0 1 1 0-.529h92.604a.265.265 0 0 1 0 .53zm0 6.35h-92.604a.265.265 0 1 1 0-.529h92.604a.265.265 0 0 1 0 .53zm0 6.35h-92.604a.265.265 0 1 1 0-.529h92.604a.265.265 0 0 1 0 .53z"/>
    <path fill="#ffb8b8" d="M-133.44 270.49v17.044h-4.42l-2.1-17.045z"/>
    <path fill="#2f2e41" d="M-141.016 286.27h8.522v5.366h-13.888a5.366 5.366 0 0 1 5.366-5.365z"/>
    <path fill="#ffb8b8" d="m-178.583 270.49-.002 17.044h-4.418l-2.102-17.045z"/>
    <path fill="#2f2e41" d="M-186.16 286.27h8.522v5.366h-13.887a5.366 5.366 0 0 1 5.365-5.365zm22.335-125.163v-1.933a12.465 12.465 0 0 1 12.465-12.465 12.465 12.465 0 0 1 12.465 12.465v1.933a8.987 8.987 0 0 1-8.986 8.986h-6.958a8.987 8.987 0 0 1-8.986-8.986z"/>
    <circle cx="-151.36" cy="161.265" r="9.493" fill="#ffb8b8"/>
    <path fill="#ffb8b8" d="M-202.998 193.892a3.624 3.624 0 0 1 5.52.649l8.138-1.54 2.142 4.718-11.523 2.012a3.644 3.644 0 0 1-4.277-5.839z"/>
    <path fill="#ccc" d="m-158.761 176.737.106.161-13.345 8.791-22.518 7.19a1.356 1.356 0 0 0-.932 1.446l.491 4.23a1.353 1.353 0 0 0 1.628 1.168l21.192-4.543a7.655 7.655 0 0 0 2.85-1.255l14.992-10.666a3.873 3.873 0 0 0 1.607-3.459 3.856 3.856 0 0 0-5.965-2.902z"/>
    <path fill="#2f2e41" d="M-137.78 282.697a1.746 1.746 0 0 1-1.6-1.044l-20.257-50.055a.58.58 0 0 0-1.086.06l-16.527 48.731a1.74 1.74 0 0 1-2.273 1.118l-5.542-2.079a1.735 1.735 0 0 1-1.12-1.432c-2.493-21.72 19.249-76.542 19.469-77.093l.06-.153 19.82 4.384.041.045c7.908 8.626 14.407 63.035 15.63 73.854a1.731 1.731 0 0 1-1.148 1.835l-4.892 1.73a1.723 1.723 0 0 1-.575.099z"/>
    <path fill="#ccc" d="M-154.857 206.899c-4.802 0-10.156-.958-11.804-4.91l-.038-.09.052-.084c1.3-2.134 3.02-5.775 2.096-6.458-1.82-1.346-2.704-3.56-2.626-6.581.17-6.558 4.639-12.38 11.12-14.488a49.337 49.337 0 0 1 5.512-1.42 9.385 9.385 0 0 1 7.782 1.922 9.48 9.48 0 0 1 3.516 7.294c.067 7.008-1.011 16.769-6.537 23.47a1.72 1.72 0 0 1-1.018.592 47.242 47.242 0 0 1-8.055.753z"/>
    <path fill="#ffb8b8" d="M-156.644 206.636a3.694 3.694 0 0 1 4.514-2.576 3.636 3.636 0 0 1 .56.208l6.18-5.624 4.297 2.895-8.837 7.82a3.687 3.687 0 0 1-4.18 1.773 3.631 3.631 0 0 1-2.534-4.496z"/>
    <path fill="#ccc" d="M-146.37 206.708a1.735 1.735 0 0 1-1.1-.393l-2.436-1.99a1.74 1.74 0 0 1 .042-2.728l10.22-7.838a.581.581 0 0 0 .11-.81l-6.308-8.34a5.135 5.135 0 0 1 .343-6.615 5.12 5.12 0 0 1 6.914-.553l.04.042 6.587 9.432a5.872 5.872 0 0 1-.14 9.349l-13.236 10.103a1.742 1.742 0 0 1-1.036.34z"/>
    <path fill="#2f2e41" d="M-159.769 158.594v-4.71l8.41-3.672 8.017 3.672v4.71a.773.773 0 0 1-.773.773h-14.88a.773.773 0 0 1-.774-.773z"/>
    <path fill="#2f2e41" d="M-151.746 147.333c-1.236-3.957 1.36-8.492 5.2-10.059 3.838-1.566 8.43-.471 11.67 2.117 3.239 2.588 5.248 6.464 6.313 10.471 1.065 4.007 1.267 8.185 1.464 12.327 4.716.866 7.925 6.46 6.29 10.969-1.633 4.508-7.68 6.748-11.857 4.391-4.176-2.356-5.386-8.69-2.372-12.42a10.194 10.194 0 0 0-11.861-15.812c-2.325.972-5.241-1.554-4.847-1.984z"/>
    <path fill="#f2f2f2" d="m-158.76 263.265-21.58 26.784-67.103-54.068c-7.645-6.16-9.025-17.18-3.075-24.564s17.01-8.38 24.656-2.22z"/>
    <path fill="#ffa200" d="M-178.526 291.17a1.323 1.323 0 0 1-1.86.2l-68.916-55.528a18.124 18.124 0 0 1 22.743-28.225l68.915 55.528a1.323 1.323 0 1 1-1.66 2.06l-68.915-55.528a15.478 15.478 0 1 0-19.423 24.105l68.916 55.529a1.323 1.323 0 0 1 .2 1.86z"/>
    <path fill="#ccc" d="m-163.74 269.446-72.109-58.102a.265.265 0 1 1 .332-.412l72.109 58.102a.265.265 0 1 1-.332.412zm-3.984 4.944-72.11-58.101a.265.265 0 0 1 .333-.412l72.109 58.102a.265.265 0 1 1-.332.412zm-3.984 4.945-72.11-58.101a.265.265 0 0 1 .333-.412l72.109 58.101a.265.265 0 1 1-.332.412zm-3.984 4.945-72.11-58.102a.265.265 0 1 1 .333-.412l72.109 58.102a.265.265 0 1 1-.332.412zm58.614 8.294H-435.83a.43.33 0 0 1 0-.658h318.752a.43.33 0 0 1 0 .658z"/>
    <path fill="#ffa200" d="m-308.881 188.188 6.739-.094 19.404 8.455a2.743 2.743 0 0 1 1.304 1.175 2.775 2.775 0 0 1 .258 2.133 2.774 2.774 0 0 1-1.655 1.824 2.87 2.87 0 0 1-.531.15 2.748 2.748 0 0 1-1.595-.188l-19.43-8.467z"/>
    <path fill="#3f3d56" d="m-281.21 198.898-21.063-9.178.352-.808 20.372 8.877a2.631 2.631 0 0 1 .34 1.109zm-2.176 2.803-20.261-8.828.352-.808 21.02 9.16a2.645 2.645 0 0 1-.605.333 2.733 2.733 0 0 1-.506.143zm1.704-1.084-21.296-9.28.352-.807 21.323 9.29a2.563 2.563 0 0 1-.119.333 2.698 2.698 0 0 1-.26.464zm-26.004-11.299-.902-1.002 2.232-.035c-.105.367-.626.787-1.33 1.037z"/>
    <circle cx="271.678" cy="208.393" r="11.395" fill="#2f2e41" transform="scale(-1 1)"/>
    <path fill="#2f2e41" d="M-266.486 217.335h-3.462v6.202h3.462zm-6.923 0h-3.462v6.202h3.462z"/>
    <ellipse cx="269.37" cy="223.61" fill="#2f2e41" rx="2.885" ry="1.082" transform="scale(-1 1)"/>
    <ellipse cx="276.294" cy="223.466" fill="#2f2e41" rx="2.885" ry="1.082" transform="scale(-1 1)"/>
    <ellipse cx="56.82" cy="342.661" fill="#2f2e41" rx="6.322" ry="1.985" transform="scale(-1 1) rotate(-45.022)"/>
    <ellipse cx="-26.62" cy="334.868" fill="#2f2e41" rx="6.322" ry="1.985" transform="scale(-1 1) rotate(-55.225)"/>
    <circle cx="274.651" cy="206.203" r="3.894" fill="#fff" transform="scale(-1 1)"/>
    <circle cx="275.974" cy="205.311" r="1.298" fill="#3f3d56" transform="scale(-1 1)"/>
    <path fill="#fff" d="M-275.868 213.98c-.382 1.377 1.01 2.695 3.108 2.946 2.099.25 3.099-.6 4.492-2.038l.553-1.2c.38-1.377-1.918.373-4.017.124-2.099-.25-3.756-1.208-4.136.168z"/>
    <path fill="#ffa200" d="M-267.691 201.686a20.131 20.131 0 0 0 5.88 1.381.67.67 0 0 0 .666-.415l1.73-4.304a.662.662 0 0 0-.367-.86l-10.8-4.343a.662.662 0 0 0-.861.367l-1.73 4.3a.663.663 0 0 0 .2.765 20.951 20.951 0 0 0 5.282 3.11z"/>
    <path d="m-271.32 193.561-.29.72 5.021 4.4a.533.533 0 0 0 .338.13l6.448.148.266-.66a.53.53 0 0 0-.294-.688l-10.801-4.343a.53.53 0 0 0-.688.293z" opacity=".2"/>
    <path fill="#ffa200" d="M-266.09 197.914a.662.662 0 0 0 .23.048l9.636.223a.662.662 0 0 0 .447-1.162l-6.793-5.862a.668.668 0 0 0-.392-.16l-9.969-.604a.661.661 0 0 0-.476 1.158l7.127 6.243a.66.66 0 0 0 .19.116z"/>
    <path fill="#3f3d56" d="m-264.198 194.286-.098.246 7.242 2.912-1.333 3.314.245.098 1.431-3.559z"/>
    <circle cx="258.363" cy="201.053" r=".529" fill="#3f3d56" transform="scale(-1 1)"/>
    <circle cx="-272.628" cy="241.164" r="10.454" fill="#2f2e41"/>
    <path fill="#2f2e41" d="M-277.392 249.369h3.176v5.69h-3.176zm6.352 0h3.176v5.69h-3.176z"/>
    <ellipse cx="-276.333" cy="255.126" fill="#2f2e41" rx="2.647" ry=".993"/>
    <ellipse cx="-268.394" cy="254.993" fill="#2f2e41" rx="2.647" ry=".993"/>
    <ellipse cx="-352.447" cy="-18.44" fill="#2f2e41" rx="5.8" ry="1.821" transform="rotate(-45.022)"/>
    <ellipse cx="-51.029" cy="-371.453" fill="#2f2e41" rx="1.821" ry="5.8" transform="rotate(-122.781)"/>
    <circle cx="-273.068" cy="239.683" r="3.573" fill="#fff"/>
    <circle cx="-273.068" cy="238.095" r="1.191" fill="#3f3d56"/>
    <path fill="#fff" d="M-269.296 246.174a3.64 1.906 0 0 1-7.163.683l-.001-.004c-.358-1.036 1.171-1.402 3.15-1.59 1.978-.187 3.656-.125 4.014.911z"/>
    <path fill="#d5d6db" d="M-272.897 234.307a18.47 18.47 0 0 1-5.478-.837.614.614 0 0 1-.425-.582v-4.255a.608.608 0 0 1 .606-.607h10.681a.608.608 0 0 1 .607.607v4.253a.608.608 0 0 1-.432.582 19.222 19.222 0 0 1-5.56.839z"/>
    <path d="M-267.027 228.633v.711l-5.78 2.027a.49.49 0 0 1-.333-.005l-5.539-2.08v-.653a.487.487 0 0 1 .485-.486h10.681a.487.487 0 0 1 .486.485z" opacity=".2"/>
    <path fill="#d5d6db" d="M-272.969 230.548a.607.607 0 0 1-.213-.038l-8.278-3.108a.607.607 0 0 1 .017-1.143l7.789-2.664a.613.613 0 0 1 .388-.002l8.693 2.897a.607.607 0 0 1 .009 1.149l-8.204 2.875a.606.606 0 0 1-.2.034z"/>
    <path fill="#3f3d56" d="M-280.5 230.332h-.242v-3.52h7.403v.243h-7.16z"/>
    <circle cx="-280.621" cy="230.575" r=".485" fill="#3f3d56"/>
    <g transform="translate(-627.358 159.224)">
      <circle cx="257.531" cy="86.933" r="10.454" fill="#2f2e41"/>
      <path fill="#2f2e41" d="M252.767 95.137h3.176v5.69h-3.176zm6.353 0h3.176v5.69h-3.176z"/>
      <ellipse cx="255.414" cy="100.894" fill="#2f2e41" rx="2.647" ry=".993"/>
      <ellipse cx="261.766" cy="100.762" fill="#2f2e41" rx="2.647" ry=".993"/>
      <ellipse cx="280.744" cy="-45.109" fill="#2f2e41" rx="5.8" ry="1.821" transform="rotate(27.32)"/>
      <ellipse cx="-205.336" cy="159.474" fill="#2f2e41" rx="1.821" ry="5.8" transform="rotate(-122.013)"/>
      <circle cx="257.092" cy="85.451" r="3.573" fill="#fff"/>
      <circle cx="257.092" cy="85.451" r="1.191" fill="#3f3d56"/>
      <path fill="#fff" d="M262.452 92.141a4.663 2.254 0 0 1-9.175.808v-.005c-.46-1.225 1.5-1.658 4.034-1.88 2.534-.222 4.683-.148 5.142 1.077z"/>
      <path fill="#ffbe4c" d="M257.262 80.075a18.47 18.47 0 0 1-5.477-.836.614.614 0 0 1-.426-.582V74.4a.608.608 0 0 1 .607-.607h10.681a.608.608 0 0 1 .607.607v4.253a.608.608 0 0 1-.432.583 19.222 19.222 0 0 1-5.56.838z"/>
      <path d="M263.133 74.401v.711l-5.78 2.027a.49.49 0 0 1-.333-.004l-5.54-2.08v-.653a.487.487 0 0 1 .486-.486h10.681a.487.487 0 0 1 .486.485z" opacity=".2"/>
      <path fill="#ffbe4c" d="M257.191 76.317a.607.607 0 0 1-.213-.039L248.7 73.17a.607.607 0 0 1 .017-1.142l7.788-2.665a.613.613 0 0 1 .389-.002l8.692 2.898a.607.607 0 0 1 .01 1.148l-8.204 2.876a.606.606 0 0 1-.2.034z"/>
      <path fill="#3f3d56" d="M249.66 72.823V76.1h-.243v-3.52h7.404v.243z"/>
      <circle cx="249.539" cy="76.343" r=".485" fill="#3f3d56"/>
      <path d="m223.531 96.8 6.028-5.45s23.373-1.532 24.34 6.413c0 0 8.286-9.42 25.712-7.322l7.373 5.871-20.379 8.943-19.803 6.87-14.586-6.53z" opacity=".1"/>
      <path fill="#d5d6db" d="m223.531 97.14 6.028-5.45s23.373-1.532 24.34 6.413c0 0 8.286-9.42 25.712-7.322l7.373 5.872-20.379 8.943-19.803 6.869-14.586-6.529z"/>
      <path d="m250.548 98.842-29.683-1.021 2.666 31.9 28.267 1.42-1.226-31.764z" opacity=".1"/>
      <path fill="#ffa200" d="m250.548 98.161-29.683-1.021 2.666 31.9 28.267 1.42-1.226-31.764z"/>
      <path d="M259.12 101.512v32.043l28.494-4.117.664-32.298z" opacity=".1"/>
      <path fill="#ffa200" d="M259.12 100.831v32.043l28.494-4.117.664-32.298z"/>
      <path fill="#fff" d="m265.651 106.028.344 5.367 15.397-1.682.01-5.435z" opacity=".3"/>
      <path d="M259.12 101.509a9.808 9.808 0 0 1-8.552-2.132l1.23 31.76s2.894 3.134 7.322 2.418z" opacity=".1"/>
      <path fill="#ffa200" d="M259.12 100.828a9.808 9.808 0 0 1-8.552-2.132l1.23 31.76s2.894 3.133 7.322 2.418z"/>
      <path d="M259.12 100.828a9.808 9.808 0 0 1-8.552-2.132l1.23 31.76s2.894 3.133 7.322 2.418zm.68-3.579s11.862-3.627 14.955-3.116m-28.222 1.532s-11.498-2.724-13.418-1.951m34.165 3.988s7.93-2.909 10.798-1.526" opacity=".1"/>
    </g>
    <g stroke-linejoin="round" stroke-miterlimit="100000" stroke-width=".613">
      <path fill="#333" d="m17.453 8.721-1.907 1.907 1.94 1.94h.283c.947 0 1.79.224 2.53.671a4.447 4.447 0 0 1 1.73 1.833c.43.791.645 1.703.645 2.736 0 1.015-.198 1.919-.594 2.71-.396.792-.946 1.403-1.652 1.834a4.283 4.283 0 0 1-.798.378c.195.207 1.746 1.536 1.746 1.536l-1.24 2.326c.957-.188 1.846-.49 2.667-.91 1.497-.758 2.65-1.824 3.46-3.201.825-1.377 1.238-2.952 1.238-4.724 0-1.773-.404-3.339-1.213-4.699-.809-1.376-1.945-2.444-3.408-3.2-1.445-.758-3.115-1.137-5.008-1.137Z" transform="translate(-283.36 97.323) scale(2.40635)"/>
      <path fill="#ffa200" d="M10.076 8.721v18.097h7.276c.552-.002.786-.101.786-.101l1.266-1.98-2.026-1.74H14.8v-10.43l-.9-.9-1.04-1.04 1.907-1.906z" transform="translate(-283.36 97.323) scale(2.40635)"/>
    </g>
  </g>
</svg>
