<?xml version="1.0" encoding="UTF-8" standalone="no"?>
<!-- Created with Inkscape (http://www.inkscape.org/) -->

<svg
   width="149.64867mm"
   height="89.86837mm"
   viewBox="0 0 149.64867 89.86837"
   version="1.1"
   id="svg1126"
   inkscape:version="1.1.1 (c3084ef, 2021-09-22)"
   sodipodi:docname="console.svg"
   xmlns:inkscape="http://www.inkscape.org/namespaces/inkscape"
   xmlns:sodipodi="http://sodipodi.sourceforge.net/DTD/sodipodi-0.dtd"
   xmlns="http://www.w3.org/2000/svg"
   xmlns:svg="http://www.w3.org/2000/svg">
  <sodipodi:namedview
     id="namedview1128"
     pagecolor="#ffffff"
     bordercolor="#666666"
     borderopacity="1.0"
     inkscape:pageshadow="2"
     inkscape:pageopacity="0.0"
     inkscape:pagecheckerboard="0"
     inkscape:document-units="mm"
     showgrid="false"
     inkscape:zoom="0.69061288"
     inkscape:cx="-166.51876"
     inkscape:cy="64.43552"
     inkscape:window-width="2497"
     inkscape:window-height="1241"
     inkscape:window-x="0"
     inkscape:window-y="25"
     inkscape:window-maximized="0"
     inkscape:current-layer="layer1" />
  <defs
     id="defs1123" />
  <g
     inkscape:label="Layer 1"
     inkscape:groupmode="layer"
     id="layer1"
     transform="translate(-44.346944,-76.513548)">
    <g
       id="g871"
       transform="matrix(0.68348678,0,0,0.68348678,14.036395,24.21755)">
      <path
         d="M 260.23663,76.513547 H 47.40611 a 3.0625657,2.4636872 0 0 0 -3.059167,2.460948 V 205.53775 a 3.0625657,2.4636872 0 0 0 3.059167,2.46096 h 212.83052 a 3.0625657,2.4636872 0 0 0 3.05919,-2.46096 V 78.974495 a 3.0625657,2.4636872 0 0 0 -3.05919,-2.460948 z m 2.18513,129.024203 a 2.1859924,1.758526 0 0 1 -2.18513,1.75782 H 47.40611 a 2.1859924,1.758526 0 0 1 -2.185118,-1.75782 V 78.974495 a 2.1859924,1.758526 0 0 1 2.185118,-1.757814 h 212.83052 a 2.1859924,1.758526 0 0 1 2.18513,1.757814 z"
         fill="#3f3d56"
         id="path1215"
         style="stroke-width:0.391971" />
      <rect
         x="44.78397"
         y="86.371391"
         width="218.07481"
         height="0.70312911"
         fill="#3f3d56"
         id="rect1217"
         style="stroke-width:0.391971" />
      <circle
         cx="49.61356"
         cy="81.346909"
         fill="#3f3d56"
         id="circle1219"
         style="stroke-width:0.401758"
         r="2.4105484" />
      <circle
         cx="56.543884"
         cy="81.346909"
         fill="#3f3d56"
         id="circle1221"
         style="stroke-width:0.401758"
         r="2.4105484" />
      <circle
         cx="63.474213"
         cy="81.346909"
         fill="#3f3d56"
         id="circle1223"
         style="stroke-width:0.401758"
         r="2.4105484" />
      <path
         style="opacity:0.897106;fill:#000000;fill-opacity:0.315789;stroke-width:1.49323;stroke-dasharray:5.97286, 1.49323;stroke-opacity:0.251012"
         d="m 46.06673,206.5882 c -0.530233,-0.42654 -0.690961,-14.37996 -0.690961,-59.98516 V 87.17374 H 153.62672 261.87766 v 59.70399 c 0,54.01494 -0.0868,59.73079 -0.91079,59.98516 -0.50094,0.15464 -48.90292,0.28115 -107.55998,0.28115 -82.181638,0 -106.807718,-0.12756 -107.34016,-0.55584 z"
         id="path1735" />
      <path
         style="opacity:0.897106;fill:#000000;fill-opacity:1;stroke:none;stroke-width:1.50433;stroke-dasharray:6.01733, 1.50433;stroke-opacity:0.251012"
         d="m 85.849033,207.38395 -40.467271,-0.0464 -0.690716,-4.73921 0.186045,-8.97108 -0.08794,-7.00943 -0.08794,-7.00944 c -0.193475,-15.42077 0.146295,-42.99057 0.100801,-60.66019 l -0.0827,-32.12653 H 153.71674 262.71417 l 0.5376,60.69794 c 0.073,8.24039 -0.12306,16.11455 -0.19302,23.29293 -0.07,7.17836 -0.14419,13.661 -0.21794,19.1186 -0.0738,5.45759 -0.14734,9.89012 -0.21613,12.96827 -0.0688,3.07814 -0.39089,4.38665 -0.44567,4.42666 -0.54997,0.40161 -127.13156,0.34335 -176.329974,0.0578 z"
         id="path1996"
         sodipodi:nodetypes="cccccsscccssssssc" />
    </g>
  </g>
</svg>
